<?xml version='1.0' encoding='utf-8'?>
<mlt LC_NUMERIC="C" producer="main_bin" version="7.3.0" root="C:/Users/Ichsan/tugasakhir/videoaug">
 <profile frame_rate_num="25" sample_aspect_num="1" display_aspect_den="4" colorspace="601" progressive="1" description="180x144 25.00fps" display_aspect_num="5" frame_rate_den="1" width="180" height="144" sample_aspect_den="1"/>
 <producer id="producer0" in="00:00:00.000" out="00:00:03.320">
  <property name="length">84</property>
  <property name="eof">pause</property>
  <property name="resource">C:/Users/Ichsan/tugasakhir/dataset-traintest/train/bend/0.avi</property>
  <property name="audio_index">-1</property>
  <property name="video_index">0</property>
  <property name="mute_on_pause">0</property>
  <property name="mlt_service">avformat-novalidate</property>
  <property name="seekable">1</property>
  <property name="aspect_ratio">1</property>
  <property name="kdenlive:clipname"/>
  <property name="kdenlive:folderid">3</property>
  <property name="kdenlive:id">16</property>
  <property name="kdenlive:file_size">6536192</property>
  <property name="kdenlive:file_hash">3003ded8da8988708c3dd7d6a8e7e17f</property>
  <property name="meta.media.nb_streams">1</property>
  <property name="meta.media.0.stream.type">video</property>
  <property name="meta.media.0.stream.frame_rate">25</property>
  <property name="meta.media.0.stream.sample_aspect_ratio">0</property>
  <property name="meta.media.0.codec.width">180</property>
  <property name="meta.media.0.codec.height">144</property>
  <property name="meta.media.0.codec.rotate">0</property>
  <property name="meta.media.0.codec.pix_fmt">bgr24</property>
  <property name="meta.media.0.codec.sample_aspect_ratio">0</property>
  <property name="meta.media.0.codec.colorspace">601</property>
  <property name="meta.media.0.codec.name">rawvideo</property>
  <property name="meta.media.0.codec.long_name">raw video</property>
  <property name="meta.media.0.codec.bit_rate">15739373</property>
  <property name="meta.attr.0.stream.title.markup">e:/stp/incoming_avis/subsampled/daria_bend.avi</property>
  <property name="meta.media.sample_aspect_num">1</property>
  <property name="meta.media.sample_aspect_den">1</property>
  <property name="meta.media.frame_rate_num">25</property>
  <property name="meta.media.frame_rate_den">1</property>
  <property name="meta.media.colorspace">601</property>
  <property name="meta.media.color_trc">2</property>
  <property name="meta.media.has_b_frames">0</property>
  <property name="meta.media.width">180</property>
  <property name="meta.media.height">144</property>
  <property name="meta.media.color_range">mpeg</property>
  <property name="meta.media.top_field_first">0</property>
  <property name="meta.media.progressive">1</property>
 </producer>
 <producer id="producer1" in="00:00:00.000" out="00:00:03.360">
  <property name="length">85</property>
  <property name="eof">pause</property>
  <property name="resource">C:/Users/Ichsan/tugasakhir/dataset-traintest/train/bend/1.avi</property>
  <property name="meta.media.nb_streams">1</property>
  <property name="meta.media.0.stream.type">video</property>
  <property name="meta.media.0.stream.frame_rate">25</property>
  <property name="meta.media.0.stream.sample_aspect_ratio">0</property>
  <property name="meta.media.0.codec.width">180</property>
  <property name="meta.media.0.codec.height">144</property>
  <property name="meta.media.0.codec.rotate">0</property>
  <property name="meta.media.0.codec.pix_fmt">bgr24</property>
  <property name="meta.media.0.codec.sample_aspect_ratio">0</property>
  <property name="meta.media.0.codec.colorspace">601</property>
  <property name="meta.media.0.codec.name">rawvideo</property>
  <property name="meta.media.0.codec.long_name">raw video</property>
  <property name="meta.media.0.codec.bit_rate">15737143</property>
  <property name="meta.attr.0.stream.title.markup">e:/stp/incoming_avis/subsampled/denis_bend.avi</property>
  <property name="seekable">1</property>
  <property name="meta.media.sample_aspect_num">1</property>
  <property name="meta.media.sample_aspect_den">1</property>
  <property name="aspect_ratio">1</property>
  <property name="audio_index">-1</property>
  <property name="video_index">0</property>
  <property name="mute_on_pause">0</property>
  <property name="mlt_service">avformat-novalidate</property>
  <property name="kdenlive:clipname"/>
  <property name="kdenlive:folderid">3</property>
  <property name="meta.media.frame_rate_num">25</property>
  <property name="meta.media.frame_rate_den">1</property>
  <property name="meta.media.colorspace">601</property>
  <property name="meta.media.color_trc">2</property>
  <property name="meta.media.has_b_frames">0</property>
  <property name="meta.media.width">180</property>
  <property name="meta.media.height">144</property>
  <property name="meta.media.color_range">mpeg</property>
  <property name="kdenlive:id">17</property>
  <property name="kdenlive:file_size">6614016</property>
  <property name="kdenlive:file_hash">d2f70c5172a7b4dbac10f62c6f80e64b</property>
  <property name="meta.media.top_field_first">0</property>
  <property name="meta.media.progressive">1</property>
 </producer>
 <producer id="producer2" in="00:00:00.000" out="00:00:02.480">
  <property name="length">63</property>
  <property name="eof">pause</property>
  <property name="resource">C:/Users/Ichsan/tugasakhir/dataset-traintest/train/bend/2.avi</property>
  <property name="meta.media.nb_streams">1</property>
  <property name="meta.media.0.stream.type">video</property>
  <property name="meta.media.0.stream.frame_rate">25</property>
  <property name="meta.media.0.stream.sample_aspect_ratio">0</property>
  <property name="meta.media.0.codec.width">180</property>
  <property name="meta.media.0.codec.height">144</property>
  <property name="meta.media.0.codec.rotate">0</property>
  <property name="meta.media.0.codec.pix_fmt">bgr24</property>
  <property name="meta.media.0.codec.sample_aspect_ratio">0</property>
  <property name="meta.media.0.codec.colorspace">601</property>
  <property name="meta.media.0.codec.name">rawvideo</property>
  <property name="meta.media.0.codec.long_name">raw video</property>
  <property name="meta.media.0.codec.bit_rate">15802839</property>
  <property name="meta.attr.0.stream.title.markup">e:/stp/incoming_avis/subsampled/eli_bend.avi</property>
  <property name="seekable">1</property>
  <property name="meta.media.sample_aspect_num">1</property>
  <property name="meta.media.sample_aspect_den">1</property>
  <property name="aspect_ratio">1</property>
  <property name="audio_index">-1</property>
  <property name="video_index">0</property>
  <property name="mute_on_pause">0</property>
  <property name="mlt_service">avformat-novalidate</property>
  <property name="kdenlive:clipname"/>
  <property name="kdenlive:folderid">3</property>
  <property name="meta.media.frame_rate_num">25</property>
  <property name="meta.media.frame_rate_den">1</property>
  <property name="meta.media.colorspace">601</property>
  <property name="meta.media.color_trc">2</property>
  <property name="meta.media.has_b_frames">0</property>
  <property name="meta.media.width">180</property>
  <property name="meta.media.height">144</property>
  <property name="meta.media.color_range">mpeg</property>
  <property name="kdenlive:id">18</property>
  <property name="kdenlive:file_size">4902912</property>
  <property name="kdenlive:file_hash">1450c3a07909f5cfc9f410b851169bd9</property>
  <property name="meta.media.top_field_first">0</property>
  <property name="meta.media.progressive">1</property>
 </producer>
 <producer id="producer3" in="00:00:00.000" out="00:00:02.560">
  <property name="length">65</property>
  <property name="eof">pause</property>
  <property name="resource">C:/Users/Ichsan/tugasakhir/dataset-traintest/train/bend/3.avi</property>
  <property name="meta.media.nb_streams">1</property>
  <property name="meta.media.0.stream.type">video</property>
  <property name="meta.media.0.stream.frame_rate">25</property>
  <property name="meta.media.0.stream.sample_aspect_ratio">0</property>
  <property name="meta.media.0.codec.width">180</property>
  <property name="meta.media.0.codec.height">144</property>
  <property name="meta.media.0.codec.rotate">0</property>
  <property name="meta.media.0.codec.pix_fmt">bgr24</property>
  <property name="meta.media.0.codec.sample_aspect_ratio">0</property>
  <property name="meta.media.0.codec.colorspace">601</property>
  <property name="meta.media.0.codec.name">rawvideo</property>
  <property name="meta.media.0.codec.long_name">raw video</property>
  <property name="meta.media.0.codec.bit_rate">15795000</property>
  <property name="meta.attr.0.stream.title.markup">e:/stp/incoming_avis/subsampled/ido_bend.avi</property>
  <property name="seekable">1</property>
  <property name="meta.media.sample_aspect_num">1</property>
  <property name="meta.media.sample_aspect_den">1</property>
  <property name="aspect_ratio">1</property>
  <property name="audio_index">-1</property>
  <property name="video_index">0</property>
  <property name="mute_on_pause">0</property>
  <property name="mlt_service">avformat-novalidate</property>
  <property name="kdenlive:clipname"/>
  <property name="kdenlive:folderid">3</property>
  <property name="meta.media.frame_rate_num">25</property>
  <property name="meta.media.frame_rate_den">1</property>
  <property name="meta.media.colorspace">601</property>
  <property name="meta.media.color_trc">2</property>
  <property name="meta.media.has_b_frames">0</property>
  <property name="meta.media.width">180</property>
  <property name="meta.media.height">144</property>
  <property name="meta.media.color_range">mpeg</property>
  <property name="kdenlive:id">19</property>
  <property name="kdenlive:file_size">5058048</property>
  <property name="kdenlive:file_hash">fc42ae7f9b59a3da88cee6613314603d</property>
  <property name="meta.media.top_field_first">0</property>
  <property name="meta.media.progressive">1</property>
 </producer>
 <producer id="producer4" in="00:00:00.000" out="00:00:03.680">
  <property name="length">93</property>
  <property name="eof">pause</property>
  <property name="resource">C:/Users/Ichsan/tugasakhir/dataset-traintest/train/bend/4.avi</property>
  <property name="meta.media.nb_streams">1</property>
  <property name="meta.media.0.stream.type">video</property>
  <property name="meta.media.0.stream.frame_rate">25</property>
  <property name="meta.media.0.stream.sample_aspect_ratio">0</property>
  <property name="meta.media.0.codec.width">180</property>
  <property name="meta.media.0.codec.height">144</property>
  <property name="meta.media.0.codec.rotate">0</property>
  <property name="meta.media.0.codec.pix_fmt">bgr24</property>
  <property name="meta.media.0.codec.sample_aspect_ratio">0</property>
  <property name="meta.media.0.codec.colorspace">601</property>
  <property name="meta.media.0.codec.name">rawvideo</property>
  <property name="meta.media.0.codec.long_name">raw video</property>
  <property name="meta.media.0.codec.bit_rate">15721043</property>
  <property name="meta.attr.0.stream.title.markup">e:/stp/incoming_avis/subsampled/ira_bend.avi</property>
  <property name="seekable">1</property>
  <property name="meta.media.sample_aspect_num">1</property>
  <property name="meta.media.sample_aspect_den">1</property>
  <property name="aspect_ratio">1</property>
  <property name="audio_index">-1</property>
  <property name="video_index">0</property>
  <property name="mute_on_pause">0</property>
  <property name="mlt_service">avformat-novalidate</property>
  <property name="kdenlive:clipname"/>
  <property name="kdenlive:folderid">3</property>
  <property name="meta.media.frame_rate_num">25</property>
  <property name="meta.media.frame_rate_den">1</property>
  <property name="meta.media.colorspace">601</property>
  <property name="meta.media.color_trc">2</property>
  <property name="meta.media.has_b_frames">0</property>
  <property name="meta.media.width">180</property>
  <property name="meta.media.height">144</property>
  <property name="meta.media.color_range">mpeg</property>
  <property name="kdenlive:id">20</property>
  <property name="kdenlive:file_size">7236096</property>
  <property name="kdenlive:file_hash">eaff5226a77ccd7012f82db928fe2196</property>
  <property name="meta.media.top_field_first">0</property>
  <property name="meta.media.progressive">1</property>
 </producer>
 <producer id="producer5" in="00:00:00.000" out="00:00:02.520">
  <property name="length">64</property>
  <property name="eof">pause</property>
  <property name="resource">C:/Users/Ichsan/tugasakhir/dataset-traintest/train/bend/5.avi</property>
  <property name="meta.media.nb_streams">1</property>
  <property name="meta.media.0.stream.type">video</property>
  <property name="meta.media.0.stream.frame_rate">25</property>
  <property name="meta.media.0.stream.sample_aspect_ratio">0</property>
  <property name="meta.media.0.codec.width">180</property>
  <property name="meta.media.0.codec.height">144</property>
  <property name="meta.media.0.codec.rotate">0</property>
  <property name="meta.media.0.codec.pix_fmt">bgr24</property>
  <property name="meta.media.0.codec.sample_aspect_ratio">0</property>
  <property name="meta.media.0.codec.colorspace">601</property>
  <property name="meta.media.0.codec.name">rawvideo</property>
  <property name="meta.media.0.codec.long_name">raw video</property>
  <property name="meta.media.0.codec.bit_rate">15798857</property>
  <property name="meta.attr.0.stream.title.markup">e:/stp/incoming_avis/subsampled/lena_bend.avi</property>
  <property name="seekable">1</property>
  <property name="meta.media.sample_aspect_num">1</property>
  <property name="meta.media.sample_aspect_den">1</property>
  <property name="aspect_ratio">1</property>
  <property name="audio_index">-1</property>
  <property name="video_index">0</property>
  <property name="mute_on_pause">0</property>
  <property name="mlt_service">avformat-novalidate</property>
  <property name="kdenlive:clipname"/>
  <property name="kdenlive:folderid">3</property>
  <property name="meta.media.frame_rate_num">25</property>
  <property name="meta.media.frame_rate_den">1</property>
  <property name="meta.media.colorspace">601</property>
  <property name="meta.media.color_trc">2</property>
  <property name="meta.media.has_b_frames">0</property>
  <property name="meta.media.width">180</property>
  <property name="meta.media.height">144</property>
  <property name="meta.media.color_range">mpeg</property>
  <property name="kdenlive:id">21</property>
  <property name="kdenlive:file_size">4980736</property>
  <property name="kdenlive:file_hash">30438d76af9bc6024d51bef4996c3a90</property>
  <property name="meta.media.top_field_first">0</property>
  <property name="meta.media.progressive">1</property>
 </producer>
 <producer id="producer6" in="00:00:00.000" out="00:00:02.080">
  <property name="length">53</property>
  <property name="eof">pause</property>
  <property name="resource">C:/Users/Ichsan/tugasakhir/dataset-traintest/train/gallop sideways/0.avi</property>
  <property name="meta.media.nb_streams">1</property>
  <property name="meta.media.0.stream.type">video</property>
  <property name="meta.media.0.stream.frame_rate">25</property>
  <property name="meta.media.0.stream.sample_aspect_ratio">0</property>
  <property name="meta.media.0.codec.width">180</property>
  <property name="meta.media.0.codec.height">144</property>
  <property name="meta.media.0.codec.rotate">0</property>
  <property name="meta.media.0.codec.pix_fmt">bgr24</property>
  <property name="meta.media.0.codec.sample_aspect_ratio">0</property>
  <property name="meta.media.0.codec.colorspace">601</property>
  <property name="meta.media.0.codec.name">rawvideo</property>
  <property name="meta.media.0.codec.long_name">raw video</property>
  <property name="meta.media.0.codec.bit_rate">15851077</property>
  <property name="meta.attr.0.stream.title.markup">e:/stp/incoming_avis/subsampled/daria_side.avi</property>
  <property name="seekable">1</property>
  <property name="meta.media.sample_aspect_num">1</property>
  <property name="meta.media.sample_aspect_den">1</property>
  <property name="aspect_ratio">1</property>
  <property name="audio_index">-1</property>
  <property name="video_index">0</property>
  <property name="mute_on_pause">0</property>
  <property name="mlt_service">avformat-novalidate</property>
  <property name="kdenlive:clipname"/>
  <property name="kdenlive:folderid">4</property>
  <property name="meta.media.frame_rate_num">25</property>
  <property name="meta.media.frame_rate_den">1</property>
  <property name="meta.media.colorspace">601</property>
  <property name="meta.media.color_trc">2</property>
  <property name="meta.media.has_b_frames">0</property>
  <property name="meta.media.width">180</property>
  <property name="meta.media.height">144</property>
  <property name="meta.media.color_range">mpeg</property>
  <property name="kdenlive:id">22</property>
  <property name="kdenlive:file_size">4124672</property>
  <property name="kdenlive:file_hash">84981fe55942fc4a8bc1b5734cf51c45</property>
  <property name="meta.media.top_field_first">0</property>
  <property name="meta.media.progressive">1</property>
 </producer>
 <producer id="producer7" in="00:00:00.000" out="00:00:02.040">
  <property name="length">52</property>
  <property name="eof">pause</property>
  <property name="resource">C:/Users/Ichsan/tugasakhir/dataset-traintest/train/gallop sideways/1.avi</property>
  <property name="meta.media.nb_streams">1</property>
  <property name="meta.media.0.stream.type">video</property>
  <property name="meta.media.0.stream.frame_rate">25</property>
  <property name="meta.media.0.stream.sample_aspect_ratio">0</property>
  <property name="meta.media.0.codec.width">180</property>
  <property name="meta.media.0.codec.height">144</property>
  <property name="meta.media.0.codec.rotate">0</property>
  <property name="meta.media.0.codec.pix_fmt">bgr24</property>
  <property name="meta.media.0.codec.sample_aspect_ratio">0</property>
  <property name="meta.media.0.codec.colorspace">601</property>
  <property name="meta.media.0.codec.name">rawvideo</property>
  <property name="meta.media.0.codec.long_name">raw video</property>
  <property name="meta.media.0.codec.bit_rate">15856941</property>
  <property name="meta.attr.0.stream.title.markup">e:/stp/incoming_avis/subsampled/denis_side.avi</property>
  <property name="seekable">1</property>
  <property name="meta.media.sample_aspect_num">1</property>
  <property name="meta.media.sample_aspect_den">1</property>
  <property name="aspect_ratio">1</property>
  <property name="audio_index">-1</property>
  <property name="video_index">0</property>
  <property name="mute_on_pause">0</property>
  <property name="mlt_service">avformat-novalidate</property>
  <property name="kdenlive:clipname"/>
  <property name="kdenlive:folderid">4</property>
  <property name="meta.media.frame_rate_num">25</property>
  <property name="meta.media.frame_rate_den">1</property>
  <property name="meta.media.colorspace">601</property>
  <property name="meta.media.color_trc">2</property>
  <property name="meta.media.has_b_frames">0</property>
  <property name="meta.media.width">180</property>
  <property name="meta.media.height">144</property>
  <property name="meta.media.color_range">mpeg</property>
  <property name="kdenlive:id">23</property>
  <property name="kdenlive:file_size">4046848</property>
  <property name="kdenlive:file_hash">483c5e9535d552ce8038d59ea28f384d</property>
  <property name="meta.media.top_field_first">0</property>
  <property name="meta.media.progressive">1</property>
 </producer>
 <producer id="producer8" in="00:00:00.000" out="00:00:01.880">
  <property name="length">48</property>
  <property name="eof">pause</property>
  <property name="resource">C:/Users/Ichsan/tugasakhir/dataset-traintest/train/gallop sideways/2.avi</property>
  <property name="meta.media.nb_streams">1</property>
  <property name="meta.media.0.stream.type">video</property>
  <property name="meta.media.0.stream.frame_rate">25</property>
  <property name="meta.media.0.stream.sample_aspect_ratio">0</property>
  <property name="meta.media.0.codec.width">180</property>
  <property name="meta.media.0.codec.height">144</property>
  <property name="meta.media.0.codec.rotate">0</property>
  <property name="meta.media.0.codec.pix_fmt">bgr24</property>
  <property name="meta.media.0.codec.sample_aspect_ratio">0</property>
  <property name="meta.media.0.codec.colorspace">601</property>
  <property name="meta.media.0.codec.name">rawvideo</property>
  <property name="meta.media.0.codec.long_name">raw video</property>
  <property name="meta.media.0.codec.bit_rate">15882894</property>
  <property name="meta.attr.0.stream.title.markup">e:/stp/incoming_avis/subsampled/eli_side.avi</property>
  <property name="seekable">1</property>
  <property name="meta.media.sample_aspect_num">1</property>
  <property name="meta.media.sample_aspect_den">1</property>
  <property name="aspect_ratio">1</property>
  <property name="audio_index">-1</property>
  <property name="video_index">0</property>
  <property name="mute_on_pause">0</property>
  <property name="mlt_service">avformat-novalidate</property>
  <property name="kdenlive:clipname"/>
  <property name="kdenlive:folderid">4</property>
  <property name="meta.media.frame_rate_num">25</property>
  <property name="meta.media.frame_rate_den">1</property>
  <property name="meta.media.colorspace">601</property>
  <property name="meta.media.color_trc">2</property>
  <property name="meta.media.has_b_frames">0</property>
  <property name="meta.media.width">180</property>
  <property name="meta.media.height">144</property>
  <property name="meta.media.color_range">mpeg</property>
  <property name="kdenlive:id">24</property>
  <property name="kdenlive:file_size">3736064</property>
  <property name="kdenlive:file_hash">a0df9082e08c5dcd675faa64f3230501</property>
  <property name="meta.media.top_field_first">0</property>
  <property name="meta.media.progressive">1</property>
 </producer>
 <producer id="producer9" in="00:00:00.000" out="00:00:01.520">
  <property name="length">39</property>
  <property name="eof">pause</property>
  <property name="resource">C:/Users/Ichsan/tugasakhir/dataset-traintest/train/gallop sideways/3.avi</property>
  <property name="meta.media.nb_streams">1</property>
  <property name="meta.media.0.stream.type">video</property>
  <property name="meta.media.0.stream.frame_rate">25</property>
  <property name="meta.media.0.stream.sample_aspect_ratio">0</property>
  <property name="meta.media.0.codec.width">180</property>
  <property name="meta.media.0.codec.height">144</property>
  <property name="meta.media.0.codec.rotate">0</property>
  <property name="meta.media.0.codec.pix_fmt">bgr24</property>
  <property name="meta.media.0.codec.sample_aspect_ratio">0</property>
  <property name="meta.media.0.codec.colorspace">601</property>
  <property name="meta.media.0.codec.name">rawvideo</property>
  <property name="meta.media.0.codec.long_name">raw video</property>
  <property name="meta.media.0.codec.bit_rate">15961263</property>
  <property name="meta.attr.0.stream.title.markup">e:/stp/incoming_avis/subsampled/ido_side.avi</property>
  <property name="seekable">1</property>
  <property name="meta.media.sample_aspect_num">1</property>
  <property name="meta.media.sample_aspect_den">1</property>
  <property name="aspect_ratio">1</property>
  <property name="audio_index">-1</property>
  <property name="video_index">0</property>
  <property name="mute_on_pause">0</property>
  <property name="mlt_service">avformat-novalidate</property>
  <property name="kdenlive:clipname"/>
  <property name="kdenlive:folderid">4</property>
  <property name="meta.media.frame_rate_num">25</property>
  <property name="meta.media.frame_rate_den">1</property>
  <property name="meta.media.colorspace">601</property>
  <property name="meta.media.color_trc">2</property>
  <property name="meta.media.has_b_frames">0</property>
  <property name="meta.media.width">180</property>
  <property name="meta.media.height">144</property>
  <property name="meta.media.color_range">mpeg</property>
  <property name="kdenlive:id">25</property>
  <property name="kdenlive:file_size">3035648</property>
  <property name="kdenlive:file_hash">8146e4610c2f6baa551ec3ebcbce30b0</property>
  <property name="meta.media.top_field_first">0</property>
  <property name="meta.media.progressive">1</property>
 </producer>
 <producer id="producer10" in="00:00:00.000" out="00:00:02.520">
  <property name="length">64</property>
  <property name="eof">pause</property>
  <property name="resource">C:/Users/Ichsan/tugasakhir/dataset-traintest/train/gallop sideways/4.avi</property>
  <property name="meta.media.nb_streams">1</property>
  <property name="meta.media.0.stream.type">video</property>
  <property name="meta.media.0.stream.frame_rate">25</property>
  <property name="meta.media.0.stream.sample_aspect_ratio">0</property>
  <property name="meta.media.0.codec.width">180</property>
  <property name="meta.media.0.codec.height">144</property>
  <property name="meta.media.0.codec.rotate">0</property>
  <property name="meta.media.0.codec.pix_fmt">bgr24</property>
  <property name="meta.media.0.codec.sample_aspect_ratio">0</property>
  <property name="meta.media.0.codec.colorspace">601</property>
  <property name="meta.media.0.codec.name">rawvideo</property>
  <property name="meta.media.0.codec.long_name">raw video</property>
  <property name="meta.media.0.codec.bit_rate">15798857</property>
  <property name="meta.attr.0.stream.title.markup">e:/stp/incoming_avis/subsampled/ira_side.avi</property>
  <property name="seekable">1</property>
  <property name="meta.media.sample_aspect_num">1</property>
  <property name="meta.media.sample_aspect_den">1</property>
  <property name="aspect_ratio">1</property>
  <property name="audio_index">-1</property>
  <property name="video_index">0</property>
  <property name="mute_on_pause">0</property>
  <property name="mlt_service">avformat-novalidate</property>
  <property name="kdenlive:clipname"/>
  <property name="kdenlive:folderid">4</property>
  <property name="meta.media.frame_rate_num">25</property>
  <property name="meta.media.frame_rate_den">1</property>
  <property name="meta.media.colorspace">601</property>
  <property name="meta.media.color_trc">2</property>
  <property name="meta.media.has_b_frames">0</property>
  <property name="meta.media.width">180</property>
  <property name="meta.media.height">144</property>
  <property name="meta.media.color_range">mpeg</property>
  <property name="kdenlive:id">26</property>
  <property name="kdenlive:file_size">4980736</property>
  <property name="kdenlive:file_hash">c7e252833bce8c73ce39ec879973ec66</property>
  <property name="meta.media.top_field_first">0</property>
  <property name="meta.media.progressive">1</property>
 </producer>
 <producer id="producer11" in="00:00:00.000" out="00:00:02.360">
  <property name="length">60</property>
  <property name="eof">pause</property>
  <property name="resource">C:/Users/Ichsan/tugasakhir/dataset-traintest/train/gallop sideways/5.avi</property>
  <property name="meta.media.nb_streams">1</property>
  <property name="meta.media.0.stream.type">video</property>
  <property name="meta.media.0.stream.frame_rate">25</property>
  <property name="meta.media.0.stream.sample_aspect_ratio">0</property>
  <property name="meta.media.0.codec.width">180</property>
  <property name="meta.media.0.codec.height">144</property>
  <property name="meta.media.0.codec.rotate">0</property>
  <property name="meta.media.0.codec.pix_fmt">bgr24</property>
  <property name="meta.media.0.codec.sample_aspect_ratio">0</property>
  <property name="meta.media.0.codec.colorspace">601</property>
  <property name="meta.media.0.codec.name">rawvideo</property>
  <property name="meta.media.0.codec.long_name">raw video</property>
  <property name="meta.media.0.codec.bit_rate">15815593</property>
  <property name="meta.attr.0.stream.title.markup">e:/stp/incoming_avis/subsampled/lena_side.avi</property>
  <property name="seekable">1</property>
  <property name="meta.media.sample_aspect_num">1</property>
  <property name="meta.media.sample_aspect_den">1</property>
  <property name="aspect_ratio">1</property>
  <property name="audio_index">-1</property>
  <property name="video_index">0</property>
  <property name="mute_on_pause">0</property>
  <property name="mlt_service">avformat-novalidate</property>
  <property name="kdenlive:clipname"/>
  <property name="kdenlive:folderid">4</property>
  <property name="meta.media.frame_rate_num">25</property>
  <property name="meta.media.frame_rate_den">1</property>
  <property name="meta.media.colorspace">601</property>
  <property name="meta.media.color_trc">2</property>
  <property name="meta.media.has_b_frames">0</property>
  <property name="meta.media.width">180</property>
  <property name="meta.media.height">144</property>
  <property name="meta.media.color_range">mpeg</property>
  <property name="kdenlive:id">27</property>
  <property name="kdenlive:file_size">4669440</property>
  <property name="kdenlive:file_hash">a1ea51d497cf3a7bae23ba4e7f0c6018</property>
  <property name="meta.media.top_field_first">0</property>
  <property name="meta.media.progressive">1</property>
 </producer>
 <producer id="producer12" in="00:00:00.000" out="00:00:02.640">
  <property name="length">67</property>
  <property name="eof">pause</property>
  <property name="resource">C:/Users/Ichsan/tugasakhir/dataset-traintest/train/jump/0.avi</property>
  <property name="meta.media.nb_streams">1</property>
  <property name="meta.media.0.stream.type">video</property>
  <property name="meta.media.0.stream.frame_rate">25</property>
  <property name="meta.media.0.stream.sample_aspect_ratio">0</property>
  <property name="meta.media.0.codec.width">180</property>
  <property name="meta.media.0.codec.height">144</property>
  <property name="meta.media.0.codec.rotate">0</property>
  <property name="meta.media.0.codec.pix_fmt">bgr24</property>
  <property name="meta.media.0.codec.sample_aspect_ratio">0</property>
  <property name="meta.media.0.codec.colorspace">601</property>
  <property name="meta.media.0.codec.name">rawvideo</property>
  <property name="meta.media.0.codec.long_name">raw video</property>
  <property name="meta.media.0.codec.bit_rate">15787636</property>
  <property name="meta.attr.0.stream.title.markup">e:/stp/incoming_avis/subsampled/daria_jump.avi</property>
  <property name="seekable">1</property>
  <property name="meta.media.sample_aspect_num">1</property>
  <property name="meta.media.sample_aspect_den">1</property>
  <property name="aspect_ratio">1</property>
  <property name="audio_index">-1</property>
  <property name="video_index">0</property>
  <property name="mute_on_pause">0</property>
  <property name="mlt_service">avformat-novalidate</property>
  <property name="kdenlive:clipname"/>
  <property name="kdenlive:folderid">5</property>
  <property name="meta.media.frame_rate_num">25</property>
  <property name="meta.media.frame_rate_den">1</property>
  <property name="meta.media.colorspace">601</property>
  <property name="meta.media.color_trc">2</property>
  <property name="meta.media.has_b_frames">0</property>
  <property name="meta.media.width">180</property>
  <property name="meta.media.height">144</property>
  <property name="meta.media.color_range">mpeg</property>
  <property name="kdenlive:id">28</property>
  <property name="kdenlive:file_size">5213696</property>
  <property name="kdenlive:file_hash">9d163153badbe8d963a7b29be20f41c2</property>
  <property name="meta.media.top_field_first">0</property>
  <property name="meta.media.progressive">1</property>
 </producer>
 <producer id="producer13" in="00:00:00.000" out="00:00:02.640">
  <property name="length">67</property>
  <property name="eof">pause</property>
  <property name="resource">C:/Users/Ichsan/tugasakhir/dataset-traintest/train/jump/1.avi</property>
  <property name="meta.media.nb_streams">1</property>
  <property name="meta.media.0.stream.type">video</property>
  <property name="meta.media.0.stream.frame_rate">25</property>
  <property name="meta.media.0.stream.sample_aspect_ratio">0</property>
  <property name="meta.media.0.codec.width">180</property>
  <property name="meta.media.0.codec.height">144</property>
  <property name="meta.media.0.codec.rotate">0</property>
  <property name="meta.media.0.codec.pix_fmt">bgr24</property>
  <property name="meta.media.0.codec.sample_aspect_ratio">0</property>
  <property name="meta.media.0.codec.colorspace">601</property>
  <property name="meta.media.0.codec.name">rawvideo</property>
  <property name="meta.media.0.codec.long_name">raw video</property>
  <property name="meta.media.0.codec.bit_rate">15787636</property>
  <property name="meta.attr.0.stream.title.markup">e:/stp/incoming_avis/subsampled/denis_jump.avi</property>
  <property name="seekable">1</property>
  <property name="meta.media.sample_aspect_num">1</property>
  <property name="meta.media.sample_aspect_den">1</property>
  <property name="aspect_ratio">1</property>
  <property name="audio_index">-1</property>
  <property name="video_index">0</property>
  <property name="mute_on_pause">0</property>
  <property name="mlt_service">avformat-novalidate</property>
  <property name="kdenlive:clipname"/>
  <property name="kdenlive:folderid">5</property>
  <property name="meta.media.frame_rate_num">25</property>
  <property name="meta.media.frame_rate_den">1</property>
  <property name="meta.media.colorspace">601</property>
  <property name="meta.media.color_trc">2</property>
  <property name="meta.media.has_b_frames">0</property>
  <property name="meta.media.width">180</property>
  <property name="meta.media.height">144</property>
  <property name="meta.media.color_range">mpeg</property>
  <property name="kdenlive:id">29</property>
  <property name="kdenlive:file_size">5213696</property>
  <property name="kdenlive:file_hash">41b2f93b45d555f7475c5c8f47faf1eb</property>
  <property name="meta.media.top_field_first">0</property>
  <property name="meta.media.progressive">1</property>
 </producer>
 <producer id="producer14" in="00:00:00.000" out="00:00:01.760">
  <property name="length">45</property>
  <property name="eof">pause</property>
  <property name="resource">C:/Users/Ichsan/tugasakhir/dataset-traintest/train/jump/2.avi</property>
  <property name="meta.media.nb_streams">1</property>
  <property name="meta.media.0.stream.type">video</property>
  <property name="meta.media.0.stream.frame_rate">25</property>
  <property name="meta.media.0.stream.sample_aspect_ratio">0</property>
  <property name="meta.media.0.codec.width">180</property>
  <property name="meta.media.0.codec.height">144</property>
  <property name="meta.media.0.codec.rotate">0</property>
  <property name="meta.media.0.codec.pix_fmt">bgr24</property>
  <property name="meta.media.0.codec.sample_aspect_ratio">0</property>
  <property name="meta.media.0.codec.colorspace">601</property>
  <property name="meta.media.0.codec.name">rawvideo</property>
  <property name="meta.media.0.codec.long_name">raw video</property>
  <property name="meta.media.0.codec.bit_rate">15905455</property>
  <property name="meta.attr.0.stream.title.markup">e:/stp/incoming_avis/subsampled/eli_jump.avi</property>
  <property name="seekable">1</property>
  <property name="meta.media.sample_aspect_num">1</property>
  <property name="meta.media.sample_aspect_den">1</property>
  <property name="aspect_ratio">1</property>
  <property name="audio_index">-1</property>
  <property name="video_index">0</property>
  <property name="mute_on_pause">0</property>
  <property name="mlt_service">avformat-novalidate</property>
  <property name="kdenlive:clipname"/>
  <property name="kdenlive:folderid">5</property>
  <property name="meta.media.frame_rate_num">25</property>
  <property name="meta.media.frame_rate_den">1</property>
  <property name="meta.media.colorspace">601</property>
  <property name="meta.media.color_trc">2</property>
  <property name="meta.media.has_b_frames">0</property>
  <property name="meta.media.width">180</property>
  <property name="meta.media.height">144</property>
  <property name="meta.media.color_range">mpeg</property>
  <property name="kdenlive:id">30</property>
  <property name="kdenlive:file_size">3502592</property>
  <property name="kdenlive:file_hash">173e3ce135fe42b89d1d8914bb060a55</property>
  <property name="meta.media.top_field_first">0</property>
  <property name="meta.media.progressive">1</property>
 </producer>
 <producer id="producer15" in="00:00:00.000" out="00:00:01.680">
  <property name="length">43</property>
  <property name="eof">pause</property>
  <property name="resource">C:/Users/Ichsan/tugasakhir/dataset-traintest/train/jump/3.avi</property>
  <property name="meta.media.nb_streams">1</property>
  <property name="meta.media.0.stream.type">video</property>
  <property name="meta.media.0.stream.frame_rate">25</property>
  <property name="meta.media.0.stream.sample_aspect_ratio">0</property>
  <property name="meta.media.0.codec.width">180</property>
  <property name="meta.media.0.codec.height">144</property>
  <property name="meta.media.0.codec.rotate">0</property>
  <property name="meta.media.0.codec.pix_fmt">bgr24</property>
  <property name="meta.media.0.codec.sample_aspect_ratio">0</property>
  <property name="meta.media.0.codec.colorspace">601</property>
  <property name="meta.media.0.codec.name">rawvideo</property>
  <property name="meta.media.0.codec.long_name">raw video</property>
  <property name="meta.media.0.codec.bit_rate">15922286</property>
  <property name="meta.attr.0.stream.title.markup">e:/stp/incoming_avis/subsampled/ido_jump.avi</property>
  <property name="seekable">1</property>
  <property name="meta.media.sample_aspect_num">1</property>
  <property name="meta.media.sample_aspect_den">1</property>
  <property name="aspect_ratio">1</property>
  <property name="audio_index">-1</property>
  <property name="video_index">0</property>
  <property name="mute_on_pause">0</property>
  <property name="mlt_service">avformat-novalidate</property>
  <property name="kdenlive:clipname"/>
  <property name="kdenlive:folderid">5</property>
  <property name="meta.media.frame_rate_num">25</property>
  <property name="meta.media.frame_rate_den">1</property>
  <property name="meta.media.colorspace">601</property>
  <property name="meta.media.color_trc">2</property>
  <property name="meta.media.has_b_frames">0</property>
  <property name="meta.media.width">180</property>
  <property name="meta.media.height">144</property>
  <property name="meta.media.color_range">mpeg</property>
  <property name="kdenlive:id">31</property>
  <property name="kdenlive:file_size">3346944</property>
  <property name="kdenlive:file_hash">8740667594d079adda62d35760684b5f</property>
  <property name="meta.media.top_field_first">0</property>
  <property name="meta.media.progressive">1</property>
 </producer>
 <producer id="producer16" in="00:00:00.000" out="00:00:02.840">
  <property name="length">72</property>
  <property name="eof">pause</property>
  <property name="resource">C:/Users/Ichsan/tugasakhir/dataset-traintest/train/jump/4.avi</property>
  <property name="meta.media.nb_streams">1</property>
  <property name="meta.media.0.stream.type">video</property>
  <property name="meta.media.0.stream.frame_rate">25</property>
  <property name="meta.media.0.stream.sample_aspect_ratio">0</property>
  <property name="meta.media.0.codec.width">180</property>
  <property name="meta.media.0.codec.height">144</property>
  <property name="meta.media.0.codec.rotate">0</property>
  <property name="meta.media.0.codec.pix_fmt">bgr24</property>
  <property name="meta.media.0.codec.sample_aspect_ratio">0</property>
  <property name="meta.media.0.codec.colorspace">601</property>
  <property name="meta.media.0.codec.name">rawvideo</property>
  <property name="meta.media.0.codec.long_name">raw video</property>
  <property name="meta.media.0.codec.bit_rate">15771042</property>
  <property name="meta.attr.0.stream.title.markup">e:/stp/incoming_avis/subsampled/ira_jump.avi</property>
  <property name="seekable">1</property>
  <property name="meta.media.sample_aspect_num">1</property>
  <property name="meta.media.sample_aspect_den">1</property>
  <property name="aspect_ratio">1</property>
  <property name="audio_index">-1</property>
  <property name="video_index">0</property>
  <property name="mute_on_pause">0</property>
  <property name="mlt_service">avformat-novalidate</property>
  <property name="kdenlive:clipname"/>
  <property name="kdenlive:folderid">5</property>
  <property name="meta.media.frame_rate_num">25</property>
  <property name="meta.media.frame_rate_den">1</property>
  <property name="meta.media.colorspace">601</property>
  <property name="meta.media.color_trc">2</property>
  <property name="meta.media.has_b_frames">0</property>
  <property name="meta.media.width">180</property>
  <property name="meta.media.height">144</property>
  <property name="meta.media.color_range">mpeg</property>
  <property name="kdenlive:id">32</property>
  <property name="kdenlive:file_size">5602816</property>
  <property name="kdenlive:file_hash">54b983446d55f092af6123ec392afa17</property>
  <property name="meta.media.top_field_first">0</property>
  <property name="meta.media.progressive">1</property>
 </producer>
 <producer id="producer17" in="00:00:00.000" out="00:00:01.840">
  <property name="length">47</property>
  <property name="eof">pause</property>
  <property name="resource">C:/Users/Ichsan/tugasakhir/dataset-traintest/train/jump/5.avi</property>
  <property name="meta.media.nb_streams">1</property>
  <property name="meta.media.0.stream.type">video</property>
  <property name="meta.media.0.stream.frame_rate">25</property>
  <property name="meta.media.0.stream.sample_aspect_ratio">0</property>
  <property name="meta.media.0.codec.width">180</property>
  <property name="meta.media.0.codec.height">144</property>
  <property name="meta.media.0.codec.rotate">0</property>
  <property name="meta.media.0.codec.pix_fmt">bgr24</property>
  <property name="meta.media.0.codec.sample_aspect_ratio">0</property>
  <property name="meta.media.0.codec.colorspace">601</property>
  <property name="meta.media.0.codec.name">rawvideo</property>
  <property name="meta.media.0.codec.long_name">raw video</property>
  <property name="meta.media.0.codec.bit_rate">15890087</property>
  <property name="meta.attr.0.stream.title.markup">e:/stp/incoming_avis/subsampled/lena_jump.avi</property>
  <property name="seekable">1</property>
  <property name="meta.media.sample_aspect_num">1</property>
  <property name="meta.media.sample_aspect_den">1</property>
  <property name="aspect_ratio">1</property>
  <property name="audio_index">-1</property>
  <property name="video_index">0</property>
  <property name="mute_on_pause">0</property>
  <property name="mlt_service">avformat-novalidate</property>
  <property name="kdenlive:clipname"/>
  <property name="kdenlive:folderid">5</property>
  <property name="meta.media.frame_rate_num">25</property>
  <property name="meta.media.frame_rate_den">1</property>
  <property name="meta.media.colorspace">601</property>
  <property name="meta.media.color_trc">2</property>
  <property name="meta.media.has_b_frames">0</property>
  <property name="meta.media.width">180</property>
  <property name="meta.media.height">144</property>
  <property name="meta.media.color_range">mpeg</property>
  <property name="kdenlive:id">33</property>
  <property name="kdenlive:file_size">3658240</property>
  <property name="kdenlive:file_hash">83c85901d219c4082ee6ad135d56745c</property>
  <property name="meta.media.top_field_first">0</property>
  <property name="meta.media.progressive">1</property>
 </producer>
 <producer id="producer18" in="00:00:00.000" out="00:00:02.120">
  <property name="length">54</property>
  <property name="eof">pause</property>
  <property name="resource">C:/Users/Ichsan/tugasakhir/dataset-traintest/train/jump in place/1.avi</property>
  <property name="meta.media.nb_streams">1</property>
  <property name="meta.media.0.stream.type">video</property>
  <property name="meta.media.0.stream.frame_rate">25</property>
  <property name="meta.media.0.stream.sample_aspect_ratio">0</property>
  <property name="meta.media.0.codec.width">180</property>
  <property name="meta.media.0.codec.height">144</property>
  <property name="meta.media.0.codec.rotate">0</property>
  <property name="meta.media.0.codec.pix_fmt">bgr24</property>
  <property name="meta.media.0.codec.sample_aspect_ratio">0</property>
  <property name="meta.media.0.codec.colorspace">601</property>
  <property name="meta.media.0.codec.name">rawvideo</property>
  <property name="meta.media.0.codec.long_name">raw video</property>
  <property name="meta.media.0.codec.bit_rate">15845434</property>
  <property name="meta.attr.0.stream.title.markup">e:/stp/incoming_avis/subsampled/denis_pjump.avi</property>
  <property name="seekable">1</property>
  <property name="meta.media.sample_aspect_num">1</property>
  <property name="meta.media.sample_aspect_den">1</property>
  <property name="aspect_ratio">1</property>
  <property name="audio_index">-1</property>
  <property name="video_index">0</property>
  <property name="mute_on_pause">0</property>
  <property name="mlt_service">avformat-novalidate</property>
  <property name="kdenlive:clipname"/>
  <property name="kdenlive:folderid">6</property>
  <property name="meta.media.frame_rate_num">25</property>
  <property name="meta.media.frame_rate_den">1</property>
  <property name="meta.media.colorspace">601</property>
  <property name="meta.media.color_trc">2</property>
  <property name="meta.media.has_b_frames">0</property>
  <property name="meta.media.width">180</property>
  <property name="meta.media.height">144</property>
  <property name="meta.media.color_range">mpeg</property>
  <property name="kdenlive:id">35</property>
  <property name="kdenlive:file_size">4202496</property>
  <property name="kdenlive:file_hash">3ceda0e7ff92c70c011dddfb164dc18f</property>
  <property name="meta.media.top_field_first">0</property>
  <property name="meta.media.progressive">1</property>
 </producer>
 <producer id="producer19" in="00:00:00.000" out="00:00:02.440">
  <property name="length">62</property>
  <property name="eof">pause</property>
  <property name="resource">C:/Users/Ichsan/tugasakhir/dataset-traintest/train/jump in place/0.avi</property>
  <property name="meta.media.nb_streams">1</property>
  <property name="meta.media.0.stream.type">video</property>
  <property name="meta.media.0.stream.frame_rate">25</property>
  <property name="meta.media.0.stream.sample_aspect_ratio">0</property>
  <property name="meta.media.0.codec.width">180</property>
  <property name="meta.media.0.codec.height">144</property>
  <property name="meta.media.0.codec.rotate">0</property>
  <property name="meta.media.0.codec.pix_fmt">bgr24</property>
  <property name="meta.media.0.codec.sample_aspect_ratio">0</property>
  <property name="meta.media.0.codec.colorspace">601</property>
  <property name="meta.media.0.codec.name">rawvideo</property>
  <property name="meta.media.0.codec.long_name">raw video</property>
  <property name="meta.media.0.codec.bit_rate">15806951</property>
  <property name="meta.attr.0.stream.title.markup">e:/stp/incoming_avis/subsampled/daria_pjump.avi</property>
  <property name="seekable">1</property>
  <property name="meta.media.sample_aspect_num">1</property>
  <property name="meta.media.sample_aspect_den">1</property>
  <property name="aspect_ratio">1</property>
  <property name="audio_index">-1</property>
  <property name="video_index">0</property>
  <property name="mute_on_pause">0</property>
  <property name="mlt_service">avformat-novalidate</property>
  <property name="kdenlive:clipname"/>
  <property name="kdenlive:folderid">6</property>
  <property name="meta.media.frame_rate_num">25</property>
  <property name="meta.media.frame_rate_den">1</property>
  <property name="meta.media.colorspace">601</property>
  <property name="meta.media.color_trc">2</property>
  <property name="meta.media.has_b_frames">0</property>
  <property name="meta.media.width">180</property>
  <property name="meta.media.height">144</property>
  <property name="meta.media.color_range">mpeg</property>
  <property name="kdenlive:id">34</property>
  <property name="kdenlive:file_size">4825088</property>
  <property name="kdenlive:file_hash">5699432144e5f37758e6772fe6506170</property>
  <property name="meta.media.top_field_first">0</property>
  <property name="meta.media.progressive">1</property>
 </producer>
 <producer id="producer20" in="00:00:00.000" out="00:00:01.640">
  <property name="length">42</property>
  <property name="eof">pause</property>
  <property name="resource">C:/Users/Ichsan/tugasakhir/dataset-traintest/train/jump in place/2.avi</property>
  <property name="meta.media.nb_streams">1</property>
  <property name="meta.media.0.stream.type">video</property>
  <property name="meta.media.0.stream.frame_rate">25</property>
  <property name="meta.media.0.stream.sample_aspect_ratio">0</property>
  <property name="meta.media.0.codec.width">180</property>
  <property name="meta.media.0.codec.height">144</property>
  <property name="meta.media.0.codec.rotate">0</property>
  <property name="meta.media.0.codec.pix_fmt">bgr24</property>
  <property name="meta.media.0.codec.sample_aspect_ratio">0</property>
  <property name="meta.media.0.codec.colorspace">601</property>
  <property name="meta.media.0.codec.name">rawvideo</property>
  <property name="meta.media.0.codec.long_name">raw video</property>
  <property name="meta.media.0.codec.bit_rate">15931317</property>
  <property name="meta.attr.0.stream.title.markup">e:/stp/incoming_avis/subsampled/eli_pjump.avi</property>
  <property name="seekable">1</property>
  <property name="meta.media.sample_aspect_num">1</property>
  <property name="meta.media.sample_aspect_den">1</property>
  <property name="aspect_ratio">1</property>
  <property name="audio_index">-1</property>
  <property name="video_index">0</property>
  <property name="mute_on_pause">0</property>
  <property name="mlt_service">avformat-novalidate</property>
  <property name="kdenlive:clipname"/>
  <property name="kdenlive:folderid">6</property>
  <property name="meta.media.frame_rate_num">25</property>
  <property name="meta.media.frame_rate_den">1</property>
  <property name="meta.media.colorspace">601</property>
  <property name="meta.media.color_trc">2</property>
  <property name="meta.media.has_b_frames">0</property>
  <property name="meta.media.width">180</property>
  <property name="meta.media.height">144</property>
  <property name="meta.media.color_range">mpeg</property>
  <property name="kdenlive:id">36</property>
  <property name="kdenlive:file_size">3269120</property>
  <property name="kdenlive:file_hash">e3ac4d293fe7dbc6165a5491f82498b8</property>
  <property name="meta.media.top_field_first">0</property>
  <property name="meta.media.progressive">1</property>
 </producer>
 <producer id="producer21" in="00:00:00.000" out="00:00:01.880">
  <property name="length">48</property>
  <property name="eof">pause</property>
  <property name="resource">C:/Users/Ichsan/tugasakhir/dataset-traintest/train/jump in place/3.avi</property>
  <property name="meta.media.nb_streams">1</property>
  <property name="meta.media.0.stream.type">video</property>
  <property name="meta.media.0.stream.frame_rate">25</property>
  <property name="meta.media.0.stream.sample_aspect_ratio">0</property>
  <property name="meta.media.0.codec.width">180</property>
  <property name="meta.media.0.codec.height">144</property>
  <property name="meta.media.0.codec.rotate">0</property>
  <property name="meta.media.0.codec.pix_fmt">bgr24</property>
  <property name="meta.media.0.codec.sample_aspect_ratio">0</property>
  <property name="meta.media.0.codec.colorspace">601</property>
  <property name="meta.media.0.codec.name">rawvideo</property>
  <property name="meta.media.0.codec.long_name">raw video</property>
  <property name="meta.media.0.codec.bit_rate">15882894</property>
  <property name="meta.attr.0.stream.title.markup">e:/stp/incoming_avis/subsampled/ido_pjump.avi</property>
  <property name="seekable">1</property>
  <property name="meta.media.sample_aspect_num">1</property>
  <property name="meta.media.sample_aspect_den">1</property>
  <property name="aspect_ratio">1</property>
  <property name="audio_index">-1</property>
  <property name="video_index">0</property>
  <property name="mute_on_pause">0</property>
  <property name="mlt_service">avformat-novalidate</property>
  <property name="kdenlive:clipname"/>
  <property name="kdenlive:folderid">6</property>
  <property name="meta.media.frame_rate_num">25</property>
  <property name="meta.media.frame_rate_den">1</property>
  <property name="meta.media.colorspace">601</property>
  <property name="meta.media.color_trc">2</property>
  <property name="meta.media.has_b_frames">0</property>
  <property name="meta.media.width">180</property>
  <property name="meta.media.height">144</property>
  <property name="meta.media.color_range">mpeg</property>
  <property name="kdenlive:id">37</property>
  <property name="kdenlive:file_size">3736064</property>
  <property name="kdenlive:file_hash">d2aea13ed696ad32bfe88a85af47c1dc</property>
  <property name="meta.media.top_field_first">0</property>
  <property name="meta.media.progressive">1</property>
 </producer>
 <producer id="producer22" in="00:00:00.000" out="00:00:05.040">
  <property name="length">127</property>
  <property name="eof">pause</property>
  <property name="resource">C:/Users/Ichsan/tugasakhir/dataset-traintest/train/jump in place/4.avi</property>
  <property name="meta.media.nb_streams">1</property>
  <property name="meta.media.0.stream.type">video</property>
  <property name="meta.media.0.stream.frame_rate">25</property>
  <property name="meta.media.0.stream.sample_aspect_ratio">0</property>
  <property name="meta.media.0.codec.width">180</property>
  <property name="meta.media.0.codec.height">144</property>
  <property name="meta.media.0.codec.rotate">0</property>
  <property name="meta.media.0.codec.pix_fmt">bgr24</property>
  <property name="meta.media.0.codec.sample_aspect_ratio">0</property>
  <property name="meta.media.0.codec.colorspace">601</property>
  <property name="meta.media.0.codec.name">rawvideo</property>
  <property name="meta.media.0.codec.long_name">raw video</property>
  <property name="meta.media.0.codec.bit_rate">15675429</property>
  <property name="meta.attr.0.stream.title.markup">e:/stp/incoming_avis/subsampled/ira_pjump.avi</property>
  <property name="seekable">1</property>
  <property name="meta.media.sample_aspect_num">1</property>
  <property name="meta.media.sample_aspect_den">1</property>
  <property name="aspect_ratio">1</property>
  <property name="audio_index">-1</property>
  <property name="video_index">0</property>
  <property name="mute_on_pause">0</property>
  <property name="mlt_service">avformat-novalidate</property>
  <property name="kdenlive:clipname"/>
  <property name="kdenlive:folderid">6</property>
  <property name="meta.media.frame_rate_num">25</property>
  <property name="meta.media.frame_rate_den">1</property>
  <property name="meta.media.colorspace">601</property>
  <property name="meta.media.color_trc">2</property>
  <property name="meta.media.has_b_frames">0</property>
  <property name="meta.media.width">180</property>
  <property name="meta.media.height">144</property>
  <property name="meta.media.color_range">mpeg</property>
  <property name="kdenlive:id">38</property>
  <property name="kdenlive:file_size">9881088</property>
  <property name="kdenlive:file_hash">00b8d6e0b0c48d3bfe3232ebe1876fbc</property>
  <property name="meta.media.top_field_first">0</property>
  <property name="meta.media.progressive">1</property>
 </producer>
 <producer id="producer23" in="00:00:00.000" out="00:00:01.920">
  <property name="length">49</property>
  <property name="eof">pause</property>
  <property name="resource">C:/Users/Ichsan/tugasakhir/dataset-traintest/train/jump in place/5.avi</property>
  <property name="meta.media.nb_streams">1</property>
  <property name="meta.media.0.stream.type">video</property>
  <property name="meta.media.0.stream.frame_rate">25</property>
  <property name="meta.media.0.stream.sample_aspect_ratio">0</property>
  <property name="meta.media.0.codec.width">180</property>
  <property name="meta.media.0.codec.height">144</property>
  <property name="meta.media.0.codec.rotate">0</property>
  <property name="meta.media.0.codec.pix_fmt">bgr24</property>
  <property name="meta.media.0.codec.sample_aspect_ratio">0</property>
  <property name="meta.media.0.codec.colorspace">601</property>
  <property name="meta.media.0.codec.name">rawvideo</property>
  <property name="meta.media.0.codec.long_name">raw video</property>
  <property name="meta.media.0.codec.bit_rate">15876000</property>
  <property name="meta.attr.0.stream.title.markup">e:/stp/incoming_avis/subsampled/lena_pjump.avi</property>
  <property name="seekable">1</property>
  <property name="meta.media.sample_aspect_num">1</property>
  <property name="meta.media.sample_aspect_den">1</property>
  <property name="aspect_ratio">1</property>
  <property name="audio_index">-1</property>
  <property name="video_index">0</property>
  <property name="mute_on_pause">0</property>
  <property name="mlt_service">avformat-novalidate</property>
  <property name="kdenlive:clipname"/>
  <property name="kdenlive:folderid">6</property>
  <property name="meta.media.frame_rate_num">25</property>
  <property name="meta.media.frame_rate_den">1</property>
  <property name="meta.media.colorspace">601</property>
  <property name="meta.media.color_trc">2</property>
  <property name="meta.media.has_b_frames">0</property>
  <property name="meta.media.width">180</property>
  <property name="meta.media.height">144</property>
  <property name="meta.media.color_range">mpeg</property>
  <property name="kdenlive:id">39</property>
  <property name="kdenlive:file_size">3813888</property>
  <property name="kdenlive:file_hash">94d569fe4bd69164e1504d6c4f6abdc4</property>
  <property name="meta.media.top_field_first">0</property>
  <property name="meta.media.progressive">1</property>
 </producer>
 <producer id="producer24" in="00:00:00.000" out="00:00:02.160">
  <property name="length">55</property>
  <property name="eof">pause</property>
  <property name="resource">C:/Users/Ichsan/tugasakhir/dataset-traintest/train/jumping jack/1.avi</property>
  <property name="meta.media.nb_streams">1</property>
  <property name="meta.media.0.stream.type">video</property>
  <property name="meta.media.0.stream.frame_rate">25</property>
  <property name="meta.media.0.stream.sample_aspect_ratio">0</property>
  <property name="meta.media.0.codec.width">180</property>
  <property name="meta.media.0.codec.height">144</property>
  <property name="meta.media.0.codec.rotate">0</property>
  <property name="meta.media.0.codec.pix_fmt">bgr24</property>
  <property name="meta.media.0.codec.sample_aspect_ratio">0</property>
  <property name="meta.media.0.codec.colorspace">601</property>
  <property name="meta.media.0.codec.name">rawvideo</property>
  <property name="meta.media.0.codec.long_name">raw video</property>
  <property name="meta.media.0.codec.bit_rate">15840000</property>
  <property name="meta.attr.0.stream.title.markup">e:/stp/incoming_avis/subsampled/denis_jack.avi</property>
  <property name="seekable">1</property>
  <property name="meta.media.sample_aspect_num">1</property>
  <property name="meta.media.sample_aspect_den">1</property>
  <property name="aspect_ratio">1</property>
  <property name="audio_index">-1</property>
  <property name="video_index">0</property>
  <property name="mute_on_pause">0</property>
  <property name="mlt_service">avformat-novalidate</property>
  <property name="kdenlive:clipname"/>
  <property name="kdenlive:folderid">8</property>
  <property name="meta.media.frame_rate_num">25</property>
  <property name="meta.media.frame_rate_den">1</property>
  <property name="meta.media.colorspace">601</property>
  <property name="meta.media.color_trc">2</property>
  <property name="meta.media.has_b_frames">0</property>
  <property name="meta.media.width">180</property>
  <property name="meta.media.height">144</property>
  <property name="meta.media.color_range">mpeg</property>
  <property name="kdenlive:id">41</property>
  <property name="kdenlive:file_size">4280320</property>
  <property name="kdenlive:file_hash">672c268e122fd157e6c63baec5976720</property>
  <property name="meta.media.top_field_first">0</property>
  <property name="meta.media.progressive">1</property>
 </producer>
 <producer id="producer25" in="00:00:00.000" out="00:00:03.520">
  <property name="length">89</property>
  <property name="eof">pause</property>
  <property name="resource">C:/Users/Ichsan/tugasakhir/dataset-traintest/train/jumping jack/0.avi</property>
  <property name="meta.media.nb_streams">1</property>
  <property name="meta.media.0.stream.type">video</property>
  <property name="meta.media.0.stream.frame_rate">25</property>
  <property name="meta.media.0.stream.sample_aspect_ratio">0</property>
  <property name="meta.media.0.codec.width">180</property>
  <property name="meta.media.0.codec.height">144</property>
  <property name="meta.media.0.codec.rotate">0</property>
  <property name="meta.media.0.codec.pix_fmt">bgr24</property>
  <property name="meta.media.0.codec.sample_aspect_ratio">0</property>
  <property name="meta.media.0.codec.colorspace">601</property>
  <property name="meta.media.0.codec.name">rawvideo</property>
  <property name="meta.media.0.codec.long_name">raw video</property>
  <property name="meta.media.0.codec.bit_rate">15728727</property>
  <property name="meta.attr.0.stream.title.markup">e:/stp/incoming_avis/subsampled/daria_jack.avi</property>
  <property name="seekable">1</property>
  <property name="meta.media.sample_aspect_num">1</property>
  <property name="meta.media.sample_aspect_den">1</property>
  <property name="aspect_ratio">1</property>
  <property name="audio_index">-1</property>
  <property name="video_index">0</property>
  <property name="mute_on_pause">0</property>
  <property name="mlt_service">avformat-novalidate</property>
  <property name="kdenlive:clipname"/>
  <property name="kdenlive:folderid">8</property>
  <property name="meta.media.frame_rate_num">25</property>
  <property name="meta.media.frame_rate_den">1</property>
  <property name="meta.media.colorspace">601</property>
  <property name="meta.media.color_trc">2</property>
  <property name="meta.media.has_b_frames">0</property>
  <property name="meta.media.width">180</property>
  <property name="meta.media.height">144</property>
  <property name="meta.media.color_range">mpeg</property>
  <property name="kdenlive:id">40</property>
  <property name="kdenlive:file_size">6925312</property>
  <property name="kdenlive:file_hash">7d091c54140f0102d8c8c8fb975d02d2</property>
  <property name="meta.media.top_field_first">0</property>
  <property name="meta.media.progressive">1</property>
 </producer>
 <producer id="producer26" in="00:00:00.000" out="00:00:02.000">
  <property name="length">51</property>
  <property name="eof">pause</property>
  <property name="resource">C:/Users/Ichsan/tugasakhir/dataset-traintest/train/jumping jack/2.avi</property>
  <property name="meta.media.nb_streams">1</property>
  <property name="meta.media.0.stream.type">video</property>
  <property name="meta.media.0.stream.frame_rate">25</property>
  <property name="meta.media.0.stream.sample_aspect_ratio">0</property>
  <property name="meta.media.0.codec.width">180</property>
  <property name="meta.media.0.codec.height">144</property>
  <property name="meta.media.0.codec.rotate">0</property>
  <property name="meta.media.0.codec.pix_fmt">bgr24</property>
  <property name="meta.media.0.codec.sample_aspect_ratio">0</property>
  <property name="meta.media.0.codec.colorspace">601</property>
  <property name="meta.media.0.codec.name">rawvideo</property>
  <property name="meta.media.0.codec.long_name">raw video</property>
  <property name="meta.media.0.codec.bit_rate">15863040</property>
  <property name="meta.attr.0.stream.title.markup">e:/stp/incoming_avis/subsampled/eli_jack.avi</property>
  <property name="seekable">1</property>
  <property name="meta.media.sample_aspect_num">1</property>
  <property name="meta.media.sample_aspect_den">1</property>
  <property name="aspect_ratio">1</property>
  <property name="audio_index">-1</property>
  <property name="video_index">0</property>
  <property name="mute_on_pause">0</property>
  <property name="mlt_service">avformat-novalidate</property>
  <property name="kdenlive:clipname"/>
  <property name="kdenlive:folderid">8</property>
  <property name="meta.media.frame_rate_num">25</property>
  <property name="meta.media.frame_rate_den">1</property>
  <property name="meta.media.colorspace">601</property>
  <property name="meta.media.color_trc">2</property>
  <property name="meta.media.has_b_frames">0</property>
  <property name="meta.media.width">180</property>
  <property name="meta.media.height">144</property>
  <property name="meta.media.color_range">mpeg</property>
  <property name="kdenlive:id">42</property>
  <property name="kdenlive:file_size">3969536</property>
  <property name="kdenlive:file_hash">91454136a4fc019e09f027852fa4906b</property>
  <property name="meta.media.top_field_first">0</property>
  <property name="meta.media.progressive">1</property>
 </producer>
 <producer id="producer27" in="00:00:00.000" out="00:00:02.120">
  <property name="length">54</property>
  <property name="eof">pause</property>
  <property name="resource">C:/Users/Ichsan/tugasakhir/dataset-traintest/train/jumping jack/3.avi</property>
  <property name="meta.media.nb_streams">1</property>
  <property name="meta.media.0.stream.type">video</property>
  <property name="meta.media.0.stream.frame_rate">25</property>
  <property name="meta.media.0.stream.sample_aspect_ratio">0</property>
  <property name="meta.media.0.codec.width">180</property>
  <property name="meta.media.0.codec.height">144</property>
  <property name="meta.media.0.codec.rotate">0</property>
  <property name="meta.media.0.codec.pix_fmt">bgr24</property>
  <property name="meta.media.0.codec.sample_aspect_ratio">0</property>
  <property name="meta.media.0.codec.colorspace">601</property>
  <property name="meta.media.0.codec.name">rawvideo</property>
  <property name="meta.media.0.codec.long_name">raw video</property>
  <property name="meta.media.0.codec.bit_rate">15845434</property>
  <property name="meta.attr.0.stream.title.markup">e:/stp/incoming_avis/subsampled/ido_jack.avi</property>
  <property name="seekable">1</property>
  <property name="meta.media.sample_aspect_num">1</property>
  <property name="meta.media.sample_aspect_den">1</property>
  <property name="aspect_ratio">1</property>
  <property name="audio_index">-1</property>
  <property name="video_index">0</property>
  <property name="mute_on_pause">0</property>
  <property name="mlt_service">avformat-novalidate</property>
  <property name="kdenlive:clipname"/>
  <property name="kdenlive:folderid">8</property>
  <property name="meta.media.frame_rate_num">25</property>
  <property name="meta.media.frame_rate_den">1</property>
  <property name="meta.media.colorspace">601</property>
  <property name="meta.media.color_trc">2</property>
  <property name="meta.media.has_b_frames">0</property>
  <property name="meta.media.width">180</property>
  <property name="meta.media.height">144</property>
  <property name="meta.media.color_range">mpeg</property>
  <property name="kdenlive:id">43</property>
  <property name="kdenlive:file_size">4202496</property>
  <property name="kdenlive:file_hash">01de198455247cca390e13971e1f79d0</property>
  <property name="meta.media.top_field_first">0</property>
  <property name="meta.media.progressive">1</property>
 </producer>
 <producer id="producer28" in="00:00:00.000" out="00:00:02.760">
  <property name="length">70</property>
  <property name="eof">pause</property>
  <property name="resource">C:/Users/Ichsan/tugasakhir/dataset-traintest/train/jumping jack/4.avi</property>
  <property name="meta.media.nb_streams">1</property>
  <property name="meta.media.0.stream.type">video</property>
  <property name="meta.media.0.stream.frame_rate">25</property>
  <property name="meta.media.0.stream.sample_aspect_ratio">0</property>
  <property name="meta.media.0.codec.width">180</property>
  <property name="meta.media.0.codec.height">144</property>
  <property name="meta.media.0.codec.rotate">0</property>
  <property name="meta.media.0.codec.pix_fmt">bgr24</property>
  <property name="meta.media.0.codec.sample_aspect_ratio">0</property>
  <property name="meta.media.0.codec.colorspace">601</property>
  <property name="meta.media.0.codec.name">rawvideo</property>
  <property name="meta.media.0.codec.long_name">raw video</property>
  <property name="meta.media.0.codec.bit_rate">15777391</property>
  <property name="meta.attr.0.stream.title.markup">e:/stp/incoming_avis/subsampled/ira_jack.avi</property>
  <property name="seekable">1</property>
  <property name="meta.media.sample_aspect_num">1</property>
  <property name="meta.media.sample_aspect_den">1</property>
  <property name="aspect_ratio">1</property>
  <property name="audio_index">-1</property>
  <property name="video_index">0</property>
  <property name="mute_on_pause">0</property>
  <property name="mlt_service">avformat-novalidate</property>
  <property name="kdenlive:clipname"/>
  <property name="kdenlive:folderid">8</property>
  <property name="meta.media.frame_rate_num">25</property>
  <property name="meta.media.frame_rate_den">1</property>
  <property name="meta.media.colorspace">601</property>
  <property name="meta.media.color_trc">2</property>
  <property name="meta.media.has_b_frames">0</property>
  <property name="meta.media.width">180</property>
  <property name="meta.media.height">144</property>
  <property name="meta.media.color_range">mpeg</property>
  <property name="kdenlive:id">44</property>
  <property name="kdenlive:file_size">5447168</property>
  <property name="kdenlive:file_hash">9e61e010e48c5d5c534ac133c374011a</property>
  <property name="meta.media.top_field_first">0</property>
  <property name="meta.media.progressive">1</property>
 </producer>
 <producer id="producer29" in="00:00:00.000" out="00:00:05.800">
  <property name="length">146</property>
  <property name="eof">pause</property>
  <property name="resource">C:/Users/Ichsan/tugasakhir/dataset-traintest/train/jumping jack/5.avi</property>
  <property name="meta.media.nb_streams">1</property>
  <property name="meta.media.0.stream.type">video</property>
  <property name="meta.media.0.stream.frame_rate">25</property>
  <property name="meta.media.0.stream.sample_aspect_ratio">0</property>
  <property name="meta.media.0.codec.width">180</property>
  <property name="meta.media.0.codec.height">144</property>
  <property name="meta.media.0.codec.rotate">0</property>
  <property name="meta.media.0.codec.pix_fmt">bgr24</property>
  <property name="meta.media.0.codec.sample_aspect_ratio">0</property>
  <property name="meta.media.0.codec.colorspace">601</property>
  <property name="meta.media.0.codec.name">rawvideo</property>
  <property name="meta.media.0.codec.long_name">raw video</property>
  <property name="meta.media.0.codec.bit_rate">15659255</property>
  <property name="meta.attr.0.stream.title.markup">e:/stp/incoming_avis/subsampled/lena_jack.avi</property>
  <property name="seekable">1</property>
  <property name="meta.media.sample_aspect_num">1</property>
  <property name="meta.media.sample_aspect_den">1</property>
  <property name="aspect_ratio">1</property>
  <property name="audio_index">-1</property>
  <property name="video_index">0</property>
  <property name="mute_on_pause">0</property>
  <property name="mlt_service">avformat-novalidate</property>
  <property name="kdenlive:clipname"/>
  <property name="kdenlive:folderid">8</property>
  <property name="meta.media.frame_rate_num">25</property>
  <property name="meta.media.frame_rate_den">1</property>
  <property name="meta.media.colorspace">601</property>
  <property name="meta.media.color_trc">2</property>
  <property name="meta.media.has_b_frames">0</property>
  <property name="meta.media.width">180</property>
  <property name="meta.media.height">144</property>
  <property name="meta.media.color_range">mpeg</property>
  <property name="kdenlive:id">45</property>
  <property name="kdenlive:file_size">11358720</property>
  <property name="kdenlive:file_hash">69656a02af9542300280aad0393cd1c4</property>
  <property name="meta.media.top_field_first">0</property>
  <property name="meta.media.progressive">1</property>
 </producer>
 <producer id="producer30" in="00:00:00.000" out="00:00:03.240">
  <property name="length">82</property>
  <property name="eof">pause</property>
  <property name="resource">C:/Users/Ichsan/tugasakhir/dataset-traintest/train/one-hand wave/0.avi</property>
  <property name="meta.media.nb_streams">1</property>
  <property name="meta.media.0.stream.type">video</property>
  <property name="meta.media.0.stream.frame_rate">25</property>
  <property name="meta.media.0.stream.sample_aspect_ratio">0</property>
  <property name="meta.media.0.codec.width">180</property>
  <property name="meta.media.0.codec.height">144</property>
  <property name="meta.media.0.codec.rotate">0</property>
  <property name="meta.media.0.codec.pix_fmt">bgr24</property>
  <property name="meta.media.0.codec.sample_aspect_ratio">0</property>
  <property name="meta.media.0.codec.colorspace">601</property>
  <property name="meta.media.0.codec.name">rawvideo</property>
  <property name="meta.media.0.codec.long_name">raw video</property>
  <property name="meta.media.0.codec.bit_rate">15744000</property>
  <property name="meta.attr.0.stream.title.markup">e:/stp/incoming_avis/subsampled/daria_wave1.avi</property>
  <property name="seekable">1</property>
  <property name="meta.media.sample_aspect_num">1</property>
  <property name="meta.media.sample_aspect_den">1</property>
  <property name="aspect_ratio">1</property>
  <property name="audio_index">-1</property>
  <property name="video_index">0</property>
  <property name="mute_on_pause">0</property>
  <property name="mlt_service">avformat-novalidate</property>
  <property name="kdenlive:clipname"/>
  <property name="kdenlive:folderid">9</property>
  <property name="meta.media.frame_rate_num">25</property>
  <property name="meta.media.frame_rate_den">1</property>
  <property name="meta.media.colorspace">601</property>
  <property name="meta.media.color_trc">2</property>
  <property name="meta.media.has_b_frames">0</property>
  <property name="meta.media.width">180</property>
  <property name="meta.media.height">144</property>
  <property name="meta.media.color_range">mpeg</property>
  <property name="kdenlive:id">46</property>
  <property name="kdenlive:file_size">6380544</property>
  <property name="kdenlive:file_hash">5d3787c9c97425c4d9db366f5fdff6ae</property>
  <property name="meta.media.top_field_first">0</property>
  <property name="meta.media.progressive">1</property>
 </producer>
 <producer id="producer31" in="00:00:00.000" out="00:00:02.360">
  <property name="length">60</property>
  <property name="eof">pause</property>
  <property name="resource">C:/Users/Ichsan/tugasakhir/dataset-traintest/train/one-hand wave/1.avi</property>
  <property name="meta.media.nb_streams">1</property>
  <property name="meta.media.0.stream.type">video</property>
  <property name="meta.media.0.stream.frame_rate">25</property>
  <property name="meta.media.0.stream.sample_aspect_ratio">0</property>
  <property name="meta.media.0.codec.width">180</property>
  <property name="meta.media.0.codec.height">144</property>
  <property name="meta.media.0.codec.rotate">0</property>
  <property name="meta.media.0.codec.pix_fmt">bgr24</property>
  <property name="meta.media.0.codec.sample_aspect_ratio">0</property>
  <property name="meta.media.0.codec.colorspace">601</property>
  <property name="meta.media.0.codec.name">rawvideo</property>
  <property name="meta.media.0.codec.long_name">raw video</property>
  <property name="meta.media.0.codec.bit_rate">15815593</property>
  <property name="meta.attr.0.stream.title.markup">e:/stp/incoming_avis/subsampled/denis_wave1.avi</property>
  <property name="seekable">1</property>
  <property name="meta.media.sample_aspect_num">1</property>
  <property name="meta.media.sample_aspect_den">1</property>
  <property name="aspect_ratio">1</property>
  <property name="audio_index">-1</property>
  <property name="video_index">0</property>
  <property name="mute_on_pause">0</property>
  <property name="mlt_service">avformat-novalidate</property>
  <property name="kdenlive:clipname"/>
  <property name="kdenlive:folderid">9</property>
  <property name="meta.media.frame_rate_num">25</property>
  <property name="meta.media.frame_rate_den">1</property>
  <property name="meta.media.colorspace">601</property>
  <property name="meta.media.color_trc">2</property>
  <property name="meta.media.has_b_frames">0</property>
  <property name="meta.media.width">180</property>
  <property name="meta.media.height">144</property>
  <property name="meta.media.color_range">mpeg</property>
  <property name="kdenlive:id">47</property>
  <property name="kdenlive:file_size">4669440</property>
  <property name="kdenlive:file_hash">381716a29f674ab46b31cc8a1898f47c</property>
  <property name="meta.media.top_field_first">0</property>
  <property name="meta.media.progressive">1</property>
 </producer>
 <producer id="producer32" in="00:00:00.000" out="00:00:04.960">
  <property name="length">125</property>
  <property name="eof">pause</property>
  <property name="resource">C:/Users/Ichsan/tugasakhir/dataset-traintest/train/one-hand wave/2.avi</property>
  <property name="meta.media.nb_streams">1</property>
  <property name="meta.media.0.stream.type">video</property>
  <property name="meta.media.0.stream.frame_rate">25</property>
  <property name="meta.media.0.stream.sample_aspect_ratio">0</property>
  <property name="meta.media.0.codec.width">180</property>
  <property name="meta.media.0.codec.height">144</property>
  <property name="meta.media.0.codec.rotate">0</property>
  <property name="meta.media.0.codec.pix_fmt">bgr24</property>
  <property name="meta.media.0.codec.sample_aspect_ratio">0</property>
  <property name="meta.media.0.codec.colorspace">601</property>
  <property name="meta.media.0.codec.name">rawvideo</property>
  <property name="meta.media.0.codec.long_name">raw video</property>
  <property name="meta.media.0.codec.bit_rate">15677419</property>
  <property name="meta.attr.0.stream.title.markup">e:/stp/incoming_avis/subsampled/eli_wave1.avi</property>
  <property name="seekable">1</property>
  <property name="meta.media.sample_aspect_num">1</property>
  <property name="meta.media.sample_aspect_den">1</property>
  <property name="aspect_ratio">1</property>
  <property name="audio_index">-1</property>
  <property name="video_index">0</property>
  <property name="mute_on_pause">0</property>
  <property name="mlt_service">avformat-novalidate</property>
  <property name="kdenlive:clipname"/>
  <property name="kdenlive:folderid">9</property>
  <property name="meta.media.frame_rate_num">25</property>
  <property name="meta.media.frame_rate_den">1</property>
  <property name="meta.media.colorspace">601</property>
  <property name="meta.media.color_trc">2</property>
  <property name="meta.media.has_b_frames">0</property>
  <property name="meta.media.width">180</property>
  <property name="meta.media.height">144</property>
  <property name="meta.media.color_range">mpeg</property>
  <property name="kdenlive:id">48</property>
  <property name="kdenlive:file_size">9725440</property>
  <property name="kdenlive:file_hash">7fd7319b18b81d1b302b8040537a73a0</property>
  <property name="meta.media.top_field_first">0</property>
  <property name="meta.media.progressive">1</property>
 </producer>
 <producer id="producer33" in="00:00:00.000" out="00:00:02.160">
  <property name="length">55</property>
  <property name="eof">pause</property>
  <property name="resource">C:/Users/Ichsan/tugasakhir/dataset-traintest/train/one-hand wave/3.avi</property>
  <property name="meta.media.nb_streams">1</property>
  <property name="meta.media.0.stream.type">video</property>
  <property name="meta.media.0.stream.frame_rate">25</property>
  <property name="meta.media.0.stream.sample_aspect_ratio">0</property>
  <property name="meta.media.0.codec.width">180</property>
  <property name="meta.media.0.codec.height">144</property>
  <property name="meta.media.0.codec.rotate">0</property>
  <property name="meta.media.0.codec.pix_fmt">bgr24</property>
  <property name="meta.media.0.codec.sample_aspect_ratio">0</property>
  <property name="meta.media.0.codec.colorspace">601</property>
  <property name="meta.media.0.codec.name">rawvideo</property>
  <property name="meta.media.0.codec.long_name">raw video</property>
  <property name="meta.media.0.codec.bit_rate">15840000</property>
  <property name="meta.attr.0.stream.title.markup">e:/stp/incoming_avis/subsampled/ido_wave1.avi</property>
  <property name="seekable">1</property>
  <property name="meta.media.sample_aspect_num">1</property>
  <property name="meta.media.sample_aspect_den">1</property>
  <property name="aspect_ratio">1</property>
  <property name="audio_index">-1</property>
  <property name="video_index">0</property>
  <property name="mute_on_pause">0</property>
  <property name="mlt_service">avformat-novalidate</property>
  <property name="kdenlive:clipname"/>
  <property name="kdenlive:folderid">9</property>
  <property name="meta.media.frame_rate_num">25</property>
  <property name="meta.media.frame_rate_den">1</property>
  <property name="meta.media.colorspace">601</property>
  <property name="meta.media.color_trc">2</property>
  <property name="meta.media.has_b_frames">0</property>
  <property name="meta.media.width">180</property>
  <property name="meta.media.height">144</property>
  <property name="meta.media.color_range">mpeg</property>
  <property name="kdenlive:id">49</property>
  <property name="kdenlive:file_size">4280320</property>
  <property name="kdenlive:file_hash">d5ad7b9bcb28e27d99efcfbb8388ec51</property>
  <property name="meta.media.top_field_first">0</property>
  <property name="meta.media.progressive">1</property>
 </producer>
 <producer id="producer34" in="00:00:00.000" out="00:00:04.080">
  <property name="length">103</property>
  <property name="eof">pause</property>
  <property name="resource">C:/Users/Ichsan/tugasakhir/dataset-traintest/train/one-hand wave/4.avi</property>
  <property name="meta.media.nb_streams">1</property>
  <property name="meta.media.0.stream.type">video</property>
  <property name="meta.media.0.stream.frame_rate">25</property>
  <property name="meta.media.0.stream.sample_aspect_ratio">0</property>
  <property name="meta.media.0.codec.width">180</property>
  <property name="meta.media.0.codec.height">144</property>
  <property name="meta.media.0.codec.rotate">0</property>
  <property name="meta.media.0.codec.pix_fmt">bgr24</property>
  <property name="meta.media.0.codec.sample_aspect_ratio">0</property>
  <property name="meta.media.0.codec.colorspace">601</property>
  <property name="meta.media.0.codec.name">rawvideo</property>
  <property name="meta.media.0.codec.long_name">raw video</property>
  <property name="meta.media.0.codec.bit_rate">15704471</property>
  <property name="meta.attr.0.stream.title.markup">e:/stp/incoming_avis/subsampled/ira_wave1.avi</property>
  <property name="seekable">1</property>
  <property name="meta.media.sample_aspect_num">1</property>
  <property name="meta.media.sample_aspect_den">1</property>
  <property name="aspect_ratio">1</property>
  <property name="audio_index">-1</property>
  <property name="video_index">0</property>
  <property name="mute_on_pause">0</property>
  <property name="mlt_service">avformat-novalidate</property>
  <property name="kdenlive:clipname"/>
  <property name="kdenlive:folderid">9</property>
  <property name="meta.media.frame_rate_num">25</property>
  <property name="meta.media.frame_rate_den">1</property>
  <property name="meta.media.colorspace">601</property>
  <property name="meta.media.color_trc">2</property>
  <property name="meta.media.has_b_frames">0</property>
  <property name="meta.media.width">180</property>
  <property name="meta.media.height">144</property>
  <property name="meta.media.color_range">mpeg</property>
  <property name="kdenlive:id">50</property>
  <property name="kdenlive:file_size">8013824</property>
  <property name="kdenlive:file_hash">61a8dc1f95e4e23c29f10c332263f3c5</property>
  <property name="meta.media.top_field_first">0</property>
  <property name="meta.media.progressive">1</property>
 </producer>
 <producer id="producer35" in="00:00:00.000" out="00:00:02.080">
  <property name="length">53</property>
  <property name="eof">pause</property>
  <property name="resource">C:/Users/Ichsan/tugasakhir/dataset-traintest/train/one-hand wave/5.avi</property>
  <property name="meta.media.nb_streams">1</property>
  <property name="meta.media.0.stream.type">video</property>
  <property name="meta.media.0.stream.frame_rate">25</property>
  <property name="meta.media.0.stream.sample_aspect_ratio">0</property>
  <property name="meta.media.0.codec.width">180</property>
  <property name="meta.media.0.codec.height">144</property>
  <property name="meta.media.0.codec.rotate">0</property>
  <property name="meta.media.0.codec.pix_fmt">bgr24</property>
  <property name="meta.media.0.codec.sample_aspect_ratio">0</property>
  <property name="meta.media.0.codec.colorspace">601</property>
  <property name="meta.media.0.codec.name">rawvideo</property>
  <property name="meta.media.0.codec.long_name">raw video</property>
  <property name="meta.media.0.codec.bit_rate">15851077</property>
  <property name="meta.attr.0.stream.title.markup">e:/stp/incoming_avis/subsampled/lena_wave1.avi</property>
  <property name="seekable">1</property>
  <property name="meta.media.sample_aspect_num">1</property>
  <property name="meta.media.sample_aspect_den">1</property>
  <property name="aspect_ratio">1</property>
  <property name="audio_index">-1</property>
  <property name="video_index">0</property>
  <property name="mute_on_pause">0</property>
  <property name="mlt_service">avformat-novalidate</property>
  <property name="kdenlive:clipname"/>
  <property name="kdenlive:folderid">9</property>
  <property name="meta.media.frame_rate_num">25</property>
  <property name="meta.media.frame_rate_den">1</property>
  <property name="meta.media.colorspace">601</property>
  <property name="meta.media.color_trc">2</property>
  <property name="meta.media.has_b_frames">0</property>
  <property name="meta.media.width">180</property>
  <property name="meta.media.height">144</property>
  <property name="meta.media.color_range">mpeg</property>
  <property name="kdenlive:id">51</property>
  <property name="kdenlive:file_size">4124672</property>
  <property name="kdenlive:file_hash">f2f17f9a43861fd7087fa1afbd915e91</property>
  <property name="meta.media.top_field_first">0</property>
  <property name="meta.media.progressive">1</property>
 </producer>
 <producer id="producer36" in="00:00:00.000" out="00:00:01.600">
  <property name="length">41</property>
  <property name="eof">pause</property>
  <property name="resource">C:/Users/Ichsan/tugasakhir/dataset-traintest/train/run/1.avi</property>
  <property name="meta.media.nb_streams">1</property>
  <property name="meta.media.0.stream.type">video</property>
  <property name="meta.media.0.stream.frame_rate">25</property>
  <property name="meta.media.0.stream.sample_aspect_ratio">0</property>
  <property name="meta.media.0.codec.width">180</property>
  <property name="meta.media.0.codec.height">144</property>
  <property name="meta.media.0.codec.rotate">0</property>
  <property name="meta.media.0.codec.pix_fmt">bgr24</property>
  <property name="meta.media.0.codec.sample_aspect_ratio">0</property>
  <property name="meta.media.0.codec.colorspace">601</property>
  <property name="meta.media.0.codec.name">rawvideo</property>
  <property name="meta.media.0.codec.long_name">raw video</property>
  <property name="meta.media.0.codec.bit_rate">15940800</property>
  <property name="meta.attr.0.stream.title.markup">e:/stp/incoming_avis/subsampled/denis_run.avi</property>
  <property name="seekable">1</property>
  <property name="meta.media.sample_aspect_num">1</property>
  <property name="meta.media.sample_aspect_den">1</property>
  <property name="aspect_ratio">1</property>
  <property name="audio_index">-1</property>
  <property name="video_index">0</property>
  <property name="mute_on_pause">0</property>
  <property name="mlt_service">avformat-novalidate</property>
  <property name="kdenlive:clipname"/>
  <property name="kdenlive:folderid">11</property>
  <property name="meta.media.frame_rate_num">25</property>
  <property name="meta.media.frame_rate_den">1</property>
  <property name="meta.media.colorspace">601</property>
  <property name="meta.media.color_trc">2</property>
  <property name="meta.media.has_b_frames">0</property>
  <property name="meta.media.width">180</property>
  <property name="meta.media.height">144</property>
  <property name="meta.media.color_range">mpeg</property>
  <property name="kdenlive:id">53</property>
  <property name="kdenlive:file_size">3191296</property>
  <property name="kdenlive:file_hash">1b8c93ae74896eadde217a4b4f2a7aca</property>
  <property name="meta.media.top_field_first">0</property>
  <property name="meta.media.progressive">1</property>
 </producer>
 <producer id="producer37" in="00:00:00.000" out="00:00:01.920">
  <property name="length">49</property>
  <property name="eof">pause</property>
  <property name="resource">C:/Users/Ichsan/tugasakhir/dataset-traintest/train/run/2.avi</property>
  <property name="meta.media.nb_streams">1</property>
  <property name="meta.media.0.stream.type">video</property>
  <property name="meta.media.0.stream.frame_rate">25</property>
  <property name="meta.media.0.stream.sample_aspect_ratio">0</property>
  <property name="meta.media.0.codec.width">180</property>
  <property name="meta.media.0.codec.height">144</property>
  <property name="meta.media.0.codec.rotate">0</property>
  <property name="meta.media.0.codec.pix_fmt">bgr24</property>
  <property name="meta.media.0.codec.sample_aspect_ratio">0</property>
  <property name="meta.media.0.codec.colorspace">601</property>
  <property name="meta.media.0.codec.name">rawvideo</property>
  <property name="meta.media.0.codec.long_name">raw video</property>
  <property name="meta.media.0.codec.bit_rate">0</property>
  <property name="meta.attr.0.stream.title.markup">e:/stp/incoming_avis/subsampled/dynamic/eli_run.avi</property>
  <property name="seekable">1</property>
  <property name="meta.media.sample_aspect_num">1</property>
  <property name="meta.media.sample_aspect_den">1</property>
  <property name="aspect_ratio">1</property>
  <property name="audio_index">-1</property>
  <property name="video_index">0</property>
  <property name="mute_on_pause">0</property>
  <property name="mlt_service">avformat-novalidate</property>
  <property name="kdenlive:clipname"/>
  <property name="kdenlive:folderid">11</property>
  <property name="meta.media.frame_rate_num">25</property>
  <property name="meta.media.frame_rate_den">1</property>
  <property name="meta.media.colorspace">601</property>
  <property name="meta.media.color_trc">2</property>
  <property name="meta.media.has_b_frames">0</property>
  <property name="meta.media.width">180</property>
  <property name="meta.media.height">144</property>
  <property name="meta.media.color_range">mpeg</property>
  <property name="kdenlive:id">54</property>
  <property name="kdenlive:file_size">5991424</property>
  <property name="kdenlive:file_hash">46047dfed4316d03c5688627d3af0998</property>
  <property name="meta.media.top_field_first">0</property>
  <property name="meta.media.progressive">1</property>
 </producer>
 <producer id="producer38" in="00:00:00.000" out="00:00:01.640">
  <property name="length">42</property>
  <property name="eof">pause</property>
  <property name="resource">C:/Users/Ichsan/tugasakhir/dataset-traintest/train/run/0.avi</property>
  <property name="meta.media.nb_streams">1</property>
  <property name="meta.media.0.stream.type">video</property>
  <property name="meta.media.0.stream.frame_rate">25</property>
  <property name="meta.media.0.stream.sample_aspect_ratio">0</property>
  <property name="meta.media.0.codec.width">180</property>
  <property name="meta.media.0.codec.height">144</property>
  <property name="meta.media.0.codec.rotate">0</property>
  <property name="meta.media.0.codec.pix_fmt">bgr24</property>
  <property name="meta.media.0.codec.sample_aspect_ratio">0</property>
  <property name="meta.media.0.codec.colorspace">601</property>
  <property name="meta.media.0.codec.name">rawvideo</property>
  <property name="meta.media.0.codec.long_name">raw video</property>
  <property name="meta.media.0.codec.bit_rate">15931317</property>
  <property name="meta.attr.0.stream.title.markup">e:/stp/incoming_avis/subsampled/daria_run.avi</property>
  <property name="seekable">1</property>
  <property name="meta.media.sample_aspect_num">1</property>
  <property name="meta.media.sample_aspect_den">1</property>
  <property name="aspect_ratio">1</property>
  <property name="audio_index">-1</property>
  <property name="video_index">0</property>
  <property name="mute_on_pause">0</property>
  <property name="mlt_service">avformat-novalidate</property>
  <property name="kdenlive:clipname"/>
  <property name="kdenlive:folderid">11</property>
  <property name="meta.media.frame_rate_num">25</property>
  <property name="meta.media.frame_rate_den">1</property>
  <property name="meta.media.colorspace">601</property>
  <property name="meta.media.color_trc">2</property>
  <property name="meta.media.has_b_frames">0</property>
  <property name="meta.media.width">180</property>
  <property name="meta.media.height">144</property>
  <property name="meta.media.color_range">mpeg</property>
  <property name="kdenlive:id">52</property>
  <property name="kdenlive:file_size">3269120</property>
  <property name="kdenlive:file_hash">fe1b5dfe0ea99783dd5097c28d98ccb9</property>
  <property name="meta.media.top_field_first">0</property>
  <property name="meta.media.progressive">1</property>
 </producer>
 <producer id="producer39" in="00:00:00.000" out="00:00:01.400">
  <property name="length">36</property>
  <property name="eof">pause</property>
  <property name="resource">C:/Users/Ichsan/tugasakhir/dataset-traintest/train/run/3.avi</property>
  <property name="meta.media.nb_streams">1</property>
  <property name="meta.media.0.stream.type">video</property>
  <property name="meta.media.0.stream.frame_rate">25</property>
  <property name="meta.media.0.stream.sample_aspect_ratio">0</property>
  <property name="meta.media.0.codec.width">180</property>
  <property name="meta.media.0.codec.height">144</property>
  <property name="meta.media.0.codec.rotate">0</property>
  <property name="meta.media.0.codec.pix_fmt">bgr24</property>
  <property name="meta.media.0.codec.sample_aspect_ratio">0</property>
  <property name="meta.media.0.codec.colorspace">601</property>
  <property name="meta.media.0.codec.name">rawvideo</property>
  <property name="meta.media.0.codec.long_name">raw video</property>
  <property name="meta.media.0.codec.bit_rate">15996343</property>
  <property name="meta.attr.0.stream.title.markup">e:/stp/incoming_avis/subsampled/ido_run.avi</property>
  <property name="seekable">1</property>
  <property name="meta.media.sample_aspect_num">1</property>
  <property name="meta.media.sample_aspect_den">1</property>
  <property name="aspect_ratio">1</property>
  <property name="audio_index">-1</property>
  <property name="video_index">0</property>
  <property name="mute_on_pause">0</property>
  <property name="mlt_service">avformat-novalidate</property>
  <property name="kdenlive:clipname"/>
  <property name="kdenlive:file_size">2802688</property>
  <property name="kdenlive:folderid">11</property>
  <property name="meta.media.frame_rate_num">25</property>
  <property name="meta.media.frame_rate_den">1</property>
  <property name="meta.media.colorspace">601</property>
  <property name="meta.media.color_trc">2</property>
  <property name="meta.media.has_b_frames">0</property>
  <property name="meta.media.width">180</property>
  <property name="meta.media.height">144</property>
  <property name="meta.media.color_range">mpeg</property>
  <property name="kdenlive:id">55</property>
  <property name="kdenlive:file_hash">4864c8ec0a3588b108edcfab7eddaac1</property>
  <property name="meta.media.top_field_first">0</property>
  <property name="meta.media.progressive">1</property>
 </producer>
 <producer id="producer40" in="00:00:00.000" out="00:00:02.200">
  <property name="length">56</property>
  <property name="eof">pause</property>
  <property name="resource">C:/Users/Ichsan/tugasakhir/dataset-traintest/train/run/4.avi</property>
  <property name="meta.media.nb_streams">1</property>
  <property name="meta.media.0.stream.type">video</property>
  <property name="meta.media.0.stream.frame_rate">25</property>
  <property name="meta.media.0.stream.sample_aspect_ratio">0</property>
  <property name="meta.media.0.codec.width">180</property>
  <property name="meta.media.0.codec.height">144</property>
  <property name="meta.media.0.codec.rotate">0</property>
  <property name="meta.media.0.codec.pix_fmt">bgr24</property>
  <property name="meta.media.0.codec.sample_aspect_ratio">0</property>
  <property name="meta.media.0.codec.colorspace">601</property>
  <property name="meta.media.0.codec.name">rawvideo</property>
  <property name="meta.media.0.codec.long_name">raw video</property>
  <property name="meta.media.0.codec.bit_rate">15834764</property>
  <property name="meta.attr.0.stream.title.markup">e:/stp/incoming_avis/subsampled/ira_run.avi</property>
  <property name="seekable">1</property>
  <property name="meta.media.sample_aspect_num">1</property>
  <property name="meta.media.sample_aspect_den">1</property>
  <property name="aspect_ratio">1</property>
  <property name="audio_index">-1</property>
  <property name="video_index">0</property>
  <property name="mute_on_pause">0</property>
  <property name="mlt_service">avformat-novalidate</property>
  <property name="kdenlive:clipname"/>
  <property name="kdenlive:folderid">11</property>
  <property name="meta.media.frame_rate_num">25</property>
  <property name="meta.media.frame_rate_den">1</property>
  <property name="meta.media.colorspace">601</property>
  <property name="meta.media.color_trc">2</property>
  <property name="meta.media.has_b_frames">0</property>
  <property name="meta.media.width">180</property>
  <property name="meta.media.height">144</property>
  <property name="meta.media.color_range">mpeg</property>
  <property name="kdenlive:id">56</property>
  <property name="kdenlive:file_size">4358144</property>
  <property name="kdenlive:file_hash">e80fe800339f6d043d998fd908fd9530</property>
  <property name="meta.media.top_field_first">0</property>
  <property name="meta.media.progressive">1</property>
 </producer>
 <producer id="producer41" in="00:00:00.000" out="00:00:01.080">
  <property name="length">28</property>
  <property name="eof">pause</property>
  <property name="resource">C:/Users/Ichsan/tugasakhir/dataset-traintest/train/run/5.avi</property>
  <property name="meta.media.nb_streams">1</property>
  <property name="meta.media.0.stream.type">video</property>
  <property name="meta.media.0.stream.frame_rate">25</property>
  <property name="meta.media.0.stream.sample_aspect_ratio">0</property>
  <property name="meta.media.0.codec.width">180</property>
  <property name="meta.media.0.codec.height">144</property>
  <property name="meta.media.0.codec.rotate">0</property>
  <property name="meta.media.0.codec.pix_fmt">bgr24</property>
  <property name="meta.media.0.codec.sample_aspect_ratio">0</property>
  <property name="meta.media.0.codec.colorspace">601</property>
  <property name="meta.media.0.codec.name">rawvideo</property>
  <property name="meta.media.0.codec.long_name">raw video</property>
  <property name="meta.media.0.codec.bit_rate">0</property>
  <property name="meta.attr.0.stream.title.markup">e:/stp/incoming_avis/subsampled/dynamic/lena_run1.avi</property>
  <property name="seekable">1</property>
  <property name="meta.media.sample_aspect_num">1</property>
  <property name="meta.media.sample_aspect_den">1</property>
  <property name="aspect_ratio">1</property>
  <property name="audio_index">-1</property>
  <property name="video_index">0</property>
  <property name="mute_on_pause">0</property>
  <property name="mlt_service">avformat-novalidate</property>
  <property name="kdenlive:clipname"/>
  <property name="kdenlive:folderid">11</property>
  <property name="meta.media.frame_rate_num">25</property>
  <property name="meta.media.frame_rate_den">1</property>
  <property name="meta.media.colorspace">601</property>
  <property name="meta.media.color_trc">2</property>
  <property name="meta.media.has_b_frames">0</property>
  <property name="meta.media.width">180</property>
  <property name="meta.media.height">144</property>
  <property name="meta.media.color_range">mpeg</property>
  <property name="kdenlive:id">57</property>
  <property name="kdenlive:file_size">4124672</property>
  <property name="kdenlive:file_hash">692355707ce0364c5fe2ca9dd14ef5e4</property>
  <property name="meta.media.top_field_first">0</property>
  <property name="meta.media.progressive">1</property>
 </producer>
 <producer id="producer42" in="00:00:00.000" out="00:00:02.240">
  <property name="length">57</property>
  <property name="eof">pause</property>
  <property name="resource">C:/Users/Ichsan/tugasakhir/dataset-traintest/train/skip/0.avi</property>
  <property name="meta.media.nb_streams">1</property>
  <property name="meta.media.0.stream.type">video</property>
  <property name="meta.media.0.stream.frame_rate">25</property>
  <property name="meta.media.0.stream.sample_aspect_ratio">0</property>
  <property name="meta.media.0.codec.width">180</property>
  <property name="meta.media.0.codec.height">144</property>
  <property name="meta.media.0.codec.rotate">0</property>
  <property name="meta.media.0.codec.pix_fmt">bgr24</property>
  <property name="meta.media.0.codec.sample_aspect_ratio">0</property>
  <property name="meta.media.0.codec.colorspace">601</property>
  <property name="meta.media.0.codec.name">rawvideo</property>
  <property name="meta.media.0.codec.long_name">raw video</property>
  <property name="meta.media.0.codec.bit_rate">15829714</property>
  <property name="meta.attr.0.stream.title.markup">e:/stp/incoming_avis/subsampled/daria_skip.avi</property>
  <property name="seekable">1</property>
  <property name="meta.media.sample_aspect_num">1</property>
  <property name="meta.media.sample_aspect_den">1</property>
  <property name="aspect_ratio">1</property>
  <property name="audio_index">-1</property>
  <property name="video_index">0</property>
  <property name="mute_on_pause">0</property>
  <property name="mlt_service">avformat-novalidate</property>
  <property name="kdenlive:clipname"/>
  <property name="kdenlive:folderid">13</property>
  <property name="meta.media.frame_rate_num">25</property>
  <property name="meta.media.frame_rate_den">1</property>
  <property name="meta.media.colorspace">601</property>
  <property name="meta.media.color_trc">2</property>
  <property name="meta.media.has_b_frames">0</property>
  <property name="meta.media.width">180</property>
  <property name="meta.media.height">144</property>
  <property name="meta.media.color_range">mpeg</property>
  <property name="kdenlive:id">58</property>
  <property name="kdenlive:file_size">4435968</property>
  <property name="kdenlive:file_hash">db9622853b769c36832bac353c504732</property>
  <property name="meta.media.top_field_first">0</property>
  <property name="meta.media.progressive">1</property>
 </producer>
 <producer id="producer43" in="00:00:00.000" out="00:00:01.880">
  <property name="length">48</property>
  <property name="eof">pause</property>
  <property name="resource">C:/Users/Ichsan/tugasakhir/dataset-traintest/train/skip/1.avi</property>
  <property name="meta.media.nb_streams">1</property>
  <property name="meta.media.0.stream.type">video</property>
  <property name="meta.media.0.stream.frame_rate">25</property>
  <property name="meta.media.0.stream.sample_aspect_ratio">0</property>
  <property name="meta.media.0.codec.width">180</property>
  <property name="meta.media.0.codec.height">144</property>
  <property name="meta.media.0.codec.rotate">0</property>
  <property name="meta.media.0.codec.pix_fmt">bgr24</property>
  <property name="meta.media.0.codec.sample_aspect_ratio">0</property>
  <property name="meta.media.0.codec.colorspace">601</property>
  <property name="meta.media.0.codec.name">rawvideo</property>
  <property name="meta.media.0.codec.long_name">raw video</property>
  <property name="meta.media.0.codec.bit_rate">15882894</property>
  <property name="meta.attr.0.stream.title.markup">e:/stp/incoming_avis/subsampled/denis_skip.avi</property>
  <property name="seekable">1</property>
  <property name="meta.media.sample_aspect_num">1</property>
  <property name="meta.media.sample_aspect_den">1</property>
  <property name="aspect_ratio">1</property>
  <property name="audio_index">-1</property>
  <property name="video_index">0</property>
  <property name="mute_on_pause">0</property>
  <property name="mlt_service">avformat-novalidate</property>
  <property name="kdenlive:clipname"/>
  <property name="kdenlive:folderid">13</property>
  <property name="meta.media.frame_rate_num">25</property>
  <property name="meta.media.frame_rate_den">1</property>
  <property name="meta.media.colorspace">601</property>
  <property name="meta.media.color_trc">2</property>
  <property name="meta.media.has_b_frames">0</property>
  <property name="meta.media.width">180</property>
  <property name="meta.media.height">144</property>
  <property name="meta.media.color_range">mpeg</property>
  <property name="kdenlive:id">59</property>
  <property name="kdenlive:file_size">3736064</property>
  <property name="kdenlive:file_hash">2549bf677aa71636fab34134fecbb5f0</property>
  <property name="meta.media.top_field_first">0</property>
  <property name="meta.media.progressive">1</property>
 </producer>
 <producer id="producer44" in="00:00:00.000" out="00:00:02.360">
  <property name="length">60</property>
  <property name="eof">pause</property>
  <property name="resource">C:/Users/Ichsan/tugasakhir/dataset-traintest/train/skip/2.avi</property>
  <property name="meta.media.nb_streams">1</property>
  <property name="meta.media.0.stream.type">video</property>
  <property name="meta.media.0.stream.frame_rate">25</property>
  <property name="meta.media.0.stream.sample_aspect_ratio">0</property>
  <property name="meta.media.0.codec.width">180</property>
  <property name="meta.media.0.codec.height">144</property>
  <property name="meta.media.0.codec.rotate">0</property>
  <property name="meta.media.0.codec.pix_fmt">bgr24</property>
  <property name="meta.media.0.codec.sample_aspect_ratio">0</property>
  <property name="meta.media.0.codec.colorspace">601</property>
  <property name="meta.media.0.codec.name">rawvideo</property>
  <property name="meta.media.0.codec.long_name">raw video</property>
  <property name="meta.media.0.codec.bit_rate">15815593</property>
  <property name="meta.attr.0.stream.title.markup">q:\incoming_avis\subsampled\dynamic\eli_skip.avi</property>
  <property name="seekable">1</property>
  <property name="meta.media.sample_aspect_num">1</property>
  <property name="meta.media.sample_aspect_den">1</property>
  <property name="aspect_ratio">1</property>
  <property name="audio_index">-1</property>
  <property name="video_index">0</property>
  <property name="mute_on_pause">0</property>
  <property name="mlt_service">avformat-novalidate</property>
  <property name="kdenlive:clipname"/>
  <property name="kdenlive:folderid">13</property>
  <property name="meta.media.frame_rate_num">25</property>
  <property name="meta.media.frame_rate_den">1</property>
  <property name="meta.media.colorspace">601</property>
  <property name="meta.media.color_trc">2</property>
  <property name="meta.media.has_b_frames">0</property>
  <property name="meta.media.width">180</property>
  <property name="meta.media.height">144</property>
  <property name="meta.media.color_range">mpeg</property>
  <property name="kdenlive:id">60</property>
  <property name="kdenlive:file_size">4669440</property>
  <property name="kdenlive:file_hash">db64bfe65f28a0a992013064a3a38eba</property>
  <property name="meta.media.top_field_first">0</property>
  <property name="meta.media.progressive">1</property>
 </producer>
 <producer id="producer45" in="00:00:00.000" out="00:00:01.480">
  <property name="length">38</property>
  <property name="eof">pause</property>
  <property name="resource">C:/Users/Ichsan/tugasakhir/dataset-traintest/train/skip/3.avi</property>
  <property name="meta.media.nb_streams">1</property>
  <property name="meta.media.0.stream.type">video</property>
  <property name="meta.media.0.stream.frame_rate">25</property>
  <property name="meta.media.0.stream.sample_aspect_ratio">0</property>
  <property name="meta.media.0.codec.width">180</property>
  <property name="meta.media.0.codec.height">144</property>
  <property name="meta.media.0.codec.rotate">0</property>
  <property name="meta.media.0.codec.pix_fmt">bgr24</property>
  <property name="meta.media.0.codec.sample_aspect_ratio">0</property>
  <property name="meta.media.0.codec.colorspace">601</property>
  <property name="meta.media.0.codec.name">rawvideo</property>
  <property name="meta.media.0.codec.long_name">raw video</property>
  <property name="meta.media.0.codec.bit_rate">15972324</property>
  <property name="meta.attr.0.stream.title.markup">e:/stp/incoming_avis/subsampled/ido_skip.avi</property>
  <property name="seekable">1</property>
  <property name="meta.media.sample_aspect_num">1</property>
  <property name="meta.media.sample_aspect_den">1</property>
  <property name="aspect_ratio">1</property>
  <property name="audio_index">-1</property>
  <property name="video_index">0</property>
  <property name="mute_on_pause">0</property>
  <property name="mlt_service">avformat-novalidate</property>
  <property name="kdenlive:clipname"/>
  <property name="kdenlive:folderid">13</property>
  <property name="meta.media.frame_rate_num">25</property>
  <property name="meta.media.frame_rate_den">1</property>
  <property name="meta.media.colorspace">601</property>
  <property name="meta.media.color_trc">2</property>
  <property name="meta.media.has_b_frames">0</property>
  <property name="meta.media.width">180</property>
  <property name="meta.media.height">144</property>
  <property name="meta.media.color_range">mpeg</property>
  <property name="kdenlive:id">61</property>
  <property name="kdenlive:file_size">2958336</property>
  <property name="kdenlive:file_hash">7f2152ee28874b6d8ff4956805740a8c</property>
  <property name="meta.media.top_field_first">0</property>
  <property name="meta.media.progressive">1</property>
 </producer>
 <producer id="producer46" in="00:00:00.000" out="00:00:01.520">
  <property name="length">39</property>
  <property name="eof">pause</property>
  <property name="resource">C:/Users/Ichsan/tugasakhir/dataset-traintest/train/skip/4.avi</property>
  <property name="meta.media.nb_streams">1</property>
  <property name="meta.media.0.stream.type">video</property>
  <property name="meta.media.0.stream.frame_rate">25</property>
  <property name="meta.media.0.stream.sample_aspect_ratio">0</property>
  <property name="meta.media.0.codec.width">180</property>
  <property name="meta.media.0.codec.height">144</property>
  <property name="meta.media.0.codec.rotate">0</property>
  <property name="meta.media.0.codec.pix_fmt">bgr24</property>
  <property name="meta.media.0.codec.sample_aspect_ratio">0</property>
  <property name="meta.media.0.codec.colorspace">601</property>
  <property name="meta.media.0.codec.name">rawvideo</property>
  <property name="meta.media.0.codec.long_name">raw video</property>
  <property name="meta.media.0.codec.bit_rate">15961263</property>
  <property name="meta.attr.0.stream.title.markup">e:/stp/incoming_avis/subsampled/ira_skip.avi</property>
  <property name="seekable">1</property>
  <property name="meta.media.sample_aspect_num">1</property>
  <property name="meta.media.sample_aspect_den">1</property>
  <property name="aspect_ratio">1</property>
  <property name="audio_index">-1</property>
  <property name="video_index">0</property>
  <property name="mute_on_pause">0</property>
  <property name="mlt_service">avformat-novalidate</property>
  <property name="kdenlive:clipname"/>
  <property name="kdenlive:folderid">13</property>
  <property name="meta.media.frame_rate_num">25</property>
  <property name="meta.media.frame_rate_den">1</property>
  <property name="meta.media.colorspace">601</property>
  <property name="meta.media.color_trc">2</property>
  <property name="meta.media.has_b_frames">0</property>
  <property name="meta.media.width">180</property>
  <property name="meta.media.height">144</property>
  <property name="meta.media.color_range">mpeg</property>
  <property name="kdenlive:id">62</property>
  <property name="kdenlive:file_size">3035648</property>
  <property name="kdenlive:file_hash">df590e893bc87d272761119824650244</property>
  <property name="meta.media.top_field_first">0</property>
  <property name="meta.media.progressive">1</property>
 </producer>
 <producer id="producer47" in="00:00:00.000" out="00:00:02.200">
  <property name="length">56</property>
  <property name="eof">pause</property>
  <property name="resource">C:/Users/Ichsan/tugasakhir/dataset-traintest/train/skip/5.avi</property>
  <property name="meta.media.nb_streams">1</property>
  <property name="meta.media.0.stream.type">video</property>
  <property name="meta.media.0.stream.frame_rate">25</property>
  <property name="meta.media.0.stream.sample_aspect_ratio">0</property>
  <property name="meta.media.0.codec.width">180</property>
  <property name="meta.media.0.codec.height">144</property>
  <property name="meta.media.0.codec.rotate">0</property>
  <property name="meta.media.0.codec.pix_fmt">bgr24</property>
  <property name="meta.media.0.codec.sample_aspect_ratio">0</property>
  <property name="meta.media.0.codec.colorspace">601</property>
  <property name="meta.media.0.codec.name">rawvideo</property>
  <property name="meta.media.0.codec.long_name">raw video</property>
  <property name="meta.media.0.codec.bit_rate">0</property>
  <property name="meta.attr.0.stream.title.markup">e:/stp/incoming_avis/subsampled/dynamic/lena_skip1.avi</property>
  <property name="seekable">1</property>
  <property name="meta.media.sample_aspect_num">1</property>
  <property name="meta.media.sample_aspect_den">1</property>
  <property name="aspect_ratio">1</property>
  <property name="audio_index">-1</property>
  <property name="video_index">0</property>
  <property name="mute_on_pause">0</property>
  <property name="mlt_service">avformat-novalidate</property>
  <property name="kdenlive:clipname"/>
  <property name="kdenlive:folderid">13</property>
  <property name="meta.media.frame_rate_num">25</property>
  <property name="meta.media.frame_rate_den">1</property>
  <property name="meta.media.colorspace">601</property>
  <property name="meta.media.color_trc">2</property>
  <property name="meta.media.has_b_frames">0</property>
  <property name="meta.media.width">180</property>
  <property name="meta.media.height">144</property>
  <property name="meta.media.color_range">mpeg</property>
  <property name="kdenlive:id">63</property>
  <property name="kdenlive:file_size">7236096</property>
  <property name="kdenlive:file_hash">bd7ccbe28679227ae62758f7d7baa784</property>
  <property name="meta.media.top_field_first">0</property>
  <property name="meta.media.progressive">1</property>
 </producer>
 <producer id="producer48" in="00:00:00.000" out="00:00:02.000">
  <property name="length">51</property>
  <property name="eof">pause</property>
  <property name="resource">C:/Users/Ichsan/tugasakhir/dataset-traintest/train/two-hands wave/1.avi</property>
  <property name="meta.media.nb_streams">1</property>
  <property name="meta.media.0.stream.type">video</property>
  <property name="meta.media.0.stream.frame_rate">25</property>
  <property name="meta.media.0.stream.sample_aspect_ratio">0</property>
  <property name="meta.media.0.codec.width">180</property>
  <property name="meta.media.0.codec.height">144</property>
  <property name="meta.media.0.codec.rotate">0</property>
  <property name="meta.media.0.codec.pix_fmt">bgr24</property>
  <property name="meta.media.0.codec.sample_aspect_ratio">0</property>
  <property name="meta.media.0.codec.colorspace">601</property>
  <property name="meta.media.0.codec.name">rawvideo</property>
  <property name="meta.media.0.codec.long_name">raw video</property>
  <property name="meta.media.0.codec.bit_rate">15863040</property>
  <property name="meta.attr.0.stream.title.markup">e:/stp/incoming_avis/subsampled/denis_wave2.avi</property>
  <property name="seekable">1</property>
  <property name="meta.media.sample_aspect_num">1</property>
  <property name="meta.media.sample_aspect_den">1</property>
  <property name="aspect_ratio">1</property>
  <property name="audio_index">-1</property>
  <property name="video_index">0</property>
  <property name="mute_on_pause">0</property>
  <property name="mlt_service">avformat-novalidate</property>
  <property name="kdenlive:clipname"/>
  <property name="kdenlive:folderid">14</property>
  <property name="meta.media.frame_rate_num">25</property>
  <property name="meta.media.frame_rate_den">1</property>
  <property name="meta.media.colorspace">601</property>
  <property name="meta.media.color_trc">2</property>
  <property name="meta.media.has_b_frames">0</property>
  <property name="meta.media.width">180</property>
  <property name="meta.media.height">144</property>
  <property name="meta.media.color_range">mpeg</property>
  <property name="kdenlive:id">65</property>
  <property name="kdenlive:file_size">3969536</property>
  <property name="kdenlive:file_hash">c000f7b68321c3edcd72a429c872c938</property>
  <property name="meta.media.top_field_first">0</property>
  <property name="meta.media.progressive">1</property>
 </producer>
 <producer id="producer49" in="00:00:00.000" out="00:00:03.200">
  <property name="length">81</property>
  <property name="eof">pause</property>
  <property name="resource">C:/Users/Ichsan/tugasakhir/dataset-traintest/train/two-hands wave/0.avi</property>
  <property name="meta.media.nb_streams">1</property>
  <property name="meta.media.0.stream.type">video</property>
  <property name="meta.media.0.stream.frame_rate">25</property>
  <property name="meta.media.0.stream.sample_aspect_ratio">0</property>
  <property name="meta.media.0.codec.width">180</property>
  <property name="meta.media.0.codec.height">144</property>
  <property name="meta.media.0.codec.rotate">0</property>
  <property name="meta.media.0.codec.pix_fmt">bgr24</property>
  <property name="meta.media.0.codec.sample_aspect_ratio">0</property>
  <property name="meta.media.0.codec.colorspace">601</property>
  <property name="meta.media.0.codec.name">rawvideo</property>
  <property name="meta.media.0.codec.long_name">raw video</property>
  <property name="meta.media.0.codec.bit_rate">15746400</property>
  <property name="meta.attr.0.stream.title.markup">e:/stp/incoming_avis/subsampled/daria_wave2.avi</property>
  <property name="seekable">1</property>
  <property name="meta.media.sample_aspect_num">1</property>
  <property name="meta.media.sample_aspect_den">1</property>
  <property name="aspect_ratio">1</property>
  <property name="audio_index">-1</property>
  <property name="video_index">0</property>
  <property name="mute_on_pause">0</property>
  <property name="mlt_service">avformat-novalidate</property>
  <property name="kdenlive:clipname"/>
  <property name="kdenlive:folderid">14</property>
  <property name="meta.media.frame_rate_num">25</property>
  <property name="meta.media.frame_rate_den">1</property>
  <property name="meta.media.colorspace">601</property>
  <property name="meta.media.color_trc">2</property>
  <property name="meta.media.has_b_frames">0</property>
  <property name="meta.media.width">180</property>
  <property name="meta.media.height">144</property>
  <property name="meta.media.color_range">mpeg</property>
  <property name="kdenlive:id">64</property>
  <property name="kdenlive:file_size">6302720</property>
  <property name="kdenlive:file_hash">88dac733b10d151df5f868fc38cac4b2</property>
  <property name="meta.media.top_field_first">0</property>
  <property name="meta.media.progressive">1</property>
 </producer>
 <producer id="producer50" in="00:00:00.000" out="00:00:02.120">
  <property name="length">54</property>
  <property name="eof">pause</property>
  <property name="resource">C:/Users/Ichsan/tugasakhir/dataset-traintest/train/two-hands wave/2.avi</property>
  <property name="meta.media.nb_streams">1</property>
  <property name="meta.media.0.stream.type">video</property>
  <property name="meta.media.0.stream.frame_rate">25</property>
  <property name="meta.media.0.stream.sample_aspect_ratio">0</property>
  <property name="meta.media.0.codec.width">180</property>
  <property name="meta.media.0.codec.height">144</property>
  <property name="meta.media.0.codec.rotate">0</property>
  <property name="meta.media.0.codec.pix_fmt">bgr24</property>
  <property name="meta.media.0.codec.sample_aspect_ratio">0</property>
  <property name="meta.media.0.codec.colorspace">601</property>
  <property name="meta.media.0.codec.name">rawvideo</property>
  <property name="meta.media.0.codec.long_name">raw video</property>
  <property name="meta.media.0.codec.bit_rate">15845434</property>
  <property name="meta.attr.0.stream.title.markup">e:/stp/incoming_avis/subsampled/eli_wave2.avi</property>
  <property name="seekable">1</property>
  <property name="meta.media.sample_aspect_num">1</property>
  <property name="meta.media.sample_aspect_den">1</property>
  <property name="aspect_ratio">1</property>
  <property name="audio_index">-1</property>
  <property name="video_index">0</property>
  <property name="mute_on_pause">0</property>
  <property name="mlt_service">avformat-novalidate</property>
  <property name="kdenlive:clipname"/>
  <property name="kdenlive:folderid">14</property>
  <property name="meta.media.frame_rate_num">25</property>
  <property name="meta.media.frame_rate_den">1</property>
  <property name="meta.media.colorspace">601</property>
  <property name="meta.media.color_trc">2</property>
  <property name="meta.media.has_b_frames">0</property>
  <property name="meta.media.width">180</property>
  <property name="meta.media.height">144</property>
  <property name="meta.media.color_range">mpeg</property>
  <property name="kdenlive:id">66</property>
  <property name="kdenlive:file_size">4202496</property>
  <property name="kdenlive:file_hash">5edbcf0bc43fc7540be7b385228b84bf</property>
  <property name="meta.media.top_field_first">0</property>
  <property name="meta.media.progressive">1</property>
 </producer>
 <producer id="producer51" in="00:00:00.000" out="00:00:02.640">
  <property name="length">67</property>
  <property name="eof">pause</property>
  <property name="resource">C:/Users/Ichsan/tugasakhir/dataset-traintest/train/two-hands wave/3.avi</property>
  <property name="meta.media.nb_streams">1</property>
  <property name="meta.media.0.stream.type">video</property>
  <property name="meta.media.0.stream.frame_rate">25</property>
  <property name="meta.media.0.stream.sample_aspect_ratio">0</property>
  <property name="meta.media.0.codec.width">180</property>
  <property name="meta.media.0.codec.height">144</property>
  <property name="meta.media.0.codec.rotate">0</property>
  <property name="meta.media.0.codec.pix_fmt">bgr24</property>
  <property name="meta.media.0.codec.sample_aspect_ratio">0</property>
  <property name="meta.media.0.codec.colorspace">601</property>
  <property name="meta.media.0.codec.name">rawvideo</property>
  <property name="meta.media.0.codec.long_name">raw video</property>
  <property name="meta.media.0.codec.bit_rate">15787636</property>
  <property name="meta.attr.0.stream.title.markup">e:/stp/incoming_avis/subsampled/ido_wave2.avi</property>
  <property name="seekable">1</property>
  <property name="meta.media.sample_aspect_num">1</property>
  <property name="meta.media.sample_aspect_den">1</property>
  <property name="aspect_ratio">1</property>
  <property name="audio_index">-1</property>
  <property name="video_index">0</property>
  <property name="mute_on_pause">0</property>
  <property name="mlt_service">avformat-novalidate</property>
  <property name="kdenlive:clipname"/>
  <property name="kdenlive:folderid">14</property>
  <property name="meta.media.frame_rate_num">25</property>
  <property name="meta.media.frame_rate_den">1</property>
  <property name="meta.media.colorspace">601</property>
  <property name="meta.media.color_trc">2</property>
  <property name="meta.media.has_b_frames">0</property>
  <property name="meta.media.width">180</property>
  <property name="meta.media.height">144</property>
  <property name="meta.media.color_range">mpeg</property>
  <property name="kdenlive:id">67</property>
  <property name="kdenlive:file_size">5213696</property>
  <property name="kdenlive:file_hash">8a37a8724728899ef7336876afb8f768</property>
  <property name="meta.media.top_field_first">0</property>
  <property name="meta.media.progressive">1</property>
 </producer>
 <producer id="producer52" in="00:00:00.000" out="00:00:04.520">
  <property name="length">114</property>
  <property name="eof">pause</property>
  <property name="resource">C:/Users/Ichsan/tugasakhir/dataset-traintest/train/two-hands wave/4.avi</property>
  <property name="meta.media.nb_streams">1</property>
  <property name="meta.media.0.stream.type">video</property>
  <property name="meta.media.0.stream.frame_rate">25</property>
  <property name="meta.media.0.stream.sample_aspect_ratio">0</property>
  <property name="meta.media.0.codec.width">180</property>
  <property name="meta.media.0.codec.height">144</property>
  <property name="meta.media.0.codec.rotate">0</property>
  <property name="meta.media.0.codec.pix_fmt">bgr24</property>
  <property name="meta.media.0.codec.sample_aspect_ratio">0</property>
  <property name="meta.media.0.codec.colorspace">601</property>
  <property name="meta.media.0.codec.name">rawvideo</property>
  <property name="meta.media.0.codec.long_name">raw video</property>
  <property name="meta.media.0.codec.bit_rate">15689628</property>
  <property name="meta.attr.0.stream.title.markup">e:/stp/incoming_avis/subsampled/ira_wave2.avi</property>
  <property name="seekable">1</property>
  <property name="meta.media.sample_aspect_num">1</property>
  <property name="meta.media.sample_aspect_den">1</property>
  <property name="aspect_ratio">1</property>
  <property name="audio_index">-1</property>
  <property name="video_index">0</property>
  <property name="mute_on_pause">0</property>
  <property name="mlt_service">avformat-novalidate</property>
  <property name="kdenlive:clipname"/>
  <property name="kdenlive:folderid">14</property>
  <property name="meta.media.frame_rate_num">25</property>
  <property name="meta.media.frame_rate_den">1</property>
  <property name="meta.media.colorspace">601</property>
  <property name="meta.media.color_trc">2</property>
  <property name="meta.media.has_b_frames">0</property>
  <property name="meta.media.width">180</property>
  <property name="meta.media.height">144</property>
  <property name="meta.media.color_range">mpeg</property>
  <property name="kdenlive:id">68</property>
  <property name="kdenlive:file_size">8869888</property>
  <property name="kdenlive:file_hash">46109a62e6c53e046ad854d3070491cb</property>
  <property name="meta.media.top_field_first">0</property>
  <property name="meta.media.progressive">1</property>
 </producer>
 <producer id="producer53" in="00:00:00.000" out="00:00:03.120">
  <property name="length">79</property>
  <property name="eof">pause</property>
  <property name="resource">C:/Users/Ichsan/tugasakhir/dataset-traintest/train/two-hands wave/5.avi</property>
  <property name="meta.media.nb_streams">1</property>
  <property name="meta.media.0.stream.type">video</property>
  <property name="meta.media.0.stream.frame_rate">25</property>
  <property name="meta.media.0.stream.sample_aspect_ratio">0</property>
  <property name="meta.media.0.codec.width">180</property>
  <property name="meta.media.0.codec.height">144</property>
  <property name="meta.media.0.codec.rotate">0</property>
  <property name="meta.media.0.codec.pix_fmt">bgr24</property>
  <property name="meta.media.0.codec.sample_aspect_ratio">0</property>
  <property name="meta.media.0.codec.colorspace">601</property>
  <property name="meta.media.0.codec.name">rawvideo</property>
  <property name="meta.media.0.codec.long_name">raw video</property>
  <property name="meta.media.0.codec.bit_rate">15751385</property>
  <property name="meta.attr.0.stream.title.markup">e:/stp/incoming_avis/subsampled/lena_wave2.avi</property>
  <property name="seekable">1</property>
  <property name="meta.media.sample_aspect_num">1</property>
  <property name="meta.media.sample_aspect_den">1</property>
  <property name="aspect_ratio">1</property>
  <property name="audio_index">-1</property>
  <property name="video_index">0</property>
  <property name="mute_on_pause">0</property>
  <property name="mlt_service">avformat-novalidate</property>
  <property name="kdenlive:clipname"/>
  <property name="kdenlive:folderid">14</property>
  <property name="meta.media.frame_rate_num">25</property>
  <property name="meta.media.frame_rate_den">1</property>
  <property name="meta.media.colorspace">601</property>
  <property name="meta.media.color_trc">2</property>
  <property name="meta.media.has_b_frames">0</property>
  <property name="meta.media.width">180</property>
  <property name="meta.media.height">144</property>
  <property name="meta.media.color_range">mpeg</property>
  <property name="kdenlive:id">69</property>
  <property name="kdenlive:file_size">6147072</property>
  <property name="kdenlive:file_hash">4d224056935e0dfbd795a9233f6ea1b3</property>
  <property name="meta.media.top_field_first">0</property>
  <property name="meta.media.progressive">1</property>
 </producer>
 <producer id="producer54" in="00:00:00.000" out="00:00:02.680">
  <property name="length">68</property>
  <property name="eof">pause</property>
  <property name="resource">C:/Users/Ichsan/tugasakhir/dataset-traintest/train/walk/1.avi</property>
  <property name="meta.media.nb_streams">1</property>
  <property name="meta.media.0.stream.type">video</property>
  <property name="meta.media.0.stream.frame_rate">25</property>
  <property name="meta.media.0.stream.sample_aspect_ratio">0</property>
  <property name="meta.media.0.codec.width">180</property>
  <property name="meta.media.0.codec.height">144</property>
  <property name="meta.media.0.codec.rotate">0</property>
  <property name="meta.media.0.codec.pix_fmt">bgr24</property>
  <property name="meta.media.0.codec.sample_aspect_ratio">0</property>
  <property name="meta.media.0.codec.colorspace">601</property>
  <property name="meta.media.0.codec.name">rawvideo</property>
  <property name="meta.media.0.codec.long_name">raw video</property>
  <property name="meta.media.0.codec.bit_rate">15784119</property>
  <property name="meta.attr.0.stream.title.markup">e:/stp/incoming_avis/subsampled/denis_walk.avi</property>
  <property name="seekable">1</property>
  <property name="meta.media.sample_aspect_num">1</property>
  <property name="meta.media.sample_aspect_den">1</property>
  <property name="aspect_ratio">1</property>
  <property name="audio_index">-1</property>
  <property name="video_index">0</property>
  <property name="mute_on_pause">0</property>
  <property name="mlt_service">avformat-novalidate</property>
  <property name="kdenlive:clipname"/>
  <property name="kdenlive:folderid">15</property>
  <property name="meta.media.frame_rate_num">25</property>
  <property name="meta.media.frame_rate_den">1</property>
  <property name="meta.media.colorspace">601</property>
  <property name="meta.media.color_trc">2</property>
  <property name="meta.media.has_b_frames">0</property>
  <property name="meta.media.width">180</property>
  <property name="meta.media.height">144</property>
  <property name="meta.media.color_range">mpeg</property>
  <property name="kdenlive:id">71</property>
  <property name="kdenlive:file_size">5291520</property>
  <property name="kdenlive:file_hash">6bc8d7a7d30bed29b92f244cb7305122</property>
  <property name="meta.media.top_field_first">0</property>
  <property name="meta.media.progressive">1</property>
 </producer>
 <producer id="producer55" in="00:00:00.000" out="00:00:03.320">
  <property name="length">84</property>
  <property name="eof">pause</property>
  <property name="resource">C:/Users/Ichsan/tugasakhir/dataset-traintest/train/walk/0.avi</property>
  <property name="meta.media.nb_streams">1</property>
  <property name="meta.media.0.stream.type">video</property>
  <property name="meta.media.0.stream.frame_rate">25</property>
  <property name="meta.media.0.stream.sample_aspect_ratio">0</property>
  <property name="meta.media.0.codec.width">180</property>
  <property name="meta.media.0.codec.height">144</property>
  <property name="meta.media.0.codec.rotate">0</property>
  <property name="meta.media.0.codec.pix_fmt">bgr24</property>
  <property name="meta.media.0.codec.sample_aspect_ratio">0</property>
  <property name="meta.media.0.codec.colorspace">601</property>
  <property name="meta.media.0.codec.name">rawvideo</property>
  <property name="meta.media.0.codec.long_name">raw video</property>
  <property name="meta.media.0.codec.bit_rate">15739373</property>
  <property name="meta.attr.0.stream.title.markup">e:/stp/incoming_avis/subsampled/daria_walk.avi</property>
  <property name="seekable">1</property>
  <property name="meta.media.sample_aspect_num">1</property>
  <property name="meta.media.sample_aspect_den">1</property>
  <property name="aspect_ratio">1</property>
  <property name="audio_index">-1</property>
  <property name="video_index">0</property>
  <property name="mute_on_pause">0</property>
  <property name="mlt_service">avformat-novalidate</property>
  <property name="kdenlive:clipname"/>
  <property name="kdenlive:folderid">15</property>
  <property name="meta.media.frame_rate_num">25</property>
  <property name="meta.media.frame_rate_den">1</property>
  <property name="meta.media.colorspace">601</property>
  <property name="meta.media.color_trc">2</property>
  <property name="meta.media.has_b_frames">0</property>
  <property name="meta.media.width">180</property>
  <property name="meta.media.height">144</property>
  <property name="meta.media.color_range">mpeg</property>
  <property name="kdenlive:id">70</property>
  <property name="kdenlive:file_size">6536192</property>
  <property name="kdenlive:file_hash">017b35dcae763c80788ba652e55777ea</property>
  <property name="meta.media.top_field_first">0</property>
  <property name="meta.media.progressive">1</property>
 </producer>
 <producer id="producer56" in="00:00:00.000" out="00:00:02.840">
  <property name="length">72</property>
  <property name="eof">pause</property>
  <property name="resource">C:/Users/Ichsan/tugasakhir/dataset-traintest/train/walk/2.avi</property>
  <property name="meta.media.nb_streams">1</property>
  <property name="meta.media.0.stream.type">video</property>
  <property name="meta.media.0.stream.frame_rate">25</property>
  <property name="meta.media.0.stream.sample_aspect_ratio">0</property>
  <property name="meta.media.0.codec.width">180</property>
  <property name="meta.media.0.codec.height">144</property>
  <property name="meta.media.0.codec.rotate">0</property>
  <property name="meta.media.0.codec.pix_fmt">bgr24</property>
  <property name="meta.media.0.codec.sample_aspect_ratio">0</property>
  <property name="meta.media.0.codec.colorspace">601</property>
  <property name="meta.media.0.codec.name">rawvideo</property>
  <property name="meta.media.0.codec.long_name">raw video</property>
  <property name="meta.media.0.codec.bit_rate">0</property>
  <property name="meta.attr.0.stream.title.markup">e:/stp/incoming_avis/subsampled/dynamic/eli_walk.avi</property>
  <property name="seekable">1</property>
  <property name="meta.media.sample_aspect_num">1</property>
  <property name="meta.media.sample_aspect_den">1</property>
  <property name="aspect_ratio">1</property>
  <property name="audio_index">-1</property>
  <property name="video_index">0</property>
  <property name="mute_on_pause">0</property>
  <property name="mlt_service">avformat-novalidate</property>
  <property name="kdenlive:clipname"/>
  <property name="kdenlive:folderid">15</property>
  <property name="meta.media.frame_rate_num">25</property>
  <property name="meta.media.frame_rate_den">1</property>
  <property name="meta.media.colorspace">601</property>
  <property name="meta.media.color_trc">2</property>
  <property name="meta.media.has_b_frames">0</property>
  <property name="meta.media.width">180</property>
  <property name="meta.media.height">144</property>
  <property name="meta.media.color_range">mpeg</property>
  <property name="kdenlive:id">72</property>
  <property name="kdenlive:file_size">7936512</property>
  <property name="kdenlive:file_hash">553626d2126c7849660be361719fb318</property>
  <property name="meta.media.top_field_first">0</property>
  <property name="meta.media.progressive">1</property>
  <property name="kdenlive:activeeffect">0</property>
  <filter id="filter0">
   <property name="rotate_center">1</property>
   <property name="mlt_service">qtblend</property>
   <property name="kdenlive_id">qtblend</property>
   <property name="rect">00:00:00.000=0 0 180 144 1.000000</property>
   <property name="rotation">00:00:00.000=0</property>
   <property name="compositing">0</property>
   <property name="distort">0</property>
   <property name="kdenlive:collapsed">0</property>
  </filter>
 </producer>
 <producer id="producer57" in="00:00:00.000" out="00:00:01.680">
  <property name="length">43</property>
  <property name="eof">pause</property>
  <property name="resource">C:/Users/Ichsan/tugasakhir/dataset-traintest/train/walk/3.avi</property>
  <property name="meta.media.nb_streams">1</property>
  <property name="meta.media.0.stream.type">video</property>
  <property name="meta.media.0.stream.frame_rate">25</property>
  <property name="meta.media.0.stream.sample_aspect_ratio">0</property>
  <property name="meta.media.0.codec.width">180</property>
  <property name="meta.media.0.codec.height">144</property>
  <property name="meta.media.0.codec.rotate">0</property>
  <property name="meta.media.0.codec.pix_fmt">bgr24</property>
  <property name="meta.media.0.codec.sample_aspect_ratio">0</property>
  <property name="meta.media.0.codec.colorspace">601</property>
  <property name="meta.media.0.codec.name">rawvideo</property>
  <property name="meta.media.0.codec.long_name">raw video</property>
  <property name="meta.media.0.codec.bit_rate">15922286</property>
  <property name="meta.attr.0.stream.title.markup">e:/stp/incoming_avis/subsampled/ido_walk.avi</property>
  <property name="seekable">1</property>
  <property name="meta.media.sample_aspect_num">1</property>
  <property name="meta.media.sample_aspect_den">1</property>
  <property name="aspect_ratio">1</property>
  <property name="audio_index">-1</property>
  <property name="video_index">0</property>
  <property name="mute_on_pause">0</property>
  <property name="mlt_service">avformat-novalidate</property>
  <property name="kdenlive:clipname"/>
  <property name="kdenlive:folderid">15</property>
  <property name="meta.media.frame_rate_num">25</property>
  <property name="meta.media.frame_rate_den">1</property>
  <property name="meta.media.colorspace">601</property>
  <property name="meta.media.color_trc">2</property>
  <property name="meta.media.has_b_frames">0</property>
  <property name="meta.media.width">180</property>
  <property name="meta.media.height">144</property>
  <property name="meta.media.color_range">mpeg</property>
  <property name="kdenlive:id">73</property>
  <property name="kdenlive:file_size">3346944</property>
  <property name="kdenlive:file_hash">78a81b94557157cd14c260e5e2e7295f</property>
  <property name="meta.media.top_field_first">0</property>
  <property name="meta.media.progressive">1</property>
 </producer>
 <producer id="producer58" in="00:00:00.000" out="00:00:03.480">
  <property name="length">88</property>
  <property name="eof">pause</property>
  <property name="resource">C:/Users/Ichsan/tugasakhir/dataset-traintest/train/walk/4.avi</property>
  <property name="meta.media.nb_streams">1</property>
  <property name="meta.media.0.stream.type">video</property>
  <property name="meta.media.0.stream.frame_rate">25</property>
  <property name="meta.media.0.stream.sample_aspect_ratio">0</property>
  <property name="meta.media.0.codec.width">180</property>
  <property name="meta.media.0.codec.height">144</property>
  <property name="meta.media.0.codec.rotate">0</property>
  <property name="meta.media.0.codec.pix_fmt">bgr24</property>
  <property name="meta.media.0.codec.sample_aspect_ratio">0</property>
  <property name="meta.media.0.codec.colorspace">601</property>
  <property name="meta.media.0.codec.name">rawvideo</property>
  <property name="meta.media.0.codec.long_name">raw video</property>
  <property name="meta.media.0.codec.bit_rate">15730759</property>
  <property name="meta.attr.0.stream.title.markup">e:/stp/incoming_avis/subsampled/ira_walk.avi</property>
  <property name="seekable">1</property>
  <property name="meta.media.sample_aspect_num">1</property>
  <property name="meta.media.sample_aspect_den">1</property>
  <property name="aspect_ratio">1</property>
  <property name="audio_index">-1</property>
  <property name="video_index">0</property>
  <property name="mute_on_pause">0</property>
  <property name="mlt_service">avformat-novalidate</property>
  <property name="kdenlive:clipname"/>
  <property name="kdenlive:folderid">15</property>
  <property name="meta.media.frame_rate_num">25</property>
  <property name="meta.media.frame_rate_den">1</property>
  <property name="meta.media.colorspace">601</property>
  <property name="meta.media.color_trc">2</property>
  <property name="meta.media.has_b_frames">0</property>
  <property name="meta.media.width">180</property>
  <property name="meta.media.height">144</property>
  <property name="meta.media.color_range">mpeg</property>
  <property name="kdenlive:id">74</property>
  <property name="kdenlive:file_size">6847488</property>
  <property name="kdenlive:file_hash">5527dec35f308a5d30a64dba43b26c0b</property>
  <property name="meta.media.top_field_first">0</property>
  <property name="meta.media.progressive">1</property>
 </producer>
 <producer id="producer59" in="00:00:00.000" out="00:00:02.880">
  <property name="length">73</property>
  <property name="eof">pause</property>
  <property name="resource">C:/Users/Ichsan/tugasakhir/dataset-traintest/train/walk/5.avi</property>
  <property name="meta.media.nb_streams">1</property>
  <property name="meta.media.0.stream.type">video</property>
  <property name="meta.media.0.stream.frame_rate">25</property>
  <property name="meta.media.0.stream.sample_aspect_ratio">0</property>
  <property name="meta.media.0.codec.width">180</property>
  <property name="meta.media.0.codec.height">144</property>
  <property name="meta.media.0.codec.rotate">0</property>
  <property name="meta.media.0.codec.pix_fmt">bgr24</property>
  <property name="meta.media.0.codec.sample_aspect_ratio">0</property>
  <property name="meta.media.0.codec.colorspace">601</property>
  <property name="meta.media.0.codec.name">rawvideo</property>
  <property name="meta.media.0.codec.long_name">raw video</property>
  <property name="meta.media.0.codec.bit_rate">0</property>
  <property name="meta.attr.0.stream.title.markup">q:/incoming_avis/subsampled/dynamic/lena_walk1.avi</property>
  <property name="seekable">1</property>
  <property name="meta.media.sample_aspect_num">1</property>
  <property name="meta.media.sample_aspect_den">1</property>
  <property name="aspect_ratio">1</property>
  <property name="audio_index">-1</property>
  <property name="video_index">0</property>
  <property name="mute_on_pause">0</property>
  <property name="mlt_service">avformat-novalidate</property>
  <property name="kdenlive:clipname"/>
  <property name="kdenlive:folderid">15</property>
  <property name="meta.media.frame_rate_num">25</property>
  <property name="meta.media.frame_rate_den">1</property>
  <property name="meta.media.colorspace">601</property>
  <property name="meta.media.color_trc">2</property>
  <property name="meta.media.has_b_frames">0</property>
  <property name="meta.media.width">180</property>
  <property name="meta.media.height">144</property>
  <property name="meta.media.color_range">mpeg</property>
  <property name="kdenlive:id">75</property>
  <property name="kdenlive:file_size">9336320</property>
  <property name="kdenlive:file_hash">ccf29dae2a9d64d3dbf2c21399185e6a</property>
  <property name="meta.media.top_field_first">0</property>
  <property name="meta.media.progressive">1</property>
 </producer>
 <producer id="producer60" in="00:00:00.000" out="00:00:02.400">
  <property name="length">61</property>
  <property name="eof">pause</property>
  <property name="resource">C:/Users/Ichsan/tugasakhir/dataset-traintest/test/bend/1.avi</property>
  <property name="meta.media.nb_streams">1</property>
  <property name="meta.media.0.stream.type">video</property>
  <property name="meta.media.0.stream.frame_rate">25</property>
  <property name="meta.media.0.stream.sample_aspect_ratio">0</property>
  <property name="meta.media.0.codec.width">180</property>
  <property name="meta.media.0.codec.height">144</property>
  <property name="meta.media.0.codec.rotate">0</property>
  <property name="meta.media.0.codec.pix_fmt">bgr24</property>
  <property name="meta.media.0.codec.sample_aspect_ratio">0</property>
  <property name="meta.media.0.codec.colorspace">601</property>
  <property name="meta.media.0.codec.name">rawvideo</property>
  <property name="meta.media.0.codec.long_name">raw video</property>
  <property name="meta.media.0.codec.bit_rate">15811200</property>
  <property name="meta.attr.0.stream.title.markup">e:/stp/incoming_avis/subsampled/moshe_bend.avi</property>
  <property name="seekable">1</property>
  <property name="meta.media.sample_aspect_num">1</property>
  <property name="meta.media.sample_aspect_den">1</property>
  <property name="aspect_ratio">1</property>
  <property name="audio_index">-1</property>
  <property name="video_index">0</property>
  <property name="mute_on_pause">0</property>
  <property name="mlt_service">avformat-novalidate</property>
  <property name="kdenlive:clipname"/>
  <property name="kdenlive:folderid">77</property>
  <property name="meta.media.frame_rate_num">25</property>
  <property name="meta.media.frame_rate_den">1</property>
  <property name="meta.media.colorspace">601</property>
  <property name="meta.media.color_trc">2</property>
  <property name="meta.media.has_b_frames">0</property>
  <property name="meta.media.width">180</property>
  <property name="meta.media.height">144</property>
  <property name="meta.media.color_range">mpeg</property>
  <property name="kdenlive:id">79</property>
  <property name="kdenlive:file_size">4747264</property>
  <property name="kdenlive:file_hash">86c1ae99cf3d8d8d78c67d0c0bb3ce38</property>
  <property name="meta.media.top_field_first">0</property>
  <property name="meta.media.progressive">1</property>
 </producer>
 <producer id="producer61" in="00:00:00.000" out="00:00:02.480">
  <property name="length">63</property>
  <property name="eof">pause</property>
  <property name="resource">C:/Users/Ichsan/tugasakhir/dataset-traintest/test/bend/0.avi</property>
  <property name="meta.media.nb_streams">1</property>
  <property name="meta.media.0.stream.type">video</property>
  <property name="meta.media.0.stream.frame_rate">25</property>
  <property name="meta.media.0.stream.sample_aspect_ratio">0</property>
  <property name="meta.media.0.codec.width">180</property>
  <property name="meta.media.0.codec.height">144</property>
  <property name="meta.media.0.codec.rotate">0</property>
  <property name="meta.media.0.codec.pix_fmt">bgr24</property>
  <property name="meta.media.0.codec.sample_aspect_ratio">0</property>
  <property name="meta.media.0.codec.colorspace">601</property>
  <property name="meta.media.0.codec.name">rawvideo</property>
  <property name="meta.media.0.codec.long_name">raw video</property>
  <property name="meta.media.0.codec.bit_rate">15802839</property>
  <property name="meta.attr.0.stream.title.markup">e:/stp/incoming_avis/subsampled/lyova_bend.avi</property>
  <property name="seekable">1</property>
  <property name="meta.media.sample_aspect_num">1</property>
  <property name="meta.media.sample_aspect_den">1</property>
  <property name="aspect_ratio">1</property>
  <property name="audio_index">-1</property>
  <property name="video_index">0</property>
  <property name="mute_on_pause">0</property>
  <property name="mlt_service">avformat-novalidate</property>
  <property name="kdenlive:clipname"/>
  <property name="kdenlive:folderid">77</property>
  <property name="meta.media.frame_rate_num">25</property>
  <property name="meta.media.frame_rate_den">1</property>
  <property name="meta.media.colorspace">601</property>
  <property name="meta.media.color_trc">2</property>
  <property name="meta.media.has_b_frames">0</property>
  <property name="meta.media.width">180</property>
  <property name="meta.media.height">144</property>
  <property name="meta.media.color_range">mpeg</property>
  <property name="kdenlive:id">78</property>
  <property name="kdenlive:file_size">4902912</property>
  <property name="kdenlive:file_hash">828a1ba25ce02a59fc665d146d052817</property>
  <property name="meta.media.top_field_first">0</property>
  <property name="meta.media.progressive">1</property>
 </producer>
 <producer id="producer62" in="00:00:00.000" out="00:00:02.400">
  <property name="length">61</property>
  <property name="eof">pause</property>
  <property name="resource">C:/Users/Ichsan/tugasakhir/dataset-traintest/test/bend/2.avi</property>
  <property name="meta.media.nb_streams">1</property>
  <property name="meta.media.0.stream.type">video</property>
  <property name="meta.media.0.stream.frame_rate">25</property>
  <property name="meta.media.0.stream.sample_aspect_ratio">0</property>
  <property name="meta.media.0.codec.width">180</property>
  <property name="meta.media.0.codec.height">144</property>
  <property name="meta.media.0.codec.rotate">0</property>
  <property name="meta.media.0.codec.pix_fmt">bgr24</property>
  <property name="meta.media.0.codec.sample_aspect_ratio">0</property>
  <property name="meta.media.0.codec.colorspace">601</property>
  <property name="meta.media.0.codec.name">rawvideo</property>
  <property name="meta.media.0.codec.long_name">raw video</property>
  <property name="meta.media.0.codec.bit_rate">15811200</property>
  <property name="meta.attr.0.stream.title.markup">e:/stp/incoming_avis/subsampled/shahar_bend.avi</property>
  <property name="seekable">1</property>
  <property name="meta.media.sample_aspect_num">1</property>
  <property name="meta.media.sample_aspect_den">1</property>
  <property name="aspect_ratio">1</property>
  <property name="audio_index">-1</property>
  <property name="video_index">0</property>
  <property name="mute_on_pause">0</property>
  <property name="mlt_service">avformat-novalidate</property>
  <property name="kdenlive:clipname"/>
  <property name="kdenlive:folderid">77</property>
  <property name="meta.media.frame_rate_num">25</property>
  <property name="meta.media.frame_rate_den">1</property>
  <property name="meta.media.colorspace">601</property>
  <property name="meta.media.color_trc">2</property>
  <property name="meta.media.has_b_frames">0</property>
  <property name="meta.media.width">180</property>
  <property name="meta.media.height">144</property>
  <property name="meta.media.color_range">mpeg</property>
  <property name="kdenlive:id">80</property>
  <property name="kdenlive:file_size">4747264</property>
  <property name="kdenlive:file_hash">0763250e326352735dbafbf43eb03d39</property>
  <property name="meta.media.top_field_first">0</property>
  <property name="meta.media.progressive">1</property>
 </producer>
 <producer id="producer63" in="00:00:00.000" out="00:00:01.520">
  <property name="length">39</property>
  <property name="eof">pause</property>
  <property name="resource">C:/Users/Ichsan/tugasakhir/dataset-traintest/test/gallop sideways/0.avi</property>
  <property name="meta.media.nb_streams">1</property>
  <property name="meta.media.0.stream.type">video</property>
  <property name="meta.media.0.stream.frame_rate">25</property>
  <property name="meta.media.0.stream.sample_aspect_ratio">0</property>
  <property name="meta.media.0.codec.width">180</property>
  <property name="meta.media.0.codec.height">144</property>
  <property name="meta.media.0.codec.rotate">0</property>
  <property name="meta.media.0.codec.pix_fmt">bgr24</property>
  <property name="meta.media.0.codec.sample_aspect_ratio">0</property>
  <property name="meta.media.0.codec.colorspace">601</property>
  <property name="meta.media.0.codec.name">rawvideo</property>
  <property name="meta.media.0.codec.long_name">raw video</property>
  <property name="meta.media.0.codec.bit_rate">15961263</property>
  <property name="meta.attr.0.stream.title.markup">e:/stp/incoming_avis/subsampled/lyova_side.avi</property>
  <property name="seekable">1</property>
  <property name="meta.media.sample_aspect_num">1</property>
  <property name="meta.media.sample_aspect_den">1</property>
  <property name="aspect_ratio">1</property>
  <property name="audio_index">-1</property>
  <property name="video_index">0</property>
  <property name="mute_on_pause">0</property>
  <property name="mlt_service">avformat-novalidate</property>
  <property name="kdenlive:clipname"/>
  <property name="kdenlive:folderid">81</property>
  <property name="meta.media.frame_rate_num">25</property>
  <property name="meta.media.frame_rate_den">1</property>
  <property name="meta.media.colorspace">601</property>
  <property name="meta.media.color_trc">2</property>
  <property name="meta.media.has_b_frames">0</property>
  <property name="meta.media.width">180</property>
  <property name="meta.media.height">144</property>
  <property name="meta.media.color_range">mpeg</property>
  <property name="kdenlive:id">82</property>
  <property name="kdenlive:file_size">3035648</property>
  <property name="kdenlive:file_hash">daef36581231c5966ab7211ecb42211a</property>
  <property name="meta.media.top_field_first">0</property>
  <property name="meta.media.progressive">1</property>
 </producer>
 <producer id="producer64" in="00:00:00.000" out="00:00:01.800">
  <property name="length">46</property>
  <property name="eof">pause</property>
  <property name="resource">C:/Users/Ichsan/tugasakhir/dataset-traintest/test/gallop sideways/1.avi</property>
  <property name="meta.media.nb_streams">1</property>
  <property name="meta.media.0.stream.type">video</property>
  <property name="meta.media.0.stream.frame_rate">25</property>
  <property name="meta.media.0.stream.sample_aspect_ratio">0</property>
  <property name="meta.media.0.codec.width">180</property>
  <property name="meta.media.0.codec.height">144</property>
  <property name="meta.media.0.codec.rotate">0</property>
  <property name="meta.media.0.codec.pix_fmt">bgr24</property>
  <property name="meta.media.0.codec.sample_aspect_ratio">0</property>
  <property name="meta.media.0.codec.colorspace">601</property>
  <property name="meta.media.0.codec.name">rawvideo</property>
  <property name="meta.media.0.codec.long_name">raw video</property>
  <property name="meta.media.0.codec.bit_rate">15897600</property>
  <property name="meta.attr.0.stream.title.markup">e:/stp/incoming_avis/subsampled/moshe_side.avi</property>
  <property name="seekable">1</property>
  <property name="meta.media.sample_aspect_num">1</property>
  <property name="meta.media.sample_aspect_den">1</property>
  <property name="aspect_ratio">1</property>
  <property name="audio_index">-1</property>
  <property name="video_index">0</property>
  <property name="mute_on_pause">0</property>
  <property name="mlt_service">avformat-novalidate</property>
  <property name="kdenlive:clipname"/>
  <property name="kdenlive:folderid">81</property>
  <property name="meta.media.frame_rate_num">25</property>
  <property name="meta.media.frame_rate_den">1</property>
  <property name="meta.media.colorspace">601</property>
  <property name="meta.media.color_trc">2</property>
  <property name="meta.media.has_b_frames">0</property>
  <property name="meta.media.width">180</property>
  <property name="meta.media.height">144</property>
  <property name="meta.media.color_range">mpeg</property>
  <property name="kdenlive:id">83</property>
  <property name="kdenlive:file_size">3580416</property>
  <property name="kdenlive:file_hash">da7aa9d2d650054374fc8a1c089e860e</property>
  <property name="meta.media.top_field_first">0</property>
  <property name="meta.media.progressive">1</property>
 </producer>
 <producer id="producer65" in="00:00:00.000" out="00:00:01.680">
  <property name="length">43</property>
  <property name="eof">pause</property>
  <property name="resource">C:/Users/Ichsan/tugasakhir/dataset-traintest/test/gallop sideways/2.avi</property>
  <property name="meta.media.nb_streams">1</property>
  <property name="meta.media.0.stream.type">video</property>
  <property name="meta.media.0.stream.frame_rate">25</property>
  <property name="meta.media.0.stream.sample_aspect_ratio">0</property>
  <property name="meta.media.0.codec.width">180</property>
  <property name="meta.media.0.codec.height">144</property>
  <property name="meta.media.0.codec.rotate">0</property>
  <property name="meta.media.0.codec.pix_fmt">bgr24</property>
  <property name="meta.media.0.codec.sample_aspect_ratio">0</property>
  <property name="meta.media.0.codec.colorspace">601</property>
  <property name="meta.media.0.codec.name">rawvideo</property>
  <property name="meta.media.0.codec.long_name">raw video</property>
  <property name="meta.media.0.codec.bit_rate">15922286</property>
  <property name="meta.attr.0.stream.title.markup">e:/stp/incoming_avis/subsampled/shahar_side.avi</property>
  <property name="seekable">1</property>
  <property name="meta.media.sample_aspect_num">1</property>
  <property name="meta.media.sample_aspect_den">1</property>
  <property name="aspect_ratio">1</property>
  <property name="audio_index">-1</property>
  <property name="video_index">0</property>
  <property name="mute_on_pause">0</property>
  <property name="mlt_service">avformat-novalidate</property>
  <property name="kdenlive:clipname"/>
  <property name="kdenlive:folderid">81</property>
  <property name="meta.media.frame_rate_num">25</property>
  <property name="meta.media.frame_rate_den">1</property>
  <property name="meta.media.colorspace">601</property>
  <property name="meta.media.color_trc">2</property>
  <property name="meta.media.has_b_frames">0</property>
  <property name="meta.media.width">180</property>
  <property name="meta.media.height">144</property>
  <property name="meta.media.color_range">mpeg</property>
  <property name="kdenlive:id">84</property>
  <property name="kdenlive:file_size">3346944</property>
  <property name="kdenlive:file_hash">0008e42931197719f3390f6303133869</property>
  <property name="meta.media.top_field_first">0</property>
  <property name="meta.media.progressive">1</property>
 </producer>
 <producer id="producer66" in="00:00:00.000" out="00:00:01.560">
  <property name="length">40</property>
  <property name="eof">pause</property>
  <property name="resource">C:/Users/Ichsan/tugasakhir/dataset-traintest/test/jump/0.avi</property>
  <property name="meta.media.nb_streams">1</property>
  <property name="meta.media.0.stream.type">video</property>
  <property name="meta.media.0.stream.frame_rate">25</property>
  <property name="meta.media.0.stream.sample_aspect_ratio">0</property>
  <property name="meta.media.0.codec.width">180</property>
  <property name="meta.media.0.codec.height">144</property>
  <property name="meta.media.0.codec.rotate">0</property>
  <property name="meta.media.0.codec.pix_fmt">bgr24</property>
  <property name="meta.media.0.codec.sample_aspect_ratio">0</property>
  <property name="meta.media.0.codec.colorspace">601</property>
  <property name="meta.media.0.codec.name">rawvideo</property>
  <property name="meta.media.0.codec.long_name">raw video</property>
  <property name="meta.media.0.codec.bit_rate">15950769</property>
  <property name="meta.attr.0.stream.title.markup">e:/stp/incoming_avis/subsampled/lyova_jump.avi</property>
  <property name="seekable">1</property>
  <property name="meta.media.sample_aspect_num">1</property>
  <property name="meta.media.sample_aspect_den">1</property>
  <property name="aspect_ratio">1</property>
  <property name="audio_index">-1</property>
  <property name="video_index">0</property>
  <property name="mute_on_pause">0</property>
  <property name="mlt_service">avformat-novalidate</property>
  <property name="kdenlive:clipname"/>
  <property name="kdenlive:folderid">85</property>
  <property name="meta.media.frame_rate_num">25</property>
  <property name="meta.media.frame_rate_den">1</property>
  <property name="meta.media.colorspace">601</property>
  <property name="meta.media.color_trc">2</property>
  <property name="meta.media.has_b_frames">0</property>
  <property name="meta.media.width">180</property>
  <property name="meta.media.height">144</property>
  <property name="meta.media.color_range">mpeg</property>
  <property name="kdenlive:id">86</property>
  <property name="kdenlive:file_size">3113472</property>
  <property name="kdenlive:file_hash">15b6510b3e536c97dc4449976e4c3118</property>
  <property name="meta.media.top_field_first">0</property>
  <property name="meta.media.progressive">1</property>
 </producer>
 <producer id="producer67" in="00:00:00.000" out="00:00:01.520">
  <property name="length">39</property>
  <property name="eof">pause</property>
  <property name="resource">C:/Users/Ichsan/tugasakhir/dataset-traintest/test/jump/1.avi</property>
  <property name="meta.media.nb_streams">1</property>
  <property name="meta.media.0.stream.type">video</property>
  <property name="meta.media.0.stream.frame_rate">25</property>
  <property name="meta.media.0.stream.sample_aspect_ratio">0</property>
  <property name="meta.media.0.codec.width">180</property>
  <property name="meta.media.0.codec.height">144</property>
  <property name="meta.media.0.codec.rotate">0</property>
  <property name="meta.media.0.codec.pix_fmt">bgr24</property>
  <property name="meta.media.0.codec.sample_aspect_ratio">0</property>
  <property name="meta.media.0.codec.colorspace">601</property>
  <property name="meta.media.0.codec.name">rawvideo</property>
  <property name="meta.media.0.codec.long_name">raw video</property>
  <property name="meta.media.0.codec.bit_rate">15961263</property>
  <property name="meta.attr.0.stream.title.markup">e:/stp/incoming_avis/subsampled/moshe_jump.avi</property>
  <property name="seekable">1</property>
  <property name="meta.media.sample_aspect_num">1</property>
  <property name="meta.media.sample_aspect_den">1</property>
  <property name="aspect_ratio">1</property>
  <property name="audio_index">-1</property>
  <property name="video_index">0</property>
  <property name="mute_on_pause">0</property>
  <property name="mlt_service">avformat-novalidate</property>
  <property name="kdenlive:clipname"/>
  <property name="kdenlive:folderid">85</property>
  <property name="meta.media.frame_rate_num">25</property>
  <property name="meta.media.frame_rate_den">1</property>
  <property name="meta.media.colorspace">601</property>
  <property name="meta.media.color_trc">2</property>
  <property name="meta.media.has_b_frames">0</property>
  <property name="meta.media.width">180</property>
  <property name="meta.media.height">144</property>
  <property name="meta.media.color_range">mpeg</property>
  <property name="kdenlive:id">87</property>
  <property name="kdenlive:file_size">3035648</property>
  <property name="kdenlive:file_hash">dcf1e23a01c641ded27220f2afe3c03f</property>
  <property name="meta.media.top_field_first">0</property>
  <property name="meta.media.progressive">1</property>
 </producer>
 <producer id="producer68" in="00:00:00.000" out="00:00:01.480">
  <property name="length">38</property>
  <property name="eof">pause</property>
  <property name="resource">C:/Users/Ichsan/tugasakhir/dataset-traintest/test/jump/2.avi</property>
  <property name="meta.media.nb_streams">1</property>
  <property name="meta.media.0.stream.type">video</property>
  <property name="meta.media.0.stream.frame_rate">25</property>
  <property name="meta.media.0.stream.sample_aspect_ratio">0</property>
  <property name="meta.media.0.codec.width">180</property>
  <property name="meta.media.0.codec.height">144</property>
  <property name="meta.media.0.codec.rotate">0</property>
  <property name="meta.media.0.codec.pix_fmt">bgr24</property>
  <property name="meta.media.0.codec.sample_aspect_ratio">0</property>
  <property name="meta.media.0.codec.colorspace">601</property>
  <property name="meta.media.0.codec.name">rawvideo</property>
  <property name="meta.media.0.codec.long_name">raw video</property>
  <property name="meta.media.0.codec.bit_rate">15972324</property>
  <property name="meta.attr.0.stream.title.markup">e:/stp/incoming_avis/subsampled/shahar_jump.avi</property>
  <property name="seekable">1</property>
  <property name="meta.media.sample_aspect_num">1</property>
  <property name="meta.media.sample_aspect_den">1</property>
  <property name="aspect_ratio">1</property>
  <property name="audio_index">-1</property>
  <property name="video_index">0</property>
  <property name="mute_on_pause">0</property>
  <property name="mlt_service">avformat-novalidate</property>
  <property name="kdenlive:clipname"/>
  <property name="kdenlive:folderid">85</property>
  <property name="meta.media.frame_rate_num">25</property>
  <property name="meta.media.frame_rate_den">1</property>
  <property name="meta.media.colorspace">601</property>
  <property name="meta.media.color_trc">2</property>
  <property name="meta.media.has_b_frames">0</property>
  <property name="meta.media.width">180</property>
  <property name="meta.media.height">144</property>
  <property name="meta.media.color_range">mpeg</property>
  <property name="kdenlive:id">88</property>
  <property name="kdenlive:file_size">2958336</property>
  <property name="kdenlive:file_hash">426e548392d93061139a57cace26a9a2</property>
  <property name="meta.media.top_field_first">0</property>
  <property name="meta.media.progressive">1</property>
 </producer>
 <producer id="producer69" in="00:00:00.000" out="00:00:02.160">
  <property name="length">55</property>
  <property name="eof">pause</property>
  <property name="resource">C:/Users/Ichsan/tugasakhir/dataset-traintest/test/jump in place/0.avi</property>
  <property name="meta.media.nb_streams">1</property>
  <property name="meta.media.0.stream.type">video</property>
  <property name="meta.media.0.stream.frame_rate">25</property>
  <property name="meta.media.0.stream.sample_aspect_ratio">0</property>
  <property name="meta.media.0.codec.width">180</property>
  <property name="meta.media.0.codec.height">144</property>
  <property name="meta.media.0.codec.rotate">0</property>
  <property name="meta.media.0.codec.pix_fmt">bgr24</property>
  <property name="meta.media.0.codec.sample_aspect_ratio">0</property>
  <property name="meta.media.0.codec.colorspace">601</property>
  <property name="meta.media.0.codec.name">rawvideo</property>
  <property name="meta.media.0.codec.long_name">raw video</property>
  <property name="meta.media.0.codec.bit_rate">15840000</property>
  <property name="meta.attr.0.stream.title.markup">e:/stp/incoming_avis/subsampled/lyova_pjump.avi</property>
  <property name="seekable">1</property>
  <property name="meta.media.sample_aspect_num">1</property>
  <property name="meta.media.sample_aspect_den">1</property>
  <property name="aspect_ratio">1</property>
  <property name="audio_index">-1</property>
  <property name="video_index">0</property>
  <property name="mute_on_pause">0</property>
  <property name="mlt_service">avformat-novalidate</property>
  <property name="kdenlive:clipname"/>
  <property name="kdenlive:folderid">89</property>
  <property name="meta.media.frame_rate_num">25</property>
  <property name="meta.media.frame_rate_den">1</property>
  <property name="meta.media.colorspace">601</property>
  <property name="meta.media.color_trc">2</property>
  <property name="meta.media.has_b_frames">0</property>
  <property name="meta.media.width">180</property>
  <property name="meta.media.height">144</property>
  <property name="meta.media.color_range">mpeg</property>
  <property name="kdenlive:id">90</property>
  <property name="kdenlive:file_size">4280320</property>
  <property name="kdenlive:file_hash">0aed5f78028f893b1311bed61ba7c291</property>
  <property name="meta.media.top_field_first">0</property>
  <property name="meta.media.progressive">1</property>
 </producer>
 <producer id="producer70" in="00:00:00.000" out="00:00:01.760">
  <property name="length">45</property>
  <property name="eof">pause</property>
  <property name="resource">C:/Users/Ichsan/tugasakhir/dataset-traintest/test/jump in place/1.avi</property>
  <property name="meta.media.nb_streams">1</property>
  <property name="meta.media.0.stream.type">video</property>
  <property name="meta.media.0.stream.frame_rate">25</property>
  <property name="meta.media.0.stream.sample_aspect_ratio">0</property>
  <property name="meta.media.0.codec.width">180</property>
  <property name="meta.media.0.codec.height">144</property>
  <property name="meta.media.0.codec.rotate">0</property>
  <property name="meta.media.0.codec.pix_fmt">bgr24</property>
  <property name="meta.media.0.codec.sample_aspect_ratio">0</property>
  <property name="meta.media.0.codec.colorspace">601</property>
  <property name="meta.media.0.codec.name">rawvideo</property>
  <property name="meta.media.0.codec.long_name">raw video</property>
  <property name="meta.media.0.codec.bit_rate">15905455</property>
  <property name="meta.attr.0.stream.title.markup">e:/stp/incoming_avis/subsampled/moshe_pjump.avi</property>
  <property name="seekable">1</property>
  <property name="meta.media.sample_aspect_num">1</property>
  <property name="meta.media.sample_aspect_den">1</property>
  <property name="aspect_ratio">1</property>
  <property name="audio_index">-1</property>
  <property name="video_index">0</property>
  <property name="mute_on_pause">0</property>
  <property name="mlt_service">avformat-novalidate</property>
  <property name="kdenlive:clipname"/>
  <property name="kdenlive:folderid">89</property>
  <property name="meta.media.frame_rate_num">25</property>
  <property name="meta.media.frame_rate_den">1</property>
  <property name="meta.media.colorspace">601</property>
  <property name="meta.media.color_trc">2</property>
  <property name="meta.media.has_b_frames">0</property>
  <property name="meta.media.width">180</property>
  <property name="meta.media.height">144</property>
  <property name="meta.media.color_range">mpeg</property>
  <property name="kdenlive:id">91</property>
  <property name="kdenlive:file_size">3502592</property>
  <property name="kdenlive:file_hash">7d3f682e73d0847f507cf3443baa6db6</property>
  <property name="meta.media.top_field_first">0</property>
  <property name="meta.media.progressive">1</property>
 </producer>
 <producer id="producer71" in="00:00:00.000" out="00:00:02.200">
  <property name="length">56</property>
  <property name="eof">pause</property>
  <property name="resource">C:/Users/Ichsan/tugasakhir/dataset-traintest/test/jump in place/2.avi</property>
  <property name="meta.media.nb_streams">1</property>
  <property name="meta.media.0.stream.type">video</property>
  <property name="meta.media.0.stream.frame_rate">25</property>
  <property name="meta.media.0.stream.sample_aspect_ratio">0</property>
  <property name="meta.media.0.codec.width">180</property>
  <property name="meta.media.0.codec.height">144</property>
  <property name="meta.media.0.codec.rotate">0</property>
  <property name="meta.media.0.codec.pix_fmt">bgr24</property>
  <property name="meta.media.0.codec.sample_aspect_ratio">0</property>
  <property name="meta.media.0.codec.colorspace">601</property>
  <property name="meta.media.0.codec.name">rawvideo</property>
  <property name="meta.media.0.codec.long_name">raw video</property>
  <property name="meta.media.0.codec.bit_rate">15834764</property>
  <property name="meta.attr.0.stream.title.markup">e:/stp/incoming_avis/subsampled/shahar_pjump.avi</property>
  <property name="seekable">1</property>
  <property name="meta.media.sample_aspect_num">1</property>
  <property name="meta.media.sample_aspect_den">1</property>
  <property name="aspect_ratio">1</property>
  <property name="audio_index">-1</property>
  <property name="video_index">0</property>
  <property name="mute_on_pause">0</property>
  <property name="mlt_service">avformat-novalidate</property>
  <property name="kdenlive:clipname"/>
  <property name="kdenlive:folderid">89</property>
  <property name="meta.media.frame_rate_num">25</property>
  <property name="meta.media.frame_rate_den">1</property>
  <property name="meta.media.colorspace">601</property>
  <property name="meta.media.color_trc">2</property>
  <property name="meta.media.has_b_frames">0</property>
  <property name="meta.media.width">180</property>
  <property name="meta.media.height">144</property>
  <property name="meta.media.color_range">mpeg</property>
  <property name="kdenlive:id">92</property>
  <property name="kdenlive:file_size">4358144</property>
  <property name="kdenlive:file_hash">a2200a4eff45a580818091805c1b8450</property>
  <property name="meta.media.top_field_first">0</property>
  <property name="meta.media.progressive">1</property>
 </producer>
 <producer id="producer72" in="00:00:00.000" out="00:00:02.200">
  <property name="length">56</property>
  <property name="eof">pause</property>
  <property name="resource">C:/Users/Ichsan/tugasakhir/dataset-traintest/test/jumping jack/0.avi</property>
  <property name="meta.media.nb_streams">1</property>
  <property name="meta.media.0.stream.type">video</property>
  <property name="meta.media.0.stream.frame_rate">25</property>
  <property name="meta.media.0.stream.sample_aspect_ratio">0</property>
  <property name="meta.media.0.codec.width">180</property>
  <property name="meta.media.0.codec.height">144</property>
  <property name="meta.media.0.codec.rotate">0</property>
  <property name="meta.media.0.codec.pix_fmt">bgr24</property>
  <property name="meta.media.0.codec.sample_aspect_ratio">0</property>
  <property name="meta.media.0.codec.colorspace">601</property>
  <property name="meta.media.0.codec.name">rawvideo</property>
  <property name="meta.media.0.codec.long_name">raw video</property>
  <property name="meta.media.0.codec.bit_rate">15834764</property>
  <property name="meta.attr.0.stream.title.markup">e:/stp/incoming_avis/subsampled/lyova_jack.avi</property>
  <property name="seekable">1</property>
  <property name="meta.media.sample_aspect_num">1</property>
  <property name="meta.media.sample_aspect_den">1</property>
  <property name="aspect_ratio">1</property>
  <property name="audio_index">-1</property>
  <property name="video_index">0</property>
  <property name="mute_on_pause">0</property>
  <property name="mlt_service">avformat-novalidate</property>
  <property name="kdenlive:clipname"/>
  <property name="kdenlive:folderid">93</property>
  <property name="meta.media.frame_rate_num">25</property>
  <property name="meta.media.frame_rate_den">1</property>
  <property name="meta.media.colorspace">601</property>
  <property name="meta.media.color_trc">2</property>
  <property name="meta.media.has_b_frames">0</property>
  <property name="meta.media.width">180</property>
  <property name="meta.media.height">144</property>
  <property name="meta.media.color_range">mpeg</property>
  <property name="kdenlive:id">94</property>
  <property name="kdenlive:file_size">4358144</property>
  <property name="kdenlive:file_hash">d0da3b6bc080b179628f842bf31eb83a</property>
  <property name="meta.media.top_field_first">0</property>
  <property name="meta.media.progressive">1</property>
 </producer>
 <producer id="producer73" in="00:00:00.000" out="00:00:04.160">
  <property name="length">105</property>
  <property name="eof">pause</property>
  <property name="resource">C:/Users/Ichsan/tugasakhir/dataset-traintest/test/jumping jack/1.avi</property>
  <property name="meta.media.nb_streams">1</property>
  <property name="meta.media.0.stream.type">video</property>
  <property name="meta.media.0.stream.frame_rate">25</property>
  <property name="meta.media.0.stream.sample_aspect_ratio">0</property>
  <property name="meta.media.0.codec.width">180</property>
  <property name="meta.media.0.codec.height">144</property>
  <property name="meta.media.0.codec.rotate">0</property>
  <property name="meta.media.0.codec.pix_fmt">bgr24</property>
  <property name="meta.media.0.codec.sample_aspect_ratio">0</property>
  <property name="meta.media.0.codec.colorspace">601</property>
  <property name="meta.media.0.codec.name">rawvideo</property>
  <property name="meta.media.0.codec.long_name">raw video</property>
  <property name="meta.media.0.codec.bit_rate">15701538</property>
  <property name="meta.attr.0.stream.title.markup">e:/stp/incoming_avis/subsampled/moshe_jack.avi</property>
  <property name="seekable">1</property>
  <property name="meta.media.sample_aspect_num">1</property>
  <property name="meta.media.sample_aspect_den">1</property>
  <property name="aspect_ratio">1</property>
  <property name="audio_index">-1</property>
  <property name="video_index">0</property>
  <property name="mute_on_pause">0</property>
  <property name="mlt_service">avformat-novalidate</property>
  <property name="kdenlive:clipname"/>
  <property name="kdenlive:folderid">93</property>
  <property name="meta.media.frame_rate_num">25</property>
  <property name="meta.media.frame_rate_den">1</property>
  <property name="meta.media.colorspace">601</property>
  <property name="meta.media.color_trc">2</property>
  <property name="meta.media.has_b_frames">0</property>
  <property name="meta.media.width">180</property>
  <property name="meta.media.height">144</property>
  <property name="meta.media.color_range">mpeg</property>
  <property name="kdenlive:id">95</property>
  <property name="kdenlive:file_size">8169472</property>
  <property name="kdenlive:file_hash">c29391b6c483f0ac39035416e5af4e52</property>
  <property name="meta.media.top_field_first">0</property>
  <property name="meta.media.progressive">1</property>
 </producer>
 <producer id="producer74" in="00:00:00.000" out="00:00:04.080">
  <property name="length">103</property>
  <property name="eof">pause</property>
  <property name="resource">C:/Users/Ichsan/tugasakhir/dataset-traintest/test/jumping jack/2.avi</property>
  <property name="meta.media.nb_streams">1</property>
  <property name="meta.media.0.stream.type">video</property>
  <property name="meta.media.0.stream.frame_rate">25</property>
  <property name="meta.media.0.stream.sample_aspect_ratio">0</property>
  <property name="meta.media.0.codec.width">180</property>
  <property name="meta.media.0.codec.height">144</property>
  <property name="meta.media.0.codec.rotate">0</property>
  <property name="meta.media.0.codec.pix_fmt">bgr24</property>
  <property name="meta.media.0.codec.sample_aspect_ratio">0</property>
  <property name="meta.media.0.codec.colorspace">601</property>
  <property name="meta.media.0.codec.name">rawvideo</property>
  <property name="meta.media.0.codec.long_name">raw video</property>
  <property name="meta.media.0.codec.bit_rate">15704471</property>
  <property name="meta.attr.0.stream.title.markup">e:/stp/incoming_avis/subsampled/shahar_jack.avi</property>
  <property name="seekable">1</property>
  <property name="meta.media.sample_aspect_num">1</property>
  <property name="meta.media.sample_aspect_den">1</property>
  <property name="aspect_ratio">1</property>
  <property name="audio_index">-1</property>
  <property name="video_index">0</property>
  <property name="mute_on_pause">0</property>
  <property name="mlt_service">avformat-novalidate</property>
  <property name="kdenlive:clipname"/>
  <property name="kdenlive:folderid">93</property>
  <property name="meta.media.frame_rate_num">25</property>
  <property name="meta.media.frame_rate_den">1</property>
  <property name="meta.media.colorspace">601</property>
  <property name="meta.media.color_trc">2</property>
  <property name="meta.media.has_b_frames">0</property>
  <property name="meta.media.width">180</property>
  <property name="meta.media.height">144</property>
  <property name="meta.media.color_range">mpeg</property>
  <property name="kdenlive:id">96</property>
  <property name="kdenlive:file_size">8013824</property>
  <property name="kdenlive:file_hash">4353294a0d1262f301920ec675643d29</property>
  <property name="meta.media.top_field_first">0</property>
  <property name="meta.media.progressive">1</property>
 </producer>
 <producer id="producer75" in="00:00:00.000" out="00:00:02.120">
  <property name="length">54</property>
  <property name="eof">pause</property>
  <property name="resource">C:/Users/Ichsan/tugasakhir/dataset-traintest/test/one-hand wave/0.avi</property>
  <property name="meta.media.nb_streams">1</property>
  <property name="meta.media.0.stream.type">video</property>
  <property name="meta.media.0.stream.frame_rate">25</property>
  <property name="meta.media.0.stream.sample_aspect_ratio">0</property>
  <property name="meta.media.0.codec.width">180</property>
  <property name="meta.media.0.codec.height">144</property>
  <property name="meta.media.0.codec.rotate">0</property>
  <property name="meta.media.0.codec.pix_fmt">bgr24</property>
  <property name="meta.media.0.codec.sample_aspect_ratio">0</property>
  <property name="meta.media.0.codec.colorspace">601</property>
  <property name="meta.media.0.codec.name">rawvideo</property>
  <property name="meta.media.0.codec.long_name">raw video</property>
  <property name="meta.media.0.codec.bit_rate">15845434</property>
  <property name="meta.attr.0.stream.title.markup">e:/stp/incoming_avis/subsampled/lyova_wave1.avi</property>
  <property name="seekable">1</property>
  <property name="meta.media.sample_aspect_num">1</property>
  <property name="meta.media.sample_aspect_den">1</property>
  <property name="aspect_ratio">1</property>
  <property name="audio_index">-1</property>
  <property name="video_index">0</property>
  <property name="mute_on_pause">0</property>
  <property name="mlt_service">avformat-novalidate</property>
  <property name="kdenlive:clipname"/>
  <property name="kdenlive:folderid">97</property>
  <property name="meta.media.frame_rate_num">25</property>
  <property name="meta.media.frame_rate_den">1</property>
  <property name="meta.media.colorspace">601</property>
  <property name="meta.media.color_trc">2</property>
  <property name="meta.media.has_b_frames">0</property>
  <property name="meta.media.width">180</property>
  <property name="meta.media.height">144</property>
  <property name="meta.media.color_range">mpeg</property>
  <property name="kdenlive:id">98</property>
  <property name="kdenlive:file_size">4202496</property>
  <property name="kdenlive:file_hash">8f3024715d11a7d546c7153b0c4908ef</property>
  <property name="meta.media.top_field_first">0</property>
  <property name="meta.media.progressive">1</property>
 </producer>
 <producer id="producer76" in="00:00:00.000" out="00:00:02.360">
  <property name="length">60</property>
  <property name="eof">pause</property>
  <property name="resource">C:/Users/Ichsan/tugasakhir/dataset-traintest/test/one-hand wave/1.avi</property>
  <property name="meta.media.nb_streams">1</property>
  <property name="meta.media.0.stream.type">video</property>
  <property name="meta.media.0.stream.frame_rate">25</property>
  <property name="meta.media.0.stream.sample_aspect_ratio">0</property>
  <property name="meta.media.0.codec.width">180</property>
  <property name="meta.media.0.codec.height">144</property>
  <property name="meta.media.0.codec.rotate">0</property>
  <property name="meta.media.0.codec.pix_fmt">bgr24</property>
  <property name="meta.media.0.codec.sample_aspect_ratio">0</property>
  <property name="meta.media.0.codec.colorspace">601</property>
  <property name="meta.media.0.codec.name">rawvideo</property>
  <property name="meta.media.0.codec.long_name">raw video</property>
  <property name="meta.media.0.codec.bit_rate">15815593</property>
  <property name="meta.attr.0.stream.title.markup">e:/stp/incoming_avis/subsampled/moshe_wave1.avi</property>
  <property name="seekable">1</property>
  <property name="meta.media.sample_aspect_num">1</property>
  <property name="meta.media.sample_aspect_den">1</property>
  <property name="aspect_ratio">1</property>
  <property name="audio_index">-1</property>
  <property name="video_index">0</property>
  <property name="mute_on_pause">0</property>
  <property name="mlt_service">avformat-novalidate</property>
  <property name="kdenlive:clipname"/>
  <property name="kdenlive:folderid">97</property>
  <property name="meta.media.frame_rate_num">25</property>
  <property name="meta.media.frame_rate_den">1</property>
  <property name="meta.media.colorspace">601</property>
  <property name="meta.media.color_trc">2</property>
  <property name="meta.media.has_b_frames">0</property>
  <property name="meta.media.width">180</property>
  <property name="meta.media.height">144</property>
  <property name="meta.media.color_range">mpeg</property>
  <property name="kdenlive:id">99</property>
  <property name="kdenlive:file_size">4669440</property>
  <property name="kdenlive:file_hash">640b664f586bfce43cff3f7a792b477f</property>
  <property name="meta.media.top_field_first">0</property>
  <property name="meta.media.progressive">1</property>
 </producer>
 <producer id="producer77" in="00:00:00.000" out="00:00:02.400">
  <property name="length">61</property>
  <property name="eof">pause</property>
  <property name="resource">C:/Users/Ichsan/tugasakhir/dataset-traintest/test/one-hand wave/2.avi</property>
  <property name="meta.media.nb_streams">1</property>
  <property name="meta.media.0.stream.type">video</property>
  <property name="meta.media.0.stream.frame_rate">25</property>
  <property name="meta.media.0.stream.sample_aspect_ratio">0</property>
  <property name="meta.media.0.codec.width">180</property>
  <property name="meta.media.0.codec.height">144</property>
  <property name="meta.media.0.codec.rotate">0</property>
  <property name="meta.media.0.codec.pix_fmt">bgr24</property>
  <property name="meta.media.0.codec.sample_aspect_ratio">0</property>
  <property name="meta.media.0.codec.colorspace">601</property>
  <property name="meta.media.0.codec.name">rawvideo</property>
  <property name="meta.media.0.codec.long_name">raw video</property>
  <property name="meta.media.0.codec.bit_rate">15811200</property>
  <property name="meta.attr.0.stream.title.markup">e:/stp/incoming_avis/subsampled/shahar_wave1.avi</property>
  <property name="seekable">1</property>
  <property name="meta.media.sample_aspect_num">1</property>
  <property name="meta.media.sample_aspect_den">1</property>
  <property name="aspect_ratio">1</property>
  <property name="audio_index">-1</property>
  <property name="video_index">0</property>
  <property name="mute_on_pause">0</property>
  <property name="mlt_service">avformat-novalidate</property>
  <property name="kdenlive:clipname"/>
  <property name="kdenlive:folderid">97</property>
  <property name="meta.media.frame_rate_num">25</property>
  <property name="meta.media.frame_rate_den">1</property>
  <property name="meta.media.colorspace">601</property>
  <property name="meta.media.color_trc">2</property>
  <property name="meta.media.has_b_frames">0</property>
  <property name="meta.media.width">180</property>
  <property name="meta.media.height">144</property>
  <property name="meta.media.color_range">mpeg</property>
  <property name="kdenlive:id">100</property>
  <property name="kdenlive:file_size">4747264</property>
  <property name="kdenlive:file_hash">e393cb6a39be9856492e7921021f461c</property>
  <property name="meta.media.top_field_first">0</property>
  <property name="meta.media.progressive">1</property>
 </producer>
 <producer id="producer78" in="00:00:00.000" out="00:00:01.400">
  <property name="length">36</property>
  <property name="eof">pause</property>
  <property name="resource">C:/Users/Ichsan/tugasakhir/dataset-traintest/test/run/0.avi</property>
  <property name="meta.media.nb_streams">1</property>
  <property name="meta.media.0.stream.type">video</property>
  <property name="meta.media.0.stream.frame_rate">25</property>
  <property name="meta.media.0.stream.sample_aspect_ratio">0</property>
  <property name="meta.media.0.codec.width">180</property>
  <property name="meta.media.0.codec.height">144</property>
  <property name="meta.media.0.codec.rotate">0</property>
  <property name="meta.media.0.codec.pix_fmt">bgr24</property>
  <property name="meta.media.0.codec.sample_aspect_ratio">0</property>
  <property name="meta.media.0.codec.colorspace">601</property>
  <property name="meta.media.0.codec.name">rawvideo</property>
  <property name="meta.media.0.codec.long_name">raw video</property>
  <property name="meta.media.0.codec.bit_rate">15996343</property>
  <property name="meta.attr.0.stream.title.markup">e:/stp/incoming_avis/subsampled/lyova_run.avi</property>
  <property name="seekable">1</property>
  <property name="meta.media.sample_aspect_num">1</property>
  <property name="meta.media.sample_aspect_den">1</property>
  <property name="aspect_ratio">1</property>
  <property name="audio_index">-1</property>
  <property name="video_index">0</property>
  <property name="mute_on_pause">0</property>
  <property name="mlt_service">avformat-novalidate</property>
  <property name="kdenlive:clipname"/>
  <property name="kdenlive:folderid">101</property>
  <property name="meta.media.frame_rate_num">25</property>
  <property name="meta.media.frame_rate_den">1</property>
  <property name="meta.media.colorspace">601</property>
  <property name="meta.media.color_trc">2</property>
  <property name="meta.media.has_b_frames">0</property>
  <property name="meta.media.width">180</property>
  <property name="meta.media.height">144</property>
  <property name="meta.media.color_range">mpeg</property>
  <property name="kdenlive:id">102</property>
  <property name="kdenlive:file_size">2802688</property>
  <property name="kdenlive:file_hash">0d646d9961a723f73b30db8e27a7b28d</property>
  <property name="meta.media.top_field_first">0</property>
  <property name="meta.media.progressive">1</property>
  <property name="kdenlive:activeeffect">0</property>
  <filter id="filter1">
   <property name="rotate_center">1</property>
   <property name="mlt_service">qtblend</property>
   <property name="kdenlive_id">qtblend</property>
   <property name="rect">00:00:00.000=-45 -36 270 216 1.000000</property>
   <property name="rotation">00:00:00.000=0</property>
   <property name="compositing">0</property>
   <property name="distort">0</property>
   <property name="kdenlive:collapsed">0</property>
  </filter>
 </producer>
 <producer id="producer79" in="00:00:00.000" out="00:00:01.600">
  <property name="length">41</property>
  <property name="eof">pause</property>
  <property name="resource">C:/Users/Ichsan/tugasakhir/dataset-traintest/test/run/1.avi</property>
  <property name="meta.media.nb_streams">1</property>
  <property name="meta.media.0.stream.type">video</property>
  <property name="meta.media.0.stream.frame_rate">25</property>
  <property name="meta.media.0.stream.sample_aspect_ratio">0</property>
  <property name="meta.media.0.codec.width">180</property>
  <property name="meta.media.0.codec.height">144</property>
  <property name="meta.media.0.codec.rotate">0</property>
  <property name="meta.media.0.codec.pix_fmt">bgr24</property>
  <property name="meta.media.0.codec.sample_aspect_ratio">0</property>
  <property name="meta.media.0.codec.colorspace">601</property>
  <property name="meta.media.0.codec.name">rawvideo</property>
  <property name="meta.media.0.codec.long_name">raw video</property>
  <property name="meta.media.0.codec.bit_rate">0</property>
  <property name="meta.attr.0.stream.title.markup">e:/stp/incoming_avis/subsampled/dynamic/moshe_run.avi</property>
  <property name="seekable">1</property>
  <property name="meta.media.sample_aspect_num">1</property>
  <property name="meta.media.sample_aspect_den">1</property>
  <property name="aspect_ratio">1</property>
  <property name="audio_index">-1</property>
  <property name="video_index">0</property>
  <property name="mute_on_pause">0</property>
  <property name="mlt_service">avformat-novalidate</property>
  <property name="kdenlive:clipname"/>
  <property name="kdenlive:folderid">101</property>
  <property name="meta.media.frame_rate_num">25</property>
  <property name="meta.media.frame_rate_den">1</property>
  <property name="meta.media.colorspace">601</property>
  <property name="meta.media.color_trc">2</property>
  <property name="meta.media.has_b_frames">0</property>
  <property name="meta.media.width">180</property>
  <property name="meta.media.height">144</property>
  <property name="meta.media.color_range">mpeg</property>
  <property name="kdenlive:id">103</property>
  <property name="kdenlive:file_size">5058048</property>
  <property name="kdenlive:file_hash">d7e6a0701e30cb23963379abb05708c3</property>
  <property name="meta.media.top_field_first">0</property>
  <property name="meta.media.progressive">1</property>
 </producer>
 <producer id="producer80" in="00:00:00.000" out="00:00:01.760">
  <property name="length">45</property>
  <property name="eof">pause</property>
  <property name="resource">C:/Users/Ichsan/tugasakhir/dataset-traintest/test/run/2.avi</property>
  <property name="meta.media.nb_streams">1</property>
  <property name="meta.media.0.stream.type">video</property>
  <property name="meta.media.0.stream.frame_rate">25</property>
  <property name="meta.media.0.stream.sample_aspect_ratio">0</property>
  <property name="meta.media.0.codec.width">180</property>
  <property name="meta.media.0.codec.height">144</property>
  <property name="meta.media.0.codec.rotate">0</property>
  <property name="meta.media.0.codec.pix_fmt">bgr24</property>
  <property name="meta.media.0.codec.sample_aspect_ratio">0</property>
  <property name="meta.media.0.codec.colorspace">601</property>
  <property name="meta.media.0.codec.name">rawvideo</property>
  <property name="meta.media.0.codec.long_name">raw video</property>
  <property name="meta.media.0.codec.bit_rate">0</property>
  <property name="meta.attr.0.stream.title.markup">e:/stp/incoming_avis/subsampled/dynamic/shahar_run.avi</property>
  <property name="seekable">1</property>
  <property name="meta.media.sample_aspect_num">1</property>
  <property name="meta.media.sample_aspect_den">1</property>
  <property name="aspect_ratio">1</property>
  <property name="audio_index">-1</property>
  <property name="video_index">0</property>
  <property name="mute_on_pause">0</property>
  <property name="mlt_service">avformat-novalidate</property>
  <property name="kdenlive:clipname"/>
  <property name="kdenlive:folderid">101</property>
  <property name="meta.media.frame_rate_num">25</property>
  <property name="meta.media.frame_rate_den">1</property>
  <property name="meta.media.colorspace">601</property>
  <property name="meta.media.color_trc">2</property>
  <property name="meta.media.has_b_frames">0</property>
  <property name="meta.media.width">180</property>
  <property name="meta.media.height">144</property>
  <property name="meta.media.color_range">mpeg</property>
  <property name="kdenlive:id">104</property>
  <property name="kdenlive:file_size">5291520</property>
  <property name="kdenlive:file_hash">c4b52737eeb048a733cbac6563b21fb5</property>
  <property name="meta.media.top_field_first">0</property>
  <property name="meta.media.progressive">1</property>
 </producer>
 <producer id="producer81" in="00:00:00.000" out="00:00:01.440">
  <property name="length">37</property>
  <property name="eof">pause</property>
  <property name="resource">C:/Users/Ichsan/tugasakhir/dataset-traintest/test/skip/0.avi</property>
  <property name="meta.media.nb_streams">1</property>
  <property name="meta.media.0.stream.type">video</property>
  <property name="meta.media.0.stream.frame_rate">25</property>
  <property name="meta.media.0.stream.sample_aspect_ratio">0</property>
  <property name="meta.media.0.codec.width">180</property>
  <property name="meta.media.0.codec.height">144</property>
  <property name="meta.media.0.codec.rotate">0</property>
  <property name="meta.media.0.codec.pix_fmt">bgr24</property>
  <property name="meta.media.0.codec.sample_aspect_ratio">0</property>
  <property name="meta.media.0.codec.colorspace">601</property>
  <property name="meta.media.0.codec.name">rawvideo</property>
  <property name="meta.media.0.codec.long_name">raw video</property>
  <property name="meta.media.0.codec.bit_rate">15984000</property>
  <property name="meta.attr.0.stream.title.markup">e:/stp/incoming_avis/subsampled/lyova_skip.avi</property>
  <property name="seekable">1</property>
  <property name="meta.media.sample_aspect_num">1</property>
  <property name="meta.media.sample_aspect_den">1</property>
  <property name="aspect_ratio">1</property>
  <property name="audio_index">-1</property>
  <property name="video_index">0</property>
  <property name="mute_on_pause">0</property>
  <property name="mlt_service">avformat-novalidate</property>
  <property name="kdenlive:clipname"/>
  <property name="kdenlive:folderid">105</property>
  <property name="meta.media.frame_rate_num">25</property>
  <property name="meta.media.frame_rate_den">1</property>
  <property name="meta.media.colorspace">601</property>
  <property name="meta.media.color_trc">2</property>
  <property name="meta.media.has_b_frames">0</property>
  <property name="meta.media.width">180</property>
  <property name="meta.media.height">144</property>
  <property name="meta.media.color_range">mpeg</property>
  <property name="kdenlive:id">106</property>
  <property name="kdenlive:file_size">2880512</property>
  <property name="kdenlive:file_hash">c951365026a5ed25d0ac0731481af33d</property>
  <property name="meta.media.top_field_first">0</property>
  <property name="meta.media.progressive">1</property>
 </producer>
 <producer id="producer82" in="00:00:00.000" out="00:00:02.120">
  <property name="length">54</property>
  <property name="eof">pause</property>
  <property name="resource">C:/Users/Ichsan/tugasakhir/dataset-traintest/test/skip/1.avi</property>
  <property name="meta.media.nb_streams">1</property>
  <property name="meta.media.0.stream.type">video</property>
  <property name="meta.media.0.stream.frame_rate">25</property>
  <property name="meta.media.0.stream.sample_aspect_ratio">0</property>
  <property name="meta.media.0.codec.width">180</property>
  <property name="meta.media.0.codec.height">144</property>
  <property name="meta.media.0.codec.rotate">0</property>
  <property name="meta.media.0.codec.pix_fmt">bgr24</property>
  <property name="meta.media.0.codec.sample_aspect_ratio">0</property>
  <property name="meta.media.0.codec.colorspace">601</property>
  <property name="meta.media.0.codec.name">rawvideo</property>
  <property name="meta.media.0.codec.long_name">raw video</property>
  <property name="meta.media.0.codec.bit_rate">0</property>
  <property name="meta.attr.0.stream.title.markup">e:/stp/incoming_avis/subsampled/dynamic/moshe_skip.avi</property>
  <property name="seekable">1</property>
  <property name="meta.media.sample_aspect_num">1</property>
  <property name="meta.media.sample_aspect_den">1</property>
  <property name="aspect_ratio">1</property>
  <property name="audio_index">-1</property>
  <property name="video_index">0</property>
  <property name="mute_on_pause">0</property>
  <property name="mlt_service">avformat-novalidate</property>
  <property name="kdenlive:clipname"/>
  <property name="kdenlive:folderid">105</property>
  <property name="meta.media.frame_rate_num">25</property>
  <property name="meta.media.frame_rate_den">1</property>
  <property name="meta.media.colorspace">601</property>
  <property name="meta.media.color_trc">2</property>
  <property name="meta.media.has_b_frames">0</property>
  <property name="meta.media.width">180</property>
  <property name="meta.media.height">144</property>
  <property name="meta.media.color_range">mpeg</property>
  <property name="kdenlive:id">107</property>
  <property name="kdenlive:file_size">6069248</property>
  <property name="kdenlive:file_hash">4cc82cab5a2290226a9080446053c00b</property>
  <property name="meta.media.top_field_first">0</property>
  <property name="meta.media.progressive">1</property>
 </producer>
 <producer id="producer83" in="00:00:00.000" out="00:00:01.760">
  <property name="length">45</property>
  <property name="eof">pause</property>
  <property name="resource">C:/Users/Ichsan/tugasakhir/dataset-traintest/test/skip/2.avi</property>
  <property name="meta.media.nb_streams">1</property>
  <property name="meta.media.0.stream.type">video</property>
  <property name="meta.media.0.stream.frame_rate">25</property>
  <property name="meta.media.0.stream.sample_aspect_ratio">0</property>
  <property name="meta.media.0.codec.width">180</property>
  <property name="meta.media.0.codec.height">144</property>
  <property name="meta.media.0.codec.rotate">0</property>
  <property name="meta.media.0.codec.pix_fmt">bgr24</property>
  <property name="meta.media.0.codec.sample_aspect_ratio">0</property>
  <property name="meta.media.0.codec.colorspace">601</property>
  <property name="meta.media.0.codec.name">rawvideo</property>
  <property name="meta.media.0.codec.long_name">raw video</property>
  <property name="meta.media.0.codec.bit_rate">0</property>
  <property name="meta.attr.0.stream.title.markup">e:/stp/incoming_avis/subsampled/dynamic/shahar_skip.avi</property>
  <property name="seekable">1</property>
  <property name="meta.media.sample_aspect_num">1</property>
  <property name="meta.media.sample_aspect_den">1</property>
  <property name="aspect_ratio">1</property>
  <property name="audio_index">-1</property>
  <property name="video_index">0</property>
  <property name="mute_on_pause">0</property>
  <property name="mlt_service">avformat-novalidate</property>
  <property name="kdenlive:clipname"/>
  <property name="kdenlive:folderid">105</property>
  <property name="meta.media.frame_rate_num">25</property>
  <property name="meta.media.frame_rate_den">1</property>
  <property name="meta.media.colorspace">601</property>
  <property name="meta.media.color_trc">2</property>
  <property name="meta.media.has_b_frames">0</property>
  <property name="meta.media.width">180</property>
  <property name="meta.media.height">144</property>
  <property name="meta.media.color_range">mpeg</property>
  <property name="kdenlive:id">108</property>
  <property name="kdenlive:file_size">5369344</property>
  <property name="kdenlive:file_hash">c185df309c7a23ea1f2beca0584bd7b5</property>
  <property name="meta.media.top_field_first">0</property>
  <property name="meta.media.progressive">1</property>
 </producer>
 <producer id="producer84" in="00:00:00.000" out="00:00:02.240">
  <property name="length">57</property>
  <property name="eof">pause</property>
  <property name="resource">C:/Users/Ichsan/tugasakhir/dataset-traintest/test/two-hands wave/0.avi</property>
  <property name="meta.media.nb_streams">1</property>
  <property name="meta.media.0.stream.type">video</property>
  <property name="meta.media.0.stream.frame_rate">25</property>
  <property name="meta.media.0.stream.sample_aspect_ratio">0</property>
  <property name="meta.media.0.codec.width">180</property>
  <property name="meta.media.0.codec.height">144</property>
  <property name="meta.media.0.codec.rotate">0</property>
  <property name="meta.media.0.codec.pix_fmt">bgr24</property>
  <property name="meta.media.0.codec.sample_aspect_ratio">0</property>
  <property name="meta.media.0.codec.colorspace">601</property>
  <property name="meta.media.0.codec.name">rawvideo</property>
  <property name="meta.media.0.codec.long_name">raw video</property>
  <property name="meta.media.0.codec.bit_rate">15829714</property>
  <property name="meta.attr.0.stream.title.markup">e:/stp/incoming_avis/subsampled/lyova_wave2.avi</property>
  <property name="seekable">1</property>
  <property name="meta.media.sample_aspect_num">1</property>
  <property name="meta.media.sample_aspect_den">1</property>
  <property name="aspect_ratio">1</property>
  <property name="audio_index">-1</property>
  <property name="video_index">0</property>
  <property name="mute_on_pause">0</property>
  <property name="mlt_service">avformat-novalidate</property>
  <property name="kdenlive:clipname"/>
  <property name="kdenlive:folderid">109</property>
  <property name="meta.media.frame_rate_num">25</property>
  <property name="meta.media.frame_rate_den">1</property>
  <property name="meta.media.colorspace">601</property>
  <property name="meta.media.color_trc">2</property>
  <property name="meta.media.has_b_frames">0</property>
  <property name="meta.media.width">180</property>
  <property name="meta.media.height">144</property>
  <property name="meta.media.color_range">mpeg</property>
  <property name="kdenlive:id">110</property>
  <property name="kdenlive:file_size">4435968</property>
  <property name="kdenlive:file_hash">9ddda3a6ba110c0f883157c4e51e435c</property>
  <property name="meta.media.top_field_first">0</property>
  <property name="meta.media.progressive">1</property>
 </producer>
 <producer id="producer85" in="00:00:00.000" out="00:00:02.440">
  <property name="length">62</property>
  <property name="eof">pause</property>
  <property name="resource">C:/Users/Ichsan/tugasakhir/dataset-traintest/test/two-hands wave/1.avi</property>
  <property name="meta.media.nb_streams">1</property>
  <property name="meta.media.0.stream.type">video</property>
  <property name="meta.media.0.stream.frame_rate">25</property>
  <property name="meta.media.0.stream.sample_aspect_ratio">0</property>
  <property name="meta.media.0.codec.width">180</property>
  <property name="meta.media.0.codec.height">144</property>
  <property name="meta.media.0.codec.rotate">0</property>
  <property name="meta.media.0.codec.pix_fmt">bgr24</property>
  <property name="meta.media.0.codec.sample_aspect_ratio">0</property>
  <property name="meta.media.0.codec.colorspace">601</property>
  <property name="meta.media.0.codec.name">rawvideo</property>
  <property name="meta.media.0.codec.long_name">raw video</property>
  <property name="meta.media.0.codec.bit_rate">15806951</property>
  <property name="meta.attr.0.stream.title.markup">e:/stp/incoming_avis/subsampled/moshe_wave2.avi</property>
  <property name="seekable">1</property>
  <property name="meta.media.sample_aspect_num">1</property>
  <property name="meta.media.sample_aspect_den">1</property>
  <property name="aspect_ratio">1</property>
  <property name="audio_index">-1</property>
  <property name="video_index">0</property>
  <property name="mute_on_pause">0</property>
  <property name="mlt_service">avformat-novalidate</property>
  <property name="kdenlive:clipname"/>
  <property name="kdenlive:folderid">109</property>
  <property name="meta.media.frame_rate_num">25</property>
  <property name="meta.media.frame_rate_den">1</property>
  <property name="meta.media.colorspace">601</property>
  <property name="meta.media.color_trc">2</property>
  <property name="meta.media.has_b_frames">0</property>
  <property name="meta.media.width">180</property>
  <property name="meta.media.height">144</property>
  <property name="meta.media.color_range">mpeg</property>
  <property name="kdenlive:id">111</property>
  <property name="kdenlive:file_size">4825088</property>
  <property name="kdenlive:file_hash">7764340ed748e4e350f37e10b78f6756</property>
  <property name="meta.media.top_field_first">0</property>
  <property name="meta.media.progressive">1</property>
 </producer>
 <producer id="producer86" in="00:00:00.000" out="00:00:02.320">
  <property name="length">59</property>
  <property name="eof">pause</property>
  <property name="resource">C:/Users/Ichsan/tugasakhir/dataset-traintest/test/two-hands wave/2.avi</property>
  <property name="meta.media.nb_streams">1</property>
  <property name="meta.media.0.stream.type">video</property>
  <property name="meta.media.0.stream.frame_rate">25</property>
  <property name="meta.media.0.stream.sample_aspect_ratio">0</property>
  <property name="meta.media.0.codec.width">180</property>
  <property name="meta.media.0.codec.height">144</property>
  <property name="meta.media.0.codec.rotate">0</property>
  <property name="meta.media.0.codec.pix_fmt">bgr24</property>
  <property name="meta.media.0.codec.sample_aspect_ratio">0</property>
  <property name="meta.media.0.codec.colorspace">601</property>
  <property name="meta.media.0.codec.name">rawvideo</property>
  <property name="meta.media.0.codec.long_name">raw video</property>
  <property name="meta.media.0.codec.bit_rate">15820138</property>
  <property name="meta.attr.0.stream.title.markup">e:/stp/incoming_avis/subsampled/shahar_wave2.avi</property>
  <property name="seekable">1</property>
  <property name="meta.media.sample_aspect_num">1</property>
  <property name="meta.media.sample_aspect_den">1</property>
  <property name="aspect_ratio">1</property>
  <property name="audio_index">-1</property>
  <property name="video_index">0</property>
  <property name="mute_on_pause">0</property>
  <property name="mlt_service">avformat-novalidate</property>
  <property name="kdenlive:clipname"/>
  <property name="kdenlive:folderid">109</property>
  <property name="meta.media.frame_rate_num">25</property>
  <property name="meta.media.frame_rate_den">1</property>
  <property name="meta.media.colorspace">601</property>
  <property name="meta.media.color_trc">2</property>
  <property name="meta.media.has_b_frames">0</property>
  <property name="meta.media.width">180</property>
  <property name="meta.media.height">144</property>
  <property name="meta.media.color_range">mpeg</property>
  <property name="kdenlive:id">112</property>
  <property name="kdenlive:file_size">4591616</property>
  <property name="kdenlive:file_hash">a680748560ae541d1c9d2b5ef91f7b7e</property>
  <property name="meta.media.top_field_first">0</property>
  <property name="meta.media.progressive">1</property>
 </producer>
 <producer id="producer87" in="00:00:00.000" out="00:00:01.960">
  <property name="length">50</property>
  <property name="eof">pause</property>
  <property name="resource">C:/Users/Ichsan/tugasakhir/dataset-traintest/test/walk/0.avi</property>
  <property name="meta.media.nb_streams">1</property>
  <property name="meta.media.0.stream.type">video</property>
  <property name="meta.media.0.stream.frame_rate">25</property>
  <property name="meta.media.0.stream.sample_aspect_ratio">0</property>
  <property name="meta.media.0.codec.width">180</property>
  <property name="meta.media.0.codec.height">144</property>
  <property name="meta.media.0.codec.rotate">0</property>
  <property name="meta.media.0.codec.pix_fmt">bgr24</property>
  <property name="meta.media.0.codec.sample_aspect_ratio">0</property>
  <property name="meta.media.0.codec.colorspace">601</property>
  <property name="meta.media.0.codec.name">rawvideo</property>
  <property name="meta.media.0.codec.long_name">raw video</property>
  <property name="meta.media.0.codec.bit_rate">15869388</property>
  <property name="meta.attr.0.stream.title.markup">e:/stp/incoming_avis/subsampled/lyova_walk.avi</property>
  <property name="seekable">1</property>
  <property name="meta.media.sample_aspect_num">1</property>
  <property name="meta.media.sample_aspect_den">1</property>
  <property name="aspect_ratio">1</property>
  <property name="audio_index">-1</property>
  <property name="video_index">0</property>
  <property name="mute_on_pause">0</property>
  <property name="mlt_service">avformat-novalidate</property>
  <property name="kdenlive:clipname"/>
  <property name="kdenlive:folderid">113</property>
  <property name="meta.media.frame_rate_num">25</property>
  <property name="meta.media.frame_rate_den">1</property>
  <property name="meta.media.colorspace">601</property>
  <property name="meta.media.color_trc">2</property>
  <property name="meta.media.has_b_frames">0</property>
  <property name="meta.media.width">180</property>
  <property name="meta.media.height">144</property>
  <property name="meta.media.color_range">mpeg</property>
  <property name="kdenlive:id">114</property>
  <property name="kdenlive:file_size">3891712</property>
  <property name="kdenlive:file_hash">680645c171d6ddbac2e9142cab459dad</property>
  <property name="meta.media.top_field_first">0</property>
  <property name="meta.media.progressive">1</property>
 </producer>
 <producer id="producer88" in="00:00:00.000" out="00:00:03.080">
  <property name="length">78</property>
  <property name="eof">pause</property>
  <property name="resource">C:/Users/Ichsan/tugasakhir/dataset-traintest/test/walk/1.avi</property>
  <property name="meta.media.nb_streams">1</property>
  <property name="meta.media.0.stream.type">video</property>
  <property name="meta.media.0.stream.frame_rate">25</property>
  <property name="meta.media.0.stream.sample_aspect_ratio">0</property>
  <property name="meta.media.0.codec.width">180</property>
  <property name="meta.media.0.codec.height">144</property>
  <property name="meta.media.0.codec.rotate">0</property>
  <property name="meta.media.0.codec.pix_fmt">bgr24</property>
  <property name="meta.media.0.codec.sample_aspect_ratio">0</property>
  <property name="meta.media.0.codec.colorspace">601</property>
  <property name="meta.media.0.codec.name">rawvideo</property>
  <property name="meta.media.0.codec.long_name">raw video</property>
  <property name="meta.media.0.codec.bit_rate">0</property>
  <property name="meta.attr.0.stream.title.markup">e:/stp/incoming_avis/subsampled/dynamic/moshe_walk.avi</property>
  <property name="seekable">1</property>
  <property name="meta.media.sample_aspect_num">1</property>
  <property name="meta.media.sample_aspect_den">1</property>
  <property name="aspect_ratio">1</property>
  <property name="audio_index">-1</property>
  <property name="video_index">0</property>
  <property name="mute_on_pause">0</property>
  <property name="mlt_service">avformat-novalidate</property>
  <property name="kdenlive:clipname"/>
  <property name="kdenlive:folderid">113</property>
  <property name="meta.media.frame_rate_num">25</property>
  <property name="meta.media.frame_rate_den">1</property>
  <property name="meta.media.colorspace">601</property>
  <property name="meta.media.color_trc">2</property>
  <property name="meta.media.has_b_frames">0</property>
  <property name="meta.media.width">180</property>
  <property name="meta.media.height">144</property>
  <property name="meta.media.color_range">mpeg</property>
  <property name="kdenlive:id">115</property>
  <property name="kdenlive:file_size">8714240</property>
  <property name="kdenlive:file_hash">8ea3d7e7b969cadf7e21a1224bbc57ce</property>
  <property name="meta.media.top_field_first">0</property>
  <property name="meta.media.progressive">1</property>
 </producer>
 <producer id="producer89" in="00:00:00.000" out="00:00:03.280">
  <property name="length">83</property>
  <property name="eof">pause</property>
  <property name="resource">C:/Users/Ichsan/tugasakhir/dataset-traintest/test/walk/2.avi</property>
  <property name="meta.media.nb_streams">1</property>
  <property name="meta.media.0.stream.type">video</property>
  <property name="meta.media.0.stream.frame_rate">25</property>
  <property name="meta.media.0.stream.sample_aspect_ratio">0</property>
  <property name="meta.media.0.codec.width">180</property>
  <property name="meta.media.0.codec.height">144</property>
  <property name="meta.media.0.codec.rotate">0</property>
  <property name="meta.media.0.codec.pix_fmt">bgr24</property>
  <property name="meta.media.0.codec.sample_aspect_ratio">0</property>
  <property name="meta.media.0.codec.colorspace">601</property>
  <property name="meta.media.0.codec.name">rawvideo</property>
  <property name="meta.media.0.codec.long_name">raw video</property>
  <property name="meta.media.0.codec.bit_rate">0</property>
  <property name="meta.attr.0.stream.title.markup">e:/stp/incoming_avis/subsampled/dynamic/shahar_walk.avi</property>
  <property name="seekable">1</property>
  <property name="meta.media.sample_aspect_num">1</property>
  <property name="meta.media.sample_aspect_den">1</property>
  <property name="aspect_ratio">1</property>
  <property name="audio_index">-1</property>
  <property name="video_index">0</property>
  <property name="mute_on_pause">0</property>
  <property name="mlt_service">avformat-novalidate</property>
  <property name="kdenlive:clipname"/>
  <property name="kdenlive:folderid">113</property>
  <property name="meta.media.frame_rate_num">25</property>
  <property name="meta.media.frame_rate_den">1</property>
  <property name="meta.media.colorspace">601</property>
  <property name="meta.media.color_trc">2</property>
  <property name="meta.media.has_b_frames">0</property>
  <property name="meta.media.width">180</property>
  <property name="meta.media.height">144</property>
  <property name="meta.media.color_range">mpeg</property>
  <property name="kdenlive:id">116</property>
  <property name="kdenlive:file_size">9414144</property>
  <property name="kdenlive:file_hash">b8d22ee051e6df3090f7644f0675e5b5</property>
  <property name="meta.media.top_field_first">0</property>
  <property name="meta.media.progressive">1</property>
 </producer>
 <playlist id="main_bin">
  <property name="kdenlive:folder.-1.2">train</property>
  <property name="kdenlive:folder.2.3">bend</property>
  <property name="kdenlive:docproperties.activeTrack">2</property>
  <property name="kdenlive:docproperties.audioChannels">2</property>
  <property name="kdenlive:docproperties.audioTarget">-1</property>
  <property name="kdenlive:docproperties.disablepreview">0</property>
  <property name="kdenlive:docproperties.documentid">1645314150574</property>
  <property name="kdenlive:docproperties.enableTimelineZone">0</property>
  <property name="kdenlive:docproperties.enableexternalproxy">0</property>
  <property name="kdenlive:docproperties.enableproxy">1</property>
  <property name="kdenlive:docproperties.externalproxyparams">./;GL;.LRV;./;GX;.MP4</property>
  <property name="kdenlive:docproperties.generateimageproxy">0</property>
  <property name="kdenlive:docproperties.generateproxy">0</property>
  <property name="kdenlive:docproperties.kdenliveversion">21.12.1</property>
  <property name="kdenlive:docproperties.position">8855</property>
  <property name="kdenlive:docproperties.previewextension"/>
  <property name="kdenlive:docproperties.previewparameters"/>
  <property name="kdenlive:docproperties.profile">C:/Users/Ichsan/AppData/Roaming/kdenlive/profiles/customprofile6</property>
  <property name="kdenlive:docproperties.proxyextension"/>
  <property name="kdenlive:docproperties.proxyimageminsize">2000</property>
  <property name="kdenlive:docproperties.proxyimagesize">800</property>
  <property name="kdenlive:docproperties.proxyminsize">1000</property>
  <property name="kdenlive:docproperties.proxyparams"/>
  <property name="kdenlive:docproperties.proxyresize">640</property>
  <property name="kdenlive:docproperties.scrollPos">15545</property>
  <property name="kdenlive:docproperties.seekOffset">30000</property>
  <property name="kdenlive:docproperties.version">1.04</property>
  <property name="kdenlive:docproperties.verticalzoom">1</property>
  <property name="kdenlive:docproperties.videoTarget">2</property>
  <property name="kdenlive:docproperties.zonein">8853</property>
  <property name="kdenlive:docproperties.zoneout">8908</property>
  <property name="kdenlive:docproperties.zoom">5</property>
  <property name="kdenlive:expandedFolders">113;76</property>
  <property name="kdenlive:documentnotes"/>
  <property name="kdenlive:docproperties.groups">[
]
</property>
  <property name="kdenlive:folder.2.4">gallop sideways</property>
  <property name="kdenlive:folder.2.5">jump</property>
  <property name="kdenlive:folder.2.6">jump in place</property>
  <property name="kdenlive:folder.2.8">jumping jack</property>
  <property name="kdenlive:folder.2.9">one-hand wave</property>
  <property name="kdenlive:folder.2.11">run</property>
  <property name="kdenlive:folder.2.13">skip</property>
  <property name="kdenlive:folder.2.14">two-hands wave</property>
  <property name="kdenlive:folder.2.15">walk</property>
  <property name="kdenlive:folder.-1.76">test</property>
  <property name="kdenlive:folder.76.77">bend</property>
  <property name="kdenlive:folder.76.81">gallop sideways</property>
  <property name="kdenlive:folder.76.85">jump</property>
  <property name="kdenlive:folder.76.89">jump in place</property>
  <property name="kdenlive:folder.76.93">jumping jack</property>
  <property name="kdenlive:folder.76.97">one-hand wave</property>
  <property name="kdenlive:folder.76.101">run</property>
  <property name="kdenlive:folder.76.105">skip</property>
  <property name="kdenlive:folder.76.109">two-hands wave</property>
  <property name="kdenlive:folder.76.113">walk</property>
  <property name="kdenlive:docproperties.renderaudioquality">3</property>
  <property name="kdenlive:docproperties.rendercategory">Old-TV definition (DVD...)</property>
  <property name="kdenlive:docproperties.renderendguide">-1</property>
  <property name="kdenlive:docproperties.renderexportaudio">0</property>
  <property name="kdenlive:docproperties.renderfield">0</property>
  <property name="kdenlive:docproperties.renderguide">0</property>
  <property name="kdenlive:docproperties.renderplay">0</property>
  <property name="kdenlive:docproperties.renderprofile">MPEG4-ASP/MP3 (DivX compatible)</property>
  <property name="kdenlive:docproperties.renderquality">5</property>
  <property name="kdenlive:docproperties.renderratio">1</property>
  <property name="kdenlive:docproperties.renderrescale">0</property>
  <property name="kdenlive:docproperties.renderrescaleheight">72</property>
  <property name="kdenlive:docproperties.renderrescalewidth">90</property>
  <property name="kdenlive:docproperties.renderscanning">0</property>
  <property name="kdenlive:docproperties.renderspeed">1</property>
  <property name="kdenlive:docproperties.renderstartguide">-1</property>
  <property name="kdenlive:docproperties.rendertcoverlay">0</property>
  <property name="kdenlive:docproperties.rendertctype">0</property>
  <property name="kdenlive:docproperties.rendertwopass">0</property>
  <property name="kdenlive:docproperties.renderurl">test/walk/5.avi</property>
  <property name="kdenlive:docproperties.renderzone">1</property>
  <property name="xml_retain">1</property>
  <entry producer="producer0" in="00:00:00.000" out="00:00:03.320"/>
  <entry producer="producer1" in="00:00:00.000" out="00:00:03.360"/>
  <entry producer="producer2" in="00:00:00.000" out="00:00:02.480"/>
  <entry producer="producer3" in="00:00:00.000" out="00:00:02.560"/>
  <entry producer="producer4" in="00:00:00.000" out="00:00:03.680"/>
  <entry producer="producer5" in="00:00:00.000" out="00:00:02.520"/>
  <entry producer="producer6" in="00:00:00.000" out="00:00:02.080"/>
  <entry producer="producer7" in="00:00:00.000" out="00:00:02.040"/>
  <entry producer="producer8" in="00:00:00.000" out="00:00:01.880"/>
  <entry producer="producer9" in="00:00:00.000" out="00:00:01.520"/>
  <entry producer="producer10" in="00:00:00.000" out="00:00:02.520"/>
  <entry producer="producer11" in="00:00:00.000" out="00:00:02.360"/>
  <entry producer="producer12" in="00:00:00.000" out="00:00:02.640"/>
  <entry producer="producer13" in="00:00:00.000" out="00:00:02.640"/>
  <entry producer="producer14" in="00:00:00.000" out="00:00:01.760"/>
  <entry producer="producer15" in="00:00:00.000" out="00:00:01.680"/>
  <entry producer="producer16" in="00:00:00.000" out="00:00:02.840"/>
  <entry producer="producer17" in="00:00:00.000" out="00:00:01.840"/>
  <entry producer="producer18" in="00:00:00.000" out="00:00:02.120"/>
  <entry producer="producer19" in="00:00:00.000" out="00:00:02.440"/>
  <entry producer="producer20" in="00:00:00.000" out="00:00:01.640"/>
  <entry producer="producer21" in="00:00:00.000" out="00:00:01.880"/>
  <entry producer="producer22" in="00:00:00.000" out="00:00:05.040"/>
  <entry producer="producer23" in="00:00:00.000" out="00:00:01.920"/>
  <entry producer="producer24" in="00:00:00.000" out="00:00:02.160"/>
  <entry producer="producer25" in="00:00:00.000" out="00:00:03.520"/>
  <entry producer="producer26" in="00:00:00.000" out="00:00:02.000"/>
  <entry producer="producer27" in="00:00:00.000" out="00:00:02.120"/>
  <entry producer="producer28" in="00:00:00.000" out="00:00:02.760"/>
  <entry producer="producer29" in="00:00:00.000" out="00:00:05.800"/>
  <entry producer="producer30" in="00:00:00.000" out="00:00:03.240"/>
  <entry producer="producer31" in="00:00:00.000" out="00:00:02.360"/>
  <entry producer="producer32" in="00:00:00.000" out="00:00:04.960"/>
  <entry producer="producer33" in="00:00:00.000" out="00:00:02.160"/>
  <entry producer="producer34" in="00:00:00.000" out="00:00:04.080"/>
  <entry producer="producer35" in="00:00:00.000" out="00:00:02.080"/>
  <entry producer="producer36" in="00:00:00.000" out="00:00:01.600"/>
  <entry producer="producer37" in="00:00:00.000" out="00:00:01.920"/>
  <entry producer="producer38" in="00:00:00.000" out="00:00:01.640"/>
  <entry producer="producer39" in="00:00:00.000" out="00:00:01.400"/>
  <entry producer="producer40" in="00:00:00.000" out="00:00:02.200"/>
  <entry producer="producer41" in="00:00:00.000" out="00:00:01.080"/>
  <entry producer="producer42" in="00:00:00.000" out="00:00:02.240"/>
  <entry producer="producer43" in="00:00:00.000" out="00:00:01.880"/>
  <entry producer="producer44" in="00:00:00.000" out="00:00:02.360"/>
  <entry producer="producer45" in="00:00:00.000" out="00:00:01.480"/>
  <entry producer="producer46" in="00:00:00.000" out="00:00:01.520"/>
  <entry producer="producer47" in="00:00:00.000" out="00:00:02.200"/>
  <entry producer="producer48" in="00:00:00.000" out="00:00:02.000"/>
  <entry producer="producer49" in="00:00:00.000" out="00:00:03.200"/>
  <entry producer="producer50" in="00:00:00.000" out="00:00:02.120"/>
  <entry producer="producer51" in="00:00:00.000" out="00:00:02.640"/>
  <entry producer="producer52" in="00:00:00.000" out="00:00:04.520"/>
  <entry producer="producer53" in="00:00:00.000" out="00:00:03.120"/>
  <entry producer="producer54" in="00:00:00.000" out="00:00:02.680"/>
  <entry producer="producer55" in="00:00:00.000" out="00:00:03.320"/>
  <entry producer="producer56" in="00:00:00.000" out="00:00:02.840"/>
  <entry producer="producer57" in="00:00:00.000" out="00:00:01.680"/>
  <entry producer="producer58" in="00:00:00.000" out="00:00:03.480"/>
  <entry producer="producer59" in="00:00:00.000" out="00:00:02.880"/>
  <entry producer="producer60" in="00:00:00.000" out="00:00:02.400"/>
  <entry producer="producer61" in="00:00:00.000" out="00:00:02.480"/>
  <entry producer="producer62" in="00:00:00.000" out="00:00:02.400"/>
  <entry producer="producer63" in="00:00:00.000" out="00:00:01.520"/>
  <entry producer="producer64" in="00:00:00.000" out="00:00:01.800"/>
  <entry producer="producer65" in="00:00:00.000" out="00:00:01.680"/>
  <entry producer="producer66" in="00:00:00.000" out="00:00:01.560"/>
  <entry producer="producer67" in="00:00:00.000" out="00:00:01.520"/>
  <entry producer="producer68" in="00:00:00.000" out="00:00:01.480"/>
  <entry producer="producer69" in="00:00:00.000" out="00:00:02.160"/>
  <entry producer="producer70" in="00:00:00.000" out="00:00:01.760"/>
  <entry producer="producer71" in="00:00:00.000" out="00:00:02.200"/>
  <entry producer="producer72" in="00:00:00.000" out="00:00:02.200"/>
  <entry producer="producer73" in="00:00:00.000" out="00:00:04.160"/>
  <entry producer="producer74" in="00:00:00.000" out="00:00:04.080"/>
  <entry producer="producer75" in="00:00:00.000" out="00:00:02.120"/>
  <entry producer="producer76" in="00:00:00.000" out="00:00:02.360"/>
  <entry producer="producer77" in="00:00:00.000" out="00:00:02.400"/>
  <entry producer="producer78" in="00:00:00.000" out="00:00:01.400"/>
  <entry producer="producer79" in="00:00:00.000" out="00:00:01.600"/>
  <entry producer="producer80" in="00:00:00.000" out="00:00:01.760"/>
  <entry producer="producer81" in="00:00:00.000" out="00:00:01.440"/>
  <entry producer="producer82" in="00:00:00.000" out="00:00:02.120"/>
  <entry producer="producer83" in="00:00:00.000" out="00:00:01.760"/>
  <entry producer="producer84" in="00:00:00.000" out="00:00:02.240"/>
  <entry producer="producer85" in="00:00:00.000" out="00:00:02.440"/>
  <entry producer="producer86" in="00:00:00.000" out="00:00:02.320"/>
  <entry producer="producer87" in="00:00:00.000" out="00:00:01.960"/>
  <entry producer="producer88" in="00:00:00.000" out="00:00:03.080"/>
  <entry producer="producer89" in="00:00:00.000" out="00:00:03.280"/>
 </playlist>
 <producer id="black_track" in="00:00:00.000" out="00:25:56.320">
  <property name="length">2147483647</property>
  <property name="eof">continue</property>
  <property name="resource">black</property>
  <property name="aspect_ratio">1</property>
  <property name="mlt_service">color</property>
  <property name="mlt_image_format">rgb24a</property>
  <property name="set.test_audio">0</property>
 </producer>
 <playlist id="playlist0">
  <property name="kdenlive:audio_track">1</property>
 </playlist>
 <playlist id="playlist1">
  <property name="kdenlive:audio_track">1</property>
 </playlist>
 <tractor id="tractor0" in="00:00:00.000">
  <property name="kdenlive:audio_track">1</property>
  <property name="kdenlive:trackheight">52</property>
  <property name="kdenlive:timeline_active">1</property>
  <property name="kdenlive:collapsed">28</property>
  <property name="kdenlive:thumbs_format"/>
  <property name="kdenlive:audio_rec"/>
  <track hide="video" producer="playlist0"/>
  <track hide="video" producer="playlist1"/>
  <filter id="filter2">
   <property name="window">75</property>
   <property name="max_gain">20dB</property>
   <property name="mlt_service">volume</property>
   <property name="internal_added">237</property>
   <property name="disable">1</property>
  </filter>
  <filter id="filter3">
   <property name="channel">-1</property>
   <property name="mlt_service">panner</property>
   <property name="internal_added">237</property>
   <property name="start">0.5</property>
   <property name="disable">1</property>
  </filter>
  <filter id="filter4">
   <property name="iec_scale">0</property>
   <property name="mlt_service">audiolevel</property>
   <property name="disable">1</property>
  </filter>
 </tractor>
 <playlist id="playlist2">
  <property name="kdenlive:audio_track">1</property>
 </playlist>
 <playlist id="playlist3">
  <property name="kdenlive:audio_track">1</property>
 </playlist>
 <tractor id="tractor1" in="00:00:00.000">
  <property name="kdenlive:audio_track">1</property>
  <property name="kdenlive:trackheight">52</property>
  <property name="kdenlive:timeline_active">1</property>
  <property name="kdenlive:collapsed">28</property>
  <property name="kdenlive:thumbs_format"/>
  <property name="kdenlive:audio_rec"/>
  <track hide="video" producer="playlist2"/>
  <track hide="video" producer="playlist3"/>
  <filter id="filter5">
   <property name="window">75</property>
   <property name="max_gain">20dB</property>
   <property name="mlt_service">volume</property>
   <property name="internal_added">237</property>
   <property name="disable">1</property>
  </filter>
  <filter id="filter6">
   <property name="channel">-1</property>
   <property name="mlt_service">panner</property>
   <property name="internal_added">237</property>
   <property name="start">0.5</property>
   <property name="disable">1</property>
  </filter>
  <filter id="filter7">
   <property name="iec_scale">0</property>
   <property name="mlt_service">audiolevel</property>
   <property name="disable">1</property>
  </filter>
 </tractor>
 <producer id="producer90" in="00:00:00.000" out="00:00:03.320">
  <property name="length">84</property>
  <property name="eof">pause</property>
  <property name="resource">C:/Users/Ichsan/tugasakhir/dataset-traintest/train/bend/0.avi</property>
  <property name="audio_index">-1</property>
  <property name="video_index">0</property>
  <property name="mute_on_pause">0</property>
  <property name="mlt_service">avformat-novalidate</property>
  <property name="seekable">1</property>
  <property name="aspect_ratio">1</property>
  <property name="kdenlive:clipname"/>
  <property name="kdenlive:folderid">3</property>
  <property name="kdenlive:id">16</property>
  <property name="kdenlive:file_size">6536192</property>
  <property name="kdenlive:file_hash">3003ded8da8988708c3dd7d6a8e7e17f</property>
  <property name="xml">was here</property>
  <property name="meta.media.nb_streams">1</property>
  <property name="meta.media.0.stream.type">video</property>
  <property name="meta.media.0.stream.frame_rate">25</property>
  <property name="meta.media.0.stream.sample_aspect_ratio">0</property>
  <property name="meta.media.0.codec.width">180</property>
  <property name="meta.media.0.codec.height">144</property>
  <property name="meta.media.0.codec.rotate">0</property>
  <property name="meta.media.0.codec.pix_fmt">bgr24</property>
  <property name="meta.media.0.codec.sample_aspect_ratio">0</property>
  <property name="meta.media.0.codec.colorspace">601</property>
  <property name="meta.media.0.codec.name">rawvideo</property>
  <property name="meta.media.0.codec.long_name">raw video</property>
  <property name="meta.media.0.codec.bit_rate">15739373</property>
  <property name="meta.attr.0.stream.title.markup">e:/stp/incoming_avis/subsampled/daria_bend.avi</property>
  <property name="meta.media.sample_aspect_num">1</property>
  <property name="meta.media.sample_aspect_den">1</property>
  <property name="meta.media.frame_rate_num">25</property>
  <property name="meta.media.frame_rate_den">1</property>
  <property name="meta.media.colorspace">601</property>
  <property name="meta.media.color_trc">2</property>
  <property name="meta.media.has_b_frames">0</property>
  <property name="meta.media.width">180</property>
  <property name="meta.media.height">144</property>
  <property name="meta.media.color_range">mpeg</property>
  <property name="meta.media.top_field_first">0</property>
  <property name="meta.media.progressive">1</property>
  <property name="set.test_audio">1</property>
  <property name="set.test_image">0</property>
 </producer>
 <producer id="producer91" in="00:00:00.000" out="00:00:03.360">
  <property name="length">85</property>
  <property name="eof">pause</property>
  <property name="resource">C:/Users/Ichsan/tugasakhir/dataset-traintest/train/bend/1.avi</property>
  <property name="audio_index">-1</property>
  <property name="video_index">0</property>
  <property name="mute_on_pause">0</property>
  <property name="mlt_service">avformat-novalidate</property>
  <property name="seekable">1</property>
  <property name="aspect_ratio">1</property>
  <property name="kdenlive:clipname"/>
  <property name="kdenlive:folderid">3</property>
  <property name="kdenlive:id">17</property>
  <property name="kdenlive:file_size">6614016</property>
  <property name="kdenlive:file_hash">d2f70c5172a7b4dbac10f62c6f80e64b</property>
  <property name="xml">was here</property>
  <property name="meta.media.nb_streams">1</property>
  <property name="meta.media.0.stream.type">video</property>
  <property name="meta.media.0.stream.frame_rate">25</property>
  <property name="meta.media.0.stream.sample_aspect_ratio">0</property>
  <property name="meta.media.0.codec.width">180</property>
  <property name="meta.media.0.codec.height">144</property>
  <property name="meta.media.0.codec.rotate">0</property>
  <property name="meta.media.0.codec.pix_fmt">bgr24</property>
  <property name="meta.media.0.codec.sample_aspect_ratio">0</property>
  <property name="meta.media.0.codec.colorspace">601</property>
  <property name="meta.media.0.codec.name">rawvideo</property>
  <property name="meta.media.0.codec.long_name">raw video</property>
  <property name="meta.media.0.codec.bit_rate">15737143</property>
  <property name="meta.attr.0.stream.title.markup">e:/stp/incoming_avis/subsampled/denis_bend.avi</property>
  <property name="meta.media.sample_aspect_num">1</property>
  <property name="meta.media.sample_aspect_den">1</property>
  <property name="meta.media.frame_rate_num">25</property>
  <property name="meta.media.frame_rate_den">1</property>
  <property name="meta.media.colorspace">601</property>
  <property name="meta.media.color_trc">2</property>
  <property name="meta.media.has_b_frames">0</property>
  <property name="meta.media.width">180</property>
  <property name="meta.media.height">144</property>
  <property name="meta.media.color_range">mpeg</property>
  <property name="meta.media.top_field_first">0</property>
  <property name="meta.media.progressive">1</property>
  <property name="set.test_audio">1</property>
  <property name="set.test_image">0</property>
 </producer>
 <producer id="producer92" in="00:00:00.000" out="00:00:02.480">
  <property name="length">63</property>
  <property name="eof">pause</property>
  <property name="resource">C:/Users/Ichsan/tugasakhir/dataset-traintest/train/bend/2.avi</property>
  <property name="audio_index">-1</property>
  <property name="video_index">0</property>
  <property name="mute_on_pause">0</property>
  <property name="mlt_service">avformat-novalidate</property>
  <property name="seekable">1</property>
  <property name="aspect_ratio">1</property>
  <property name="kdenlive:clipname"/>
  <property name="kdenlive:folderid">3</property>
  <property name="kdenlive:id">18</property>
  <property name="kdenlive:file_size">4902912</property>
  <property name="kdenlive:file_hash">1450c3a07909f5cfc9f410b851169bd9</property>
  <property name="xml">was here</property>
  <property name="meta.media.nb_streams">1</property>
  <property name="meta.media.0.stream.type">video</property>
  <property name="meta.media.0.stream.frame_rate">25</property>
  <property name="meta.media.0.stream.sample_aspect_ratio">0</property>
  <property name="meta.media.0.codec.width">180</property>
  <property name="meta.media.0.codec.height">144</property>
  <property name="meta.media.0.codec.rotate">0</property>
  <property name="meta.media.0.codec.pix_fmt">bgr24</property>
  <property name="meta.media.0.codec.sample_aspect_ratio">0</property>
  <property name="meta.media.0.codec.colorspace">601</property>
  <property name="meta.media.0.codec.name">rawvideo</property>
  <property name="meta.media.0.codec.long_name">raw video</property>
  <property name="meta.media.0.codec.bit_rate">15802839</property>
  <property name="meta.attr.0.stream.title.markup">e:/stp/incoming_avis/subsampled/eli_bend.avi</property>
  <property name="meta.media.sample_aspect_num">1</property>
  <property name="meta.media.sample_aspect_den">1</property>
  <property name="meta.media.frame_rate_num">25</property>
  <property name="meta.media.frame_rate_den">1</property>
  <property name="meta.media.colorspace">601</property>
  <property name="meta.media.color_trc">2</property>
  <property name="meta.media.has_b_frames">0</property>
  <property name="meta.media.width">180</property>
  <property name="meta.media.height">144</property>
  <property name="meta.media.color_range">mpeg</property>
  <property name="meta.media.top_field_first">0</property>
  <property name="meta.media.progressive">1</property>
  <property name="set.test_audio">1</property>
  <property name="set.test_image">0</property>
 </producer>
 <producer id="producer93" in="00:00:00.000" out="00:00:02.560">
  <property name="length">65</property>
  <property name="eof">pause</property>
  <property name="resource">C:/Users/Ichsan/tugasakhir/dataset-traintest/train/bend/3.avi</property>
  <property name="audio_index">-1</property>
  <property name="video_index">0</property>
  <property name="mute_on_pause">0</property>
  <property name="mlt_service">avformat-novalidate</property>
  <property name="seekable">1</property>
  <property name="aspect_ratio">1</property>
  <property name="kdenlive:clipname"/>
  <property name="kdenlive:folderid">3</property>
  <property name="kdenlive:id">19</property>
  <property name="kdenlive:file_size">5058048</property>
  <property name="kdenlive:file_hash">fc42ae7f9b59a3da88cee6613314603d</property>
  <property name="xml">was here</property>
  <property name="meta.media.nb_streams">1</property>
  <property name="meta.media.0.stream.type">video</property>
  <property name="meta.media.0.stream.frame_rate">25</property>
  <property name="meta.media.0.stream.sample_aspect_ratio">0</property>
  <property name="meta.media.0.codec.width">180</property>
  <property name="meta.media.0.codec.height">144</property>
  <property name="meta.media.0.codec.rotate">0</property>
  <property name="meta.media.0.codec.pix_fmt">bgr24</property>
  <property name="meta.media.0.codec.sample_aspect_ratio">0</property>
  <property name="meta.media.0.codec.colorspace">601</property>
  <property name="meta.media.0.codec.name">rawvideo</property>
  <property name="meta.media.0.codec.long_name">raw video</property>
  <property name="meta.media.0.codec.bit_rate">15795000</property>
  <property name="meta.attr.0.stream.title.markup">e:/stp/incoming_avis/subsampled/ido_bend.avi</property>
  <property name="meta.media.sample_aspect_num">1</property>
  <property name="meta.media.sample_aspect_den">1</property>
  <property name="meta.media.frame_rate_num">25</property>
  <property name="meta.media.frame_rate_den">1</property>
  <property name="meta.media.colorspace">601</property>
  <property name="meta.media.color_trc">2</property>
  <property name="meta.media.has_b_frames">0</property>
  <property name="meta.media.width">180</property>
  <property name="meta.media.height">144</property>
  <property name="meta.media.color_range">mpeg</property>
  <property name="meta.media.top_field_first">0</property>
  <property name="meta.media.progressive">1</property>
  <property name="set.test_audio">1</property>
  <property name="set.test_image">0</property>
 </producer>
 <producer id="producer94" in="00:00:00.000" out="00:00:03.680">
  <property name="length">93</property>
  <property name="eof">pause</property>
  <property name="resource">C:/Users/Ichsan/tugasakhir/dataset-traintest/train/bend/4.avi</property>
  <property name="audio_index">-1</property>
  <property name="video_index">0</property>
  <property name="mute_on_pause">0</property>
  <property name="mlt_service">avformat-novalidate</property>
  <property name="seekable">1</property>
  <property name="aspect_ratio">1</property>
  <property name="kdenlive:clipname"/>
  <property name="kdenlive:folderid">3</property>
  <property name="kdenlive:id">20</property>
  <property name="kdenlive:file_size">7236096</property>
  <property name="kdenlive:file_hash">eaff5226a77ccd7012f82db928fe2196</property>
  <property name="xml">was here</property>
  <property name="meta.media.nb_streams">1</property>
  <property name="meta.media.0.stream.type">video</property>
  <property name="meta.media.0.stream.frame_rate">25</property>
  <property name="meta.media.0.stream.sample_aspect_ratio">0</property>
  <property name="meta.media.0.codec.width">180</property>
  <property name="meta.media.0.codec.height">144</property>
  <property name="meta.media.0.codec.rotate">0</property>
  <property name="meta.media.0.codec.pix_fmt">bgr24</property>
  <property name="meta.media.0.codec.sample_aspect_ratio">0</property>
  <property name="meta.media.0.codec.colorspace">601</property>
  <property name="meta.media.0.codec.name">rawvideo</property>
  <property name="meta.media.0.codec.long_name">raw video</property>
  <property name="meta.media.0.codec.bit_rate">15721043</property>
  <property name="meta.attr.0.stream.title.markup">e:/stp/incoming_avis/subsampled/ira_bend.avi</property>
  <property name="meta.media.sample_aspect_num">1</property>
  <property name="meta.media.sample_aspect_den">1</property>
  <property name="meta.media.frame_rate_num">25</property>
  <property name="meta.media.frame_rate_den">1</property>
  <property name="meta.media.colorspace">601</property>
  <property name="meta.media.color_trc">2</property>
  <property name="meta.media.has_b_frames">0</property>
  <property name="meta.media.width">180</property>
  <property name="meta.media.height">144</property>
  <property name="meta.media.color_range">mpeg</property>
  <property name="meta.media.top_field_first">0</property>
  <property name="meta.media.progressive">1</property>
  <property name="set.test_audio">1</property>
  <property name="set.test_image">0</property>
 </producer>
 <producer id="producer95" in="00:00:00.000" out="00:00:02.520">
  <property name="length">64</property>
  <property name="eof">pause</property>
  <property name="resource">C:/Users/Ichsan/tugasakhir/dataset-traintest/train/bend/5.avi</property>
  <property name="audio_index">-1</property>
  <property name="video_index">0</property>
  <property name="mute_on_pause">0</property>
  <property name="mlt_service">avformat-novalidate</property>
  <property name="seekable">1</property>
  <property name="aspect_ratio">1</property>
  <property name="kdenlive:clipname"/>
  <property name="kdenlive:folderid">3</property>
  <property name="kdenlive:id">21</property>
  <property name="kdenlive:file_size">4980736</property>
  <property name="kdenlive:file_hash">30438d76af9bc6024d51bef4996c3a90</property>
  <property name="xml">was here</property>
  <property name="meta.media.nb_streams">1</property>
  <property name="meta.media.0.stream.type">video</property>
  <property name="meta.media.0.stream.frame_rate">25</property>
  <property name="meta.media.0.stream.sample_aspect_ratio">0</property>
  <property name="meta.media.0.codec.width">180</property>
  <property name="meta.media.0.codec.height">144</property>
  <property name="meta.media.0.codec.rotate">0</property>
  <property name="meta.media.0.codec.pix_fmt">bgr24</property>
  <property name="meta.media.0.codec.sample_aspect_ratio">0</property>
  <property name="meta.media.0.codec.colorspace">601</property>
  <property name="meta.media.0.codec.name">rawvideo</property>
  <property name="meta.media.0.codec.long_name">raw video</property>
  <property name="meta.media.0.codec.bit_rate">15798857</property>
  <property name="meta.attr.0.stream.title.markup">e:/stp/incoming_avis/subsampled/lena_bend.avi</property>
  <property name="meta.media.sample_aspect_num">1</property>
  <property name="meta.media.sample_aspect_den">1</property>
  <property name="meta.media.frame_rate_num">25</property>
  <property name="meta.media.frame_rate_den">1</property>
  <property name="meta.media.colorspace">601</property>
  <property name="meta.media.color_trc">2</property>
  <property name="meta.media.has_b_frames">0</property>
  <property name="meta.media.width">180</property>
  <property name="meta.media.height">144</property>
  <property name="meta.media.color_range">mpeg</property>
  <property name="meta.media.top_field_first">0</property>
  <property name="meta.media.progressive">1</property>
  <property name="set.test_audio">1</property>
  <property name="set.test_image">0</property>
 </producer>
 <producer id="producer96" in="00:00:00.000" out="00:00:02.080">
  <property name="length">53</property>
  <property name="eof">pause</property>
  <property name="resource">C:/Users/Ichsan/tugasakhir/dataset-traintest/train/gallop sideways/0.avi</property>
  <property name="audio_index">-1</property>
  <property name="video_index">0</property>
  <property name="mute_on_pause">0</property>
  <property name="mlt_service">avformat-novalidate</property>
  <property name="seekable">1</property>
  <property name="aspect_ratio">1</property>
  <property name="kdenlive:clipname"/>
  <property name="kdenlive:folderid">4</property>
  <property name="kdenlive:id">22</property>
  <property name="kdenlive:file_size">4124672</property>
  <property name="kdenlive:file_hash">84981fe55942fc4a8bc1b5734cf51c45</property>
  <property name="xml">was here</property>
  <property name="meta.media.nb_streams">1</property>
  <property name="meta.media.0.stream.type">video</property>
  <property name="meta.media.0.stream.frame_rate">25</property>
  <property name="meta.media.0.stream.sample_aspect_ratio">0</property>
  <property name="meta.media.0.codec.width">180</property>
  <property name="meta.media.0.codec.height">144</property>
  <property name="meta.media.0.codec.rotate">0</property>
  <property name="meta.media.0.codec.pix_fmt">bgr24</property>
  <property name="meta.media.0.codec.sample_aspect_ratio">0</property>
  <property name="meta.media.0.codec.colorspace">601</property>
  <property name="meta.media.0.codec.name">rawvideo</property>
  <property name="meta.media.0.codec.long_name">raw video</property>
  <property name="meta.media.0.codec.bit_rate">15851077</property>
  <property name="meta.attr.0.stream.title.markup">e:/stp/incoming_avis/subsampled/daria_side.avi</property>
  <property name="meta.media.sample_aspect_num">1</property>
  <property name="meta.media.sample_aspect_den">1</property>
  <property name="meta.media.frame_rate_num">25</property>
  <property name="meta.media.frame_rate_den">1</property>
  <property name="meta.media.colorspace">601</property>
  <property name="meta.media.color_trc">2</property>
  <property name="meta.media.has_b_frames">0</property>
  <property name="meta.media.width">180</property>
  <property name="meta.media.height">144</property>
  <property name="meta.media.color_range">mpeg</property>
  <property name="meta.media.top_field_first">0</property>
  <property name="meta.media.progressive">1</property>
  <property name="set.test_audio">1</property>
  <property name="set.test_image">0</property>
 </producer>
 <producer id="producer97" in="00:00:00.000" out="00:00:02.040">
  <property name="length">52</property>
  <property name="eof">pause</property>
  <property name="resource">C:/Users/Ichsan/tugasakhir/dataset-traintest/train/gallop sideways/1.avi</property>
  <property name="audio_index">-1</property>
  <property name="video_index">0</property>
  <property name="mute_on_pause">0</property>
  <property name="mlt_service">avformat-novalidate</property>
  <property name="seekable">1</property>
  <property name="aspect_ratio">1</property>
  <property name="kdenlive:clipname"/>
  <property name="kdenlive:folderid">4</property>
  <property name="kdenlive:id">23</property>
  <property name="kdenlive:file_size">4046848</property>
  <property name="kdenlive:file_hash">483c5e9535d552ce8038d59ea28f384d</property>
  <property name="xml">was here</property>
  <property name="meta.media.nb_streams">1</property>
  <property name="meta.media.0.stream.type">video</property>
  <property name="meta.media.0.stream.frame_rate">25</property>
  <property name="meta.media.0.stream.sample_aspect_ratio">0</property>
  <property name="meta.media.0.codec.width">180</property>
  <property name="meta.media.0.codec.height">144</property>
  <property name="meta.media.0.codec.rotate">0</property>
  <property name="meta.media.0.codec.pix_fmt">bgr24</property>
  <property name="meta.media.0.codec.sample_aspect_ratio">0</property>
  <property name="meta.media.0.codec.colorspace">601</property>
  <property name="meta.media.0.codec.name">rawvideo</property>
  <property name="meta.media.0.codec.long_name">raw video</property>
  <property name="meta.media.0.codec.bit_rate">15856941</property>
  <property name="meta.attr.0.stream.title.markup">e:/stp/incoming_avis/subsampled/denis_side.avi</property>
  <property name="meta.media.sample_aspect_num">1</property>
  <property name="meta.media.sample_aspect_den">1</property>
  <property name="meta.media.frame_rate_num">25</property>
  <property name="meta.media.frame_rate_den">1</property>
  <property name="meta.media.colorspace">601</property>
  <property name="meta.media.color_trc">2</property>
  <property name="meta.media.has_b_frames">0</property>
  <property name="meta.media.width">180</property>
  <property name="meta.media.height">144</property>
  <property name="meta.media.color_range">mpeg</property>
  <property name="meta.media.top_field_first">0</property>
  <property name="meta.media.progressive">1</property>
  <property name="set.test_audio">1</property>
  <property name="set.test_image">0</property>
 </producer>
 <producer id="producer98" in="00:00:00.000" out="00:00:01.880">
  <property name="length">48</property>
  <property name="eof">pause</property>
  <property name="resource">C:/Users/Ichsan/tugasakhir/dataset-traintest/train/gallop sideways/2.avi</property>
  <property name="audio_index">-1</property>
  <property name="video_index">0</property>
  <property name="mute_on_pause">0</property>
  <property name="mlt_service">avformat-novalidate</property>
  <property name="seekable">1</property>
  <property name="aspect_ratio">1</property>
  <property name="kdenlive:clipname"/>
  <property name="kdenlive:folderid">4</property>
  <property name="kdenlive:id">24</property>
  <property name="kdenlive:file_size">3736064</property>
  <property name="kdenlive:file_hash">a0df9082e08c5dcd675faa64f3230501</property>
  <property name="xml">was here</property>
  <property name="meta.media.nb_streams">1</property>
  <property name="meta.media.0.stream.type">video</property>
  <property name="meta.media.0.stream.frame_rate">25</property>
  <property name="meta.media.0.stream.sample_aspect_ratio">0</property>
  <property name="meta.media.0.codec.width">180</property>
  <property name="meta.media.0.codec.height">144</property>
  <property name="meta.media.0.codec.rotate">0</property>
  <property name="meta.media.0.codec.pix_fmt">bgr24</property>
  <property name="meta.media.0.codec.sample_aspect_ratio">0</property>
  <property name="meta.media.0.codec.colorspace">601</property>
  <property name="meta.media.0.codec.name">rawvideo</property>
  <property name="meta.media.0.codec.long_name">raw video</property>
  <property name="meta.media.0.codec.bit_rate">15882894</property>
  <property name="meta.attr.0.stream.title.markup">e:/stp/incoming_avis/subsampled/eli_side.avi</property>
  <property name="meta.media.sample_aspect_num">1</property>
  <property name="meta.media.sample_aspect_den">1</property>
  <property name="meta.media.frame_rate_num">25</property>
  <property name="meta.media.frame_rate_den">1</property>
  <property name="meta.media.colorspace">601</property>
  <property name="meta.media.color_trc">2</property>
  <property name="meta.media.has_b_frames">0</property>
  <property name="meta.media.width">180</property>
  <property name="meta.media.height">144</property>
  <property name="meta.media.color_range">mpeg</property>
  <property name="meta.media.top_field_first">0</property>
  <property name="meta.media.progressive">1</property>
  <property name="set.test_audio">1</property>
  <property name="set.test_image">0</property>
 </producer>
 <producer id="producer99" in="00:00:00.000" out="00:00:01.520">
  <property name="length">39</property>
  <property name="eof">pause</property>
  <property name="resource">C:/Users/Ichsan/tugasakhir/dataset-traintest/train/gallop sideways/3.avi</property>
  <property name="audio_index">-1</property>
  <property name="video_index">0</property>
  <property name="mute_on_pause">0</property>
  <property name="mlt_service">avformat-novalidate</property>
  <property name="seekable">1</property>
  <property name="aspect_ratio">1</property>
  <property name="kdenlive:clipname"/>
  <property name="kdenlive:folderid">4</property>
  <property name="kdenlive:id">25</property>
  <property name="kdenlive:file_size">3035648</property>
  <property name="kdenlive:file_hash">8146e4610c2f6baa551ec3ebcbce30b0</property>
  <property name="xml">was here</property>
  <property name="meta.media.nb_streams">1</property>
  <property name="meta.media.0.stream.type">video</property>
  <property name="meta.media.0.stream.frame_rate">25</property>
  <property name="meta.media.0.stream.sample_aspect_ratio">0</property>
  <property name="meta.media.0.codec.width">180</property>
  <property name="meta.media.0.codec.height">144</property>
  <property name="meta.media.0.codec.rotate">0</property>
  <property name="meta.media.0.codec.pix_fmt">bgr24</property>
  <property name="meta.media.0.codec.sample_aspect_ratio">0</property>
  <property name="meta.media.0.codec.colorspace">601</property>
  <property name="meta.media.0.codec.name">rawvideo</property>
  <property name="meta.media.0.codec.long_name">raw video</property>
  <property name="meta.media.0.codec.bit_rate">15961263</property>
  <property name="meta.attr.0.stream.title.markup">e:/stp/incoming_avis/subsampled/ido_side.avi</property>
  <property name="meta.media.sample_aspect_num">1</property>
  <property name="meta.media.sample_aspect_den">1</property>
  <property name="meta.media.frame_rate_num">25</property>
  <property name="meta.media.frame_rate_den">1</property>
  <property name="meta.media.colorspace">601</property>
  <property name="meta.media.color_trc">2</property>
  <property name="meta.media.has_b_frames">0</property>
  <property name="meta.media.width">180</property>
  <property name="meta.media.height">144</property>
  <property name="meta.media.color_range">mpeg</property>
  <property name="meta.media.top_field_first">0</property>
  <property name="meta.media.progressive">1</property>
  <property name="set.test_audio">1</property>
  <property name="set.test_image">0</property>
 </producer>
 <producer id="producer100" in="00:00:00.000" out="00:00:02.520">
  <property name="length">64</property>
  <property name="eof">pause</property>
  <property name="resource">C:/Users/Ichsan/tugasakhir/dataset-traintest/train/gallop sideways/4.avi</property>
  <property name="audio_index">-1</property>
  <property name="video_index">0</property>
  <property name="mute_on_pause">0</property>
  <property name="mlt_service">avformat-novalidate</property>
  <property name="seekable">1</property>
  <property name="aspect_ratio">1</property>
  <property name="kdenlive:clipname"/>
  <property name="kdenlive:folderid">4</property>
  <property name="kdenlive:id">26</property>
  <property name="kdenlive:file_size">4980736</property>
  <property name="kdenlive:file_hash">c7e252833bce8c73ce39ec879973ec66</property>
  <property name="xml">was here</property>
  <property name="meta.media.nb_streams">1</property>
  <property name="meta.media.0.stream.type">video</property>
  <property name="meta.media.0.stream.frame_rate">25</property>
  <property name="meta.media.0.stream.sample_aspect_ratio">0</property>
  <property name="meta.media.0.codec.width">180</property>
  <property name="meta.media.0.codec.height">144</property>
  <property name="meta.media.0.codec.rotate">0</property>
  <property name="meta.media.0.codec.pix_fmt">bgr24</property>
  <property name="meta.media.0.codec.sample_aspect_ratio">0</property>
  <property name="meta.media.0.codec.colorspace">601</property>
  <property name="meta.media.0.codec.name">rawvideo</property>
  <property name="meta.media.0.codec.long_name">raw video</property>
  <property name="meta.media.0.codec.bit_rate">15798857</property>
  <property name="meta.attr.0.stream.title.markup">e:/stp/incoming_avis/subsampled/ira_side.avi</property>
  <property name="meta.media.sample_aspect_num">1</property>
  <property name="meta.media.sample_aspect_den">1</property>
  <property name="meta.media.frame_rate_num">25</property>
  <property name="meta.media.frame_rate_den">1</property>
  <property name="meta.media.colorspace">601</property>
  <property name="meta.media.color_trc">2</property>
  <property name="meta.media.has_b_frames">0</property>
  <property name="meta.media.width">180</property>
  <property name="meta.media.height">144</property>
  <property name="meta.media.color_range">mpeg</property>
  <property name="meta.media.top_field_first">0</property>
  <property name="meta.media.progressive">1</property>
  <property name="set.test_audio">1</property>
  <property name="set.test_image">0</property>
 </producer>
 <producer id="producer101" in="00:00:00.000" out="00:00:02.360">
  <property name="length">60</property>
  <property name="eof">pause</property>
  <property name="resource">C:/Users/Ichsan/tugasakhir/dataset-traintest/train/gallop sideways/5.avi</property>
  <property name="audio_index">-1</property>
  <property name="video_index">0</property>
  <property name="mute_on_pause">0</property>
  <property name="mlt_service">avformat-novalidate</property>
  <property name="seekable">1</property>
  <property name="aspect_ratio">1</property>
  <property name="kdenlive:clipname"/>
  <property name="kdenlive:folderid">4</property>
  <property name="kdenlive:id">27</property>
  <property name="kdenlive:file_size">4669440</property>
  <property name="kdenlive:file_hash">a1ea51d497cf3a7bae23ba4e7f0c6018</property>
  <property name="xml">was here</property>
  <property name="meta.media.nb_streams">1</property>
  <property name="meta.media.0.stream.type">video</property>
  <property name="meta.media.0.stream.frame_rate">25</property>
  <property name="meta.media.0.stream.sample_aspect_ratio">0</property>
  <property name="meta.media.0.codec.width">180</property>
  <property name="meta.media.0.codec.height">144</property>
  <property name="meta.media.0.codec.rotate">0</property>
  <property name="meta.media.0.codec.pix_fmt">bgr24</property>
  <property name="meta.media.0.codec.sample_aspect_ratio">0</property>
  <property name="meta.media.0.codec.colorspace">601</property>
  <property name="meta.media.0.codec.name">rawvideo</property>
  <property name="meta.media.0.codec.long_name">raw video</property>
  <property name="meta.media.0.codec.bit_rate">15815593</property>
  <property name="meta.attr.0.stream.title.markup">e:/stp/incoming_avis/subsampled/lena_side.avi</property>
  <property name="meta.media.sample_aspect_num">1</property>
  <property name="meta.media.sample_aspect_den">1</property>
  <property name="meta.media.frame_rate_num">25</property>
  <property name="meta.media.frame_rate_den">1</property>
  <property name="meta.media.colorspace">601</property>
  <property name="meta.media.color_trc">2</property>
  <property name="meta.media.has_b_frames">0</property>
  <property name="meta.media.width">180</property>
  <property name="meta.media.height">144</property>
  <property name="meta.media.color_range">mpeg</property>
  <property name="meta.media.top_field_first">0</property>
  <property name="meta.media.progressive">1</property>
  <property name="set.test_audio">1</property>
  <property name="set.test_image">0</property>
 </producer>
 <producer id="producer102" in="00:00:00.000" out="00:00:02.640">
  <property name="length">67</property>
  <property name="eof">pause</property>
  <property name="resource">C:/Users/Ichsan/tugasakhir/dataset-traintest/train/jump/0.avi</property>
  <property name="audio_index">-1</property>
  <property name="video_index">0</property>
  <property name="mute_on_pause">0</property>
  <property name="mlt_service">avformat-novalidate</property>
  <property name="seekable">1</property>
  <property name="aspect_ratio">1</property>
  <property name="kdenlive:clipname"/>
  <property name="kdenlive:folderid">5</property>
  <property name="kdenlive:id">28</property>
  <property name="kdenlive:file_size">5213696</property>
  <property name="kdenlive:file_hash">9d163153badbe8d963a7b29be20f41c2</property>
  <property name="xml">was here</property>
  <property name="meta.media.nb_streams">1</property>
  <property name="meta.media.0.stream.type">video</property>
  <property name="meta.media.0.stream.frame_rate">25</property>
  <property name="meta.media.0.stream.sample_aspect_ratio">0</property>
  <property name="meta.media.0.codec.width">180</property>
  <property name="meta.media.0.codec.height">144</property>
  <property name="meta.media.0.codec.rotate">0</property>
  <property name="meta.media.0.codec.pix_fmt">bgr24</property>
  <property name="meta.media.0.codec.sample_aspect_ratio">0</property>
  <property name="meta.media.0.codec.colorspace">601</property>
  <property name="meta.media.0.codec.name">rawvideo</property>
  <property name="meta.media.0.codec.long_name">raw video</property>
  <property name="meta.media.0.codec.bit_rate">15787636</property>
  <property name="meta.attr.0.stream.title.markup">e:/stp/incoming_avis/subsampled/daria_jump.avi</property>
  <property name="meta.media.sample_aspect_num">1</property>
  <property name="meta.media.sample_aspect_den">1</property>
  <property name="meta.media.frame_rate_num">25</property>
  <property name="meta.media.frame_rate_den">1</property>
  <property name="meta.media.colorspace">601</property>
  <property name="meta.media.color_trc">2</property>
  <property name="meta.media.has_b_frames">0</property>
  <property name="meta.media.width">180</property>
  <property name="meta.media.height">144</property>
  <property name="meta.media.color_range">mpeg</property>
  <property name="meta.media.top_field_first">0</property>
  <property name="meta.media.progressive">1</property>
  <property name="set.test_audio">1</property>
  <property name="set.test_image">0</property>
 </producer>
 <producer id="producer103" in="00:00:00.000" out="00:00:02.640">
  <property name="length">67</property>
  <property name="eof">pause</property>
  <property name="resource">C:/Users/Ichsan/tugasakhir/dataset-traintest/train/jump/1.avi</property>
  <property name="audio_index">-1</property>
  <property name="video_index">0</property>
  <property name="mute_on_pause">0</property>
  <property name="mlt_service">avformat-novalidate</property>
  <property name="seekable">1</property>
  <property name="aspect_ratio">1</property>
  <property name="kdenlive:clipname"/>
  <property name="kdenlive:folderid">5</property>
  <property name="kdenlive:id">29</property>
  <property name="kdenlive:file_size">5213696</property>
  <property name="kdenlive:file_hash">41b2f93b45d555f7475c5c8f47faf1eb</property>
  <property name="xml">was here</property>
  <property name="meta.media.nb_streams">1</property>
  <property name="meta.media.0.stream.type">video</property>
  <property name="meta.media.0.stream.frame_rate">25</property>
  <property name="meta.media.0.stream.sample_aspect_ratio">0</property>
  <property name="meta.media.0.codec.width">180</property>
  <property name="meta.media.0.codec.height">144</property>
  <property name="meta.media.0.codec.rotate">0</property>
  <property name="meta.media.0.codec.pix_fmt">bgr24</property>
  <property name="meta.media.0.codec.sample_aspect_ratio">0</property>
  <property name="meta.media.0.codec.colorspace">601</property>
  <property name="meta.media.0.codec.name">rawvideo</property>
  <property name="meta.media.0.codec.long_name">raw video</property>
  <property name="meta.media.0.codec.bit_rate">15787636</property>
  <property name="meta.attr.0.stream.title.markup">e:/stp/incoming_avis/subsampled/denis_jump.avi</property>
  <property name="meta.media.sample_aspect_num">1</property>
  <property name="meta.media.sample_aspect_den">1</property>
  <property name="meta.media.frame_rate_num">25</property>
  <property name="meta.media.frame_rate_den">1</property>
  <property name="meta.media.colorspace">601</property>
  <property name="meta.media.color_trc">2</property>
  <property name="meta.media.has_b_frames">0</property>
  <property name="meta.media.width">180</property>
  <property name="meta.media.height">144</property>
  <property name="meta.media.color_range">mpeg</property>
  <property name="meta.media.top_field_first">0</property>
  <property name="meta.media.progressive">1</property>
  <property name="set.test_audio">1</property>
  <property name="set.test_image">0</property>
 </producer>
 <producer id="producer104" in="00:00:00.000" out="00:00:01.760">
  <property name="length">45</property>
  <property name="eof">pause</property>
  <property name="resource">C:/Users/Ichsan/tugasakhir/dataset-traintest/train/jump/2.avi</property>
  <property name="audio_index">-1</property>
  <property name="video_index">0</property>
  <property name="mute_on_pause">0</property>
  <property name="mlt_service">avformat-novalidate</property>
  <property name="seekable">1</property>
  <property name="aspect_ratio">1</property>
  <property name="kdenlive:clipname"/>
  <property name="kdenlive:folderid">5</property>
  <property name="kdenlive:id">30</property>
  <property name="kdenlive:file_size">3502592</property>
  <property name="kdenlive:file_hash">173e3ce135fe42b89d1d8914bb060a55</property>
  <property name="xml">was here</property>
  <property name="meta.media.nb_streams">1</property>
  <property name="meta.media.0.stream.type">video</property>
  <property name="meta.media.0.stream.frame_rate">25</property>
  <property name="meta.media.0.stream.sample_aspect_ratio">0</property>
  <property name="meta.media.0.codec.width">180</property>
  <property name="meta.media.0.codec.height">144</property>
  <property name="meta.media.0.codec.rotate">0</property>
  <property name="meta.media.0.codec.pix_fmt">bgr24</property>
  <property name="meta.media.0.codec.sample_aspect_ratio">0</property>
  <property name="meta.media.0.codec.colorspace">601</property>
  <property name="meta.media.0.codec.name">rawvideo</property>
  <property name="meta.media.0.codec.long_name">raw video</property>
  <property name="meta.media.0.codec.bit_rate">15905455</property>
  <property name="meta.attr.0.stream.title.markup">e:/stp/incoming_avis/subsampled/eli_jump.avi</property>
  <property name="meta.media.sample_aspect_num">1</property>
  <property name="meta.media.sample_aspect_den">1</property>
  <property name="meta.media.frame_rate_num">25</property>
  <property name="meta.media.frame_rate_den">1</property>
  <property name="meta.media.colorspace">601</property>
  <property name="meta.media.color_trc">2</property>
  <property name="meta.media.has_b_frames">0</property>
  <property name="meta.media.width">180</property>
  <property name="meta.media.height">144</property>
  <property name="meta.media.color_range">mpeg</property>
  <property name="meta.media.top_field_first">0</property>
  <property name="meta.media.progressive">1</property>
  <property name="set.test_audio">1</property>
  <property name="set.test_image">0</property>
 </producer>
 <producer id="producer105" in="00:00:00.000" out="00:00:01.680">
  <property name="length">43</property>
  <property name="eof">pause</property>
  <property name="resource">C:/Users/Ichsan/tugasakhir/dataset-traintest/train/jump/3.avi</property>
  <property name="audio_index">-1</property>
  <property name="video_index">0</property>
  <property name="mute_on_pause">0</property>
  <property name="mlt_service">avformat-novalidate</property>
  <property name="seekable">1</property>
  <property name="aspect_ratio">1</property>
  <property name="kdenlive:clipname"/>
  <property name="kdenlive:folderid">5</property>
  <property name="kdenlive:id">31</property>
  <property name="kdenlive:file_size">3346944</property>
  <property name="kdenlive:file_hash">8740667594d079adda62d35760684b5f</property>
  <property name="xml">was here</property>
  <property name="meta.media.nb_streams">1</property>
  <property name="meta.media.0.stream.type">video</property>
  <property name="meta.media.0.stream.frame_rate">25</property>
  <property name="meta.media.0.stream.sample_aspect_ratio">0</property>
  <property name="meta.media.0.codec.width">180</property>
  <property name="meta.media.0.codec.height">144</property>
  <property name="meta.media.0.codec.rotate">0</property>
  <property name="meta.media.0.codec.pix_fmt">bgr24</property>
  <property name="meta.media.0.codec.sample_aspect_ratio">0</property>
  <property name="meta.media.0.codec.colorspace">601</property>
  <property name="meta.media.0.codec.name">rawvideo</property>
  <property name="meta.media.0.codec.long_name">raw video</property>
  <property name="meta.media.0.codec.bit_rate">15922286</property>
  <property name="meta.attr.0.stream.title.markup">e:/stp/incoming_avis/subsampled/ido_jump.avi</property>
  <property name="meta.media.sample_aspect_num">1</property>
  <property name="meta.media.sample_aspect_den">1</property>
  <property name="meta.media.frame_rate_num">25</property>
  <property name="meta.media.frame_rate_den">1</property>
  <property name="meta.media.colorspace">601</property>
  <property name="meta.media.color_trc">2</property>
  <property name="meta.media.has_b_frames">0</property>
  <property name="meta.media.width">180</property>
  <property name="meta.media.height">144</property>
  <property name="meta.media.color_range">mpeg</property>
  <property name="meta.media.top_field_first">0</property>
  <property name="meta.media.progressive">1</property>
  <property name="set.test_audio">1</property>
  <property name="set.test_image">0</property>
 </producer>
 <producer id="producer106" in="00:00:00.000" out="00:00:02.840">
  <property name="length">72</property>
  <property name="eof">pause</property>
  <property name="resource">C:/Users/Ichsan/tugasakhir/dataset-traintest/train/jump/4.avi</property>
  <property name="audio_index">-1</property>
  <property name="video_index">0</property>
  <property name="mute_on_pause">0</property>
  <property name="mlt_service">avformat-novalidate</property>
  <property name="seekable">1</property>
  <property name="aspect_ratio">1</property>
  <property name="kdenlive:clipname"/>
  <property name="kdenlive:folderid">5</property>
  <property name="kdenlive:id">32</property>
  <property name="kdenlive:file_size">5602816</property>
  <property name="kdenlive:file_hash">54b983446d55f092af6123ec392afa17</property>
  <property name="xml">was here</property>
  <property name="meta.media.nb_streams">1</property>
  <property name="meta.media.0.stream.type">video</property>
  <property name="meta.media.0.stream.frame_rate">25</property>
  <property name="meta.media.0.stream.sample_aspect_ratio">0</property>
  <property name="meta.media.0.codec.width">180</property>
  <property name="meta.media.0.codec.height">144</property>
  <property name="meta.media.0.codec.rotate">0</property>
  <property name="meta.media.0.codec.pix_fmt">bgr24</property>
  <property name="meta.media.0.codec.sample_aspect_ratio">0</property>
  <property name="meta.media.0.codec.colorspace">601</property>
  <property name="meta.media.0.codec.name">rawvideo</property>
  <property name="meta.media.0.codec.long_name">raw video</property>
  <property name="meta.media.0.codec.bit_rate">15771042</property>
  <property name="meta.attr.0.stream.title.markup">e:/stp/incoming_avis/subsampled/ira_jump.avi</property>
  <property name="meta.media.sample_aspect_num">1</property>
  <property name="meta.media.sample_aspect_den">1</property>
  <property name="meta.media.frame_rate_num">25</property>
  <property name="meta.media.frame_rate_den">1</property>
  <property name="meta.media.colorspace">601</property>
  <property name="meta.media.color_trc">2</property>
  <property name="meta.media.has_b_frames">0</property>
  <property name="meta.media.width">180</property>
  <property name="meta.media.height">144</property>
  <property name="meta.media.color_range">mpeg</property>
  <property name="meta.media.top_field_first">0</property>
  <property name="meta.media.progressive">1</property>
  <property name="set.test_audio">1</property>
  <property name="set.test_image">0</property>
 </producer>
 <producer id="producer107" in="00:00:00.000" out="00:00:01.840">
  <property name="length">47</property>
  <property name="eof">pause</property>
  <property name="resource">C:/Users/Ichsan/tugasakhir/dataset-traintest/train/jump/5.avi</property>
  <property name="audio_index">-1</property>
  <property name="video_index">0</property>
  <property name="mute_on_pause">0</property>
  <property name="mlt_service">avformat-novalidate</property>
  <property name="seekable">1</property>
  <property name="aspect_ratio">1</property>
  <property name="kdenlive:clipname"/>
  <property name="kdenlive:folderid">5</property>
  <property name="kdenlive:id">33</property>
  <property name="kdenlive:file_size">3658240</property>
  <property name="kdenlive:file_hash">83c85901d219c4082ee6ad135d56745c</property>
  <property name="xml">was here</property>
  <property name="meta.media.nb_streams">1</property>
  <property name="meta.media.0.stream.type">video</property>
  <property name="meta.media.0.stream.frame_rate">25</property>
  <property name="meta.media.0.stream.sample_aspect_ratio">0</property>
  <property name="meta.media.0.codec.width">180</property>
  <property name="meta.media.0.codec.height">144</property>
  <property name="meta.media.0.codec.rotate">0</property>
  <property name="meta.media.0.codec.pix_fmt">bgr24</property>
  <property name="meta.media.0.codec.sample_aspect_ratio">0</property>
  <property name="meta.media.0.codec.colorspace">601</property>
  <property name="meta.media.0.codec.name">rawvideo</property>
  <property name="meta.media.0.codec.long_name">raw video</property>
  <property name="meta.media.0.codec.bit_rate">15890087</property>
  <property name="meta.attr.0.stream.title.markup">e:/stp/incoming_avis/subsampled/lena_jump.avi</property>
  <property name="meta.media.sample_aspect_num">1</property>
  <property name="meta.media.sample_aspect_den">1</property>
  <property name="meta.media.frame_rate_num">25</property>
  <property name="meta.media.frame_rate_den">1</property>
  <property name="meta.media.colorspace">601</property>
  <property name="meta.media.color_trc">2</property>
  <property name="meta.media.has_b_frames">0</property>
  <property name="meta.media.width">180</property>
  <property name="meta.media.height">144</property>
  <property name="meta.media.color_range">mpeg</property>
  <property name="meta.media.top_field_first">0</property>
  <property name="meta.media.progressive">1</property>
  <property name="set.test_audio">1</property>
  <property name="set.test_image">0</property>
 </producer>
 <producer id="producer108" in="00:00:00.000" out="00:00:02.440">
  <property name="length">62</property>
  <property name="eof">pause</property>
  <property name="resource">C:/Users/Ichsan/tugasakhir/dataset-traintest/train/jump in place/0.avi</property>
  <property name="audio_index">-1</property>
  <property name="video_index">0</property>
  <property name="mute_on_pause">0</property>
  <property name="mlt_service">avformat-novalidate</property>
  <property name="seekable">1</property>
  <property name="aspect_ratio">1</property>
  <property name="kdenlive:clipname"/>
  <property name="kdenlive:folderid">6</property>
  <property name="kdenlive:id">34</property>
  <property name="kdenlive:file_size">4825088</property>
  <property name="kdenlive:file_hash">5699432144e5f37758e6772fe6506170</property>
  <property name="xml">was here</property>
  <property name="meta.media.nb_streams">1</property>
  <property name="meta.media.0.stream.type">video</property>
  <property name="meta.media.0.stream.frame_rate">25</property>
  <property name="meta.media.0.stream.sample_aspect_ratio">0</property>
  <property name="meta.media.0.codec.width">180</property>
  <property name="meta.media.0.codec.height">144</property>
  <property name="meta.media.0.codec.rotate">0</property>
  <property name="meta.media.0.codec.pix_fmt">bgr24</property>
  <property name="meta.media.0.codec.sample_aspect_ratio">0</property>
  <property name="meta.media.0.codec.colorspace">601</property>
  <property name="meta.media.0.codec.name">rawvideo</property>
  <property name="meta.media.0.codec.long_name">raw video</property>
  <property name="meta.media.0.codec.bit_rate">15806951</property>
  <property name="meta.attr.0.stream.title.markup">e:/stp/incoming_avis/subsampled/daria_pjump.avi</property>
  <property name="meta.media.sample_aspect_num">1</property>
  <property name="meta.media.sample_aspect_den">1</property>
  <property name="meta.media.frame_rate_num">25</property>
  <property name="meta.media.frame_rate_den">1</property>
  <property name="meta.media.colorspace">601</property>
  <property name="meta.media.color_trc">2</property>
  <property name="meta.media.has_b_frames">0</property>
  <property name="meta.media.width">180</property>
  <property name="meta.media.height">144</property>
  <property name="meta.media.color_range">mpeg</property>
  <property name="meta.media.top_field_first">0</property>
  <property name="meta.media.progressive">1</property>
  <property name="set.test_audio">1</property>
  <property name="set.test_image">0</property>
 </producer>
 <producer id="producer109" in="00:00:00.000" out="00:00:02.120">
  <property name="length">54</property>
  <property name="eof">pause</property>
  <property name="resource">C:/Users/Ichsan/tugasakhir/dataset-traintest/train/jump in place/1.avi</property>
  <property name="audio_index">-1</property>
  <property name="video_index">0</property>
  <property name="mute_on_pause">0</property>
  <property name="mlt_service">avformat-novalidate</property>
  <property name="seekable">1</property>
  <property name="aspect_ratio">1</property>
  <property name="kdenlive:clipname"/>
  <property name="kdenlive:folderid">6</property>
  <property name="kdenlive:id">35</property>
  <property name="kdenlive:file_size">4202496</property>
  <property name="kdenlive:file_hash">3ceda0e7ff92c70c011dddfb164dc18f</property>
  <property name="xml">was here</property>
  <property name="meta.media.nb_streams">1</property>
  <property name="meta.media.0.stream.type">video</property>
  <property name="meta.media.0.stream.frame_rate">25</property>
  <property name="meta.media.0.stream.sample_aspect_ratio">0</property>
  <property name="meta.media.0.codec.width">180</property>
  <property name="meta.media.0.codec.height">144</property>
  <property name="meta.media.0.codec.rotate">0</property>
  <property name="meta.media.0.codec.pix_fmt">bgr24</property>
  <property name="meta.media.0.codec.sample_aspect_ratio">0</property>
  <property name="meta.media.0.codec.colorspace">601</property>
  <property name="meta.media.0.codec.name">rawvideo</property>
  <property name="meta.media.0.codec.long_name">raw video</property>
  <property name="meta.media.0.codec.bit_rate">15845434</property>
  <property name="meta.attr.0.stream.title.markup">e:/stp/incoming_avis/subsampled/denis_pjump.avi</property>
  <property name="meta.media.sample_aspect_num">1</property>
  <property name="meta.media.sample_aspect_den">1</property>
  <property name="meta.media.frame_rate_num">25</property>
  <property name="meta.media.frame_rate_den">1</property>
  <property name="meta.media.colorspace">601</property>
  <property name="meta.media.color_trc">2</property>
  <property name="meta.media.has_b_frames">0</property>
  <property name="meta.media.width">180</property>
  <property name="meta.media.height">144</property>
  <property name="meta.media.color_range">mpeg</property>
  <property name="meta.media.top_field_first">0</property>
  <property name="meta.media.progressive">1</property>
  <property name="set.test_audio">1</property>
  <property name="set.test_image">0</property>
 </producer>
 <producer id="producer110" in="00:00:00.000" out="00:00:01.640">
  <property name="length">42</property>
  <property name="eof">pause</property>
  <property name="resource">C:/Users/Ichsan/tugasakhir/dataset-traintest/train/jump in place/2.avi</property>
  <property name="audio_index">-1</property>
  <property name="video_index">0</property>
  <property name="mute_on_pause">0</property>
  <property name="mlt_service">avformat-novalidate</property>
  <property name="seekable">1</property>
  <property name="aspect_ratio">1</property>
  <property name="kdenlive:clipname"/>
  <property name="kdenlive:folderid">6</property>
  <property name="kdenlive:id">36</property>
  <property name="kdenlive:file_size">3269120</property>
  <property name="kdenlive:file_hash">e3ac4d293fe7dbc6165a5491f82498b8</property>
  <property name="xml">was here</property>
  <property name="meta.media.nb_streams">1</property>
  <property name="meta.media.0.stream.type">video</property>
  <property name="meta.media.0.stream.frame_rate">25</property>
  <property name="meta.media.0.stream.sample_aspect_ratio">0</property>
  <property name="meta.media.0.codec.width">180</property>
  <property name="meta.media.0.codec.height">144</property>
  <property name="meta.media.0.codec.rotate">0</property>
  <property name="meta.media.0.codec.pix_fmt">bgr24</property>
  <property name="meta.media.0.codec.sample_aspect_ratio">0</property>
  <property name="meta.media.0.codec.colorspace">601</property>
  <property name="meta.media.0.codec.name">rawvideo</property>
  <property name="meta.media.0.codec.long_name">raw video</property>
  <property name="meta.media.0.codec.bit_rate">15931317</property>
  <property name="meta.attr.0.stream.title.markup">e:/stp/incoming_avis/subsampled/eli_pjump.avi</property>
  <property name="meta.media.sample_aspect_num">1</property>
  <property name="meta.media.sample_aspect_den">1</property>
  <property name="meta.media.frame_rate_num">25</property>
  <property name="meta.media.frame_rate_den">1</property>
  <property name="meta.media.colorspace">601</property>
  <property name="meta.media.color_trc">2</property>
  <property name="meta.media.has_b_frames">0</property>
  <property name="meta.media.width">180</property>
  <property name="meta.media.height">144</property>
  <property name="meta.media.color_range">mpeg</property>
  <property name="meta.media.top_field_first">0</property>
  <property name="meta.media.progressive">1</property>
  <property name="set.test_audio">1</property>
  <property name="set.test_image">0</property>
 </producer>
 <producer id="producer111" in="00:00:00.000" out="00:00:01.880">
  <property name="length">48</property>
  <property name="eof">pause</property>
  <property name="resource">C:/Users/Ichsan/tugasakhir/dataset-traintest/train/jump in place/3.avi</property>
  <property name="audio_index">-1</property>
  <property name="video_index">0</property>
  <property name="mute_on_pause">0</property>
  <property name="mlt_service">avformat-novalidate</property>
  <property name="seekable">1</property>
  <property name="aspect_ratio">1</property>
  <property name="kdenlive:clipname"/>
  <property name="kdenlive:folderid">6</property>
  <property name="kdenlive:id">37</property>
  <property name="kdenlive:file_size">3736064</property>
  <property name="kdenlive:file_hash">d2aea13ed696ad32bfe88a85af47c1dc</property>
  <property name="xml">was here</property>
  <property name="meta.media.nb_streams">1</property>
  <property name="meta.media.0.stream.type">video</property>
  <property name="meta.media.0.stream.frame_rate">25</property>
  <property name="meta.media.0.stream.sample_aspect_ratio">0</property>
  <property name="meta.media.0.codec.width">180</property>
  <property name="meta.media.0.codec.height">144</property>
  <property name="meta.media.0.codec.rotate">0</property>
  <property name="meta.media.0.codec.pix_fmt">bgr24</property>
  <property name="meta.media.0.codec.sample_aspect_ratio">0</property>
  <property name="meta.media.0.codec.colorspace">601</property>
  <property name="meta.media.0.codec.name">rawvideo</property>
  <property name="meta.media.0.codec.long_name">raw video</property>
  <property name="meta.media.0.codec.bit_rate">15882894</property>
  <property name="meta.attr.0.stream.title.markup">e:/stp/incoming_avis/subsampled/ido_pjump.avi</property>
  <property name="meta.media.sample_aspect_num">1</property>
  <property name="meta.media.sample_aspect_den">1</property>
  <property name="meta.media.frame_rate_num">25</property>
  <property name="meta.media.frame_rate_den">1</property>
  <property name="meta.media.colorspace">601</property>
  <property name="meta.media.color_trc">2</property>
  <property name="meta.media.has_b_frames">0</property>
  <property name="meta.media.width">180</property>
  <property name="meta.media.height">144</property>
  <property name="meta.media.color_range">mpeg</property>
  <property name="meta.media.top_field_first">0</property>
  <property name="meta.media.progressive">1</property>
  <property name="set.test_audio">1</property>
  <property name="set.test_image">0</property>
 </producer>
 <producer id="producer112" in="00:00:00.000" out="00:00:05.040">
  <property name="length">127</property>
  <property name="eof">pause</property>
  <property name="resource">C:/Users/Ichsan/tugasakhir/dataset-traintest/train/jump in place/4.avi</property>
  <property name="audio_index">-1</property>
  <property name="video_index">0</property>
  <property name="mute_on_pause">0</property>
  <property name="mlt_service">avformat-novalidate</property>
  <property name="seekable">1</property>
  <property name="aspect_ratio">1</property>
  <property name="kdenlive:clipname"/>
  <property name="kdenlive:folderid">6</property>
  <property name="kdenlive:id">38</property>
  <property name="kdenlive:file_size">9881088</property>
  <property name="kdenlive:file_hash">00b8d6e0b0c48d3bfe3232ebe1876fbc</property>
  <property name="xml">was here</property>
  <property name="meta.media.nb_streams">1</property>
  <property name="meta.media.0.stream.type">video</property>
  <property name="meta.media.0.stream.frame_rate">25</property>
  <property name="meta.media.0.stream.sample_aspect_ratio">0</property>
  <property name="meta.media.0.codec.width">180</property>
  <property name="meta.media.0.codec.height">144</property>
  <property name="meta.media.0.codec.rotate">0</property>
  <property name="meta.media.0.codec.pix_fmt">bgr24</property>
  <property name="meta.media.0.codec.sample_aspect_ratio">0</property>
  <property name="meta.media.0.codec.colorspace">601</property>
  <property name="meta.media.0.codec.name">rawvideo</property>
  <property name="meta.media.0.codec.long_name">raw video</property>
  <property name="meta.media.0.codec.bit_rate">15675429</property>
  <property name="meta.attr.0.stream.title.markup">e:/stp/incoming_avis/subsampled/ira_pjump.avi</property>
  <property name="meta.media.sample_aspect_num">1</property>
  <property name="meta.media.sample_aspect_den">1</property>
  <property name="meta.media.frame_rate_num">25</property>
  <property name="meta.media.frame_rate_den">1</property>
  <property name="meta.media.colorspace">601</property>
  <property name="meta.media.color_trc">2</property>
  <property name="meta.media.has_b_frames">0</property>
  <property name="meta.media.width">180</property>
  <property name="meta.media.height">144</property>
  <property name="meta.media.color_range">mpeg</property>
  <property name="meta.media.top_field_first">0</property>
  <property name="meta.media.progressive">1</property>
  <property name="set.test_audio">1</property>
  <property name="set.test_image">0</property>
 </producer>
 <producer id="producer113" in="00:00:00.000" out="00:00:01.920">
  <property name="length">49</property>
  <property name="eof">pause</property>
  <property name="resource">C:/Users/Ichsan/tugasakhir/dataset-traintest/train/jump in place/5.avi</property>
  <property name="audio_index">-1</property>
  <property name="video_index">0</property>
  <property name="mute_on_pause">0</property>
  <property name="mlt_service">avformat-novalidate</property>
  <property name="seekable">1</property>
  <property name="aspect_ratio">1</property>
  <property name="kdenlive:clipname"/>
  <property name="kdenlive:folderid">6</property>
  <property name="kdenlive:id">39</property>
  <property name="kdenlive:file_size">3813888</property>
  <property name="kdenlive:file_hash">94d569fe4bd69164e1504d6c4f6abdc4</property>
  <property name="xml">was here</property>
  <property name="meta.media.nb_streams">1</property>
  <property name="meta.media.0.stream.type">video</property>
  <property name="meta.media.0.stream.frame_rate">25</property>
  <property name="meta.media.0.stream.sample_aspect_ratio">0</property>
  <property name="meta.media.0.codec.width">180</property>
  <property name="meta.media.0.codec.height">144</property>
  <property name="meta.media.0.codec.rotate">0</property>
  <property name="meta.media.0.codec.pix_fmt">bgr24</property>
  <property name="meta.media.0.codec.sample_aspect_ratio">0</property>
  <property name="meta.media.0.codec.colorspace">601</property>
  <property name="meta.media.0.codec.name">rawvideo</property>
  <property name="meta.media.0.codec.long_name">raw video</property>
  <property name="meta.media.0.codec.bit_rate">15876000</property>
  <property name="meta.attr.0.stream.title.markup">e:/stp/incoming_avis/subsampled/lena_pjump.avi</property>
  <property name="meta.media.sample_aspect_num">1</property>
  <property name="meta.media.sample_aspect_den">1</property>
  <property name="meta.media.frame_rate_num">25</property>
  <property name="meta.media.frame_rate_den">1</property>
  <property name="meta.media.colorspace">601</property>
  <property name="meta.media.color_trc">2</property>
  <property name="meta.media.has_b_frames">0</property>
  <property name="meta.media.width">180</property>
  <property name="meta.media.height">144</property>
  <property name="meta.media.color_range">mpeg</property>
  <property name="meta.media.top_field_first">0</property>
  <property name="meta.media.progressive">1</property>
  <property name="set.test_audio">1</property>
  <property name="set.test_image">0</property>
 </producer>
 <producer id="producer114" in="00:00:00.000" out="00:00:03.520">
  <property name="length">89</property>
  <property name="eof">pause</property>
  <property name="resource">C:/Users/Ichsan/tugasakhir/dataset-traintest/train/jumping jack/0.avi</property>
  <property name="audio_index">-1</property>
  <property name="video_index">0</property>
  <property name="mute_on_pause">0</property>
  <property name="mlt_service">avformat-novalidate</property>
  <property name="seekable">1</property>
  <property name="aspect_ratio">1</property>
  <property name="kdenlive:clipname"/>
  <property name="kdenlive:folderid">8</property>
  <property name="kdenlive:id">40</property>
  <property name="kdenlive:file_size">6925312</property>
  <property name="kdenlive:file_hash">7d091c54140f0102d8c8c8fb975d02d2</property>
  <property name="xml">was here</property>
  <property name="meta.media.nb_streams">1</property>
  <property name="meta.media.0.stream.type">video</property>
  <property name="meta.media.0.stream.frame_rate">25</property>
  <property name="meta.media.0.stream.sample_aspect_ratio">0</property>
  <property name="meta.media.0.codec.width">180</property>
  <property name="meta.media.0.codec.height">144</property>
  <property name="meta.media.0.codec.rotate">0</property>
  <property name="meta.media.0.codec.pix_fmt">bgr24</property>
  <property name="meta.media.0.codec.sample_aspect_ratio">0</property>
  <property name="meta.media.0.codec.colorspace">601</property>
  <property name="meta.media.0.codec.name">rawvideo</property>
  <property name="meta.media.0.codec.long_name">raw video</property>
  <property name="meta.media.0.codec.bit_rate">15728727</property>
  <property name="meta.attr.0.stream.title.markup">e:/stp/incoming_avis/subsampled/daria_jack.avi</property>
  <property name="meta.media.sample_aspect_num">1</property>
  <property name="meta.media.sample_aspect_den">1</property>
  <property name="meta.media.frame_rate_num">25</property>
  <property name="meta.media.frame_rate_den">1</property>
  <property name="meta.media.colorspace">601</property>
  <property name="meta.media.color_trc">2</property>
  <property name="meta.media.has_b_frames">0</property>
  <property name="meta.media.width">180</property>
  <property name="meta.media.height">144</property>
  <property name="meta.media.color_range">mpeg</property>
  <property name="meta.media.top_field_first">0</property>
  <property name="meta.media.progressive">1</property>
  <property name="set.test_audio">1</property>
  <property name="set.test_image">0</property>
 </producer>
 <producer id="producer115" in="00:00:00.000" out="00:00:02.160">
  <property name="length">55</property>
  <property name="eof">pause</property>
  <property name="resource">C:/Users/Ichsan/tugasakhir/dataset-traintest/train/jumping jack/1.avi</property>
  <property name="audio_index">-1</property>
  <property name="video_index">0</property>
  <property name="mute_on_pause">0</property>
  <property name="mlt_service">avformat-novalidate</property>
  <property name="seekable">1</property>
  <property name="aspect_ratio">1</property>
  <property name="kdenlive:clipname"/>
  <property name="kdenlive:folderid">8</property>
  <property name="kdenlive:id">41</property>
  <property name="kdenlive:file_size">4280320</property>
  <property name="kdenlive:file_hash">672c268e122fd157e6c63baec5976720</property>
  <property name="xml">was here</property>
  <property name="meta.media.nb_streams">1</property>
  <property name="meta.media.0.stream.type">video</property>
  <property name="meta.media.0.stream.frame_rate">25</property>
  <property name="meta.media.0.stream.sample_aspect_ratio">0</property>
  <property name="meta.media.0.codec.width">180</property>
  <property name="meta.media.0.codec.height">144</property>
  <property name="meta.media.0.codec.rotate">0</property>
  <property name="meta.media.0.codec.pix_fmt">bgr24</property>
  <property name="meta.media.0.codec.sample_aspect_ratio">0</property>
  <property name="meta.media.0.codec.colorspace">601</property>
  <property name="meta.media.0.codec.name">rawvideo</property>
  <property name="meta.media.0.codec.long_name">raw video</property>
  <property name="meta.media.0.codec.bit_rate">15840000</property>
  <property name="meta.attr.0.stream.title.markup">e:/stp/incoming_avis/subsampled/denis_jack.avi</property>
  <property name="meta.media.sample_aspect_num">1</property>
  <property name="meta.media.sample_aspect_den">1</property>
  <property name="meta.media.frame_rate_num">25</property>
  <property name="meta.media.frame_rate_den">1</property>
  <property name="meta.media.colorspace">601</property>
  <property name="meta.media.color_trc">2</property>
  <property name="meta.media.has_b_frames">0</property>
  <property name="meta.media.width">180</property>
  <property name="meta.media.height">144</property>
  <property name="meta.media.color_range">mpeg</property>
  <property name="meta.media.top_field_first">0</property>
  <property name="meta.media.progressive">1</property>
  <property name="set.test_audio">1</property>
  <property name="set.test_image">0</property>
 </producer>
 <producer id="producer116" in="00:00:00.000" out="00:00:02.000">
  <property name="length">51</property>
  <property name="eof">pause</property>
  <property name="resource">C:/Users/Ichsan/tugasakhir/dataset-traintest/train/jumping jack/2.avi</property>
  <property name="audio_index">-1</property>
  <property name="video_index">0</property>
  <property name="mute_on_pause">0</property>
  <property name="mlt_service">avformat-novalidate</property>
  <property name="seekable">1</property>
  <property name="aspect_ratio">1</property>
  <property name="kdenlive:clipname"/>
  <property name="kdenlive:folderid">8</property>
  <property name="kdenlive:id">42</property>
  <property name="kdenlive:file_size">3969536</property>
  <property name="kdenlive:file_hash">91454136a4fc019e09f027852fa4906b</property>
  <property name="xml">was here</property>
  <property name="meta.media.nb_streams">1</property>
  <property name="meta.media.0.stream.type">video</property>
  <property name="meta.media.0.stream.frame_rate">25</property>
  <property name="meta.media.0.stream.sample_aspect_ratio">0</property>
  <property name="meta.media.0.codec.width">180</property>
  <property name="meta.media.0.codec.height">144</property>
  <property name="meta.media.0.codec.rotate">0</property>
  <property name="meta.media.0.codec.pix_fmt">bgr24</property>
  <property name="meta.media.0.codec.sample_aspect_ratio">0</property>
  <property name="meta.media.0.codec.colorspace">601</property>
  <property name="meta.media.0.codec.name">rawvideo</property>
  <property name="meta.media.0.codec.long_name">raw video</property>
  <property name="meta.media.0.codec.bit_rate">15863040</property>
  <property name="meta.attr.0.stream.title.markup">e:/stp/incoming_avis/subsampled/eli_jack.avi</property>
  <property name="meta.media.sample_aspect_num">1</property>
  <property name="meta.media.sample_aspect_den">1</property>
  <property name="meta.media.frame_rate_num">25</property>
  <property name="meta.media.frame_rate_den">1</property>
  <property name="meta.media.colorspace">601</property>
  <property name="meta.media.color_trc">2</property>
  <property name="meta.media.has_b_frames">0</property>
  <property name="meta.media.width">180</property>
  <property name="meta.media.height">144</property>
  <property name="meta.media.color_range">mpeg</property>
  <property name="meta.media.top_field_first">0</property>
  <property name="meta.media.progressive">1</property>
  <property name="set.test_audio">1</property>
  <property name="set.test_image">0</property>
 </producer>
 <producer id="producer117" in="00:00:00.000" out="00:00:02.120">
  <property name="length">54</property>
  <property name="eof">pause</property>
  <property name="resource">C:/Users/Ichsan/tugasakhir/dataset-traintest/train/jumping jack/3.avi</property>
  <property name="audio_index">-1</property>
  <property name="video_index">0</property>
  <property name="mute_on_pause">0</property>
  <property name="mlt_service">avformat-novalidate</property>
  <property name="seekable">1</property>
  <property name="aspect_ratio">1</property>
  <property name="kdenlive:clipname"/>
  <property name="kdenlive:folderid">8</property>
  <property name="kdenlive:id">43</property>
  <property name="kdenlive:file_size">4202496</property>
  <property name="kdenlive:file_hash">01de198455247cca390e13971e1f79d0</property>
  <property name="xml">was here</property>
  <property name="meta.media.nb_streams">1</property>
  <property name="meta.media.0.stream.type">video</property>
  <property name="meta.media.0.stream.frame_rate">25</property>
  <property name="meta.media.0.stream.sample_aspect_ratio">0</property>
  <property name="meta.media.0.codec.width">180</property>
  <property name="meta.media.0.codec.height">144</property>
  <property name="meta.media.0.codec.rotate">0</property>
  <property name="meta.media.0.codec.pix_fmt">bgr24</property>
  <property name="meta.media.0.codec.sample_aspect_ratio">0</property>
  <property name="meta.media.0.codec.colorspace">601</property>
  <property name="meta.media.0.codec.name">rawvideo</property>
  <property name="meta.media.0.codec.long_name">raw video</property>
  <property name="meta.media.0.codec.bit_rate">15845434</property>
  <property name="meta.attr.0.stream.title.markup">e:/stp/incoming_avis/subsampled/ido_jack.avi</property>
  <property name="meta.media.sample_aspect_num">1</property>
  <property name="meta.media.sample_aspect_den">1</property>
  <property name="meta.media.frame_rate_num">25</property>
  <property name="meta.media.frame_rate_den">1</property>
  <property name="meta.media.colorspace">601</property>
  <property name="meta.media.color_trc">2</property>
  <property name="meta.media.has_b_frames">0</property>
  <property name="meta.media.width">180</property>
  <property name="meta.media.height">144</property>
  <property name="meta.media.color_range">mpeg</property>
  <property name="meta.media.top_field_first">0</property>
  <property name="meta.media.progressive">1</property>
  <property name="set.test_audio">1</property>
  <property name="set.test_image">0</property>
 </producer>
 <producer id="producer118" in="00:00:00.000" out="00:00:02.760">
  <property name="length">70</property>
  <property name="eof">pause</property>
  <property name="resource">C:/Users/Ichsan/tugasakhir/dataset-traintest/train/jumping jack/4.avi</property>
  <property name="audio_index">-1</property>
  <property name="video_index">0</property>
  <property name="mute_on_pause">0</property>
  <property name="mlt_service">avformat-novalidate</property>
  <property name="seekable">1</property>
  <property name="aspect_ratio">1</property>
  <property name="kdenlive:clipname"/>
  <property name="kdenlive:folderid">8</property>
  <property name="kdenlive:id">44</property>
  <property name="kdenlive:file_size">5447168</property>
  <property name="kdenlive:file_hash">9e61e010e48c5d5c534ac133c374011a</property>
  <property name="xml">was here</property>
  <property name="meta.media.nb_streams">1</property>
  <property name="meta.media.0.stream.type">video</property>
  <property name="meta.media.0.stream.frame_rate">25</property>
  <property name="meta.media.0.stream.sample_aspect_ratio">0</property>
  <property name="meta.media.0.codec.width">180</property>
  <property name="meta.media.0.codec.height">144</property>
  <property name="meta.media.0.codec.rotate">0</property>
  <property name="meta.media.0.codec.pix_fmt">bgr24</property>
  <property name="meta.media.0.codec.sample_aspect_ratio">0</property>
  <property name="meta.media.0.codec.colorspace">601</property>
  <property name="meta.media.0.codec.name">rawvideo</property>
  <property name="meta.media.0.codec.long_name">raw video</property>
  <property name="meta.media.0.codec.bit_rate">15777391</property>
  <property name="meta.attr.0.stream.title.markup">e:/stp/incoming_avis/subsampled/ira_jack.avi</property>
  <property name="meta.media.sample_aspect_num">1</property>
  <property name="meta.media.sample_aspect_den">1</property>
  <property name="meta.media.frame_rate_num">25</property>
  <property name="meta.media.frame_rate_den">1</property>
  <property name="meta.media.colorspace">601</property>
  <property name="meta.media.color_trc">2</property>
  <property name="meta.media.has_b_frames">0</property>
  <property name="meta.media.width">180</property>
  <property name="meta.media.height">144</property>
  <property name="meta.media.color_range">mpeg</property>
  <property name="meta.media.top_field_first">0</property>
  <property name="meta.media.progressive">1</property>
  <property name="set.test_audio">1</property>
  <property name="set.test_image">0</property>
 </producer>
 <producer id="producer119" in="00:00:00.000" out="00:00:05.800">
  <property name="length">146</property>
  <property name="eof">pause</property>
  <property name="resource">C:/Users/Ichsan/tugasakhir/dataset-traintest/train/jumping jack/5.avi</property>
  <property name="audio_index">-1</property>
  <property name="video_index">0</property>
  <property name="mute_on_pause">0</property>
  <property name="mlt_service">avformat-novalidate</property>
  <property name="seekable">1</property>
  <property name="aspect_ratio">1</property>
  <property name="kdenlive:clipname"/>
  <property name="kdenlive:folderid">8</property>
  <property name="kdenlive:id">45</property>
  <property name="kdenlive:file_size">11358720</property>
  <property name="kdenlive:file_hash">69656a02af9542300280aad0393cd1c4</property>
  <property name="xml">was here</property>
  <property name="meta.media.nb_streams">1</property>
  <property name="meta.media.0.stream.type">video</property>
  <property name="meta.media.0.stream.frame_rate">25</property>
  <property name="meta.media.0.stream.sample_aspect_ratio">0</property>
  <property name="meta.media.0.codec.width">180</property>
  <property name="meta.media.0.codec.height">144</property>
  <property name="meta.media.0.codec.rotate">0</property>
  <property name="meta.media.0.codec.pix_fmt">bgr24</property>
  <property name="meta.media.0.codec.sample_aspect_ratio">0</property>
  <property name="meta.media.0.codec.colorspace">601</property>
  <property name="meta.media.0.codec.name">rawvideo</property>
  <property name="meta.media.0.codec.long_name">raw video</property>
  <property name="meta.media.0.codec.bit_rate">15659255</property>
  <property name="meta.attr.0.stream.title.markup">e:/stp/incoming_avis/subsampled/lena_jack.avi</property>
  <property name="meta.media.sample_aspect_num">1</property>
  <property name="meta.media.sample_aspect_den">1</property>
  <property name="meta.media.frame_rate_num">25</property>
  <property name="meta.media.frame_rate_den">1</property>
  <property name="meta.media.colorspace">601</property>
  <property name="meta.media.color_trc">2</property>
  <property name="meta.media.has_b_frames">0</property>
  <property name="meta.media.width">180</property>
  <property name="meta.media.height">144</property>
  <property name="meta.media.color_range">mpeg</property>
  <property name="meta.media.top_field_first">0</property>
  <property name="meta.media.progressive">1</property>
  <property name="set.test_audio">1</property>
  <property name="set.test_image">0</property>
 </producer>
 <producer id="producer120" in="00:00:00.000" out="00:00:03.240">
  <property name="length">82</property>
  <property name="eof">pause</property>
  <property name="resource">C:/Users/Ichsan/tugasakhir/dataset-traintest/train/one-hand wave/0.avi</property>
  <property name="audio_index">-1</property>
  <property name="video_index">0</property>
  <property name="mute_on_pause">0</property>
  <property name="mlt_service">avformat-novalidate</property>
  <property name="seekable">1</property>
  <property name="aspect_ratio">1</property>
  <property name="kdenlive:clipname"/>
  <property name="kdenlive:folderid">9</property>
  <property name="kdenlive:id">46</property>
  <property name="kdenlive:file_size">6380544</property>
  <property name="kdenlive:file_hash">5d3787c9c97425c4d9db366f5fdff6ae</property>
  <property name="xml">was here</property>
  <property name="meta.media.nb_streams">1</property>
  <property name="meta.media.0.stream.type">video</property>
  <property name="meta.media.0.stream.frame_rate">25</property>
  <property name="meta.media.0.stream.sample_aspect_ratio">0</property>
  <property name="meta.media.0.codec.width">180</property>
  <property name="meta.media.0.codec.height">144</property>
  <property name="meta.media.0.codec.rotate">0</property>
  <property name="meta.media.0.codec.pix_fmt">bgr24</property>
  <property name="meta.media.0.codec.sample_aspect_ratio">0</property>
  <property name="meta.media.0.codec.colorspace">601</property>
  <property name="meta.media.0.codec.name">rawvideo</property>
  <property name="meta.media.0.codec.long_name">raw video</property>
  <property name="meta.media.0.codec.bit_rate">15744000</property>
  <property name="meta.attr.0.stream.title.markup">e:/stp/incoming_avis/subsampled/daria_wave1.avi</property>
  <property name="meta.media.sample_aspect_num">1</property>
  <property name="meta.media.sample_aspect_den">1</property>
  <property name="meta.media.frame_rate_num">25</property>
  <property name="meta.media.frame_rate_den">1</property>
  <property name="meta.media.colorspace">601</property>
  <property name="meta.media.color_trc">2</property>
  <property name="meta.media.has_b_frames">0</property>
  <property name="meta.media.width">180</property>
  <property name="meta.media.height">144</property>
  <property name="meta.media.color_range">mpeg</property>
  <property name="meta.media.top_field_first">0</property>
  <property name="meta.media.progressive">1</property>
  <property name="set.test_audio">1</property>
  <property name="set.test_image">0</property>
 </producer>
 <producer id="producer121" in="00:00:00.000" out="00:00:02.360">
  <property name="length">60</property>
  <property name="eof">pause</property>
  <property name="resource">C:/Users/Ichsan/tugasakhir/dataset-traintest/train/one-hand wave/1.avi</property>
  <property name="audio_index">-1</property>
  <property name="video_index">0</property>
  <property name="mute_on_pause">0</property>
  <property name="mlt_service">avformat-novalidate</property>
  <property name="seekable">1</property>
  <property name="aspect_ratio">1</property>
  <property name="kdenlive:clipname"/>
  <property name="kdenlive:folderid">9</property>
  <property name="kdenlive:id">47</property>
  <property name="kdenlive:file_size">4669440</property>
  <property name="kdenlive:file_hash">381716a29f674ab46b31cc8a1898f47c</property>
  <property name="xml">was here</property>
  <property name="meta.media.nb_streams">1</property>
  <property name="meta.media.0.stream.type">video</property>
  <property name="meta.media.0.stream.frame_rate">25</property>
  <property name="meta.media.0.stream.sample_aspect_ratio">0</property>
  <property name="meta.media.0.codec.width">180</property>
  <property name="meta.media.0.codec.height">144</property>
  <property name="meta.media.0.codec.rotate">0</property>
  <property name="meta.media.0.codec.pix_fmt">bgr24</property>
  <property name="meta.media.0.codec.sample_aspect_ratio">0</property>
  <property name="meta.media.0.codec.colorspace">601</property>
  <property name="meta.media.0.codec.name">rawvideo</property>
  <property name="meta.media.0.codec.long_name">raw video</property>
  <property name="meta.media.0.codec.bit_rate">15815593</property>
  <property name="meta.attr.0.stream.title.markup">e:/stp/incoming_avis/subsampled/denis_wave1.avi</property>
  <property name="meta.media.sample_aspect_num">1</property>
  <property name="meta.media.sample_aspect_den">1</property>
  <property name="meta.media.frame_rate_num">25</property>
  <property name="meta.media.frame_rate_den">1</property>
  <property name="meta.media.colorspace">601</property>
  <property name="meta.media.color_trc">2</property>
  <property name="meta.media.has_b_frames">0</property>
  <property name="meta.media.width">180</property>
  <property name="meta.media.height">144</property>
  <property name="meta.media.color_range">mpeg</property>
  <property name="meta.media.top_field_first">0</property>
  <property name="meta.media.progressive">1</property>
  <property name="set.test_audio">1</property>
  <property name="set.test_image">0</property>
 </producer>
 <producer id="producer122" in="00:00:00.000" out="00:00:04.960">
  <property name="length">125</property>
  <property name="eof">pause</property>
  <property name="resource">C:/Users/Ichsan/tugasakhir/dataset-traintest/train/one-hand wave/2.avi</property>
  <property name="audio_index">-1</property>
  <property name="video_index">0</property>
  <property name="mute_on_pause">0</property>
  <property name="mlt_service">avformat-novalidate</property>
  <property name="seekable">1</property>
  <property name="aspect_ratio">1</property>
  <property name="kdenlive:clipname"/>
  <property name="kdenlive:folderid">9</property>
  <property name="kdenlive:id">48</property>
  <property name="kdenlive:file_size">9725440</property>
  <property name="kdenlive:file_hash">7fd7319b18b81d1b302b8040537a73a0</property>
  <property name="xml">was here</property>
  <property name="meta.media.nb_streams">1</property>
  <property name="meta.media.0.stream.type">video</property>
  <property name="meta.media.0.stream.frame_rate">25</property>
  <property name="meta.media.0.stream.sample_aspect_ratio">0</property>
  <property name="meta.media.0.codec.width">180</property>
  <property name="meta.media.0.codec.height">144</property>
  <property name="meta.media.0.codec.rotate">0</property>
  <property name="meta.media.0.codec.pix_fmt">bgr24</property>
  <property name="meta.media.0.codec.sample_aspect_ratio">0</property>
  <property name="meta.media.0.codec.colorspace">601</property>
  <property name="meta.media.0.codec.name">rawvideo</property>
  <property name="meta.media.0.codec.long_name">raw video</property>
  <property name="meta.media.0.codec.bit_rate">15677419</property>
  <property name="meta.attr.0.stream.title.markup">e:/stp/incoming_avis/subsampled/eli_wave1.avi</property>
  <property name="meta.media.sample_aspect_num">1</property>
  <property name="meta.media.sample_aspect_den">1</property>
  <property name="meta.media.frame_rate_num">25</property>
  <property name="meta.media.frame_rate_den">1</property>
  <property name="meta.media.colorspace">601</property>
  <property name="meta.media.color_trc">2</property>
  <property name="meta.media.has_b_frames">0</property>
  <property name="meta.media.width">180</property>
  <property name="meta.media.height">144</property>
  <property name="meta.media.color_range">mpeg</property>
  <property name="meta.media.top_field_first">0</property>
  <property name="meta.media.progressive">1</property>
  <property name="set.test_audio">1</property>
  <property name="set.test_image">0</property>
 </producer>
 <producer id="producer123" in="00:00:00.000" out="00:00:02.160">
  <property name="length">55</property>
  <property name="eof">pause</property>
  <property name="resource">C:/Users/Ichsan/tugasakhir/dataset-traintest/train/one-hand wave/3.avi</property>
  <property name="audio_index">-1</property>
  <property name="video_index">0</property>
  <property name="mute_on_pause">0</property>
  <property name="mlt_service">avformat-novalidate</property>
  <property name="seekable">1</property>
  <property name="aspect_ratio">1</property>
  <property name="kdenlive:clipname"/>
  <property name="kdenlive:folderid">9</property>
  <property name="kdenlive:id">49</property>
  <property name="kdenlive:file_size">4280320</property>
  <property name="kdenlive:file_hash">d5ad7b9bcb28e27d99efcfbb8388ec51</property>
  <property name="xml">was here</property>
  <property name="meta.media.nb_streams">1</property>
  <property name="meta.media.0.stream.type">video</property>
  <property name="meta.media.0.stream.frame_rate">25</property>
  <property name="meta.media.0.stream.sample_aspect_ratio">0</property>
  <property name="meta.media.0.codec.width">180</property>
  <property name="meta.media.0.codec.height">144</property>
  <property name="meta.media.0.codec.rotate">0</property>
  <property name="meta.media.0.codec.pix_fmt">bgr24</property>
  <property name="meta.media.0.codec.sample_aspect_ratio">0</property>
  <property name="meta.media.0.codec.colorspace">601</property>
  <property name="meta.media.0.codec.name">rawvideo</property>
  <property name="meta.media.0.codec.long_name">raw video</property>
  <property name="meta.media.0.codec.bit_rate">15840000</property>
  <property name="meta.attr.0.stream.title.markup">e:/stp/incoming_avis/subsampled/ido_wave1.avi</property>
  <property name="meta.media.sample_aspect_num">1</property>
  <property name="meta.media.sample_aspect_den">1</property>
  <property name="meta.media.frame_rate_num">25</property>
  <property name="meta.media.frame_rate_den">1</property>
  <property name="meta.media.colorspace">601</property>
  <property name="meta.media.color_trc">2</property>
  <property name="meta.media.has_b_frames">0</property>
  <property name="meta.media.width">180</property>
  <property name="meta.media.height">144</property>
  <property name="meta.media.color_range">mpeg</property>
  <property name="meta.media.top_field_first">0</property>
  <property name="meta.media.progressive">1</property>
  <property name="set.test_audio">1</property>
  <property name="set.test_image">0</property>
 </producer>
 <producer id="producer124" in="00:00:00.000" out="00:00:04.080">
  <property name="length">103</property>
  <property name="eof">pause</property>
  <property name="resource">C:/Users/Ichsan/tugasakhir/dataset-traintest/train/one-hand wave/4.avi</property>
  <property name="audio_index">-1</property>
  <property name="video_index">0</property>
  <property name="mute_on_pause">0</property>
  <property name="mlt_service">avformat-novalidate</property>
  <property name="seekable">1</property>
  <property name="aspect_ratio">1</property>
  <property name="kdenlive:clipname"/>
  <property name="kdenlive:folderid">9</property>
  <property name="kdenlive:id">50</property>
  <property name="kdenlive:file_size">8013824</property>
  <property name="kdenlive:file_hash">61a8dc1f95e4e23c29f10c332263f3c5</property>
  <property name="xml">was here</property>
  <property name="meta.media.nb_streams">1</property>
  <property name="meta.media.0.stream.type">video</property>
  <property name="meta.media.0.stream.frame_rate">25</property>
  <property name="meta.media.0.stream.sample_aspect_ratio">0</property>
  <property name="meta.media.0.codec.width">180</property>
  <property name="meta.media.0.codec.height">144</property>
  <property name="meta.media.0.codec.rotate">0</property>
  <property name="meta.media.0.codec.pix_fmt">bgr24</property>
  <property name="meta.media.0.codec.sample_aspect_ratio">0</property>
  <property name="meta.media.0.codec.colorspace">601</property>
  <property name="meta.media.0.codec.name">rawvideo</property>
  <property name="meta.media.0.codec.long_name">raw video</property>
  <property name="meta.media.0.codec.bit_rate">15704471</property>
  <property name="meta.attr.0.stream.title.markup">e:/stp/incoming_avis/subsampled/ira_wave1.avi</property>
  <property name="meta.media.sample_aspect_num">1</property>
  <property name="meta.media.sample_aspect_den">1</property>
  <property name="meta.media.frame_rate_num">25</property>
  <property name="meta.media.frame_rate_den">1</property>
  <property name="meta.media.colorspace">601</property>
  <property name="meta.media.color_trc">2</property>
  <property name="meta.media.has_b_frames">0</property>
  <property name="meta.media.width">180</property>
  <property name="meta.media.height">144</property>
  <property name="meta.media.color_range">mpeg</property>
  <property name="meta.media.top_field_first">0</property>
  <property name="meta.media.progressive">1</property>
  <property name="set.test_audio">1</property>
  <property name="set.test_image">0</property>
 </producer>
 <producer id="producer125" in="00:00:00.000" out="00:00:02.080">
  <property name="length">53</property>
  <property name="eof">pause</property>
  <property name="resource">C:/Users/Ichsan/tugasakhir/dataset-traintest/train/one-hand wave/5.avi</property>
  <property name="audio_index">-1</property>
  <property name="video_index">0</property>
  <property name="mute_on_pause">0</property>
  <property name="mlt_service">avformat-novalidate</property>
  <property name="seekable">1</property>
  <property name="aspect_ratio">1</property>
  <property name="kdenlive:clipname"/>
  <property name="kdenlive:folderid">9</property>
  <property name="kdenlive:id">51</property>
  <property name="kdenlive:file_size">4124672</property>
  <property name="kdenlive:file_hash">f2f17f9a43861fd7087fa1afbd915e91</property>
  <property name="xml">was here</property>
  <property name="meta.media.nb_streams">1</property>
  <property name="meta.media.0.stream.type">video</property>
  <property name="meta.media.0.stream.frame_rate">25</property>
  <property name="meta.media.0.stream.sample_aspect_ratio">0</property>
  <property name="meta.media.0.codec.width">180</property>
  <property name="meta.media.0.codec.height">144</property>
  <property name="meta.media.0.codec.rotate">0</property>
  <property name="meta.media.0.codec.pix_fmt">bgr24</property>
  <property name="meta.media.0.codec.sample_aspect_ratio">0</property>
  <property name="meta.media.0.codec.colorspace">601</property>
  <property name="meta.media.0.codec.name">rawvideo</property>
  <property name="meta.media.0.codec.long_name">raw video</property>
  <property name="meta.media.0.codec.bit_rate">15851077</property>
  <property name="meta.attr.0.stream.title.markup">e:/stp/incoming_avis/subsampled/lena_wave1.avi</property>
  <property name="meta.media.sample_aspect_num">1</property>
  <property name="meta.media.sample_aspect_den">1</property>
  <property name="meta.media.frame_rate_num">25</property>
  <property name="meta.media.frame_rate_den">1</property>
  <property name="meta.media.colorspace">601</property>
  <property name="meta.media.color_trc">2</property>
  <property name="meta.media.has_b_frames">0</property>
  <property name="meta.media.width">180</property>
  <property name="meta.media.height">144</property>
  <property name="meta.media.color_range">mpeg</property>
  <property name="meta.media.top_field_first">0</property>
  <property name="meta.media.progressive">1</property>
  <property name="set.test_audio">1</property>
  <property name="set.test_image">0</property>
 </producer>
 <producer id="producer126" in="00:00:00.000" out="00:00:01.640">
  <property name="length">42</property>
  <property name="eof">pause</property>
  <property name="resource">C:/Users/Ichsan/tugasakhir/dataset-traintest/train/run/0.avi</property>
  <property name="audio_index">-1</property>
  <property name="video_index">0</property>
  <property name="mute_on_pause">0</property>
  <property name="mlt_service">avformat-novalidate</property>
  <property name="seekable">1</property>
  <property name="aspect_ratio">1</property>
  <property name="kdenlive:clipname"/>
  <property name="kdenlive:folderid">11</property>
  <property name="kdenlive:id">52</property>
  <property name="kdenlive:file_size">3269120</property>
  <property name="kdenlive:file_hash">fe1b5dfe0ea99783dd5097c28d98ccb9</property>
  <property name="xml">was here</property>
  <property name="meta.media.nb_streams">1</property>
  <property name="meta.media.0.stream.type">video</property>
  <property name="meta.media.0.stream.frame_rate">25</property>
  <property name="meta.media.0.stream.sample_aspect_ratio">0</property>
  <property name="meta.media.0.codec.width">180</property>
  <property name="meta.media.0.codec.height">144</property>
  <property name="meta.media.0.codec.rotate">0</property>
  <property name="meta.media.0.codec.pix_fmt">bgr24</property>
  <property name="meta.media.0.codec.sample_aspect_ratio">0</property>
  <property name="meta.media.0.codec.colorspace">601</property>
  <property name="meta.media.0.codec.name">rawvideo</property>
  <property name="meta.media.0.codec.long_name">raw video</property>
  <property name="meta.media.0.codec.bit_rate">15931317</property>
  <property name="meta.attr.0.stream.title.markup">e:/stp/incoming_avis/subsampled/daria_run.avi</property>
  <property name="meta.media.sample_aspect_num">1</property>
  <property name="meta.media.sample_aspect_den">1</property>
  <property name="meta.media.frame_rate_num">25</property>
  <property name="meta.media.frame_rate_den">1</property>
  <property name="meta.media.colorspace">601</property>
  <property name="meta.media.color_trc">2</property>
  <property name="meta.media.has_b_frames">0</property>
  <property name="meta.media.width">180</property>
  <property name="meta.media.height">144</property>
  <property name="meta.media.color_range">mpeg</property>
  <property name="meta.media.top_field_first">0</property>
  <property name="meta.media.progressive">1</property>
  <property name="set.test_audio">1</property>
  <property name="set.test_image">0</property>
 </producer>
 <producer id="producer127" in="00:00:00.000" out="00:00:01.600">
  <property name="length">41</property>
  <property name="eof">pause</property>
  <property name="resource">C:/Users/Ichsan/tugasakhir/dataset-traintest/train/run/1.avi</property>
  <property name="audio_index">-1</property>
  <property name="video_index">0</property>
  <property name="mute_on_pause">0</property>
  <property name="mlt_service">avformat-novalidate</property>
  <property name="seekable">1</property>
  <property name="aspect_ratio">1</property>
  <property name="kdenlive:clipname"/>
  <property name="kdenlive:folderid">11</property>
  <property name="kdenlive:id">53</property>
  <property name="kdenlive:file_size">3191296</property>
  <property name="kdenlive:file_hash">1b8c93ae74896eadde217a4b4f2a7aca</property>
  <property name="xml">was here</property>
  <property name="meta.media.nb_streams">1</property>
  <property name="meta.media.0.stream.type">video</property>
  <property name="meta.media.0.stream.frame_rate">25</property>
  <property name="meta.media.0.stream.sample_aspect_ratio">0</property>
  <property name="meta.media.0.codec.width">180</property>
  <property name="meta.media.0.codec.height">144</property>
  <property name="meta.media.0.codec.rotate">0</property>
  <property name="meta.media.0.codec.pix_fmt">bgr24</property>
  <property name="meta.media.0.codec.sample_aspect_ratio">0</property>
  <property name="meta.media.0.codec.colorspace">601</property>
  <property name="meta.media.0.codec.name">rawvideo</property>
  <property name="meta.media.0.codec.long_name">raw video</property>
  <property name="meta.media.0.codec.bit_rate">15940800</property>
  <property name="meta.attr.0.stream.title.markup">e:/stp/incoming_avis/subsampled/denis_run.avi</property>
  <property name="meta.media.sample_aspect_num">1</property>
  <property name="meta.media.sample_aspect_den">1</property>
  <property name="meta.media.frame_rate_num">25</property>
  <property name="meta.media.frame_rate_den">1</property>
  <property name="meta.media.colorspace">601</property>
  <property name="meta.media.color_trc">2</property>
  <property name="meta.media.has_b_frames">0</property>
  <property name="meta.media.width">180</property>
  <property name="meta.media.height">144</property>
  <property name="meta.media.color_range">mpeg</property>
  <property name="meta.media.top_field_first">0</property>
  <property name="meta.media.progressive">1</property>
  <property name="set.test_audio">1</property>
  <property name="set.test_image">0</property>
 </producer>
 <producer id="producer128" in="00:00:00.000" out="00:00:01.920">
  <property name="length">49</property>
  <property name="eof">pause</property>
  <property name="resource">C:/Users/Ichsan/tugasakhir/dataset-traintest/train/run/2.avi</property>
  <property name="audio_index">-1</property>
  <property name="video_index">0</property>
  <property name="mute_on_pause">0</property>
  <property name="mlt_service">avformat-novalidate</property>
  <property name="seekable">1</property>
  <property name="aspect_ratio">1</property>
  <property name="kdenlive:clipname"/>
  <property name="kdenlive:folderid">11</property>
  <property name="kdenlive:id">54</property>
  <property name="kdenlive:file_size">5991424</property>
  <property name="kdenlive:file_hash">46047dfed4316d03c5688627d3af0998</property>
  <property name="xml">was here</property>
  <property name="meta.media.nb_streams">1</property>
  <property name="meta.media.0.stream.type">video</property>
  <property name="meta.media.0.stream.frame_rate">25</property>
  <property name="meta.media.0.stream.sample_aspect_ratio">0</property>
  <property name="meta.media.0.codec.width">180</property>
  <property name="meta.media.0.codec.height">144</property>
  <property name="meta.media.0.codec.rotate">0</property>
  <property name="meta.media.0.codec.pix_fmt">bgr24</property>
  <property name="meta.media.0.codec.sample_aspect_ratio">0</property>
  <property name="meta.media.0.codec.colorspace">601</property>
  <property name="meta.media.0.codec.name">rawvideo</property>
  <property name="meta.media.0.codec.long_name">raw video</property>
  <property name="meta.media.0.codec.bit_rate">0</property>
  <property name="meta.attr.0.stream.title.markup">e:/stp/incoming_avis/subsampled/dynamic/eli_run.avi</property>
  <property name="meta.media.sample_aspect_num">1</property>
  <property name="meta.media.sample_aspect_den">1</property>
  <property name="meta.media.frame_rate_num">25</property>
  <property name="meta.media.frame_rate_den">1</property>
  <property name="meta.media.colorspace">601</property>
  <property name="meta.media.color_trc">2</property>
  <property name="meta.media.has_b_frames">0</property>
  <property name="meta.media.width">180</property>
  <property name="meta.media.height">144</property>
  <property name="meta.media.color_range">mpeg</property>
  <property name="meta.media.top_field_first">0</property>
  <property name="meta.media.progressive">1</property>
  <property name="set.test_audio">1</property>
  <property name="set.test_image">0</property>
 </producer>
 <producer id="producer129" in="00:00:00.000" out="00:00:01.400">
  <property name="length">36</property>
  <property name="eof">pause</property>
  <property name="resource">C:/Users/Ichsan/tugasakhir/dataset-traintest/train/run/3.avi</property>
  <property name="audio_index">-1</property>
  <property name="video_index">0</property>
  <property name="mute_on_pause">0</property>
  <property name="mlt_service">avformat-novalidate</property>
  <property name="seekable">1</property>
  <property name="aspect_ratio">1</property>
  <property name="kdenlive:clipname"/>
  <property name="kdenlive:file_size">2802688</property>
  <property name="kdenlive:folderid">11</property>
  <property name="kdenlive:id">55</property>
  <property name="kdenlive:file_hash">4864c8ec0a3588b108edcfab7eddaac1</property>
  <property name="xml">was here</property>
  <property name="meta.media.nb_streams">1</property>
  <property name="meta.media.0.stream.type">video</property>
  <property name="meta.media.0.stream.frame_rate">25</property>
  <property name="meta.media.0.stream.sample_aspect_ratio">0</property>
  <property name="meta.media.0.codec.width">180</property>
  <property name="meta.media.0.codec.height">144</property>
  <property name="meta.media.0.codec.rotate">0</property>
  <property name="meta.media.0.codec.pix_fmt">bgr24</property>
  <property name="meta.media.0.codec.sample_aspect_ratio">0</property>
  <property name="meta.media.0.codec.colorspace">601</property>
  <property name="meta.media.0.codec.name">rawvideo</property>
  <property name="meta.media.0.codec.long_name">raw video</property>
  <property name="meta.media.0.codec.bit_rate">15996343</property>
  <property name="meta.attr.0.stream.title.markup">e:/stp/incoming_avis/subsampled/ido_run.avi</property>
  <property name="meta.media.sample_aspect_num">1</property>
  <property name="meta.media.sample_aspect_den">1</property>
  <property name="meta.media.frame_rate_num">25</property>
  <property name="meta.media.frame_rate_den">1</property>
  <property name="meta.media.colorspace">601</property>
  <property name="meta.media.color_trc">2</property>
  <property name="meta.media.has_b_frames">0</property>
  <property name="meta.media.width">180</property>
  <property name="meta.media.height">144</property>
  <property name="meta.media.color_range">mpeg</property>
  <property name="meta.media.top_field_first">0</property>
  <property name="meta.media.progressive">1</property>
  <property name="set.test_audio">1</property>
  <property name="set.test_image">0</property>
 </producer>
 <producer id="producer130" in="00:00:00.000" out="00:00:02.200">
  <property name="length">56</property>
  <property name="eof">pause</property>
  <property name="resource">C:/Users/Ichsan/tugasakhir/dataset-traintest/train/run/4.avi</property>
  <property name="audio_index">-1</property>
  <property name="video_index">0</property>
  <property name="mute_on_pause">0</property>
  <property name="mlt_service">avformat-novalidate</property>
  <property name="seekable">1</property>
  <property name="aspect_ratio">1</property>
  <property name="kdenlive:clipname"/>
  <property name="kdenlive:folderid">11</property>
  <property name="kdenlive:id">56</property>
  <property name="kdenlive:file_size">4358144</property>
  <property name="kdenlive:file_hash">e80fe800339f6d043d998fd908fd9530</property>
  <property name="xml">was here</property>
  <property name="meta.media.nb_streams">1</property>
  <property name="meta.media.0.stream.type">video</property>
  <property name="meta.media.0.stream.frame_rate">25</property>
  <property name="meta.media.0.stream.sample_aspect_ratio">0</property>
  <property name="meta.media.0.codec.width">180</property>
  <property name="meta.media.0.codec.height">144</property>
  <property name="meta.media.0.codec.rotate">0</property>
  <property name="meta.media.0.codec.pix_fmt">bgr24</property>
  <property name="meta.media.0.codec.sample_aspect_ratio">0</property>
  <property name="meta.media.0.codec.colorspace">601</property>
  <property name="meta.media.0.codec.name">rawvideo</property>
  <property name="meta.media.0.codec.long_name">raw video</property>
  <property name="meta.media.0.codec.bit_rate">15834764</property>
  <property name="meta.attr.0.stream.title.markup">e:/stp/incoming_avis/subsampled/ira_run.avi</property>
  <property name="meta.media.sample_aspect_num">1</property>
  <property name="meta.media.sample_aspect_den">1</property>
  <property name="meta.media.frame_rate_num">25</property>
  <property name="meta.media.frame_rate_den">1</property>
  <property name="meta.media.colorspace">601</property>
  <property name="meta.media.color_trc">2</property>
  <property name="meta.media.has_b_frames">0</property>
  <property name="meta.media.width">180</property>
  <property name="meta.media.height">144</property>
  <property name="meta.media.color_range">mpeg</property>
  <property name="meta.media.top_field_first">0</property>
  <property name="meta.media.progressive">1</property>
  <property name="set.test_audio">1</property>
  <property name="set.test_image">0</property>
 </producer>
 <producer id="producer131" in="00:00:00.000" out="00:00:01.080">
  <property name="length">28</property>
  <property name="eof">pause</property>
  <property name="resource">C:/Users/Ichsan/tugasakhir/dataset-traintest/train/run/5.avi</property>
  <property name="audio_index">-1</property>
  <property name="video_index">0</property>
  <property name="mute_on_pause">0</property>
  <property name="mlt_service">avformat-novalidate</property>
  <property name="seekable">1</property>
  <property name="aspect_ratio">1</property>
  <property name="kdenlive:clipname"/>
  <property name="kdenlive:folderid">11</property>
  <property name="kdenlive:id">57</property>
  <property name="kdenlive:file_size">4124672</property>
  <property name="kdenlive:file_hash">692355707ce0364c5fe2ca9dd14ef5e4</property>
  <property name="xml">was here</property>
  <property name="meta.media.nb_streams">1</property>
  <property name="meta.media.0.stream.type">video</property>
  <property name="meta.media.0.stream.frame_rate">25</property>
  <property name="meta.media.0.stream.sample_aspect_ratio">0</property>
  <property name="meta.media.0.codec.width">180</property>
  <property name="meta.media.0.codec.height">144</property>
  <property name="meta.media.0.codec.rotate">0</property>
  <property name="meta.media.0.codec.pix_fmt">bgr24</property>
  <property name="meta.media.0.codec.sample_aspect_ratio">0</property>
  <property name="meta.media.0.codec.colorspace">601</property>
  <property name="meta.media.0.codec.name">rawvideo</property>
  <property name="meta.media.0.codec.long_name">raw video</property>
  <property name="meta.media.0.codec.bit_rate">0</property>
  <property name="meta.attr.0.stream.title.markup">e:/stp/incoming_avis/subsampled/dynamic/lena_run1.avi</property>
  <property name="meta.media.sample_aspect_num">1</property>
  <property name="meta.media.sample_aspect_den">1</property>
  <property name="meta.media.frame_rate_num">25</property>
  <property name="meta.media.frame_rate_den">1</property>
  <property name="meta.media.colorspace">601</property>
  <property name="meta.media.color_trc">2</property>
  <property name="meta.media.has_b_frames">0</property>
  <property name="meta.media.width">180</property>
  <property name="meta.media.height">144</property>
  <property name="meta.media.color_range">mpeg</property>
  <property name="meta.media.top_field_first">0</property>
  <property name="meta.media.progressive">1</property>
  <property name="set.test_audio">1</property>
  <property name="set.test_image">0</property>
 </producer>
 <producer id="producer132" in="00:00:00.000" out="00:00:02.240">
  <property name="length">57</property>
  <property name="eof">pause</property>
  <property name="resource">C:/Users/Ichsan/tugasakhir/dataset-traintest/train/skip/0.avi</property>
  <property name="audio_index">-1</property>
  <property name="video_index">0</property>
  <property name="mute_on_pause">0</property>
  <property name="mlt_service">avformat-novalidate</property>
  <property name="seekable">1</property>
  <property name="aspect_ratio">1</property>
  <property name="kdenlive:clipname"/>
  <property name="kdenlive:folderid">13</property>
  <property name="kdenlive:id">58</property>
  <property name="kdenlive:file_size">4435968</property>
  <property name="kdenlive:file_hash">db9622853b769c36832bac353c504732</property>
  <property name="xml">was here</property>
  <property name="meta.media.nb_streams">1</property>
  <property name="meta.media.0.stream.type">video</property>
  <property name="meta.media.0.stream.frame_rate">25</property>
  <property name="meta.media.0.stream.sample_aspect_ratio">0</property>
  <property name="meta.media.0.codec.width">180</property>
  <property name="meta.media.0.codec.height">144</property>
  <property name="meta.media.0.codec.rotate">0</property>
  <property name="meta.media.0.codec.pix_fmt">bgr24</property>
  <property name="meta.media.0.codec.sample_aspect_ratio">0</property>
  <property name="meta.media.0.codec.colorspace">601</property>
  <property name="meta.media.0.codec.name">rawvideo</property>
  <property name="meta.media.0.codec.long_name">raw video</property>
  <property name="meta.media.0.codec.bit_rate">15829714</property>
  <property name="meta.attr.0.stream.title.markup">e:/stp/incoming_avis/subsampled/daria_skip.avi</property>
  <property name="meta.media.sample_aspect_num">1</property>
  <property name="meta.media.sample_aspect_den">1</property>
  <property name="meta.media.frame_rate_num">25</property>
  <property name="meta.media.frame_rate_den">1</property>
  <property name="meta.media.colorspace">601</property>
  <property name="meta.media.color_trc">2</property>
  <property name="meta.media.has_b_frames">0</property>
  <property name="meta.media.width">180</property>
  <property name="meta.media.height">144</property>
  <property name="meta.media.color_range">mpeg</property>
  <property name="meta.media.top_field_first">0</property>
  <property name="meta.media.progressive">1</property>
  <property name="set.test_audio">1</property>
  <property name="set.test_image">0</property>
 </producer>
 <producer id="producer133" in="00:00:00.000" out="00:00:01.880">
  <property name="length">48</property>
  <property name="eof">pause</property>
  <property name="resource">C:/Users/Ichsan/tugasakhir/dataset-traintest/train/skip/1.avi</property>
  <property name="audio_index">-1</property>
  <property name="video_index">0</property>
  <property name="mute_on_pause">0</property>
  <property name="mlt_service">avformat-novalidate</property>
  <property name="seekable">1</property>
  <property name="aspect_ratio">1</property>
  <property name="kdenlive:clipname"/>
  <property name="kdenlive:folderid">13</property>
  <property name="kdenlive:id">59</property>
  <property name="kdenlive:file_size">3736064</property>
  <property name="kdenlive:file_hash">2549bf677aa71636fab34134fecbb5f0</property>
  <property name="xml">was here</property>
  <property name="meta.media.nb_streams">1</property>
  <property name="meta.media.0.stream.type">video</property>
  <property name="meta.media.0.stream.frame_rate">25</property>
  <property name="meta.media.0.stream.sample_aspect_ratio">0</property>
  <property name="meta.media.0.codec.width">180</property>
  <property name="meta.media.0.codec.height">144</property>
  <property name="meta.media.0.codec.rotate">0</property>
  <property name="meta.media.0.codec.pix_fmt">bgr24</property>
  <property name="meta.media.0.codec.sample_aspect_ratio">0</property>
  <property name="meta.media.0.codec.colorspace">601</property>
  <property name="meta.media.0.codec.name">rawvideo</property>
  <property name="meta.media.0.codec.long_name">raw video</property>
  <property name="meta.media.0.codec.bit_rate">15882894</property>
  <property name="meta.attr.0.stream.title.markup">e:/stp/incoming_avis/subsampled/denis_skip.avi</property>
  <property name="meta.media.sample_aspect_num">1</property>
  <property name="meta.media.sample_aspect_den">1</property>
  <property name="meta.media.frame_rate_num">25</property>
  <property name="meta.media.frame_rate_den">1</property>
  <property name="meta.media.colorspace">601</property>
  <property name="meta.media.color_trc">2</property>
  <property name="meta.media.has_b_frames">0</property>
  <property name="meta.media.width">180</property>
  <property name="meta.media.height">144</property>
  <property name="meta.media.color_range">mpeg</property>
  <property name="meta.media.top_field_first">0</property>
  <property name="meta.media.progressive">1</property>
  <property name="set.test_audio">1</property>
  <property name="set.test_image">0</property>
 </producer>
 <producer id="producer134" in="00:00:00.000" out="00:00:02.360">
  <property name="length">60</property>
  <property name="eof">pause</property>
  <property name="resource">C:/Users/Ichsan/tugasakhir/dataset-traintest/train/skip/2.avi</property>
  <property name="audio_index">-1</property>
  <property name="video_index">0</property>
  <property name="mute_on_pause">0</property>
  <property name="mlt_service">avformat-novalidate</property>
  <property name="seekable">1</property>
  <property name="aspect_ratio">1</property>
  <property name="kdenlive:clipname"/>
  <property name="kdenlive:folderid">13</property>
  <property name="kdenlive:id">60</property>
  <property name="kdenlive:file_size">4669440</property>
  <property name="kdenlive:file_hash">db64bfe65f28a0a992013064a3a38eba</property>
  <property name="xml">was here</property>
  <property name="meta.media.nb_streams">1</property>
  <property name="meta.media.0.stream.type">video</property>
  <property name="meta.media.0.stream.frame_rate">25</property>
  <property name="meta.media.0.stream.sample_aspect_ratio">0</property>
  <property name="meta.media.0.codec.width">180</property>
  <property name="meta.media.0.codec.height">144</property>
  <property name="meta.media.0.codec.rotate">0</property>
  <property name="meta.media.0.codec.pix_fmt">bgr24</property>
  <property name="meta.media.0.codec.sample_aspect_ratio">0</property>
  <property name="meta.media.0.codec.colorspace">601</property>
  <property name="meta.media.0.codec.name">rawvideo</property>
  <property name="meta.media.0.codec.long_name">raw video</property>
  <property name="meta.media.0.codec.bit_rate">15815593</property>
  <property name="meta.attr.0.stream.title.markup">q:\incoming_avis\subsampled\dynamic\eli_skip.avi</property>
  <property name="meta.media.sample_aspect_num">1</property>
  <property name="meta.media.sample_aspect_den">1</property>
  <property name="meta.media.frame_rate_num">25</property>
  <property name="meta.media.frame_rate_den">1</property>
  <property name="meta.media.colorspace">601</property>
  <property name="meta.media.color_trc">2</property>
  <property name="meta.media.has_b_frames">0</property>
  <property name="meta.media.width">180</property>
  <property name="meta.media.height">144</property>
  <property name="meta.media.color_range">mpeg</property>
  <property name="meta.media.top_field_first">0</property>
  <property name="meta.media.progressive">1</property>
  <property name="set.test_audio">1</property>
  <property name="set.test_image">0</property>
 </producer>
 <producer id="producer135" in="00:00:00.000" out="00:00:01.480">
  <property name="length">38</property>
  <property name="eof">pause</property>
  <property name="resource">C:/Users/Ichsan/tugasakhir/dataset-traintest/train/skip/3.avi</property>
  <property name="audio_index">-1</property>
  <property name="video_index">0</property>
  <property name="mute_on_pause">0</property>
  <property name="mlt_service">avformat-novalidate</property>
  <property name="seekable">1</property>
  <property name="aspect_ratio">1</property>
  <property name="kdenlive:clipname"/>
  <property name="kdenlive:folderid">13</property>
  <property name="kdenlive:id">61</property>
  <property name="kdenlive:file_size">2958336</property>
  <property name="kdenlive:file_hash">7f2152ee28874b6d8ff4956805740a8c</property>
  <property name="xml">was here</property>
  <property name="meta.media.nb_streams">1</property>
  <property name="meta.media.0.stream.type">video</property>
  <property name="meta.media.0.stream.frame_rate">25</property>
  <property name="meta.media.0.stream.sample_aspect_ratio">0</property>
  <property name="meta.media.0.codec.width">180</property>
  <property name="meta.media.0.codec.height">144</property>
  <property name="meta.media.0.codec.rotate">0</property>
  <property name="meta.media.0.codec.pix_fmt">bgr24</property>
  <property name="meta.media.0.codec.sample_aspect_ratio">0</property>
  <property name="meta.media.0.codec.colorspace">601</property>
  <property name="meta.media.0.codec.name">rawvideo</property>
  <property name="meta.media.0.codec.long_name">raw video</property>
  <property name="meta.media.0.codec.bit_rate">15972324</property>
  <property name="meta.attr.0.stream.title.markup">e:/stp/incoming_avis/subsampled/ido_skip.avi</property>
  <property name="meta.media.sample_aspect_num">1</property>
  <property name="meta.media.sample_aspect_den">1</property>
  <property name="meta.media.frame_rate_num">25</property>
  <property name="meta.media.frame_rate_den">1</property>
  <property name="meta.media.colorspace">601</property>
  <property name="meta.media.color_trc">2</property>
  <property name="meta.media.has_b_frames">0</property>
  <property name="meta.media.width">180</property>
  <property name="meta.media.height">144</property>
  <property name="meta.media.color_range">mpeg</property>
  <property name="meta.media.top_field_first">0</property>
  <property name="meta.media.progressive">1</property>
  <property name="set.test_audio">1</property>
  <property name="set.test_image">0</property>
 </producer>
 <producer id="producer136" in="00:00:00.000" out="00:00:01.520">
  <property name="length">39</property>
  <property name="eof">pause</property>
  <property name="resource">C:/Users/Ichsan/tugasakhir/dataset-traintest/train/skip/4.avi</property>
  <property name="audio_index">-1</property>
  <property name="video_index">0</property>
  <property name="mute_on_pause">0</property>
  <property name="mlt_service">avformat-novalidate</property>
  <property name="seekable">1</property>
  <property name="aspect_ratio">1</property>
  <property name="kdenlive:clipname"/>
  <property name="kdenlive:folderid">13</property>
  <property name="kdenlive:id">62</property>
  <property name="kdenlive:file_size">3035648</property>
  <property name="kdenlive:file_hash">df590e893bc87d272761119824650244</property>
  <property name="xml">was here</property>
  <property name="meta.media.nb_streams">1</property>
  <property name="meta.media.0.stream.type">video</property>
  <property name="meta.media.0.stream.frame_rate">25</property>
  <property name="meta.media.0.stream.sample_aspect_ratio">0</property>
  <property name="meta.media.0.codec.width">180</property>
  <property name="meta.media.0.codec.height">144</property>
  <property name="meta.media.0.codec.rotate">0</property>
  <property name="meta.media.0.codec.pix_fmt">bgr24</property>
  <property name="meta.media.0.codec.sample_aspect_ratio">0</property>
  <property name="meta.media.0.codec.colorspace">601</property>
  <property name="meta.media.0.codec.name">rawvideo</property>
  <property name="meta.media.0.codec.long_name">raw video</property>
  <property name="meta.media.0.codec.bit_rate">15961263</property>
  <property name="meta.attr.0.stream.title.markup">e:/stp/incoming_avis/subsampled/ira_skip.avi</property>
  <property name="meta.media.sample_aspect_num">1</property>
  <property name="meta.media.sample_aspect_den">1</property>
  <property name="meta.media.frame_rate_num">25</property>
  <property name="meta.media.frame_rate_den">1</property>
  <property name="meta.media.colorspace">601</property>
  <property name="meta.media.color_trc">2</property>
  <property name="meta.media.has_b_frames">0</property>
  <property name="meta.media.width">180</property>
  <property name="meta.media.height">144</property>
  <property name="meta.media.color_range">mpeg</property>
  <property name="meta.media.top_field_first">0</property>
  <property name="meta.media.progressive">1</property>
  <property name="set.test_audio">1</property>
  <property name="set.test_image">0</property>
 </producer>
 <producer id="producer137" in="00:00:00.000" out="00:00:02.200">
  <property name="length">56</property>
  <property name="eof">pause</property>
  <property name="resource">C:/Users/Ichsan/tugasakhir/dataset-traintest/train/skip/5.avi</property>
  <property name="audio_index">-1</property>
  <property name="video_index">0</property>
  <property name="mute_on_pause">0</property>
  <property name="mlt_service">avformat-novalidate</property>
  <property name="seekable">1</property>
  <property name="aspect_ratio">1</property>
  <property name="kdenlive:clipname"/>
  <property name="kdenlive:folderid">13</property>
  <property name="kdenlive:id">63</property>
  <property name="kdenlive:file_size">7236096</property>
  <property name="kdenlive:file_hash">bd7ccbe28679227ae62758f7d7baa784</property>
  <property name="xml">was here</property>
  <property name="meta.media.nb_streams">1</property>
  <property name="meta.media.0.stream.type">video</property>
  <property name="meta.media.0.stream.frame_rate">25</property>
  <property name="meta.media.0.stream.sample_aspect_ratio">0</property>
  <property name="meta.media.0.codec.width">180</property>
  <property name="meta.media.0.codec.height">144</property>
  <property name="meta.media.0.codec.rotate">0</property>
  <property name="meta.media.0.codec.pix_fmt">bgr24</property>
  <property name="meta.media.0.codec.sample_aspect_ratio">0</property>
  <property name="meta.media.0.codec.colorspace">601</property>
  <property name="meta.media.0.codec.name">rawvideo</property>
  <property name="meta.media.0.codec.long_name">raw video</property>
  <property name="meta.media.0.codec.bit_rate">0</property>
  <property name="meta.attr.0.stream.title.markup">e:/stp/incoming_avis/subsampled/dynamic/lena_skip1.avi</property>
  <property name="meta.media.sample_aspect_num">1</property>
  <property name="meta.media.sample_aspect_den">1</property>
  <property name="meta.media.frame_rate_num">25</property>
  <property name="meta.media.frame_rate_den">1</property>
  <property name="meta.media.colorspace">601</property>
  <property name="meta.media.color_trc">2</property>
  <property name="meta.media.has_b_frames">0</property>
  <property name="meta.media.width">180</property>
  <property name="meta.media.height">144</property>
  <property name="meta.media.color_range">mpeg</property>
  <property name="meta.media.top_field_first">0</property>
  <property name="meta.media.progressive">1</property>
  <property name="set.test_audio">1</property>
  <property name="set.test_image">0</property>
 </producer>
 <producer id="producer138" in="00:00:00.000" out="00:00:03.200">
  <property name="length">81</property>
  <property name="eof">pause</property>
  <property name="resource">C:/Users/Ichsan/tugasakhir/dataset-traintest/train/two-hands wave/0.avi</property>
  <property name="audio_index">-1</property>
  <property name="video_index">0</property>
  <property name="mute_on_pause">0</property>
  <property name="mlt_service">avformat-novalidate</property>
  <property name="seekable">1</property>
  <property name="aspect_ratio">1</property>
  <property name="kdenlive:clipname"/>
  <property name="kdenlive:folderid">14</property>
  <property name="kdenlive:id">64</property>
  <property name="kdenlive:file_size">6302720</property>
  <property name="kdenlive:file_hash">88dac733b10d151df5f868fc38cac4b2</property>
  <property name="xml">was here</property>
  <property name="meta.media.nb_streams">1</property>
  <property name="meta.media.0.stream.type">video</property>
  <property name="meta.media.0.stream.frame_rate">25</property>
  <property name="meta.media.0.stream.sample_aspect_ratio">0</property>
  <property name="meta.media.0.codec.width">180</property>
  <property name="meta.media.0.codec.height">144</property>
  <property name="meta.media.0.codec.rotate">0</property>
  <property name="meta.media.0.codec.pix_fmt">bgr24</property>
  <property name="meta.media.0.codec.sample_aspect_ratio">0</property>
  <property name="meta.media.0.codec.colorspace">601</property>
  <property name="meta.media.0.codec.name">rawvideo</property>
  <property name="meta.media.0.codec.long_name">raw video</property>
  <property name="meta.media.0.codec.bit_rate">15746400</property>
  <property name="meta.attr.0.stream.title.markup">e:/stp/incoming_avis/subsampled/daria_wave2.avi</property>
  <property name="meta.media.sample_aspect_num">1</property>
  <property name="meta.media.sample_aspect_den">1</property>
  <property name="meta.media.frame_rate_num">25</property>
  <property name="meta.media.frame_rate_den">1</property>
  <property name="meta.media.colorspace">601</property>
  <property name="meta.media.color_trc">2</property>
  <property name="meta.media.has_b_frames">0</property>
  <property name="meta.media.width">180</property>
  <property name="meta.media.height">144</property>
  <property name="meta.media.color_range">mpeg</property>
  <property name="meta.media.top_field_first">0</property>
  <property name="meta.media.progressive">1</property>
  <property name="set.test_audio">1</property>
  <property name="set.test_image">0</property>
 </producer>
 <producer id="producer139" in="00:00:00.000" out="00:00:02.000">
  <property name="length">51</property>
  <property name="eof">pause</property>
  <property name="resource">C:/Users/Ichsan/tugasakhir/dataset-traintest/train/two-hands wave/1.avi</property>
  <property name="audio_index">-1</property>
  <property name="video_index">0</property>
  <property name="mute_on_pause">0</property>
  <property name="mlt_service">avformat-novalidate</property>
  <property name="seekable">1</property>
  <property name="aspect_ratio">1</property>
  <property name="kdenlive:clipname"/>
  <property name="kdenlive:folderid">14</property>
  <property name="kdenlive:id">65</property>
  <property name="kdenlive:file_size">3969536</property>
  <property name="kdenlive:file_hash">c000f7b68321c3edcd72a429c872c938</property>
  <property name="xml">was here</property>
  <property name="meta.media.nb_streams">1</property>
  <property name="meta.media.0.stream.type">video</property>
  <property name="meta.media.0.stream.frame_rate">25</property>
  <property name="meta.media.0.stream.sample_aspect_ratio">0</property>
  <property name="meta.media.0.codec.width">180</property>
  <property name="meta.media.0.codec.height">144</property>
  <property name="meta.media.0.codec.rotate">0</property>
  <property name="meta.media.0.codec.pix_fmt">bgr24</property>
  <property name="meta.media.0.codec.sample_aspect_ratio">0</property>
  <property name="meta.media.0.codec.colorspace">601</property>
  <property name="meta.media.0.codec.name">rawvideo</property>
  <property name="meta.media.0.codec.long_name">raw video</property>
  <property name="meta.media.0.codec.bit_rate">15863040</property>
  <property name="meta.attr.0.stream.title.markup">e:/stp/incoming_avis/subsampled/denis_wave2.avi</property>
  <property name="meta.media.sample_aspect_num">1</property>
  <property name="meta.media.sample_aspect_den">1</property>
  <property name="meta.media.frame_rate_num">25</property>
  <property name="meta.media.frame_rate_den">1</property>
  <property name="meta.media.colorspace">601</property>
  <property name="meta.media.color_trc">2</property>
  <property name="meta.media.has_b_frames">0</property>
  <property name="meta.media.width">180</property>
  <property name="meta.media.height">144</property>
  <property name="meta.media.color_range">mpeg</property>
  <property name="meta.media.top_field_first">0</property>
  <property name="meta.media.progressive">1</property>
  <property name="set.test_audio">1</property>
  <property name="set.test_image">0</property>
 </producer>
 <producer id="producer140" in="00:00:00.000" out="00:00:02.120">
  <property name="length">54</property>
  <property name="eof">pause</property>
  <property name="resource">C:/Users/Ichsan/tugasakhir/dataset-traintest/train/two-hands wave/2.avi</property>
  <property name="audio_index">-1</property>
  <property name="video_index">0</property>
  <property name="mute_on_pause">0</property>
  <property name="mlt_service">avformat-novalidate</property>
  <property name="seekable">1</property>
  <property name="aspect_ratio">1</property>
  <property name="kdenlive:clipname"/>
  <property name="kdenlive:folderid">14</property>
  <property name="kdenlive:id">66</property>
  <property name="kdenlive:file_size">4202496</property>
  <property name="kdenlive:file_hash">5edbcf0bc43fc7540be7b385228b84bf</property>
  <property name="xml">was here</property>
  <property name="meta.media.nb_streams">1</property>
  <property name="meta.media.0.stream.type">video</property>
  <property name="meta.media.0.stream.frame_rate">25</property>
  <property name="meta.media.0.stream.sample_aspect_ratio">0</property>
  <property name="meta.media.0.codec.width">180</property>
  <property name="meta.media.0.codec.height">144</property>
  <property name="meta.media.0.codec.rotate">0</property>
  <property name="meta.media.0.codec.pix_fmt">bgr24</property>
  <property name="meta.media.0.codec.sample_aspect_ratio">0</property>
  <property name="meta.media.0.codec.colorspace">601</property>
  <property name="meta.media.0.codec.name">rawvideo</property>
  <property name="meta.media.0.codec.long_name">raw video</property>
  <property name="meta.media.0.codec.bit_rate">15845434</property>
  <property name="meta.attr.0.stream.title.markup">e:/stp/incoming_avis/subsampled/eli_wave2.avi</property>
  <property name="meta.media.sample_aspect_num">1</property>
  <property name="meta.media.sample_aspect_den">1</property>
  <property name="meta.media.frame_rate_num">25</property>
  <property name="meta.media.frame_rate_den">1</property>
  <property name="meta.media.colorspace">601</property>
  <property name="meta.media.color_trc">2</property>
  <property name="meta.media.has_b_frames">0</property>
  <property name="meta.media.width">180</property>
  <property name="meta.media.height">144</property>
  <property name="meta.media.color_range">mpeg</property>
  <property name="meta.media.top_field_first">0</property>
  <property name="meta.media.progressive">1</property>
  <property name="set.test_audio">1</property>
  <property name="set.test_image">0</property>
 </producer>
 <producer id="producer141" in="00:00:00.000" out="00:00:02.640">
  <property name="length">67</property>
  <property name="eof">pause</property>
  <property name="resource">C:/Users/Ichsan/tugasakhir/dataset-traintest/train/two-hands wave/3.avi</property>
  <property name="audio_index">-1</property>
  <property name="video_index">0</property>
  <property name="mute_on_pause">0</property>
  <property name="mlt_service">avformat-novalidate</property>
  <property name="seekable">1</property>
  <property name="aspect_ratio">1</property>
  <property name="kdenlive:clipname"/>
  <property name="kdenlive:folderid">14</property>
  <property name="kdenlive:id">67</property>
  <property name="kdenlive:file_size">5213696</property>
  <property name="kdenlive:file_hash">8a37a8724728899ef7336876afb8f768</property>
  <property name="xml">was here</property>
  <property name="meta.media.nb_streams">1</property>
  <property name="meta.media.0.stream.type">video</property>
  <property name="meta.media.0.stream.frame_rate">25</property>
  <property name="meta.media.0.stream.sample_aspect_ratio">0</property>
  <property name="meta.media.0.codec.width">180</property>
  <property name="meta.media.0.codec.height">144</property>
  <property name="meta.media.0.codec.rotate">0</property>
  <property name="meta.media.0.codec.pix_fmt">bgr24</property>
  <property name="meta.media.0.codec.sample_aspect_ratio">0</property>
  <property name="meta.media.0.codec.colorspace">601</property>
  <property name="meta.media.0.codec.name">rawvideo</property>
  <property name="meta.media.0.codec.long_name">raw video</property>
  <property name="meta.media.0.codec.bit_rate">15787636</property>
  <property name="meta.attr.0.stream.title.markup">e:/stp/incoming_avis/subsampled/ido_wave2.avi</property>
  <property name="meta.media.sample_aspect_num">1</property>
  <property name="meta.media.sample_aspect_den">1</property>
  <property name="meta.media.frame_rate_num">25</property>
  <property name="meta.media.frame_rate_den">1</property>
  <property name="meta.media.colorspace">601</property>
  <property name="meta.media.color_trc">2</property>
  <property name="meta.media.has_b_frames">0</property>
  <property name="meta.media.width">180</property>
  <property name="meta.media.height">144</property>
  <property name="meta.media.color_range">mpeg</property>
  <property name="meta.media.top_field_first">0</property>
  <property name="meta.media.progressive">1</property>
  <property name="set.test_audio">1</property>
  <property name="set.test_image">0</property>
 </producer>
 <producer id="producer142" in="00:00:00.000" out="00:00:04.520">
  <property name="length">114</property>
  <property name="eof">pause</property>
  <property name="resource">C:/Users/Ichsan/tugasakhir/dataset-traintest/train/two-hands wave/4.avi</property>
  <property name="audio_index">-1</property>
  <property name="video_index">0</property>
  <property name="mute_on_pause">0</property>
  <property name="mlt_service">avformat-novalidate</property>
  <property name="seekable">1</property>
  <property name="aspect_ratio">1</property>
  <property name="kdenlive:clipname"/>
  <property name="kdenlive:folderid">14</property>
  <property name="kdenlive:id">68</property>
  <property name="kdenlive:file_size">8869888</property>
  <property name="kdenlive:file_hash">46109a62e6c53e046ad854d3070491cb</property>
  <property name="xml">was here</property>
  <property name="meta.media.nb_streams">1</property>
  <property name="meta.media.0.stream.type">video</property>
  <property name="meta.media.0.stream.frame_rate">25</property>
  <property name="meta.media.0.stream.sample_aspect_ratio">0</property>
  <property name="meta.media.0.codec.width">180</property>
  <property name="meta.media.0.codec.height">144</property>
  <property name="meta.media.0.codec.rotate">0</property>
  <property name="meta.media.0.codec.pix_fmt">bgr24</property>
  <property name="meta.media.0.codec.sample_aspect_ratio">0</property>
  <property name="meta.media.0.codec.colorspace">601</property>
  <property name="meta.media.0.codec.name">rawvideo</property>
  <property name="meta.media.0.codec.long_name">raw video</property>
  <property name="meta.media.0.codec.bit_rate">15689628</property>
  <property name="meta.attr.0.stream.title.markup">e:/stp/incoming_avis/subsampled/ira_wave2.avi</property>
  <property name="meta.media.sample_aspect_num">1</property>
  <property name="meta.media.sample_aspect_den">1</property>
  <property name="meta.media.frame_rate_num">25</property>
  <property name="meta.media.frame_rate_den">1</property>
  <property name="meta.media.colorspace">601</property>
  <property name="meta.media.color_trc">2</property>
  <property name="meta.media.has_b_frames">0</property>
  <property name="meta.media.width">180</property>
  <property name="meta.media.height">144</property>
  <property name="meta.media.color_range">mpeg</property>
  <property name="meta.media.top_field_first">0</property>
  <property name="meta.media.progressive">1</property>
  <property name="set.test_audio">1</property>
  <property name="set.test_image">0</property>
 </producer>
 <producer id="producer143" in="00:00:00.000" out="00:00:03.120">
  <property name="length">79</property>
  <property name="eof">pause</property>
  <property name="resource">C:/Users/Ichsan/tugasakhir/dataset-traintest/train/two-hands wave/5.avi</property>
  <property name="audio_index">-1</property>
  <property name="video_index">0</property>
  <property name="mute_on_pause">0</property>
  <property name="mlt_service">avformat-novalidate</property>
  <property name="seekable">1</property>
  <property name="aspect_ratio">1</property>
  <property name="kdenlive:clipname"/>
  <property name="kdenlive:folderid">14</property>
  <property name="kdenlive:id">69</property>
  <property name="kdenlive:file_size">6147072</property>
  <property name="kdenlive:file_hash">4d224056935e0dfbd795a9233f6ea1b3</property>
  <property name="xml">was here</property>
  <property name="meta.media.nb_streams">1</property>
  <property name="meta.media.0.stream.type">video</property>
  <property name="meta.media.0.stream.frame_rate">25</property>
  <property name="meta.media.0.stream.sample_aspect_ratio">0</property>
  <property name="meta.media.0.codec.width">180</property>
  <property name="meta.media.0.codec.height">144</property>
  <property name="meta.media.0.codec.rotate">0</property>
  <property name="meta.media.0.codec.pix_fmt">bgr24</property>
  <property name="meta.media.0.codec.sample_aspect_ratio">0</property>
  <property name="meta.media.0.codec.colorspace">601</property>
  <property name="meta.media.0.codec.name">rawvideo</property>
  <property name="meta.media.0.codec.long_name">raw video</property>
  <property name="meta.media.0.codec.bit_rate">15751385</property>
  <property name="meta.attr.0.stream.title.markup">e:/stp/incoming_avis/subsampled/lena_wave2.avi</property>
  <property name="meta.media.sample_aspect_num">1</property>
  <property name="meta.media.sample_aspect_den">1</property>
  <property name="meta.media.frame_rate_num">25</property>
  <property name="meta.media.frame_rate_den">1</property>
  <property name="meta.media.colorspace">601</property>
  <property name="meta.media.color_trc">2</property>
  <property name="meta.media.has_b_frames">0</property>
  <property name="meta.media.width">180</property>
  <property name="meta.media.height">144</property>
  <property name="meta.media.color_range">mpeg</property>
  <property name="meta.media.top_field_first">0</property>
  <property name="meta.media.progressive">1</property>
  <property name="set.test_audio">1</property>
  <property name="set.test_image">0</property>
 </producer>
 <producer id="producer144" in="00:00:00.000" out="00:00:03.320">
  <property name="length">84</property>
  <property name="eof">pause</property>
  <property name="resource">C:/Users/Ichsan/tugasakhir/dataset-traintest/train/walk/0.avi</property>
  <property name="audio_index">-1</property>
  <property name="video_index">0</property>
  <property name="mute_on_pause">0</property>
  <property name="mlt_service">avformat-novalidate</property>
  <property name="seekable">1</property>
  <property name="aspect_ratio">1</property>
  <property name="kdenlive:clipname"/>
  <property name="kdenlive:folderid">15</property>
  <property name="kdenlive:id">70</property>
  <property name="kdenlive:file_size">6536192</property>
  <property name="kdenlive:file_hash">017b35dcae763c80788ba652e55777ea</property>
  <property name="xml">was here</property>
  <property name="meta.media.nb_streams">1</property>
  <property name="meta.media.0.stream.type">video</property>
  <property name="meta.media.0.stream.frame_rate">25</property>
  <property name="meta.media.0.stream.sample_aspect_ratio">0</property>
  <property name="meta.media.0.codec.width">180</property>
  <property name="meta.media.0.codec.height">144</property>
  <property name="meta.media.0.codec.rotate">0</property>
  <property name="meta.media.0.codec.pix_fmt">bgr24</property>
  <property name="meta.media.0.codec.sample_aspect_ratio">0</property>
  <property name="meta.media.0.codec.colorspace">601</property>
  <property name="meta.media.0.codec.name">rawvideo</property>
  <property name="meta.media.0.codec.long_name">raw video</property>
  <property name="meta.media.0.codec.bit_rate">15739373</property>
  <property name="meta.attr.0.stream.title.markup">e:/stp/incoming_avis/subsampled/daria_walk.avi</property>
  <property name="meta.media.sample_aspect_num">1</property>
  <property name="meta.media.sample_aspect_den">1</property>
  <property name="meta.media.frame_rate_num">25</property>
  <property name="meta.media.frame_rate_den">1</property>
  <property name="meta.media.colorspace">601</property>
  <property name="meta.media.color_trc">2</property>
  <property name="meta.media.has_b_frames">0</property>
  <property name="meta.media.width">180</property>
  <property name="meta.media.height">144</property>
  <property name="meta.media.color_range">mpeg</property>
  <property name="meta.media.top_field_first">0</property>
  <property name="meta.media.progressive">1</property>
  <property name="set.test_audio">1</property>
  <property name="set.test_image">0</property>
 </producer>
 <producer id="producer145" in="00:00:00.000" out="00:00:02.680">
  <property name="length">68</property>
  <property name="eof">pause</property>
  <property name="resource">C:/Users/Ichsan/tugasakhir/dataset-traintest/train/walk/1.avi</property>
  <property name="audio_index">-1</property>
  <property name="video_index">0</property>
  <property name="mute_on_pause">0</property>
  <property name="mlt_service">avformat-novalidate</property>
  <property name="seekable">1</property>
  <property name="aspect_ratio">1</property>
  <property name="kdenlive:clipname"/>
  <property name="kdenlive:folderid">15</property>
  <property name="kdenlive:id">71</property>
  <property name="kdenlive:file_size">5291520</property>
  <property name="kdenlive:file_hash">6bc8d7a7d30bed29b92f244cb7305122</property>
  <property name="xml">was here</property>
  <property name="meta.media.nb_streams">1</property>
  <property name="meta.media.0.stream.type">video</property>
  <property name="meta.media.0.stream.frame_rate">25</property>
  <property name="meta.media.0.stream.sample_aspect_ratio">0</property>
  <property name="meta.media.0.codec.width">180</property>
  <property name="meta.media.0.codec.height">144</property>
  <property name="meta.media.0.codec.rotate">0</property>
  <property name="meta.media.0.codec.pix_fmt">bgr24</property>
  <property name="meta.media.0.codec.sample_aspect_ratio">0</property>
  <property name="meta.media.0.codec.colorspace">601</property>
  <property name="meta.media.0.codec.name">rawvideo</property>
  <property name="meta.media.0.codec.long_name">raw video</property>
  <property name="meta.media.0.codec.bit_rate">15784119</property>
  <property name="meta.attr.0.stream.title.markup">e:/stp/incoming_avis/subsampled/denis_walk.avi</property>
  <property name="meta.media.sample_aspect_num">1</property>
  <property name="meta.media.sample_aspect_den">1</property>
  <property name="meta.media.frame_rate_num">25</property>
  <property name="meta.media.frame_rate_den">1</property>
  <property name="meta.media.colorspace">601</property>
  <property name="meta.media.color_trc">2</property>
  <property name="meta.media.has_b_frames">0</property>
  <property name="meta.media.width">180</property>
  <property name="meta.media.height">144</property>
  <property name="meta.media.color_range">mpeg</property>
  <property name="meta.media.top_field_first">0</property>
  <property name="meta.media.progressive">1</property>
  <property name="set.test_audio">1</property>
  <property name="set.test_image">0</property>
 </producer>
 <producer id="producer146" in="00:00:00.000" out="00:00:02.840">
  <property name="length">72</property>
  <property name="eof">pause</property>
  <property name="resource">C:/Users/Ichsan/tugasakhir/dataset-traintest/train/walk/2.avi</property>
  <property name="audio_index">-1</property>
  <property name="video_index">0</property>
  <property name="mute_on_pause">0</property>
  <property name="mlt_service">avformat-novalidate</property>
  <property name="seekable">1</property>
  <property name="aspect_ratio">1</property>
  <property name="kdenlive:clipname"/>
  <property name="kdenlive:folderid">15</property>
  <property name="kdenlive:id">72</property>
  <property name="kdenlive:file_size">7936512</property>
  <property name="kdenlive:file_hash">553626d2126c7849660be361719fb318</property>
  <property name="xml">was here</property>
  <property name="meta.media.nb_streams">1</property>
  <property name="meta.media.0.stream.type">video</property>
  <property name="meta.media.0.stream.frame_rate">25</property>
  <property name="meta.media.0.stream.sample_aspect_ratio">0</property>
  <property name="meta.media.0.codec.width">180</property>
  <property name="meta.media.0.codec.height">144</property>
  <property name="meta.media.0.codec.rotate">0</property>
  <property name="meta.media.0.codec.pix_fmt">bgr24</property>
  <property name="meta.media.0.codec.sample_aspect_ratio">0</property>
  <property name="meta.media.0.codec.colorspace">601</property>
  <property name="meta.media.0.codec.name">rawvideo</property>
  <property name="meta.media.0.codec.long_name">raw video</property>
  <property name="meta.media.0.codec.bit_rate">0</property>
  <property name="meta.attr.0.stream.title.markup">e:/stp/incoming_avis/subsampled/dynamic/eli_walk.avi</property>
  <property name="meta.media.sample_aspect_num">1</property>
  <property name="meta.media.sample_aspect_den">1</property>
  <property name="meta.media.frame_rate_num">25</property>
  <property name="meta.media.frame_rate_den">1</property>
  <property name="meta.media.colorspace">601</property>
  <property name="meta.media.color_trc">2</property>
  <property name="meta.media.has_b_frames">0</property>
  <property name="meta.media.width">180</property>
  <property name="meta.media.height">144</property>
  <property name="meta.media.color_range">mpeg</property>
  <property name="meta.media.top_field_first">0</property>
  <property name="meta.media.progressive">1</property>
  <property name="set.test_audio">1</property>
  <property name="set.test_image">0</property>
  <filter id="filter8">
   <property name="rotate_center">1</property>
   <property name="mlt_service">qtblend</property>
   <property name="kdenlive_id">qtblend</property>
   <property name="rect">00:00:00.000=0 0 180 144 1.000000</property>
   <property name="rotation">00:00:00.000=0</property>
   <property name="compositing">0</property>
   <property name="distort">0</property>
  </filter>
 </producer>
 <producer id="producer147" in="00:00:00.000" out="00:00:01.680">
  <property name="length">43</property>
  <property name="eof">pause</property>
  <property name="resource">C:/Users/Ichsan/tugasakhir/dataset-traintest/train/walk/3.avi</property>
  <property name="audio_index">-1</property>
  <property name="video_index">0</property>
  <property name="mute_on_pause">0</property>
  <property name="mlt_service">avformat-novalidate</property>
  <property name="seekable">1</property>
  <property name="aspect_ratio">1</property>
  <property name="kdenlive:clipname"/>
  <property name="kdenlive:folderid">15</property>
  <property name="kdenlive:id">73</property>
  <property name="kdenlive:file_size">3346944</property>
  <property name="kdenlive:file_hash">78a81b94557157cd14c260e5e2e7295f</property>
  <property name="xml">was here</property>
  <property name="meta.media.nb_streams">1</property>
  <property name="meta.media.0.stream.type">video</property>
  <property name="meta.media.0.stream.frame_rate">25</property>
  <property name="meta.media.0.stream.sample_aspect_ratio">0</property>
  <property name="meta.media.0.codec.width">180</property>
  <property name="meta.media.0.codec.height">144</property>
  <property name="meta.media.0.codec.rotate">0</property>
  <property name="meta.media.0.codec.pix_fmt">bgr24</property>
  <property name="meta.media.0.codec.sample_aspect_ratio">0</property>
  <property name="meta.media.0.codec.colorspace">601</property>
  <property name="meta.media.0.codec.name">rawvideo</property>
  <property name="meta.media.0.codec.long_name">raw video</property>
  <property name="meta.media.0.codec.bit_rate">15922286</property>
  <property name="meta.attr.0.stream.title.markup">e:/stp/incoming_avis/subsampled/ido_walk.avi</property>
  <property name="meta.media.sample_aspect_num">1</property>
  <property name="meta.media.sample_aspect_den">1</property>
  <property name="meta.media.frame_rate_num">25</property>
  <property name="meta.media.frame_rate_den">1</property>
  <property name="meta.media.colorspace">601</property>
  <property name="meta.media.color_trc">2</property>
  <property name="meta.media.has_b_frames">0</property>
  <property name="meta.media.width">180</property>
  <property name="meta.media.height">144</property>
  <property name="meta.media.color_range">mpeg</property>
  <property name="meta.media.top_field_first">0</property>
  <property name="meta.media.progressive">1</property>
  <property name="set.test_audio">1</property>
  <property name="set.test_image">0</property>
 </producer>
 <producer id="producer148" in="00:00:00.000" out="00:00:03.480">
  <property name="length">88</property>
  <property name="eof">pause</property>
  <property name="resource">C:/Users/Ichsan/tugasakhir/dataset-traintest/train/walk/4.avi</property>
  <property name="audio_index">-1</property>
  <property name="video_index">0</property>
  <property name="mute_on_pause">0</property>
  <property name="mlt_service">avformat-novalidate</property>
  <property name="seekable">1</property>
  <property name="aspect_ratio">1</property>
  <property name="kdenlive:clipname"/>
  <property name="kdenlive:folderid">15</property>
  <property name="kdenlive:id">74</property>
  <property name="kdenlive:file_size">6847488</property>
  <property name="kdenlive:file_hash">5527dec35f308a5d30a64dba43b26c0b</property>
  <property name="xml">was here</property>
  <property name="meta.media.nb_streams">1</property>
  <property name="meta.media.0.stream.type">video</property>
  <property name="meta.media.0.stream.frame_rate">25</property>
  <property name="meta.media.0.stream.sample_aspect_ratio">0</property>
  <property name="meta.media.0.codec.width">180</property>
  <property name="meta.media.0.codec.height">144</property>
  <property name="meta.media.0.codec.rotate">0</property>
  <property name="meta.media.0.codec.pix_fmt">bgr24</property>
  <property name="meta.media.0.codec.sample_aspect_ratio">0</property>
  <property name="meta.media.0.codec.colorspace">601</property>
  <property name="meta.media.0.codec.name">rawvideo</property>
  <property name="meta.media.0.codec.long_name">raw video</property>
  <property name="meta.media.0.codec.bit_rate">15730759</property>
  <property name="meta.attr.0.stream.title.markup">e:/stp/incoming_avis/subsampled/ira_walk.avi</property>
  <property name="meta.media.sample_aspect_num">1</property>
  <property name="meta.media.sample_aspect_den">1</property>
  <property name="meta.media.frame_rate_num">25</property>
  <property name="meta.media.frame_rate_den">1</property>
  <property name="meta.media.colorspace">601</property>
  <property name="meta.media.color_trc">2</property>
  <property name="meta.media.has_b_frames">0</property>
  <property name="meta.media.width">180</property>
  <property name="meta.media.height">144</property>
  <property name="meta.media.color_range">mpeg</property>
  <property name="meta.media.top_field_first">0</property>
  <property name="meta.media.progressive">1</property>
  <property name="set.test_audio">1</property>
  <property name="set.test_image">0</property>
 </producer>
 <producer id="producer149" in="00:00:00.000" out="00:00:02.880">
  <property name="length">73</property>
  <property name="eof">pause</property>
  <property name="resource">C:/Users/Ichsan/tugasakhir/dataset-traintest/train/walk/5.avi</property>
  <property name="audio_index">-1</property>
  <property name="video_index">0</property>
  <property name="mute_on_pause">0</property>
  <property name="mlt_service">avformat-novalidate</property>
  <property name="seekable">1</property>
  <property name="aspect_ratio">1</property>
  <property name="kdenlive:clipname"/>
  <property name="kdenlive:folderid">15</property>
  <property name="kdenlive:id">75</property>
  <property name="kdenlive:file_size">9336320</property>
  <property name="kdenlive:file_hash">ccf29dae2a9d64d3dbf2c21399185e6a</property>
  <property name="xml">was here</property>
  <property name="meta.media.nb_streams">1</property>
  <property name="meta.media.0.stream.type">video</property>
  <property name="meta.media.0.stream.frame_rate">25</property>
  <property name="meta.media.0.stream.sample_aspect_ratio">0</property>
  <property name="meta.media.0.codec.width">180</property>
  <property name="meta.media.0.codec.height">144</property>
  <property name="meta.media.0.codec.rotate">0</property>
  <property name="meta.media.0.codec.pix_fmt">bgr24</property>
  <property name="meta.media.0.codec.sample_aspect_ratio">0</property>
  <property name="meta.media.0.codec.colorspace">601</property>
  <property name="meta.media.0.codec.name">rawvideo</property>
  <property name="meta.media.0.codec.long_name">raw video</property>
  <property name="meta.media.0.codec.bit_rate">0</property>
  <property name="meta.attr.0.stream.title.markup">q:/incoming_avis/subsampled/dynamic/lena_walk1.avi</property>
  <property name="meta.media.sample_aspect_num">1</property>
  <property name="meta.media.sample_aspect_den">1</property>
  <property name="meta.media.frame_rate_num">25</property>
  <property name="meta.media.frame_rate_den">1</property>
  <property name="meta.media.colorspace">601</property>
  <property name="meta.media.color_trc">2</property>
  <property name="meta.media.has_b_frames">0</property>
  <property name="meta.media.width">180</property>
  <property name="meta.media.height">144</property>
  <property name="meta.media.color_range">mpeg</property>
  <property name="meta.media.top_field_first">0</property>
  <property name="meta.media.progressive">1</property>
  <property name="set.test_audio">1</property>
  <property name="set.test_image">0</property>
 </producer>
 <producer id="producer150" in="00:00:00.000" out="00:00:02.480">
  <property name="length">63</property>
  <property name="eof">pause</property>
  <property name="resource">C:/Users/Ichsan/tugasakhir/dataset-traintest/test/bend/0.avi</property>
  <property name="audio_index">-1</property>
  <property name="video_index">0</property>
  <property name="mute_on_pause">0</property>
  <property name="mlt_service">avformat-novalidate</property>
  <property name="seekable">1</property>
  <property name="aspect_ratio">1</property>
  <property name="kdenlive:clipname"/>
  <property name="kdenlive:folderid">77</property>
  <property name="kdenlive:id">78</property>
  <property name="kdenlive:file_size">4902912</property>
  <property name="kdenlive:file_hash">828a1ba25ce02a59fc665d146d052817</property>
  <property name="xml">was here</property>
  <property name="meta.media.nb_streams">1</property>
  <property name="meta.media.0.stream.type">video</property>
  <property name="meta.media.0.stream.frame_rate">25</property>
  <property name="meta.media.0.stream.sample_aspect_ratio">0</property>
  <property name="meta.media.0.codec.width">180</property>
  <property name="meta.media.0.codec.height">144</property>
  <property name="meta.media.0.codec.rotate">0</property>
  <property name="meta.media.0.codec.pix_fmt">bgr24</property>
  <property name="meta.media.0.codec.sample_aspect_ratio">0</property>
  <property name="meta.media.0.codec.colorspace">601</property>
  <property name="meta.media.0.codec.name">rawvideo</property>
  <property name="meta.media.0.codec.long_name">raw video</property>
  <property name="meta.media.0.codec.bit_rate">15802839</property>
  <property name="meta.attr.0.stream.title.markup">e:/stp/incoming_avis/subsampled/lyova_bend.avi</property>
  <property name="meta.media.sample_aspect_num">1</property>
  <property name="meta.media.sample_aspect_den">1</property>
  <property name="meta.media.frame_rate_num">25</property>
  <property name="meta.media.frame_rate_den">1</property>
  <property name="meta.media.colorspace">601</property>
  <property name="meta.media.color_trc">2</property>
  <property name="meta.media.has_b_frames">0</property>
  <property name="meta.media.width">180</property>
  <property name="meta.media.height">144</property>
  <property name="meta.media.color_range">mpeg</property>
  <property name="meta.media.top_field_first">0</property>
  <property name="meta.media.progressive">1</property>
  <property name="set.test_audio">1</property>
  <property name="set.test_image">0</property>
 </producer>
 <producer id="producer151" in="00:00:00.000" out="00:00:02.400">
  <property name="length">61</property>
  <property name="eof">pause</property>
  <property name="resource">C:/Users/Ichsan/tugasakhir/dataset-traintest/test/bend/1.avi</property>
  <property name="audio_index">-1</property>
  <property name="video_index">0</property>
  <property name="mute_on_pause">0</property>
  <property name="mlt_service">avformat-novalidate</property>
  <property name="seekable">1</property>
  <property name="aspect_ratio">1</property>
  <property name="kdenlive:clipname"/>
  <property name="kdenlive:folderid">77</property>
  <property name="kdenlive:id">79</property>
  <property name="kdenlive:file_size">4747264</property>
  <property name="kdenlive:file_hash">86c1ae99cf3d8d8d78c67d0c0bb3ce38</property>
  <property name="xml">was here</property>
  <property name="meta.media.nb_streams">1</property>
  <property name="meta.media.0.stream.type">video</property>
  <property name="meta.media.0.stream.frame_rate">25</property>
  <property name="meta.media.0.stream.sample_aspect_ratio">0</property>
  <property name="meta.media.0.codec.width">180</property>
  <property name="meta.media.0.codec.height">144</property>
  <property name="meta.media.0.codec.rotate">0</property>
  <property name="meta.media.0.codec.pix_fmt">bgr24</property>
  <property name="meta.media.0.codec.sample_aspect_ratio">0</property>
  <property name="meta.media.0.codec.colorspace">601</property>
  <property name="meta.media.0.codec.name">rawvideo</property>
  <property name="meta.media.0.codec.long_name">raw video</property>
  <property name="meta.media.0.codec.bit_rate">15811200</property>
  <property name="meta.attr.0.stream.title.markup">e:/stp/incoming_avis/subsampled/moshe_bend.avi</property>
  <property name="meta.media.sample_aspect_num">1</property>
  <property name="meta.media.sample_aspect_den">1</property>
  <property name="meta.media.frame_rate_num">25</property>
  <property name="meta.media.frame_rate_den">1</property>
  <property name="meta.media.colorspace">601</property>
  <property name="meta.media.color_trc">2</property>
  <property name="meta.media.has_b_frames">0</property>
  <property name="meta.media.width">180</property>
  <property name="meta.media.height">144</property>
  <property name="meta.media.color_range">mpeg</property>
  <property name="meta.media.top_field_first">0</property>
  <property name="meta.media.progressive">1</property>
  <property name="set.test_audio">1</property>
  <property name="set.test_image">0</property>
 </producer>
 <producer id="producer152" in="00:00:00.000" out="00:00:02.400">
  <property name="length">61</property>
  <property name="eof">pause</property>
  <property name="resource">C:/Users/Ichsan/tugasakhir/dataset-traintest/test/bend/2.avi</property>
  <property name="audio_index">-1</property>
  <property name="video_index">0</property>
  <property name="mute_on_pause">0</property>
  <property name="mlt_service">avformat-novalidate</property>
  <property name="seekable">1</property>
  <property name="aspect_ratio">1</property>
  <property name="kdenlive:clipname"/>
  <property name="kdenlive:folderid">77</property>
  <property name="kdenlive:id">80</property>
  <property name="kdenlive:file_size">4747264</property>
  <property name="kdenlive:file_hash">0763250e326352735dbafbf43eb03d39</property>
  <property name="xml">was here</property>
  <property name="meta.media.nb_streams">1</property>
  <property name="meta.media.0.stream.type">video</property>
  <property name="meta.media.0.stream.frame_rate">25</property>
  <property name="meta.media.0.stream.sample_aspect_ratio">0</property>
  <property name="meta.media.0.codec.width">180</property>
  <property name="meta.media.0.codec.height">144</property>
  <property name="meta.media.0.codec.rotate">0</property>
  <property name="meta.media.0.codec.pix_fmt">bgr24</property>
  <property name="meta.media.0.codec.sample_aspect_ratio">0</property>
  <property name="meta.media.0.codec.colorspace">601</property>
  <property name="meta.media.0.codec.name">rawvideo</property>
  <property name="meta.media.0.codec.long_name">raw video</property>
  <property name="meta.media.0.codec.bit_rate">15811200</property>
  <property name="meta.attr.0.stream.title.markup">e:/stp/incoming_avis/subsampled/shahar_bend.avi</property>
  <property name="meta.media.sample_aspect_num">1</property>
  <property name="meta.media.sample_aspect_den">1</property>
  <property name="meta.media.frame_rate_num">25</property>
  <property name="meta.media.frame_rate_den">1</property>
  <property name="meta.media.colorspace">601</property>
  <property name="meta.media.color_trc">2</property>
  <property name="meta.media.has_b_frames">0</property>
  <property name="meta.media.width">180</property>
  <property name="meta.media.height">144</property>
  <property name="meta.media.color_range">mpeg</property>
  <property name="meta.media.top_field_first">0</property>
  <property name="meta.media.progressive">1</property>
  <property name="set.test_audio">1</property>
  <property name="set.test_image">0</property>
 </producer>
 <producer id="producer153" in="00:00:00.000" out="00:00:01.520">
  <property name="length">39</property>
  <property name="eof">pause</property>
  <property name="resource">C:/Users/Ichsan/tugasakhir/dataset-traintest/test/gallop sideways/0.avi</property>
  <property name="audio_index">-1</property>
  <property name="video_index">0</property>
  <property name="mute_on_pause">0</property>
  <property name="mlt_service">avformat-novalidate</property>
  <property name="seekable">1</property>
  <property name="aspect_ratio">1</property>
  <property name="kdenlive:clipname"/>
  <property name="kdenlive:folderid">81</property>
  <property name="kdenlive:id">82</property>
  <property name="kdenlive:file_size">3035648</property>
  <property name="kdenlive:file_hash">daef36581231c5966ab7211ecb42211a</property>
  <property name="xml">was here</property>
  <property name="meta.media.nb_streams">1</property>
  <property name="meta.media.0.stream.type">video</property>
  <property name="meta.media.0.stream.frame_rate">25</property>
  <property name="meta.media.0.stream.sample_aspect_ratio">0</property>
  <property name="meta.media.0.codec.width">180</property>
  <property name="meta.media.0.codec.height">144</property>
  <property name="meta.media.0.codec.rotate">0</property>
  <property name="meta.media.0.codec.pix_fmt">bgr24</property>
  <property name="meta.media.0.codec.sample_aspect_ratio">0</property>
  <property name="meta.media.0.codec.colorspace">601</property>
  <property name="meta.media.0.codec.name">rawvideo</property>
  <property name="meta.media.0.codec.long_name">raw video</property>
  <property name="meta.media.0.codec.bit_rate">15961263</property>
  <property name="meta.attr.0.stream.title.markup">e:/stp/incoming_avis/subsampled/lyova_side.avi</property>
  <property name="meta.media.sample_aspect_num">1</property>
  <property name="meta.media.sample_aspect_den">1</property>
  <property name="meta.media.frame_rate_num">25</property>
  <property name="meta.media.frame_rate_den">1</property>
  <property name="meta.media.colorspace">601</property>
  <property name="meta.media.color_trc">2</property>
  <property name="meta.media.has_b_frames">0</property>
  <property name="meta.media.width">180</property>
  <property name="meta.media.height">144</property>
  <property name="meta.media.color_range">mpeg</property>
  <property name="meta.media.top_field_first">0</property>
  <property name="meta.media.progressive">1</property>
  <property name="set.test_audio">1</property>
  <property name="set.test_image">0</property>
 </producer>
 <producer id="producer154" in="00:00:00.000" out="00:00:01.800">
  <property name="length">46</property>
  <property name="eof">pause</property>
  <property name="resource">C:/Users/Ichsan/tugasakhir/dataset-traintest/test/gallop sideways/1.avi</property>
  <property name="audio_index">-1</property>
  <property name="video_index">0</property>
  <property name="mute_on_pause">0</property>
  <property name="mlt_service">avformat-novalidate</property>
  <property name="seekable">1</property>
  <property name="aspect_ratio">1</property>
  <property name="kdenlive:clipname"/>
  <property name="kdenlive:folderid">81</property>
  <property name="kdenlive:id">83</property>
  <property name="kdenlive:file_size">3580416</property>
  <property name="kdenlive:file_hash">da7aa9d2d650054374fc8a1c089e860e</property>
  <property name="xml">was here</property>
  <property name="meta.media.nb_streams">1</property>
  <property name="meta.media.0.stream.type">video</property>
  <property name="meta.media.0.stream.frame_rate">25</property>
  <property name="meta.media.0.stream.sample_aspect_ratio">0</property>
  <property name="meta.media.0.codec.width">180</property>
  <property name="meta.media.0.codec.height">144</property>
  <property name="meta.media.0.codec.rotate">0</property>
  <property name="meta.media.0.codec.pix_fmt">bgr24</property>
  <property name="meta.media.0.codec.sample_aspect_ratio">0</property>
  <property name="meta.media.0.codec.colorspace">601</property>
  <property name="meta.media.0.codec.name">rawvideo</property>
  <property name="meta.media.0.codec.long_name">raw video</property>
  <property name="meta.media.0.codec.bit_rate">15897600</property>
  <property name="meta.attr.0.stream.title.markup">e:/stp/incoming_avis/subsampled/moshe_side.avi</property>
  <property name="meta.media.sample_aspect_num">1</property>
  <property name="meta.media.sample_aspect_den">1</property>
  <property name="meta.media.frame_rate_num">25</property>
  <property name="meta.media.frame_rate_den">1</property>
  <property name="meta.media.colorspace">601</property>
  <property name="meta.media.color_trc">2</property>
  <property name="meta.media.has_b_frames">0</property>
  <property name="meta.media.width">180</property>
  <property name="meta.media.height">144</property>
  <property name="meta.media.color_range">mpeg</property>
  <property name="meta.media.top_field_first">0</property>
  <property name="meta.media.progressive">1</property>
  <property name="set.test_audio">1</property>
  <property name="set.test_image">0</property>
 </producer>
 <producer id="producer155" in="00:00:00.000" out="00:00:01.680">
  <property name="length">43</property>
  <property name="eof">pause</property>
  <property name="resource">C:/Users/Ichsan/tugasakhir/dataset-traintest/test/gallop sideways/2.avi</property>
  <property name="audio_index">-1</property>
  <property name="video_index">0</property>
  <property name="mute_on_pause">0</property>
  <property name="mlt_service">avformat-novalidate</property>
  <property name="seekable">1</property>
  <property name="aspect_ratio">1</property>
  <property name="kdenlive:clipname"/>
  <property name="kdenlive:folderid">81</property>
  <property name="kdenlive:id">84</property>
  <property name="kdenlive:file_size">3346944</property>
  <property name="kdenlive:file_hash">0008e42931197719f3390f6303133869</property>
  <property name="xml">was here</property>
  <property name="meta.media.nb_streams">1</property>
  <property name="meta.media.0.stream.type">video</property>
  <property name="meta.media.0.stream.frame_rate">25</property>
  <property name="meta.media.0.stream.sample_aspect_ratio">0</property>
  <property name="meta.media.0.codec.width">180</property>
  <property name="meta.media.0.codec.height">144</property>
  <property name="meta.media.0.codec.rotate">0</property>
  <property name="meta.media.0.codec.pix_fmt">bgr24</property>
  <property name="meta.media.0.codec.sample_aspect_ratio">0</property>
  <property name="meta.media.0.codec.colorspace">601</property>
  <property name="meta.media.0.codec.name">rawvideo</property>
  <property name="meta.media.0.codec.long_name">raw video</property>
  <property name="meta.media.0.codec.bit_rate">15922286</property>
  <property name="meta.attr.0.stream.title.markup">e:/stp/incoming_avis/subsampled/shahar_side.avi</property>
  <property name="meta.media.sample_aspect_num">1</property>
  <property name="meta.media.sample_aspect_den">1</property>
  <property name="meta.media.frame_rate_num">25</property>
  <property name="meta.media.frame_rate_den">1</property>
  <property name="meta.media.colorspace">601</property>
  <property name="meta.media.color_trc">2</property>
  <property name="meta.media.has_b_frames">0</property>
  <property name="meta.media.width">180</property>
  <property name="meta.media.height">144</property>
  <property name="meta.media.color_range">mpeg</property>
  <property name="meta.media.top_field_first">0</property>
  <property name="meta.media.progressive">1</property>
  <property name="set.test_audio">1</property>
  <property name="set.test_image">0</property>
 </producer>
 <producer id="producer156" in="00:00:00.000" out="00:00:01.560">
  <property name="length">40</property>
  <property name="eof">pause</property>
  <property name="resource">C:/Users/Ichsan/tugasakhir/dataset-traintest/test/jump/0.avi</property>
  <property name="audio_index">-1</property>
  <property name="video_index">0</property>
  <property name="mute_on_pause">0</property>
  <property name="mlt_service">avformat-novalidate</property>
  <property name="seekable">1</property>
  <property name="aspect_ratio">1</property>
  <property name="kdenlive:clipname"/>
  <property name="kdenlive:folderid">85</property>
  <property name="kdenlive:id">86</property>
  <property name="kdenlive:file_size">3113472</property>
  <property name="kdenlive:file_hash">15b6510b3e536c97dc4449976e4c3118</property>
  <property name="xml">was here</property>
  <property name="meta.media.nb_streams">1</property>
  <property name="meta.media.0.stream.type">video</property>
  <property name="meta.media.0.stream.frame_rate">25</property>
  <property name="meta.media.0.stream.sample_aspect_ratio">0</property>
  <property name="meta.media.0.codec.width">180</property>
  <property name="meta.media.0.codec.height">144</property>
  <property name="meta.media.0.codec.rotate">0</property>
  <property name="meta.media.0.codec.pix_fmt">bgr24</property>
  <property name="meta.media.0.codec.sample_aspect_ratio">0</property>
  <property name="meta.media.0.codec.colorspace">601</property>
  <property name="meta.media.0.codec.name">rawvideo</property>
  <property name="meta.media.0.codec.long_name">raw video</property>
  <property name="meta.media.0.codec.bit_rate">15950769</property>
  <property name="meta.attr.0.stream.title.markup">e:/stp/incoming_avis/subsampled/lyova_jump.avi</property>
  <property name="meta.media.sample_aspect_num">1</property>
  <property name="meta.media.sample_aspect_den">1</property>
  <property name="meta.media.frame_rate_num">25</property>
  <property name="meta.media.frame_rate_den">1</property>
  <property name="meta.media.colorspace">601</property>
  <property name="meta.media.color_trc">2</property>
  <property name="meta.media.has_b_frames">0</property>
  <property name="meta.media.width">180</property>
  <property name="meta.media.height">144</property>
  <property name="meta.media.color_range">mpeg</property>
  <property name="meta.media.top_field_first">0</property>
  <property name="meta.media.progressive">1</property>
  <property name="set.test_audio">1</property>
  <property name="set.test_image">0</property>
 </producer>
 <producer id="producer157" in="00:00:00.000" out="00:00:01.520">
  <property name="length">39</property>
  <property name="eof">pause</property>
  <property name="resource">C:/Users/Ichsan/tugasakhir/dataset-traintest/test/jump/1.avi</property>
  <property name="audio_index">-1</property>
  <property name="video_index">0</property>
  <property name="mute_on_pause">0</property>
  <property name="mlt_service">avformat-novalidate</property>
  <property name="seekable">1</property>
  <property name="aspect_ratio">1</property>
  <property name="kdenlive:clipname"/>
  <property name="kdenlive:folderid">85</property>
  <property name="kdenlive:id">87</property>
  <property name="kdenlive:file_size">3035648</property>
  <property name="kdenlive:file_hash">dcf1e23a01c641ded27220f2afe3c03f</property>
  <property name="xml">was here</property>
  <property name="meta.media.nb_streams">1</property>
  <property name="meta.media.0.stream.type">video</property>
  <property name="meta.media.0.stream.frame_rate">25</property>
  <property name="meta.media.0.stream.sample_aspect_ratio">0</property>
  <property name="meta.media.0.codec.width">180</property>
  <property name="meta.media.0.codec.height">144</property>
  <property name="meta.media.0.codec.rotate">0</property>
  <property name="meta.media.0.codec.pix_fmt">bgr24</property>
  <property name="meta.media.0.codec.sample_aspect_ratio">0</property>
  <property name="meta.media.0.codec.colorspace">601</property>
  <property name="meta.media.0.codec.name">rawvideo</property>
  <property name="meta.media.0.codec.long_name">raw video</property>
  <property name="meta.media.0.codec.bit_rate">15961263</property>
  <property name="meta.attr.0.stream.title.markup">e:/stp/incoming_avis/subsampled/moshe_jump.avi</property>
  <property name="meta.media.sample_aspect_num">1</property>
  <property name="meta.media.sample_aspect_den">1</property>
  <property name="meta.media.frame_rate_num">25</property>
  <property name="meta.media.frame_rate_den">1</property>
  <property name="meta.media.colorspace">601</property>
  <property name="meta.media.color_trc">2</property>
  <property name="meta.media.has_b_frames">0</property>
  <property name="meta.media.width">180</property>
  <property name="meta.media.height">144</property>
  <property name="meta.media.color_range">mpeg</property>
  <property name="meta.media.top_field_first">0</property>
  <property name="meta.media.progressive">1</property>
  <property name="set.test_audio">1</property>
  <property name="set.test_image">0</property>
 </producer>
 <producer id="producer158" in="00:00:00.000" out="00:00:01.480">
  <property name="length">38</property>
  <property name="eof">pause</property>
  <property name="resource">C:/Users/Ichsan/tugasakhir/dataset-traintest/test/jump/2.avi</property>
  <property name="audio_index">-1</property>
  <property name="video_index">0</property>
  <property name="mute_on_pause">0</property>
  <property name="mlt_service">avformat-novalidate</property>
  <property name="seekable">1</property>
  <property name="aspect_ratio">1</property>
  <property name="kdenlive:clipname"/>
  <property name="kdenlive:folderid">85</property>
  <property name="kdenlive:id">88</property>
  <property name="kdenlive:file_size">2958336</property>
  <property name="kdenlive:file_hash">426e548392d93061139a57cace26a9a2</property>
  <property name="xml">was here</property>
  <property name="meta.media.nb_streams">1</property>
  <property name="meta.media.0.stream.type">video</property>
  <property name="meta.media.0.stream.frame_rate">25</property>
  <property name="meta.media.0.stream.sample_aspect_ratio">0</property>
  <property name="meta.media.0.codec.width">180</property>
  <property name="meta.media.0.codec.height">144</property>
  <property name="meta.media.0.codec.rotate">0</property>
  <property name="meta.media.0.codec.pix_fmt">bgr24</property>
  <property name="meta.media.0.codec.sample_aspect_ratio">0</property>
  <property name="meta.media.0.codec.colorspace">601</property>
  <property name="meta.media.0.codec.name">rawvideo</property>
  <property name="meta.media.0.codec.long_name">raw video</property>
  <property name="meta.media.0.codec.bit_rate">15972324</property>
  <property name="meta.attr.0.stream.title.markup">e:/stp/incoming_avis/subsampled/shahar_jump.avi</property>
  <property name="meta.media.sample_aspect_num">1</property>
  <property name="meta.media.sample_aspect_den">1</property>
  <property name="meta.media.frame_rate_num">25</property>
  <property name="meta.media.frame_rate_den">1</property>
  <property name="meta.media.colorspace">601</property>
  <property name="meta.media.color_trc">2</property>
  <property name="meta.media.has_b_frames">0</property>
  <property name="meta.media.width">180</property>
  <property name="meta.media.height">144</property>
  <property name="meta.media.color_range">mpeg</property>
  <property name="meta.media.top_field_first">0</property>
  <property name="meta.media.progressive">1</property>
  <property name="set.test_audio">1</property>
  <property name="set.test_image">0</property>
 </producer>
 <producer id="producer159" in="00:00:00.000" out="00:00:02.160">
  <property name="length">55</property>
  <property name="eof">pause</property>
  <property name="resource">C:/Users/Ichsan/tugasakhir/dataset-traintest/test/jump in place/0.avi</property>
  <property name="audio_index">-1</property>
  <property name="video_index">0</property>
  <property name="mute_on_pause">0</property>
  <property name="mlt_service">avformat-novalidate</property>
  <property name="seekable">1</property>
  <property name="aspect_ratio">1</property>
  <property name="kdenlive:clipname"/>
  <property name="kdenlive:folderid">89</property>
  <property name="kdenlive:id">90</property>
  <property name="kdenlive:file_size">4280320</property>
  <property name="kdenlive:file_hash">0aed5f78028f893b1311bed61ba7c291</property>
  <property name="xml">was here</property>
  <property name="meta.media.nb_streams">1</property>
  <property name="meta.media.0.stream.type">video</property>
  <property name="meta.media.0.stream.frame_rate">25</property>
  <property name="meta.media.0.stream.sample_aspect_ratio">0</property>
  <property name="meta.media.0.codec.width">180</property>
  <property name="meta.media.0.codec.height">144</property>
  <property name="meta.media.0.codec.rotate">0</property>
  <property name="meta.media.0.codec.pix_fmt">bgr24</property>
  <property name="meta.media.0.codec.sample_aspect_ratio">0</property>
  <property name="meta.media.0.codec.colorspace">601</property>
  <property name="meta.media.0.codec.name">rawvideo</property>
  <property name="meta.media.0.codec.long_name">raw video</property>
  <property name="meta.media.0.codec.bit_rate">15840000</property>
  <property name="meta.attr.0.stream.title.markup">e:/stp/incoming_avis/subsampled/lyova_pjump.avi</property>
  <property name="meta.media.sample_aspect_num">1</property>
  <property name="meta.media.sample_aspect_den">1</property>
  <property name="meta.media.frame_rate_num">25</property>
  <property name="meta.media.frame_rate_den">1</property>
  <property name="meta.media.colorspace">601</property>
  <property name="meta.media.color_trc">2</property>
  <property name="meta.media.has_b_frames">0</property>
  <property name="meta.media.width">180</property>
  <property name="meta.media.height">144</property>
  <property name="meta.media.color_range">mpeg</property>
  <property name="meta.media.top_field_first">0</property>
  <property name="meta.media.progressive">1</property>
  <property name="set.test_audio">1</property>
  <property name="set.test_image">0</property>
 </producer>
 <producer id="producer160" in="00:00:00.000" out="00:00:01.760">
  <property name="length">45</property>
  <property name="eof">pause</property>
  <property name="resource">C:/Users/Ichsan/tugasakhir/dataset-traintest/test/jump in place/1.avi</property>
  <property name="audio_index">-1</property>
  <property name="video_index">0</property>
  <property name="mute_on_pause">0</property>
  <property name="mlt_service">avformat-novalidate</property>
  <property name="seekable">1</property>
  <property name="aspect_ratio">1</property>
  <property name="kdenlive:clipname"/>
  <property name="kdenlive:folderid">89</property>
  <property name="kdenlive:id">91</property>
  <property name="kdenlive:file_size">3502592</property>
  <property name="kdenlive:file_hash">7d3f682e73d0847f507cf3443baa6db6</property>
  <property name="xml">was here</property>
  <property name="meta.media.nb_streams">1</property>
  <property name="meta.media.0.stream.type">video</property>
  <property name="meta.media.0.stream.frame_rate">25</property>
  <property name="meta.media.0.stream.sample_aspect_ratio">0</property>
  <property name="meta.media.0.codec.width">180</property>
  <property name="meta.media.0.codec.height">144</property>
  <property name="meta.media.0.codec.rotate">0</property>
  <property name="meta.media.0.codec.pix_fmt">bgr24</property>
  <property name="meta.media.0.codec.sample_aspect_ratio">0</property>
  <property name="meta.media.0.codec.colorspace">601</property>
  <property name="meta.media.0.codec.name">rawvideo</property>
  <property name="meta.media.0.codec.long_name">raw video</property>
  <property name="meta.media.0.codec.bit_rate">15905455</property>
  <property name="meta.attr.0.stream.title.markup">e:/stp/incoming_avis/subsampled/moshe_pjump.avi</property>
  <property name="meta.media.sample_aspect_num">1</property>
  <property name="meta.media.sample_aspect_den">1</property>
  <property name="meta.media.frame_rate_num">25</property>
  <property name="meta.media.frame_rate_den">1</property>
  <property name="meta.media.colorspace">601</property>
  <property name="meta.media.color_trc">2</property>
  <property name="meta.media.has_b_frames">0</property>
  <property name="meta.media.width">180</property>
  <property name="meta.media.height">144</property>
  <property name="meta.media.color_range">mpeg</property>
  <property name="meta.media.top_field_first">0</property>
  <property name="meta.media.progressive">1</property>
  <property name="set.test_audio">1</property>
  <property name="set.test_image">0</property>
 </producer>
 <producer id="producer161" in="00:00:00.000" out="00:00:02.200">
  <property name="length">56</property>
  <property name="eof">pause</property>
  <property name="resource">C:/Users/Ichsan/tugasakhir/dataset-traintest/test/jump in place/2.avi</property>
  <property name="audio_index">-1</property>
  <property name="video_index">0</property>
  <property name="mute_on_pause">0</property>
  <property name="mlt_service">avformat-novalidate</property>
  <property name="seekable">1</property>
  <property name="aspect_ratio">1</property>
  <property name="kdenlive:clipname"/>
  <property name="kdenlive:folderid">89</property>
  <property name="kdenlive:id">92</property>
  <property name="kdenlive:file_size">4358144</property>
  <property name="kdenlive:file_hash">a2200a4eff45a580818091805c1b8450</property>
  <property name="xml">was here</property>
  <property name="meta.media.nb_streams">1</property>
  <property name="meta.media.0.stream.type">video</property>
  <property name="meta.media.0.stream.frame_rate">25</property>
  <property name="meta.media.0.stream.sample_aspect_ratio">0</property>
  <property name="meta.media.0.codec.width">180</property>
  <property name="meta.media.0.codec.height">144</property>
  <property name="meta.media.0.codec.rotate">0</property>
  <property name="meta.media.0.codec.pix_fmt">bgr24</property>
  <property name="meta.media.0.codec.sample_aspect_ratio">0</property>
  <property name="meta.media.0.codec.colorspace">601</property>
  <property name="meta.media.0.codec.name">rawvideo</property>
  <property name="meta.media.0.codec.long_name">raw video</property>
  <property name="meta.media.0.codec.bit_rate">15834764</property>
  <property name="meta.attr.0.stream.title.markup">e:/stp/incoming_avis/subsampled/shahar_pjump.avi</property>
  <property name="meta.media.sample_aspect_num">1</property>
  <property name="meta.media.sample_aspect_den">1</property>
  <property name="meta.media.frame_rate_num">25</property>
  <property name="meta.media.frame_rate_den">1</property>
  <property name="meta.media.colorspace">601</property>
  <property name="meta.media.color_trc">2</property>
  <property name="meta.media.has_b_frames">0</property>
  <property name="meta.media.width">180</property>
  <property name="meta.media.height">144</property>
  <property name="meta.media.color_range">mpeg</property>
  <property name="meta.media.top_field_first">0</property>
  <property name="meta.media.progressive">1</property>
  <property name="set.test_audio">1</property>
  <property name="set.test_image">0</property>
 </producer>
 <producer id="producer162" in="00:00:00.000" out="00:00:02.200">
  <property name="length">56</property>
  <property name="eof">pause</property>
  <property name="resource">C:/Users/Ichsan/tugasakhir/dataset-traintest/test/jumping jack/0.avi</property>
  <property name="audio_index">-1</property>
  <property name="video_index">0</property>
  <property name="mute_on_pause">0</property>
  <property name="mlt_service">avformat-novalidate</property>
  <property name="seekable">1</property>
  <property name="aspect_ratio">1</property>
  <property name="kdenlive:clipname"/>
  <property name="kdenlive:folderid">93</property>
  <property name="kdenlive:id">94</property>
  <property name="kdenlive:file_size">4358144</property>
  <property name="kdenlive:file_hash">d0da3b6bc080b179628f842bf31eb83a</property>
  <property name="xml">was here</property>
  <property name="meta.media.nb_streams">1</property>
  <property name="meta.media.0.stream.type">video</property>
  <property name="meta.media.0.stream.frame_rate">25</property>
  <property name="meta.media.0.stream.sample_aspect_ratio">0</property>
  <property name="meta.media.0.codec.width">180</property>
  <property name="meta.media.0.codec.height">144</property>
  <property name="meta.media.0.codec.rotate">0</property>
  <property name="meta.media.0.codec.pix_fmt">bgr24</property>
  <property name="meta.media.0.codec.sample_aspect_ratio">0</property>
  <property name="meta.media.0.codec.colorspace">601</property>
  <property name="meta.media.0.codec.name">rawvideo</property>
  <property name="meta.media.0.codec.long_name">raw video</property>
  <property name="meta.media.0.codec.bit_rate">15834764</property>
  <property name="meta.attr.0.stream.title.markup">e:/stp/incoming_avis/subsampled/lyova_jack.avi</property>
  <property name="meta.media.sample_aspect_num">1</property>
  <property name="meta.media.sample_aspect_den">1</property>
  <property name="meta.media.frame_rate_num">25</property>
  <property name="meta.media.frame_rate_den">1</property>
  <property name="meta.media.colorspace">601</property>
  <property name="meta.media.color_trc">2</property>
  <property name="meta.media.has_b_frames">0</property>
  <property name="meta.media.width">180</property>
  <property name="meta.media.height">144</property>
  <property name="meta.media.color_range">mpeg</property>
  <property name="meta.media.top_field_first">0</property>
  <property name="meta.media.progressive">1</property>
  <property name="set.test_audio">1</property>
  <property name="set.test_image">0</property>
 </producer>
 <producer id="producer163" in="00:00:00.000" out="00:00:04.160">
  <property name="length">105</property>
  <property name="eof">pause</property>
  <property name="resource">C:/Users/Ichsan/tugasakhir/dataset-traintest/test/jumping jack/1.avi</property>
  <property name="audio_index">-1</property>
  <property name="video_index">0</property>
  <property name="mute_on_pause">0</property>
  <property name="mlt_service">avformat-novalidate</property>
  <property name="seekable">1</property>
  <property name="aspect_ratio">1</property>
  <property name="kdenlive:clipname"/>
  <property name="kdenlive:folderid">93</property>
  <property name="kdenlive:id">95</property>
  <property name="kdenlive:file_size">8169472</property>
  <property name="kdenlive:file_hash">c29391b6c483f0ac39035416e5af4e52</property>
  <property name="xml">was here</property>
  <property name="meta.media.nb_streams">1</property>
  <property name="meta.media.0.stream.type">video</property>
  <property name="meta.media.0.stream.frame_rate">25</property>
  <property name="meta.media.0.stream.sample_aspect_ratio">0</property>
  <property name="meta.media.0.codec.width">180</property>
  <property name="meta.media.0.codec.height">144</property>
  <property name="meta.media.0.codec.rotate">0</property>
  <property name="meta.media.0.codec.pix_fmt">bgr24</property>
  <property name="meta.media.0.codec.sample_aspect_ratio">0</property>
  <property name="meta.media.0.codec.colorspace">601</property>
  <property name="meta.media.0.codec.name">rawvideo</property>
  <property name="meta.media.0.codec.long_name">raw video</property>
  <property name="meta.media.0.codec.bit_rate">15701538</property>
  <property name="meta.attr.0.stream.title.markup">e:/stp/incoming_avis/subsampled/moshe_jack.avi</property>
  <property name="meta.media.sample_aspect_num">1</property>
  <property name="meta.media.sample_aspect_den">1</property>
  <property name="meta.media.frame_rate_num">25</property>
  <property name="meta.media.frame_rate_den">1</property>
  <property name="meta.media.colorspace">601</property>
  <property name="meta.media.color_trc">2</property>
  <property name="meta.media.has_b_frames">0</property>
  <property name="meta.media.width">180</property>
  <property name="meta.media.height">144</property>
  <property name="meta.media.color_range">mpeg</property>
  <property name="meta.media.top_field_first">0</property>
  <property name="meta.media.progressive">1</property>
  <property name="set.test_audio">1</property>
  <property name="set.test_image">0</property>
 </producer>
 <producer id="producer164" in="00:00:00.000" out="00:00:04.080">
  <property name="length">103</property>
  <property name="eof">pause</property>
  <property name="resource">C:/Users/Ichsan/tugasakhir/dataset-traintest/test/jumping jack/2.avi</property>
  <property name="audio_index">-1</property>
  <property name="video_index">0</property>
  <property name="mute_on_pause">0</property>
  <property name="mlt_service">avformat-novalidate</property>
  <property name="seekable">1</property>
  <property name="aspect_ratio">1</property>
  <property name="kdenlive:clipname"/>
  <property name="kdenlive:folderid">93</property>
  <property name="kdenlive:id">96</property>
  <property name="kdenlive:file_size">8013824</property>
  <property name="kdenlive:file_hash">4353294a0d1262f301920ec675643d29</property>
  <property name="xml">was here</property>
  <property name="meta.media.nb_streams">1</property>
  <property name="meta.media.0.stream.type">video</property>
  <property name="meta.media.0.stream.frame_rate">25</property>
  <property name="meta.media.0.stream.sample_aspect_ratio">0</property>
  <property name="meta.media.0.codec.width">180</property>
  <property name="meta.media.0.codec.height">144</property>
  <property name="meta.media.0.codec.rotate">0</property>
  <property name="meta.media.0.codec.pix_fmt">bgr24</property>
  <property name="meta.media.0.codec.sample_aspect_ratio">0</property>
  <property name="meta.media.0.codec.colorspace">601</property>
  <property name="meta.media.0.codec.name">rawvideo</property>
  <property name="meta.media.0.codec.long_name">raw video</property>
  <property name="meta.media.0.codec.bit_rate">15704471</property>
  <property name="meta.attr.0.stream.title.markup">e:/stp/incoming_avis/subsampled/shahar_jack.avi</property>
  <property name="meta.media.sample_aspect_num">1</property>
  <property name="meta.media.sample_aspect_den">1</property>
  <property name="meta.media.frame_rate_num">25</property>
  <property name="meta.media.frame_rate_den">1</property>
  <property name="meta.media.colorspace">601</property>
  <property name="meta.media.color_trc">2</property>
  <property name="meta.media.has_b_frames">0</property>
  <property name="meta.media.width">180</property>
  <property name="meta.media.height">144</property>
  <property name="meta.media.color_range">mpeg</property>
  <property name="meta.media.top_field_first">0</property>
  <property name="meta.media.progressive">1</property>
  <property name="set.test_audio">1</property>
  <property name="set.test_image">0</property>
 </producer>
 <producer id="producer165" in="00:00:00.000" out="00:00:02.120">
  <property name="length">54</property>
  <property name="eof">pause</property>
  <property name="resource">C:/Users/Ichsan/tugasakhir/dataset-traintest/test/one-hand wave/0.avi</property>
  <property name="audio_index">-1</property>
  <property name="video_index">0</property>
  <property name="mute_on_pause">0</property>
  <property name="mlt_service">avformat-novalidate</property>
  <property name="seekable">1</property>
  <property name="aspect_ratio">1</property>
  <property name="kdenlive:clipname"/>
  <property name="kdenlive:folderid">97</property>
  <property name="kdenlive:id">98</property>
  <property name="kdenlive:file_size">4202496</property>
  <property name="kdenlive:file_hash">8f3024715d11a7d546c7153b0c4908ef</property>
  <property name="xml">was here</property>
  <property name="meta.media.nb_streams">1</property>
  <property name="meta.media.0.stream.type">video</property>
  <property name="meta.media.0.stream.frame_rate">25</property>
  <property name="meta.media.0.stream.sample_aspect_ratio">0</property>
  <property name="meta.media.0.codec.width">180</property>
  <property name="meta.media.0.codec.height">144</property>
  <property name="meta.media.0.codec.rotate">0</property>
  <property name="meta.media.0.codec.pix_fmt">bgr24</property>
  <property name="meta.media.0.codec.sample_aspect_ratio">0</property>
  <property name="meta.media.0.codec.colorspace">601</property>
  <property name="meta.media.0.codec.name">rawvideo</property>
  <property name="meta.media.0.codec.long_name">raw video</property>
  <property name="meta.media.0.codec.bit_rate">15845434</property>
  <property name="meta.attr.0.stream.title.markup">e:/stp/incoming_avis/subsampled/lyova_wave1.avi</property>
  <property name="meta.media.sample_aspect_num">1</property>
  <property name="meta.media.sample_aspect_den">1</property>
  <property name="meta.media.frame_rate_num">25</property>
  <property name="meta.media.frame_rate_den">1</property>
  <property name="meta.media.colorspace">601</property>
  <property name="meta.media.color_trc">2</property>
  <property name="meta.media.has_b_frames">0</property>
  <property name="meta.media.width">180</property>
  <property name="meta.media.height">144</property>
  <property name="meta.media.color_range">mpeg</property>
  <property name="meta.media.top_field_first">0</property>
  <property name="meta.media.progressive">1</property>
  <property name="set.test_audio">1</property>
  <property name="set.test_image">0</property>
 </producer>
 <producer id="producer166" in="00:00:00.000" out="00:00:02.360">
  <property name="length">60</property>
  <property name="eof">pause</property>
  <property name="resource">C:/Users/Ichsan/tugasakhir/dataset-traintest/test/one-hand wave/1.avi</property>
  <property name="audio_index">-1</property>
  <property name="video_index">0</property>
  <property name="mute_on_pause">0</property>
  <property name="mlt_service">avformat-novalidate</property>
  <property name="seekable">1</property>
  <property name="aspect_ratio">1</property>
  <property name="kdenlive:clipname"/>
  <property name="kdenlive:folderid">97</property>
  <property name="kdenlive:id">99</property>
  <property name="kdenlive:file_size">4669440</property>
  <property name="kdenlive:file_hash">640b664f586bfce43cff3f7a792b477f</property>
  <property name="xml">was here</property>
  <property name="meta.media.nb_streams">1</property>
  <property name="meta.media.0.stream.type">video</property>
  <property name="meta.media.0.stream.frame_rate">25</property>
  <property name="meta.media.0.stream.sample_aspect_ratio">0</property>
  <property name="meta.media.0.codec.width">180</property>
  <property name="meta.media.0.codec.height">144</property>
  <property name="meta.media.0.codec.rotate">0</property>
  <property name="meta.media.0.codec.pix_fmt">bgr24</property>
  <property name="meta.media.0.codec.sample_aspect_ratio">0</property>
  <property name="meta.media.0.codec.colorspace">601</property>
  <property name="meta.media.0.codec.name">rawvideo</property>
  <property name="meta.media.0.codec.long_name">raw video</property>
  <property name="meta.media.0.codec.bit_rate">15815593</property>
  <property name="meta.attr.0.stream.title.markup">e:/stp/incoming_avis/subsampled/moshe_wave1.avi</property>
  <property name="meta.media.sample_aspect_num">1</property>
  <property name="meta.media.sample_aspect_den">1</property>
  <property name="meta.media.frame_rate_num">25</property>
  <property name="meta.media.frame_rate_den">1</property>
  <property name="meta.media.colorspace">601</property>
  <property name="meta.media.color_trc">2</property>
  <property name="meta.media.has_b_frames">0</property>
  <property name="meta.media.width">180</property>
  <property name="meta.media.height">144</property>
  <property name="meta.media.color_range">mpeg</property>
  <property name="meta.media.top_field_first">0</property>
  <property name="meta.media.progressive">1</property>
  <property name="set.test_audio">1</property>
  <property name="set.test_image">0</property>
 </producer>
 <producer id="producer167" in="00:00:00.000" out="00:00:02.400">
  <property name="length">61</property>
  <property name="eof">pause</property>
  <property name="resource">C:/Users/Ichsan/tugasakhir/dataset-traintest/test/one-hand wave/2.avi</property>
  <property name="audio_index">-1</property>
  <property name="video_index">0</property>
  <property name="mute_on_pause">0</property>
  <property name="mlt_service">avformat-novalidate</property>
  <property name="seekable">1</property>
  <property name="aspect_ratio">1</property>
  <property name="kdenlive:clipname"/>
  <property name="kdenlive:folderid">97</property>
  <property name="kdenlive:id">100</property>
  <property name="kdenlive:file_size">4747264</property>
  <property name="kdenlive:file_hash">e393cb6a39be9856492e7921021f461c</property>
  <property name="xml">was here</property>
  <property name="meta.media.nb_streams">1</property>
  <property name="meta.media.0.stream.type">video</property>
  <property name="meta.media.0.stream.frame_rate">25</property>
  <property name="meta.media.0.stream.sample_aspect_ratio">0</property>
  <property name="meta.media.0.codec.width">180</property>
  <property name="meta.media.0.codec.height">144</property>
  <property name="meta.media.0.codec.rotate">0</property>
  <property name="meta.media.0.codec.pix_fmt">bgr24</property>
  <property name="meta.media.0.codec.sample_aspect_ratio">0</property>
  <property name="meta.media.0.codec.colorspace">601</property>
  <property name="meta.media.0.codec.name">rawvideo</property>
  <property name="meta.media.0.codec.long_name">raw video</property>
  <property name="meta.media.0.codec.bit_rate">15811200</property>
  <property name="meta.attr.0.stream.title.markup">e:/stp/incoming_avis/subsampled/shahar_wave1.avi</property>
  <property name="meta.media.sample_aspect_num">1</property>
  <property name="meta.media.sample_aspect_den">1</property>
  <property name="meta.media.frame_rate_num">25</property>
  <property name="meta.media.frame_rate_den">1</property>
  <property name="meta.media.colorspace">601</property>
  <property name="meta.media.color_trc">2</property>
  <property name="meta.media.has_b_frames">0</property>
  <property name="meta.media.width">180</property>
  <property name="meta.media.height">144</property>
  <property name="meta.media.color_range">mpeg</property>
  <property name="meta.media.top_field_first">0</property>
  <property name="meta.media.progressive">1</property>
  <property name="set.test_audio">1</property>
  <property name="set.test_image">0</property>
 </producer>
 <producer id="producer168" in="00:00:00.000" out="00:00:01.400">
  <property name="length">36</property>
  <property name="eof">pause</property>
  <property name="resource">C:/Users/Ichsan/tugasakhir/dataset-traintest/test/run/0.avi</property>
  <property name="audio_index">-1</property>
  <property name="video_index">0</property>
  <property name="mute_on_pause">0</property>
  <property name="mlt_service">avformat-novalidate</property>
  <property name="seekable">1</property>
  <property name="aspect_ratio">1</property>
  <property name="kdenlive:clipname"/>
  <property name="kdenlive:folderid">101</property>
  <property name="kdenlive:id">102</property>
  <property name="kdenlive:file_size">2802688</property>
  <property name="kdenlive:file_hash">0d646d9961a723f73b30db8e27a7b28d</property>
  <property name="xml">was here</property>
  <property name="meta.media.nb_streams">1</property>
  <property name="meta.media.0.stream.type">video</property>
  <property name="meta.media.0.stream.frame_rate">25</property>
  <property name="meta.media.0.stream.sample_aspect_ratio">0</property>
  <property name="meta.media.0.codec.width">180</property>
  <property name="meta.media.0.codec.height">144</property>
  <property name="meta.media.0.codec.rotate">0</property>
  <property name="meta.media.0.codec.pix_fmt">bgr24</property>
  <property name="meta.media.0.codec.sample_aspect_ratio">0</property>
  <property name="meta.media.0.codec.colorspace">601</property>
  <property name="meta.media.0.codec.name">rawvideo</property>
  <property name="meta.media.0.codec.long_name">raw video</property>
  <property name="meta.media.0.codec.bit_rate">15996343</property>
  <property name="meta.attr.0.stream.title.markup">e:/stp/incoming_avis/subsampled/lyova_run.avi</property>
  <property name="meta.media.sample_aspect_num">1</property>
  <property name="meta.media.sample_aspect_den">1</property>
  <property name="meta.media.frame_rate_num">25</property>
  <property name="meta.media.frame_rate_den">1</property>
  <property name="meta.media.colorspace">601</property>
  <property name="meta.media.color_trc">2</property>
  <property name="meta.media.has_b_frames">0</property>
  <property name="meta.media.width">180</property>
  <property name="meta.media.height">144</property>
  <property name="meta.media.color_range">mpeg</property>
  <property name="meta.media.top_field_first">0</property>
  <property name="meta.media.progressive">1</property>
  <property name="set.test_audio">1</property>
  <property name="set.test_image">0</property>
  <filter id="filter9">
   <property name="rotate_center">1</property>
   <property name="mlt_service">qtblend</property>
   <property name="kdenlive_id">qtblend</property>
   <property name="rect">00:00:00.000=-45 -36 270 216 1.000000</property>
   <property name="rotation">00:00:00.000=0</property>
   <property name="compositing">0</property>
   <property name="distort">0</property>
  </filter>
 </producer>
 <producer id="producer169" in="00:00:00.000" out="00:00:01.600">
  <property name="length">41</property>
  <property name="eof">pause</property>
  <property name="resource">C:/Users/Ichsan/tugasakhir/dataset-traintest/test/run/1.avi</property>
  <property name="audio_index">-1</property>
  <property name="video_index">0</property>
  <property name="mute_on_pause">0</property>
  <property name="mlt_service">avformat-novalidate</property>
  <property name="seekable">1</property>
  <property name="aspect_ratio">1</property>
  <property name="kdenlive:clipname"/>
  <property name="kdenlive:folderid">101</property>
  <property name="kdenlive:id">103</property>
  <property name="kdenlive:file_size">5058048</property>
  <property name="kdenlive:file_hash">d7e6a0701e30cb23963379abb05708c3</property>
  <property name="xml">was here</property>
  <property name="meta.media.nb_streams">1</property>
  <property name="meta.media.0.stream.type">video</property>
  <property name="meta.media.0.stream.frame_rate">25</property>
  <property name="meta.media.0.stream.sample_aspect_ratio">0</property>
  <property name="meta.media.0.codec.width">180</property>
  <property name="meta.media.0.codec.height">144</property>
  <property name="meta.media.0.codec.rotate">0</property>
  <property name="meta.media.0.codec.pix_fmt">bgr24</property>
  <property name="meta.media.0.codec.sample_aspect_ratio">0</property>
  <property name="meta.media.0.codec.colorspace">601</property>
  <property name="meta.media.0.codec.name">rawvideo</property>
  <property name="meta.media.0.codec.long_name">raw video</property>
  <property name="meta.media.0.codec.bit_rate">0</property>
  <property name="meta.attr.0.stream.title.markup">e:/stp/incoming_avis/subsampled/dynamic/moshe_run.avi</property>
  <property name="meta.media.sample_aspect_num">1</property>
  <property name="meta.media.sample_aspect_den">1</property>
  <property name="meta.media.frame_rate_num">25</property>
  <property name="meta.media.frame_rate_den">1</property>
  <property name="meta.media.colorspace">601</property>
  <property name="meta.media.color_trc">2</property>
  <property name="meta.media.has_b_frames">0</property>
  <property name="meta.media.width">180</property>
  <property name="meta.media.height">144</property>
  <property name="meta.media.color_range">mpeg</property>
  <property name="meta.media.top_field_first">0</property>
  <property name="meta.media.progressive">1</property>
  <property name="set.test_audio">1</property>
  <property name="set.test_image">0</property>
 </producer>
 <producer id="producer170" in="00:00:00.000" out="00:00:01.760">
  <property name="length">45</property>
  <property name="eof">pause</property>
  <property name="resource">C:/Users/Ichsan/tugasakhir/dataset-traintest/test/run/2.avi</property>
  <property name="audio_index">-1</property>
  <property name="video_index">0</property>
  <property name="mute_on_pause">0</property>
  <property name="mlt_service">avformat-novalidate</property>
  <property name="seekable">1</property>
  <property name="aspect_ratio">1</property>
  <property name="kdenlive:clipname"/>
  <property name="kdenlive:folderid">101</property>
  <property name="kdenlive:id">104</property>
  <property name="kdenlive:file_size">5291520</property>
  <property name="kdenlive:file_hash">c4b52737eeb048a733cbac6563b21fb5</property>
  <property name="xml">was here</property>
  <property name="meta.media.nb_streams">1</property>
  <property name="meta.media.0.stream.type">video</property>
  <property name="meta.media.0.stream.frame_rate">25</property>
  <property name="meta.media.0.stream.sample_aspect_ratio">0</property>
  <property name="meta.media.0.codec.width">180</property>
  <property name="meta.media.0.codec.height">144</property>
  <property name="meta.media.0.codec.rotate">0</property>
  <property name="meta.media.0.codec.pix_fmt">bgr24</property>
  <property name="meta.media.0.codec.sample_aspect_ratio">0</property>
  <property name="meta.media.0.codec.colorspace">601</property>
  <property name="meta.media.0.codec.name">rawvideo</property>
  <property name="meta.media.0.codec.long_name">raw video</property>
  <property name="meta.media.0.codec.bit_rate">0</property>
  <property name="meta.attr.0.stream.title.markup">e:/stp/incoming_avis/subsampled/dynamic/shahar_run.avi</property>
  <property name="meta.media.sample_aspect_num">1</property>
  <property name="meta.media.sample_aspect_den">1</property>
  <property name="meta.media.frame_rate_num">25</property>
  <property name="meta.media.frame_rate_den">1</property>
  <property name="meta.media.colorspace">601</property>
  <property name="meta.media.color_trc">2</property>
  <property name="meta.media.has_b_frames">0</property>
  <property name="meta.media.width">180</property>
  <property name="meta.media.height">144</property>
  <property name="meta.media.color_range">mpeg</property>
  <property name="meta.media.top_field_first">0</property>
  <property name="meta.media.progressive">1</property>
  <property name="set.test_audio">1</property>
  <property name="set.test_image">0</property>
 </producer>
 <producer id="producer171" in="00:00:00.000" out="00:00:01.440">
  <property name="length">37</property>
  <property name="eof">pause</property>
  <property name="resource">C:/Users/Ichsan/tugasakhir/dataset-traintest/test/skip/0.avi</property>
  <property name="audio_index">-1</property>
  <property name="video_index">0</property>
  <property name="mute_on_pause">0</property>
  <property name="mlt_service">avformat-novalidate</property>
  <property name="seekable">1</property>
  <property name="aspect_ratio">1</property>
  <property name="kdenlive:clipname"/>
  <property name="kdenlive:folderid">105</property>
  <property name="kdenlive:id">106</property>
  <property name="kdenlive:file_size">2880512</property>
  <property name="kdenlive:file_hash">c951365026a5ed25d0ac0731481af33d</property>
  <property name="xml">was here</property>
  <property name="meta.media.nb_streams">1</property>
  <property name="meta.media.0.stream.type">video</property>
  <property name="meta.media.0.stream.frame_rate">25</property>
  <property name="meta.media.0.stream.sample_aspect_ratio">0</property>
  <property name="meta.media.0.codec.width">180</property>
  <property name="meta.media.0.codec.height">144</property>
  <property name="meta.media.0.codec.rotate">0</property>
  <property name="meta.media.0.codec.pix_fmt">bgr24</property>
  <property name="meta.media.0.codec.sample_aspect_ratio">0</property>
  <property name="meta.media.0.codec.colorspace">601</property>
  <property name="meta.media.0.codec.name">rawvideo</property>
  <property name="meta.media.0.codec.long_name">raw video</property>
  <property name="meta.media.0.codec.bit_rate">15984000</property>
  <property name="meta.attr.0.stream.title.markup">e:/stp/incoming_avis/subsampled/lyova_skip.avi</property>
  <property name="meta.media.sample_aspect_num">1</property>
  <property name="meta.media.sample_aspect_den">1</property>
  <property name="meta.media.frame_rate_num">25</property>
  <property name="meta.media.frame_rate_den">1</property>
  <property name="meta.media.colorspace">601</property>
  <property name="meta.media.color_trc">2</property>
  <property name="meta.media.has_b_frames">0</property>
  <property name="meta.media.width">180</property>
  <property name="meta.media.height">144</property>
  <property name="meta.media.color_range">mpeg</property>
  <property name="meta.media.top_field_first">0</property>
  <property name="meta.media.progressive">1</property>
  <property name="set.test_audio">1</property>
  <property name="set.test_image">0</property>
 </producer>
 <producer id="producer172" in="00:00:00.000" out="00:00:02.120">
  <property name="length">54</property>
  <property name="eof">pause</property>
  <property name="resource">C:/Users/Ichsan/tugasakhir/dataset-traintest/test/skip/1.avi</property>
  <property name="audio_index">-1</property>
  <property name="video_index">0</property>
  <property name="mute_on_pause">0</property>
  <property name="mlt_service">avformat-novalidate</property>
  <property name="seekable">1</property>
  <property name="aspect_ratio">1</property>
  <property name="kdenlive:clipname"/>
  <property name="kdenlive:folderid">105</property>
  <property name="kdenlive:id">107</property>
  <property name="kdenlive:file_size">6069248</property>
  <property name="kdenlive:file_hash">4cc82cab5a2290226a9080446053c00b</property>
  <property name="xml">was here</property>
  <property name="meta.media.nb_streams">1</property>
  <property name="meta.media.0.stream.type">video</property>
  <property name="meta.media.0.stream.frame_rate">25</property>
  <property name="meta.media.0.stream.sample_aspect_ratio">0</property>
  <property name="meta.media.0.codec.width">180</property>
  <property name="meta.media.0.codec.height">144</property>
  <property name="meta.media.0.codec.rotate">0</property>
  <property name="meta.media.0.codec.pix_fmt">bgr24</property>
  <property name="meta.media.0.codec.sample_aspect_ratio">0</property>
  <property name="meta.media.0.codec.colorspace">601</property>
  <property name="meta.media.0.codec.name">rawvideo</property>
  <property name="meta.media.0.codec.long_name">raw video</property>
  <property name="meta.media.0.codec.bit_rate">0</property>
  <property name="meta.attr.0.stream.title.markup">e:/stp/incoming_avis/subsampled/dynamic/moshe_skip.avi</property>
  <property name="meta.media.sample_aspect_num">1</property>
  <property name="meta.media.sample_aspect_den">1</property>
  <property name="meta.media.frame_rate_num">25</property>
  <property name="meta.media.frame_rate_den">1</property>
  <property name="meta.media.colorspace">601</property>
  <property name="meta.media.color_trc">2</property>
  <property name="meta.media.has_b_frames">0</property>
  <property name="meta.media.width">180</property>
  <property name="meta.media.height">144</property>
  <property name="meta.media.color_range">mpeg</property>
  <property name="meta.media.top_field_first">0</property>
  <property name="meta.media.progressive">1</property>
  <property name="set.test_audio">1</property>
  <property name="set.test_image">0</property>
 </producer>
 <producer id="producer173" in="00:00:00.000" out="00:00:01.760">
  <property name="length">45</property>
  <property name="eof">pause</property>
  <property name="resource">C:/Users/Ichsan/tugasakhir/dataset-traintest/test/skip/2.avi</property>
  <property name="audio_index">-1</property>
  <property name="video_index">0</property>
  <property name="mute_on_pause">0</property>
  <property name="mlt_service">avformat-novalidate</property>
  <property name="seekable">1</property>
  <property name="aspect_ratio">1</property>
  <property name="kdenlive:clipname"/>
  <property name="kdenlive:folderid">105</property>
  <property name="kdenlive:id">108</property>
  <property name="kdenlive:file_size">5369344</property>
  <property name="kdenlive:file_hash">c185df309c7a23ea1f2beca0584bd7b5</property>
  <property name="xml">was here</property>
  <property name="meta.media.nb_streams">1</property>
  <property name="meta.media.0.stream.type">video</property>
  <property name="meta.media.0.stream.frame_rate">25</property>
  <property name="meta.media.0.stream.sample_aspect_ratio">0</property>
  <property name="meta.media.0.codec.width">180</property>
  <property name="meta.media.0.codec.height">144</property>
  <property name="meta.media.0.codec.rotate">0</property>
  <property name="meta.media.0.codec.pix_fmt">bgr24</property>
  <property name="meta.media.0.codec.sample_aspect_ratio">0</property>
  <property name="meta.media.0.codec.colorspace">601</property>
  <property name="meta.media.0.codec.name">rawvideo</property>
  <property name="meta.media.0.codec.long_name">raw video</property>
  <property name="meta.media.0.codec.bit_rate">0</property>
  <property name="meta.attr.0.stream.title.markup">e:/stp/incoming_avis/subsampled/dynamic/shahar_skip.avi</property>
  <property name="meta.media.sample_aspect_num">1</property>
  <property name="meta.media.sample_aspect_den">1</property>
  <property name="meta.media.frame_rate_num">25</property>
  <property name="meta.media.frame_rate_den">1</property>
  <property name="meta.media.colorspace">601</property>
  <property name="meta.media.color_trc">2</property>
  <property name="meta.media.has_b_frames">0</property>
  <property name="meta.media.width">180</property>
  <property name="meta.media.height">144</property>
  <property name="meta.media.color_range">mpeg</property>
  <property name="meta.media.top_field_first">0</property>
  <property name="meta.media.progressive">1</property>
  <property name="set.test_audio">1</property>
  <property name="set.test_image">0</property>
 </producer>
 <producer id="producer174" in="00:00:00.000" out="00:00:02.240">
  <property name="length">57</property>
  <property name="eof">pause</property>
  <property name="resource">C:/Users/Ichsan/tugasakhir/dataset-traintest/test/two-hands wave/0.avi</property>
  <property name="audio_index">-1</property>
  <property name="video_index">0</property>
  <property name="mute_on_pause">0</property>
  <property name="mlt_service">avformat-novalidate</property>
  <property name="seekable">1</property>
  <property name="aspect_ratio">1</property>
  <property name="kdenlive:clipname"/>
  <property name="kdenlive:folderid">109</property>
  <property name="kdenlive:id">110</property>
  <property name="kdenlive:file_size">4435968</property>
  <property name="kdenlive:file_hash">9ddda3a6ba110c0f883157c4e51e435c</property>
  <property name="xml">was here</property>
  <property name="meta.media.nb_streams">1</property>
  <property name="meta.media.0.stream.type">video</property>
  <property name="meta.media.0.stream.frame_rate">25</property>
  <property name="meta.media.0.stream.sample_aspect_ratio">0</property>
  <property name="meta.media.0.codec.width">180</property>
  <property name="meta.media.0.codec.height">144</property>
  <property name="meta.media.0.codec.rotate">0</property>
  <property name="meta.media.0.codec.pix_fmt">bgr24</property>
  <property name="meta.media.0.codec.sample_aspect_ratio">0</property>
  <property name="meta.media.0.codec.colorspace">601</property>
  <property name="meta.media.0.codec.name">rawvideo</property>
  <property name="meta.media.0.codec.long_name">raw video</property>
  <property name="meta.media.0.codec.bit_rate">15829714</property>
  <property name="meta.attr.0.stream.title.markup">e:/stp/incoming_avis/subsampled/lyova_wave2.avi</property>
  <property name="meta.media.sample_aspect_num">1</property>
  <property name="meta.media.sample_aspect_den">1</property>
  <property name="meta.media.frame_rate_num">25</property>
  <property name="meta.media.frame_rate_den">1</property>
  <property name="meta.media.colorspace">601</property>
  <property name="meta.media.color_trc">2</property>
  <property name="meta.media.has_b_frames">0</property>
  <property name="meta.media.width">180</property>
  <property name="meta.media.height">144</property>
  <property name="meta.media.color_range">mpeg</property>
  <property name="meta.media.top_field_first">0</property>
  <property name="meta.media.progressive">1</property>
  <property name="set.test_audio">1</property>
  <property name="set.test_image">0</property>
 </producer>
 <producer id="producer175" in="00:00:00.000" out="00:00:02.440">
  <property name="length">62</property>
  <property name="eof">pause</property>
  <property name="resource">C:/Users/Ichsan/tugasakhir/dataset-traintest/test/two-hands wave/1.avi</property>
  <property name="audio_index">-1</property>
  <property name="video_index">0</property>
  <property name="mute_on_pause">0</property>
  <property name="mlt_service">avformat-novalidate</property>
  <property name="seekable">1</property>
  <property name="aspect_ratio">1</property>
  <property name="kdenlive:clipname"/>
  <property name="kdenlive:folderid">109</property>
  <property name="kdenlive:id">111</property>
  <property name="kdenlive:file_size">4825088</property>
  <property name="kdenlive:file_hash">7764340ed748e4e350f37e10b78f6756</property>
  <property name="xml">was here</property>
  <property name="meta.media.nb_streams">1</property>
  <property name="meta.media.0.stream.type">video</property>
  <property name="meta.media.0.stream.frame_rate">25</property>
  <property name="meta.media.0.stream.sample_aspect_ratio">0</property>
  <property name="meta.media.0.codec.width">180</property>
  <property name="meta.media.0.codec.height">144</property>
  <property name="meta.media.0.codec.rotate">0</property>
  <property name="meta.media.0.codec.pix_fmt">bgr24</property>
  <property name="meta.media.0.codec.sample_aspect_ratio">0</property>
  <property name="meta.media.0.codec.colorspace">601</property>
  <property name="meta.media.0.codec.name">rawvideo</property>
  <property name="meta.media.0.codec.long_name">raw video</property>
  <property name="meta.media.0.codec.bit_rate">15806951</property>
  <property name="meta.attr.0.stream.title.markup">e:/stp/incoming_avis/subsampled/moshe_wave2.avi</property>
  <property name="meta.media.sample_aspect_num">1</property>
  <property name="meta.media.sample_aspect_den">1</property>
  <property name="meta.media.frame_rate_num">25</property>
  <property name="meta.media.frame_rate_den">1</property>
  <property name="meta.media.colorspace">601</property>
  <property name="meta.media.color_trc">2</property>
  <property name="meta.media.has_b_frames">0</property>
  <property name="meta.media.width">180</property>
  <property name="meta.media.height">144</property>
  <property name="meta.media.color_range">mpeg</property>
  <property name="meta.media.top_field_first">0</property>
  <property name="meta.media.progressive">1</property>
  <property name="set.test_audio">1</property>
  <property name="set.test_image">0</property>
 </producer>
 <producer id="producer176" in="00:00:00.000" out="00:00:02.320">
  <property name="length">59</property>
  <property name="eof">pause</property>
  <property name="resource">C:/Users/Ichsan/tugasakhir/dataset-traintest/test/two-hands wave/2.avi</property>
  <property name="audio_index">-1</property>
  <property name="video_index">0</property>
  <property name="mute_on_pause">0</property>
  <property name="mlt_service">avformat-novalidate</property>
  <property name="seekable">1</property>
  <property name="aspect_ratio">1</property>
  <property name="kdenlive:clipname"/>
  <property name="kdenlive:folderid">109</property>
  <property name="kdenlive:id">112</property>
  <property name="kdenlive:file_size">4591616</property>
  <property name="kdenlive:file_hash">a680748560ae541d1c9d2b5ef91f7b7e</property>
  <property name="xml">was here</property>
  <property name="meta.media.nb_streams">1</property>
  <property name="meta.media.0.stream.type">video</property>
  <property name="meta.media.0.stream.frame_rate">25</property>
  <property name="meta.media.0.stream.sample_aspect_ratio">0</property>
  <property name="meta.media.0.codec.width">180</property>
  <property name="meta.media.0.codec.height">144</property>
  <property name="meta.media.0.codec.rotate">0</property>
  <property name="meta.media.0.codec.pix_fmt">bgr24</property>
  <property name="meta.media.0.codec.sample_aspect_ratio">0</property>
  <property name="meta.media.0.codec.colorspace">601</property>
  <property name="meta.media.0.codec.name">rawvideo</property>
  <property name="meta.media.0.codec.long_name">raw video</property>
  <property name="meta.media.0.codec.bit_rate">15820138</property>
  <property name="meta.attr.0.stream.title.markup">e:/stp/incoming_avis/subsampled/shahar_wave2.avi</property>
  <property name="meta.media.sample_aspect_num">1</property>
  <property name="meta.media.sample_aspect_den">1</property>
  <property name="meta.media.frame_rate_num">25</property>
  <property name="meta.media.frame_rate_den">1</property>
  <property name="meta.media.colorspace">601</property>
  <property name="meta.media.color_trc">2</property>
  <property name="meta.media.has_b_frames">0</property>
  <property name="meta.media.width">180</property>
  <property name="meta.media.height">144</property>
  <property name="meta.media.color_range">mpeg</property>
  <property name="meta.media.top_field_first">0</property>
  <property name="meta.media.progressive">1</property>
  <property name="set.test_audio">1</property>
  <property name="set.test_image">0</property>
 </producer>
 <producer id="producer177" in="00:00:00.000" out="00:00:01.960">
  <property name="length">50</property>
  <property name="eof">pause</property>
  <property name="resource">C:/Users/Ichsan/tugasakhir/dataset-traintest/test/walk/0.avi</property>
  <property name="audio_index">-1</property>
  <property name="video_index">0</property>
  <property name="mute_on_pause">0</property>
  <property name="mlt_service">avformat-novalidate</property>
  <property name="seekable">1</property>
  <property name="aspect_ratio">1</property>
  <property name="kdenlive:clipname"/>
  <property name="kdenlive:folderid">113</property>
  <property name="kdenlive:id">114</property>
  <property name="kdenlive:file_size">3891712</property>
  <property name="kdenlive:file_hash">680645c171d6ddbac2e9142cab459dad</property>
  <property name="xml">was here</property>
  <property name="meta.media.nb_streams">1</property>
  <property name="meta.media.0.stream.type">video</property>
  <property name="meta.media.0.stream.frame_rate">25</property>
  <property name="meta.media.0.stream.sample_aspect_ratio">0</property>
  <property name="meta.media.0.codec.width">180</property>
  <property name="meta.media.0.codec.height">144</property>
  <property name="meta.media.0.codec.rotate">0</property>
  <property name="meta.media.0.codec.pix_fmt">bgr24</property>
  <property name="meta.media.0.codec.sample_aspect_ratio">0</property>
  <property name="meta.media.0.codec.colorspace">601</property>
  <property name="meta.media.0.codec.name">rawvideo</property>
  <property name="meta.media.0.codec.long_name">raw video</property>
  <property name="meta.media.0.codec.bit_rate">15869388</property>
  <property name="meta.attr.0.stream.title.markup">e:/stp/incoming_avis/subsampled/lyova_walk.avi</property>
  <property name="meta.media.sample_aspect_num">1</property>
  <property name="meta.media.sample_aspect_den">1</property>
  <property name="meta.media.frame_rate_num">25</property>
  <property name="meta.media.frame_rate_den">1</property>
  <property name="meta.media.colorspace">601</property>
  <property name="meta.media.color_trc">2</property>
  <property name="meta.media.has_b_frames">0</property>
  <property name="meta.media.width">180</property>
  <property name="meta.media.height">144</property>
  <property name="meta.media.color_range">mpeg</property>
  <property name="meta.media.top_field_first">0</property>
  <property name="meta.media.progressive">1</property>
  <property name="set.test_audio">1</property>
  <property name="set.test_image">0</property>
 </producer>
 <producer id="producer178" in="00:00:00.000" out="00:00:03.080">
  <property name="length">78</property>
  <property name="eof">pause</property>
  <property name="resource">C:/Users/Ichsan/tugasakhir/dataset-traintest/test/walk/1.avi</property>
  <property name="audio_index">-1</property>
  <property name="video_index">0</property>
  <property name="mute_on_pause">0</property>
  <property name="mlt_service">avformat-novalidate</property>
  <property name="seekable">1</property>
  <property name="aspect_ratio">1</property>
  <property name="kdenlive:clipname"/>
  <property name="kdenlive:folderid">113</property>
  <property name="kdenlive:id">115</property>
  <property name="kdenlive:file_size">8714240</property>
  <property name="kdenlive:file_hash">8ea3d7e7b969cadf7e21a1224bbc57ce</property>
  <property name="xml">was here</property>
  <property name="meta.media.nb_streams">1</property>
  <property name="meta.media.0.stream.type">video</property>
  <property name="meta.media.0.stream.frame_rate">25</property>
  <property name="meta.media.0.stream.sample_aspect_ratio">0</property>
  <property name="meta.media.0.codec.width">180</property>
  <property name="meta.media.0.codec.height">144</property>
  <property name="meta.media.0.codec.rotate">0</property>
  <property name="meta.media.0.codec.pix_fmt">bgr24</property>
  <property name="meta.media.0.codec.sample_aspect_ratio">0</property>
  <property name="meta.media.0.codec.colorspace">601</property>
  <property name="meta.media.0.codec.name">rawvideo</property>
  <property name="meta.media.0.codec.long_name">raw video</property>
  <property name="meta.media.0.codec.bit_rate">0</property>
  <property name="meta.attr.0.stream.title.markup">e:/stp/incoming_avis/subsampled/dynamic/moshe_walk.avi</property>
  <property name="meta.media.sample_aspect_num">1</property>
  <property name="meta.media.sample_aspect_den">1</property>
  <property name="meta.media.frame_rate_num">25</property>
  <property name="meta.media.frame_rate_den">1</property>
  <property name="meta.media.colorspace">601</property>
  <property name="meta.media.color_trc">2</property>
  <property name="meta.media.has_b_frames">0</property>
  <property name="meta.media.width">180</property>
  <property name="meta.media.height">144</property>
  <property name="meta.media.color_range">mpeg</property>
  <property name="meta.media.top_field_first">0</property>
  <property name="meta.media.progressive">1</property>
  <property name="set.test_audio">1</property>
  <property name="set.test_image">0</property>
 </producer>
 <producer id="producer179" in="00:00:00.000" out="00:00:03.280">
  <property name="length">83</property>
  <property name="eof">pause</property>
  <property name="resource">C:/Users/Ichsan/tugasakhir/dataset-traintest/test/walk/2.avi</property>
  <property name="audio_index">-1</property>
  <property name="video_index">0</property>
  <property name="mute_on_pause">0</property>
  <property name="mlt_service">avformat-novalidate</property>
  <property name="seekable">1</property>
  <property name="aspect_ratio">1</property>
  <property name="kdenlive:clipname"/>
  <property name="kdenlive:folderid">113</property>
  <property name="kdenlive:id">116</property>
  <property name="kdenlive:file_size">9414144</property>
  <property name="kdenlive:file_hash">b8d22ee051e6df3090f7644f0675e5b5</property>
  <property name="xml">was here</property>
  <property name="meta.media.nb_streams">1</property>
  <property name="meta.media.0.stream.type">video</property>
  <property name="meta.media.0.stream.frame_rate">25</property>
  <property name="meta.media.0.stream.sample_aspect_ratio">0</property>
  <property name="meta.media.0.codec.width">180</property>
  <property name="meta.media.0.codec.height">144</property>
  <property name="meta.media.0.codec.rotate">0</property>
  <property name="meta.media.0.codec.pix_fmt">bgr24</property>
  <property name="meta.media.0.codec.sample_aspect_ratio">0</property>
  <property name="meta.media.0.codec.colorspace">601</property>
  <property name="meta.media.0.codec.name">rawvideo</property>
  <property name="meta.media.0.codec.long_name">raw video</property>
  <property name="meta.media.0.codec.bit_rate">0</property>
  <property name="meta.attr.0.stream.title.markup">e:/stp/incoming_avis/subsampled/dynamic/shahar_walk.avi</property>
  <property name="meta.media.sample_aspect_num">1</property>
  <property name="meta.media.sample_aspect_den">1</property>
  <property name="meta.media.frame_rate_num">25</property>
  <property name="meta.media.frame_rate_den">1</property>
  <property name="meta.media.colorspace">601</property>
  <property name="meta.media.color_trc">2</property>
  <property name="meta.media.has_b_frames">0</property>
  <property name="meta.media.width">180</property>
  <property name="meta.media.height">144</property>
  <property name="meta.media.color_range">mpeg</property>
  <property name="meta.media.top_field_first">0</property>
  <property name="meta.media.progressive">1</property>
  <property name="set.test_audio">1</property>
  <property name="set.test_image">0</property>
 </producer>
 <playlist id="playlist4">
  <entry producer="producer90" in="00:00:00.360" out="00:00:02.520">
   <property name="kdenlive:id">16</property>
   <property name="kdenlive:activeeffect">0</property>
   <filter id="filter10">
    <property name="rotate_center">1</property>
    <property name="mlt_service">qtblend</property>
    <property name="kdenlive_id">qtblend</property>
    <property name="rect">00:00:00.360=0 -36 270 216 1.000000</property>
    <property name="rotation">00:00:00.360=0</property>
    <property name="compositing">0</property>
    <property name="distort">0</property>
    <property name="kdenlive:collapsed">0</property>
   </filter>
  </entry>
  <entry producer="producer90" in="00:00:00.360" out="00:00:02.520">
   <property name="kdenlive:id">16</property>
   <property name="kdenlive:activeeffect">0</property>
   <filter id="filter11">
    <property name="rotate_center">1</property>
    <property name="mlt_service">qtblend</property>
    <property name="kdenlive_id">qtblend</property>
    <property name="rect">00:00:00.360=0 -18 225 180 1.000000</property>
    <property name="rotation">00:00:00.360=0</property>
    <property name="compositing">0</property>
    <property name="distort">0</property>
    <property name="kdenlive:collapsed">0</property>
   </filter>
   <filter id="filter12">
    <property name="version">0.1</property>
    <property name="mlt_service">frei0r.flippo</property>
    <property name="kdenlive_id">frei0r.flippo</property>
    <property name="X axis">1</property>
    <property name="Y axis">0</property>
    <property name="kdenlive:collapsed">0</property>
   </filter>
  </entry>
  <entry producer="producer91" in="00:00:00.160" out="00:00:02.480">
   <property name="kdenlive:id">17</property>
   <property name="kdenlive:activeeffect">0</property>
   <filter id="filter13">
    <property name="rotate_center">1</property>
    <property name="mlt_service">qtblend</property>
    <property name="kdenlive_id">qtblend</property>
    <property name="rect">00:00:00.160=0 -36 270 216 1.000000</property>
    <property name="rotation">00:00:00.160=0</property>
    <property name="compositing">0</property>
    <property name="distort">0</property>
    <property name="kdenlive:collapsed">0</property>
   </filter>
  </entry>
  <entry producer="producer91" in="00:00:00.160" out="00:00:02.480">
   <property name="kdenlive:id">17</property>
   <property name="kdenlive:activeeffect">0</property>
   <filter id="filter14">
    <property name="rotate_center">1</property>
    <property name="mlt_service">qtblend</property>
    <property name="kdenlive_id">qtblend</property>
    <property name="rect">00:00:00.160=-22 -18 225 180 1.000000</property>
    <property name="rotation">00:00:00.160=0</property>
    <property name="compositing">0</property>
    <property name="distort">0</property>
    <property name="kdenlive:collapsed">0</property>
   </filter>
   <filter id="filter15">
    <property name="version">0.1</property>
    <property name="mlt_service">frei0r.flippo</property>
    <property name="kdenlive_id">frei0r.flippo</property>
    <property name="X axis">1</property>
    <property name="Y axis">0</property>
    <property name="kdenlive:collapsed">0</property>
   </filter>
  </entry>
  <entry producer="producer92" in="00:00:00.400" out="00:00:02.480">
   <property name="kdenlive:id">18</property>
   <property name="kdenlive:activeeffect">0</property>
   <filter id="filter16">
    <property name="rotate_center">1</property>
    <property name="mlt_service">qtblend</property>
    <property name="kdenlive_id">qtblend</property>
    <property name="rect">00:00:00.400=0 -18 225 180 1.000000</property>
    <property name="rotation">00:00:00.400=0</property>
    <property name="compositing">0</property>
    <property name="distort">0</property>
    <property name="kdenlive:collapsed">0</property>
   </filter>
  </entry>
  <entry producer="producer92" in="00:00:00.400" out="00:00:02.480">
   <property name="kdenlive:id">18</property>
   <property name="kdenlive:activeeffect">0</property>
   <filter id="filter17">
    <property name="rotate_center">1</property>
    <property name="mlt_service">qtblend</property>
    <property name="kdenlive_id">qtblend</property>
    <property name="rect">00:00:00.400=0 -36 270 216 1.000000</property>
    <property name="rotation">00:00:00.400=0</property>
    <property name="compositing">11</property>
    <property name="distort">0</property>
    <property name="kdenlive:collapsed">0</property>
   </filter>
   <filter id="filter18">
    <property name="version">0.1</property>
    <property name="mlt_service">frei0r.flippo</property>
    <property name="kdenlive_id">frei0r.flippo</property>
    <property name="X axis">1</property>
    <property name="Y axis">0</property>
    <property name="kdenlive:collapsed">0</property>
   </filter>
  </entry>
  <entry producer="producer93" in="00:00:00.160" out="00:00:02.120">
   <property name="kdenlive:id">19</property>
   <property name="kdenlive:activeeffect">0</property>
   <filter id="filter19">
    <property name="rotate_center">1</property>
    <property name="mlt_service">qtblend</property>
    <property name="kdenlive_id">qtblend</property>
    <property name="rect">00:00:00.160=0 -18 225 180 1.000000</property>
    <property name="rotation">00:00:00.160=0</property>
    <property name="compositing">0</property>
    <property name="distort">0</property>
    <property name="kdenlive:collapsed">0</property>
   </filter>
  </entry>
  <entry producer="producer93" in="00:00:00.160" out="00:00:02.120">
   <property name="kdenlive:id">19</property>
   <property name="kdenlive:activeeffect">0</property>
   <filter id="filter20">
    <property name="rotate_center">1</property>
    <property name="mlt_service">qtblend</property>
    <property name="kdenlive_id">qtblend</property>
    <property name="rect">00:00:00.160=0 -18 225 180 1.000000</property>
    <property name="rotation">00:00:00.160=-1</property>
    <property name="compositing">0</property>
    <property name="distort">0</property>
    <property name="kdenlive:collapsed">0</property>
   </filter>
   <filter id="filter21">
    <property name="version">0.1</property>
    <property name="mlt_service">frei0r.flippo</property>
    <property name="kdenlive_id">frei0r.flippo</property>
    <property name="X axis">1</property>
    <property name="Y axis">0</property>
    <property name="kdenlive:collapsed">0</property>
   </filter>
  </entry>
  <entry producer="producer94" in="00:00:00.720" out="00:00:01.840">
   <property name="kdenlive:id">20</property>
   <property name="kdenlive:activeeffect">0</property>
   <filter id="filter22">
    <property name="rotate_center">1</property>
    <property name="mlt_service">qtblend</property>
    <property name="kdenlive_id">qtblend</property>
    <property name="rect">00:00:00.720=0 -36 270 216 1.000000</property>
    <property name="rotation">00:00:00.720=0</property>
    <property name="compositing">0</property>
    <property name="distort">0</property>
    <property name="kdenlive:collapsed">0</property>
   </filter>
  </entry>
  <entry producer="producer94" in="00:00:00.720" out="00:00:01.840">
   <property name="kdenlive:id">20</property>
   <property name="kdenlive:activeeffect">1</property>
   <filter id="filter23">
    <property name="rotate_center">1</property>
    <property name="mlt_service">qtblend</property>
    <property name="kdenlive_id">qtblend</property>
    <property name="rect">00:00:00.720=0 -18 225 180 1.000000</property>
    <property name="rotation">00:00:00.720=0</property>
    <property name="compositing">0</property>
    <property name="distort">0</property>
    <property name="kdenlive:collapsed">0</property>
   </filter>
   <filter id="filter24">
    <property name="version">0.1</property>
    <property name="mlt_service">frei0r.flippo</property>
    <property name="kdenlive_id">frei0r.flippo</property>
    <property name="X axis">1</property>
    <property name="Y axis">0</property>
    <property name="kdenlive:collapsed">0</property>
   </filter>
  </entry>
  <entry producer="producer95" in="00:00:00.160" out="00:00:02.440">
   <property name="kdenlive:id">21</property>
   <property name="kdenlive:activeeffect">0</property>
   <filter id="filter25">
    <property name="rotate_center">1</property>
    <property name="mlt_service">qtblend</property>
    <property name="kdenlive_id">qtblend</property>
    <property name="rect">00:00:00.160=0 -18 225 180 1.000000</property>
    <property name="rotation">00:00:00.160=0</property>
    <property name="compositing">0</property>
    <property name="distort">0</property>
    <property name="kdenlive:collapsed">0</property>
   </filter>
  </entry>
  <entry producer="producer95" in="00:00:00.160" out="00:00:02.440">
   <property name="kdenlive:id">21</property>
   <property name="kdenlive:activeeffect">0</property>
   <filter id="filter26">
    <property name="rotate_center">1</property>
    <property name="mlt_service">qtblend</property>
    <property name="kdenlive_id">qtblend</property>
    <property name="rect">00:00:00.160=-22 -36 270 216 1.000000</property>
    <property name="rotation">00:00:00.160=0</property>
    <property name="compositing">0</property>
    <property name="distort">0</property>
    <property name="kdenlive:collapsed">0</property>
   </filter>
   <filter id="filter27">
    <property name="version">0.1</property>
    <property name="mlt_service">frei0r.flippo</property>
    <property name="kdenlive_id">frei0r.flippo</property>
    <property name="X axis">1</property>
    <property name="Y axis">0</property>
    <property name="kdenlive:collapsed">0</property>
   </filter>
  </entry>
  <blank length="00:00:00.480"/>
  <entry producer="producer96" in="00:00:00.400" out="00:00:02.080">
   <property name="kdenlive:id">22</property>
   <property name="kdenlive:activeeffect">0</property>
   <filter id="filter28">
    <property name="rotate_center">1</property>
    <property name="mlt_service">qtblend</property>
    <property name="kdenlive_id">qtblend</property>
    <property name="rect">00:00:00.400=-22 -18 225 180 1.000000</property>
    <property name="rotation">00:00:00.400=0</property>
    <property name="compositing">0</property>
    <property name="distort">0</property>
    <property name="kdenlive:collapsed">0</property>
   </filter>
  </entry>
  <entry producer="producer96" in="00:00:00.400" out="00:00:02.080">
   <property name="kdenlive:id">22</property>
   <property name="kdenlive:activeeffect">1</property>
   <filter id="filter29">
    <property name="rotate_center">1</property>
    <property name="mlt_service">qtblend</property>
    <property name="kdenlive_id">qtblend</property>
    <property name="rect">00:00:00.400=-22 -18 225 180 1.000000</property>
    <property name="rotation">00:00:00.400=0</property>
    <property name="compositing">0</property>
    <property name="distort">0</property>
    <property name="kdenlive:collapsed">0</property>
   </filter>
   <filter id="filter30">
    <property name="version">0.1</property>
    <property name="mlt_service">frei0r.flippo</property>
    <property name="kdenlive_id">frei0r.flippo</property>
    <property name="X axis">1</property>
    <property name="Y axis">0</property>
    <property name="kdenlive:collapsed">0</property>
   </filter>
  </entry>
  <entry producer="producer97" in="00:00:00.280" out="00:00:02.040">
   <property name="kdenlive:id">23</property>
   <property name="kdenlive:activeeffect">0</property>
   <filter id="filter31">
    <property name="rotate_center">1</property>
    <property name="mlt_service">qtblend</property>
    <property name="kdenlive_id">qtblend</property>
    <property name="rect">00:00:00.280=-22 -18 225 180 1.000000</property>
    <property name="rotation">00:00:00.280=0</property>
    <property name="compositing">0</property>
    <property name="distort">0</property>
    <property name="kdenlive:collapsed">0</property>
   </filter>
  </entry>
  <entry producer="producer97" in="00:00:00.280" out="00:00:02.040">
   <property name="kdenlive:id">23</property>
   <property name="kdenlive:activeeffect">1</property>
   <filter id="filter32">
    <property name="rotate_center">1</property>
    <property name="mlt_service">qtblend</property>
    <property name="kdenlive_id">qtblend</property>
    <property name="rect">00:00:00.280=-22 -18 225 180 1.000000</property>
    <property name="rotation">00:00:00.280=0</property>
    <property name="compositing">0</property>
    <property name="distort">0</property>
    <property name="kdenlive:collapsed">0</property>
   </filter>
   <filter id="filter33">
    <property name="version">0.1</property>
    <property name="mlt_service">frei0r.flippo</property>
    <property name="kdenlive_id">frei0r.flippo</property>
    <property name="X axis">1</property>
    <property name="Y axis">0</property>
    <property name="kdenlive:collapsed">0</property>
   </filter>
  </entry>
  <entry producer="producer98" in="00:00:00.160" out="00:00:01.880">
   <property name="kdenlive:id">24</property>
   <property name="kdenlive:activeeffect">0</property>
   <filter id="filter34">
    <property name="rotate_center">1</property>
    <property name="mlt_service">qtblend</property>
    <property name="kdenlive_id">qtblend</property>
    <property name="rect">00:00:00.160=-22 -18 225 180 1.000000</property>
    <property name="rotation">00:00:00.160=0</property>
    <property name="compositing">0</property>
    <property name="distort">0</property>
    <property name="kdenlive:collapsed">0</property>
   </filter>
  </entry>
  <entry producer="producer98" in="00:00:00.160" out="00:00:01.880">
   <property name="kdenlive:id">24</property>
   <property name="kdenlive:activeeffect">1</property>
   <filter id="filter35">
    <property name="rotate_center">1</property>
    <property name="mlt_service">qtblend</property>
    <property name="kdenlive_id">qtblend</property>
    <property name="rect">00:00:00.160=-22 -18 225 180 1.000000</property>
    <property name="rotation">00:00:00.160=0</property>
    <property name="compositing">0</property>
    <property name="distort">0</property>
    <property name="kdenlive:collapsed">0</property>
   </filter>
   <filter id="filter36">
    <property name="version">0.1</property>
    <property name="mlt_service">frei0r.flippo</property>
    <property name="kdenlive_id">frei0r.flippo</property>
    <property name="X axis">1</property>
    <property name="Y axis">0</property>
    <property name="kdenlive:collapsed">0</property>
   </filter>
  </entry>
  <entry producer="producer99" in="00:00:00.000" out="00:00:01.520">
   <property name="kdenlive:id">25</property>
   <property name="kdenlive:activeeffect">0</property>
   <filter id="filter37">
    <property name="rotate_center">1</property>
    <property name="mlt_service">qtblend</property>
    <property name="kdenlive_id">qtblend</property>
    <property name="rect">00:00:00.000=-44 -36 270 216 1.000000</property>
    <property name="rotation">00:00:00.000=0</property>
    <property name="compositing">0</property>
    <property name="distort">0</property>
    <property name="kdenlive:collapsed">0</property>
   </filter>
  </entry>
  <entry producer="producer99" in="00:00:00.000" out="00:00:01.520">
   <property name="kdenlive:id">25</property>
   <property name="kdenlive:activeeffect">0</property>
   <filter id="filter38">
    <property name="rotate_center">1</property>
    <property name="mlt_service">qtblend</property>
    <property name="kdenlive_id">qtblend</property>
    <property name="rect">00:00:00.000=-44 -36 270 216 1.000000</property>
    <property name="rotation">00:00:00.000=0</property>
    <property name="compositing">0</property>
    <property name="distort">0</property>
    <property name="kdenlive:collapsed">0</property>
   </filter>
   <filter id="filter39">
    <property name="version">0.1</property>
    <property name="mlt_service">frei0r.flippo</property>
    <property name="kdenlive_id">frei0r.flippo</property>
    <property name="X axis">1</property>
    <property name="Y axis">0</property>
    <property name="kdenlive:collapsed">0</property>
   </filter>
  </entry>
  <entry producer="producer100" in="00:00:00.400" out="00:00:02.160">
   <property name="kdenlive:id">26</property>
   <property name="kdenlive:activeeffect">0</property>
   <filter id="filter40">
    <property name="rotate_center">1</property>
    <property name="mlt_service">qtblend</property>
    <property name="kdenlive_id">qtblend</property>
    <property name="rect">00:00:00.400=-22 -18 225 180 1.000000</property>
    <property name="rotation">00:00:00.400=0</property>
    <property name="compositing">0</property>
    <property name="distort">0</property>
    <property name="kdenlive:collapsed">0</property>
   </filter>
  </entry>
  <entry producer="producer100" in="00:00:00.400" out="00:00:02.160">
   <property name="kdenlive:id">26</property>
   <property name="kdenlive:activeeffect">1</property>
   <filter id="filter41">
    <property name="rotate_center">1</property>
    <property name="mlt_service">qtblend</property>
    <property name="kdenlive_id">qtblend</property>
    <property name="rect">00:00:00.400=-22 -18 225 180 1.000000</property>
    <property name="rotation">00:00:00.400=0</property>
    <property name="compositing">0</property>
    <property name="distort">0</property>
    <property name="kdenlive:collapsed">0</property>
   </filter>
   <filter id="filter42">
    <property name="version">0.1</property>
    <property name="mlt_service">frei0r.flippo</property>
    <property name="kdenlive_id">frei0r.flippo</property>
    <property name="X axis">1</property>
    <property name="Y axis">0</property>
    <property name="kdenlive:collapsed">0</property>
   </filter>
  </entry>
  <entry producer="producer101" in="00:00:00.160" out="00:00:01.800">
   <property name="kdenlive:id">27</property>
   <property name="kdenlive:activeeffect">0</property>
   <filter id="filter43">
    <property name="rotate_center">1</property>
    <property name="mlt_service">qtblend</property>
    <property name="kdenlive_id">qtblend</property>
    <property name="rect">00:00:00.160=-22 -18 225 180 1.000000</property>
    <property name="rotation">00:00:00.160=0</property>
    <property name="compositing">0</property>
    <property name="distort">0</property>
    <property name="kdenlive:collapsed">0</property>
   </filter>
  </entry>
  <entry producer="producer101" in="00:00:00.160" out="00:00:01.800">
   <property name="kdenlive:id">27</property>
   <property name="kdenlive:activeeffect">1</property>
   <filter id="filter44">
    <property name="rotate_center">1</property>
    <property name="mlt_service">qtblend</property>
    <property name="kdenlive_id">qtblend</property>
    <property name="rect">00:00:00.160=-22 -18 225 180 1.000000</property>
    <property name="rotation">00:00:00.160=0</property>
    <property name="compositing">0</property>
    <property name="distort">0</property>
    <property name="kdenlive:collapsed">0</property>
   </filter>
   <filter id="filter45">
    <property name="version">0.1</property>
    <property name="mlt_service">frei0r.flippo</property>
    <property name="kdenlive_id">frei0r.flippo</property>
    <property name="X axis">1</property>
    <property name="Y axis">0</property>
    <property name="kdenlive:collapsed">0</property>
   </filter>
  </entry>
  <blank length="00:00:00.400"/>
  <entry producer="producer102" in="00:00:00.320" out="00:00:02.640">
   <property name="kdenlive:id">28</property>
   <property name="kdenlive:activeeffect">0</property>
   <filter id="filter46">
    <property name="rotate_center">1</property>
    <property name="mlt_service">qtblend</property>
    <property name="kdenlive_id">qtblend</property>
    <property name="rect">00:00:00.320=-22 -18 225 180 1.000000</property>
    <property name="rotation">00:00:00.320=0</property>
    <property name="compositing">0</property>
    <property name="distort">0</property>
    <property name="kdenlive:collapsed">0</property>
   </filter>
  </entry>
  <entry producer="producer102" in="00:00:00.320" out="00:00:02.640">
   <property name="kdenlive:id">28</property>
   <property name="kdenlive:activeeffect">1</property>
   <filter id="filter47">
    <property name="rotate_center">1</property>
    <property name="mlt_service">qtblend</property>
    <property name="kdenlive_id">qtblend</property>
    <property name="rect">00:00:00.320=-22 -18 225 180 1.000000</property>
    <property name="rotation">00:00:00.320=0</property>
    <property name="compositing">0</property>
    <property name="distort">0</property>
    <property name="kdenlive:collapsed">0</property>
   </filter>
   <filter id="filter48">
    <property name="version">0.1</property>
    <property name="mlt_service">frei0r.flippo</property>
    <property name="kdenlive_id">frei0r.flippo</property>
    <property name="X axis">1</property>
    <property name="Y axis">0</property>
    <property name="kdenlive:collapsed">0</property>
   </filter>
  </entry>
  <entry producer="producer103" in="00:00:00.320" out="00:00:02.640">
   <property name="kdenlive:id">29</property>
   <property name="kdenlive:activeeffect">0</property>
   <filter id="filter49">
    <property name="rotate_center">1</property>
    <property name="mlt_service">qtblend</property>
    <property name="kdenlive_id">qtblend</property>
    <property name="rect">00:00:00.320=-22 -18 225 180 1.000000</property>
    <property name="rotation">00:00:00.320=0</property>
    <property name="compositing">0</property>
    <property name="distort">0</property>
    <property name="kdenlive:collapsed">0</property>
   </filter>
  </entry>
  <entry producer="producer103" in="00:00:00.320" out="00:00:02.640">
   <property name="kdenlive:id">29</property>
   <property name="kdenlive:activeeffect">1</property>
   <filter id="filter50">
    <property name="rotate_center">1</property>
    <property name="mlt_service">qtblend</property>
    <property name="kdenlive_id">qtblend</property>
    <property name="rect">00:00:00.320=-22 -18 225 180 1.000000</property>
    <property name="rotation">00:00:00.320=0</property>
    <property name="compositing">0</property>
    <property name="distort">0</property>
    <property name="kdenlive:collapsed">0</property>
   </filter>
   <filter id="filter51">
    <property name="version">0.1</property>
    <property name="mlt_service">frei0r.flippo</property>
    <property name="kdenlive_id">frei0r.flippo</property>
    <property name="X axis">1</property>
    <property name="Y axis">0</property>
    <property name="kdenlive:collapsed">0</property>
   </filter>
  </entry>
  <entry producer="producer104" in="00:00:00.000" out="00:00:01.760">
   <property name="kdenlive:id">30</property>
   <property name="kdenlive:activeeffect">0</property>
   <filter id="filter52">
    <property name="rotate_center">1</property>
    <property name="mlt_service">qtblend</property>
    <property name="kdenlive_id">qtblend</property>
    <property name="rect">00:00:00.000=-22 -18 225 180 1.000000</property>
    <property name="rotation">00:00:00.000=0</property>
    <property name="compositing">0</property>
    <property name="distort">0</property>
    <property name="kdenlive:collapsed">0</property>
   </filter>
  </entry>
  <entry producer="producer104" in="00:00:00.000" out="00:00:01.760">
   <property name="kdenlive:id">30</property>
   <property name="kdenlive:activeeffect">1</property>
   <filter id="filter53">
    <property name="rotate_center">1</property>
    <property name="mlt_service">qtblend</property>
    <property name="kdenlive_id">qtblend</property>
    <property name="rect">00:00:00.000=-22 -18 225 180 1.000000</property>
    <property name="rotation">00:00:00.000=0</property>
    <property name="compositing">0</property>
    <property name="distort">0</property>
    <property name="kdenlive:collapsed">0</property>
   </filter>
   <filter id="filter54">
    <property name="version">0.1</property>
    <property name="mlt_service">frei0r.flippo</property>
    <property name="kdenlive_id">frei0r.flippo</property>
    <property name="X axis">1</property>
    <property name="Y axis">0</property>
    <property name="kdenlive:collapsed">0</property>
   </filter>
  </entry>
  <entry producer="producer105" in="00:00:00.000" out="00:00:01.680">
   <property name="kdenlive:id">31</property>
   <property name="kdenlive:activeeffect">0</property>
   <filter id="filter55">
    <property name="rotate_center">1</property>
    <property name="mlt_service">qtblend</property>
    <property name="kdenlive_id">qtblend</property>
    <property name="rect">00:00:00.000=-22 -18 225 180 1.000000</property>
    <property name="rotation">00:00:00.000=0</property>
    <property name="compositing">0</property>
    <property name="distort">0</property>
    <property name="kdenlive:collapsed">0</property>
   </filter>
  </entry>
  <entry producer="producer105" in="00:00:00.000" out="00:00:01.680">
   <property name="kdenlive:id">31</property>
   <property name="kdenlive:activeeffect">1</property>
   <filter id="filter56">
    <property name="rotate_center">1</property>
    <property name="mlt_service">qtblend</property>
    <property name="kdenlive_id">qtblend</property>
    <property name="rect">00:00:00.000=-22 -18 225 180 1.000000</property>
    <property name="rotation">00:00:00.000=0</property>
    <property name="compositing">0</property>
    <property name="distort">0</property>
    <property name="kdenlive:collapsed">0</property>
   </filter>
   <filter id="filter57">
    <property name="version">0.1</property>
    <property name="mlt_service">frei0r.flippo</property>
    <property name="kdenlive_id">frei0r.flippo</property>
    <property name="X axis">1</property>
    <property name="Y axis">0</property>
    <property name="kdenlive:collapsed">0</property>
   </filter>
  </entry>
  <entry producer="producer106" in="00:00:00.400" out="00:00:02.840">
   <property name="kdenlive:id">32</property>
   <property name="kdenlive:activeeffect">0</property>
   <filter id="filter58">
    <property name="rotate_center">1</property>
    <property name="mlt_service">qtblend</property>
    <property name="kdenlive_id">qtblend</property>
    <property name="rect">00:00:00.400=-22 -18 225 180 1.000000</property>
    <property name="rotation">00:00:00.400=0</property>
    <property name="compositing">0</property>
    <property name="distort">0</property>
    <property name="kdenlive:collapsed">0</property>
   </filter>
  </entry>
  <entry producer="producer106" in="00:00:00.400" out="00:00:02.840">
   <property name="kdenlive:id">32</property>
   <property name="kdenlive:activeeffect">1</property>
   <filter id="filter59">
    <property name="rotate_center">1</property>
    <property name="mlt_service">qtblend</property>
    <property name="kdenlive_id">qtblend</property>
    <property name="rect">00:00:00.400=-22 -18 225 180 1.000000</property>
    <property name="rotation">00:00:00.400=0</property>
    <property name="compositing">0</property>
    <property name="distort">0</property>
    <property name="kdenlive:collapsed">0</property>
   </filter>
   <filter id="filter60">
    <property name="version">0.1</property>
    <property name="mlt_service">frei0r.flippo</property>
    <property name="kdenlive_id">frei0r.flippo</property>
    <property name="X axis">1</property>
    <property name="Y axis">0</property>
    <property name="kdenlive:collapsed">0</property>
   </filter>
  </entry>
  <entry producer="producer107" in="00:00:00.000" out="00:00:01.840">
   <property name="kdenlive:id">33</property>
   <property name="kdenlive:activeeffect">0</property>
   <filter id="filter61">
    <property name="rotate_center">1</property>
    <property name="mlt_service">qtblend</property>
    <property name="kdenlive_id">qtblend</property>
    <property name="rect">00:00:00.000=-44 -36 270 216 1.000000</property>
    <property name="rotation">00:00:00.000=0</property>
    <property name="compositing">0</property>
    <property name="distort">0</property>
    <property name="kdenlive:collapsed">0</property>
   </filter>
  </entry>
  <entry producer="producer107" in="00:00:00.000" out="00:00:01.840">
   <property name="kdenlive:id">33</property>
   <property name="kdenlive:activeeffect">1</property>
   <filter id="filter62">
    <property name="rotate_center">1</property>
    <property name="mlt_service">qtblend</property>
    <property name="kdenlive_id">qtblend</property>
    <property name="rect">00:00:00.000=-44 -36 270 216 1.000000</property>
    <property name="rotation">00:00:00.000=0</property>
    <property name="compositing">0</property>
    <property name="distort">0</property>
    <property name="kdenlive:collapsed">0</property>
   </filter>
   <filter id="filter63">
    <property name="version">0.1</property>
    <property name="mlt_service">frei0r.flippo</property>
    <property name="kdenlive_id">frei0r.flippo</property>
    <property name="X axis">1</property>
    <property name="Y axis">0</property>
    <property name="kdenlive:collapsed">0</property>
   </filter>
  </entry>
  <blank length="00:00:00.320"/>
  <entry producer="producer108" in="00:00:00.000" out="00:00:02.440">
   <property name="kdenlive:id">34</property>
   <property name="kdenlive:activeeffect">0</property>
   <filter id="filter64">
    <property name="rotate_center">1</property>
    <property name="mlt_service">qtblend</property>
    <property name="kdenlive_id">qtblend</property>
    <property name="rect">00:00:00.000=-43 -18 225 180 1.000000</property>
    <property name="rotation">00:00:00.000=0</property>
    <property name="compositing">0</property>
    <property name="distort">0</property>
    <property name="kdenlive:collapsed">0</property>
   </filter>
  </entry>
  <entry producer="producer108" in="00:00:00.000" out="00:00:02.440">
   <property name="kdenlive:id">34</property>
   <property name="kdenlive:activeeffect">0</property>
   <filter id="filter65">
    <property name="rotate_center">1</property>
    <property name="mlt_service">qtblend</property>
    <property name="kdenlive_id">qtblend</property>
    <property name="rect">00:00:00.000=-81 -36 270 216 1.000000</property>
    <property name="rotation">00:00:00.000=0</property>
    <property name="compositing">0</property>
    <property name="distort">0</property>
    <property name="kdenlive:collapsed">0</property>
   </filter>
   <filter id="filter66">
    <property name="version">0.1</property>
    <property name="mlt_service">frei0r.flippo</property>
    <property name="kdenlive_id">frei0r.flippo</property>
    <property name="X axis">1</property>
    <property name="Y axis">0</property>
    <property name="kdenlive:collapsed">0</property>
   </filter>
  </entry>
  <entry producer="producer109" in="00:00:00.000" out="00:00:02.120">
   <property name="kdenlive:id">35</property>
   <property name="kdenlive:activeeffect">0</property>
   <filter id="filter67">
    <property name="rotate_center">1</property>
    <property name="mlt_service">qtblend</property>
    <property name="kdenlive_id">qtblend</property>
    <property name="rect">00:00:00.000=-31 -18 225 180 1.000000</property>
    <property name="rotation">00:00:00.000=0</property>
    <property name="compositing">0</property>
    <property name="distort">0</property>
    <property name="kdenlive:collapsed">0</property>
   </filter>
  </entry>
  <entry producer="producer109" in="00:00:00.000" out="00:00:02.120">
   <property name="kdenlive:id">35</property>
   <property name="kdenlive:activeeffect">0</property>
   <filter id="filter68">
    <property name="rotate_center">1</property>
    <property name="mlt_service">qtblend</property>
    <property name="kdenlive_id">qtblend</property>
    <property name="rect">00:00:00.000=-44 -36 270 216 1.000000</property>
    <property name="rotation">00:00:00.000=0</property>
    <property name="compositing">0</property>
    <property name="distort">0</property>
    <property name="kdenlive:collapsed">0</property>
   </filter>
   <filter id="filter69">
    <property name="version">0.1</property>
    <property name="mlt_service">frei0r.flippo</property>
    <property name="kdenlive_id">frei0r.flippo</property>
    <property name="X axis">1</property>
    <property name="Y axis">0</property>
    <property name="kdenlive:collapsed">0</property>
   </filter>
  </entry>
  <entry producer="producer110" in="00:00:00.000" out="00:00:01.640">
   <property name="kdenlive:id">36</property>
   <property name="kdenlive:activeeffect">0</property>
   <filter id="filter70">
    <property name="rotate_center">1</property>
    <property name="mlt_service">qtblend</property>
    <property name="kdenlive_id">qtblend</property>
    <property name="rect">00:00:00.000=-38 -18 225 180 1.000000</property>
    <property name="rotation">00:00:00.000=0</property>
    <property name="compositing">0</property>
    <property name="distort">0</property>
    <property name="kdenlive:collapsed">0</property>
   </filter>
  </entry>
  <entry producer="producer110" in="00:00:00.000" out="00:00:01.640">
   <property name="kdenlive:id">36</property>
   <property name="kdenlive:activeeffect">0</property>
   <filter id="filter71">
    <property name="rotate_center">1</property>
    <property name="mlt_service">qtblend</property>
    <property name="kdenlive_id">qtblend</property>
    <property name="rect">00:00:00.000=-52 -36 270 216 1.000000</property>
    <property name="rotation">00:00:00.000=0</property>
    <property name="compositing">0</property>
    <property name="distort">0</property>
    <property name="kdenlive:collapsed">0</property>
   </filter>
   <filter id="filter72">
    <property name="version">0.1</property>
    <property name="mlt_service">frei0r.flippo</property>
    <property name="kdenlive_id">frei0r.flippo</property>
    <property name="X axis">1</property>
    <property name="Y axis">0</property>
    <property name="kdenlive:collapsed">0</property>
   </filter>
  </entry>
  <entry producer="producer111" in="00:00:00.000" out="00:00:01.880">
   <property name="kdenlive:id">37</property>
   <property name="kdenlive:activeeffect">0</property>
   <filter id="filter73">
    <property name="rotate_center">1</property>
    <property name="mlt_service">qtblend</property>
    <property name="kdenlive_id">qtblend</property>
    <property name="rect">00:00:00.000=-45 -18 225 180 1.000000</property>
    <property name="rotation">00:00:00.000=0</property>
    <property name="compositing">0</property>
    <property name="distort">0</property>
    <property name="kdenlive:collapsed">0</property>
   </filter>
  </entry>
  <entry producer="producer111" in="00:00:00.000" out="00:00:01.880">
   <property name="kdenlive:id">37</property>
   <property name="kdenlive:activeeffect">0</property>
   <filter id="filter74">
    <property name="rotate_center">1</property>
    <property name="mlt_service">qtblend</property>
    <property name="kdenlive_id">qtblend</property>
    <property name="rect">00:00:00.000=-81 -36 270 216 1.000000</property>
    <property name="rotation">00:00:00.000=0</property>
    <property name="compositing">0</property>
    <property name="distort">0</property>
    <property name="kdenlive:collapsed">0</property>
   </filter>
   <filter id="filter75">
    <property name="version">0.1</property>
    <property name="mlt_service">frei0r.flippo</property>
    <property name="kdenlive_id">frei0r.flippo</property>
    <property name="X axis">1</property>
    <property name="Y axis">0</property>
    <property name="kdenlive:collapsed">0</property>
   </filter>
  </entry>
  <entry producer="producer112" in="00:00:00.000" out="00:00:03.400">
   <property name="kdenlive:id">38</property>
   <property name="kdenlive:activeeffect">0</property>
   <filter id="filter76">
    <property name="rotate_center">1</property>
    <property name="mlt_service">qtblend</property>
    <property name="kdenlive_id">qtblend</property>
    <property name="rect">00:00:00.000=-45 -18 225 180 1.000000</property>
    <property name="rotation">00:00:00.000=0</property>
    <property name="compositing">0</property>
    <property name="distort">0</property>
    <property name="kdenlive:collapsed">0</property>
   </filter>
  </entry>
  <entry producer="producer112" in="00:00:00.000" out="00:00:03.400">
   <property name="kdenlive:id">38</property>
   <property name="kdenlive:activeeffect">1</property>
   <filter id="filter77">
    <property name="rotate_center">1</property>
    <property name="mlt_service">qtblend</property>
    <property name="kdenlive_id">qtblend</property>
    <property name="rect">00:00:00.000=-67 -36 270 216 1.000000</property>
    <property name="rotation">00:00:00.000=0</property>
    <property name="compositing">0</property>
    <property name="distort">0</property>
    <property name="kdenlive:collapsed">0</property>
   </filter>
   <filter id="filter78">
    <property name="version">0.1</property>
    <property name="mlt_service">frei0r.flippo</property>
    <property name="kdenlive_id">frei0r.flippo</property>
    <property name="X axis">1</property>
    <property name="Y axis">0</property>
    <property name="kdenlive:collapsed">0</property>
   </filter>
  </entry>
  <entry producer="producer113" in="00:00:00.000" out="00:00:01.920">
   <property name="kdenlive:id">39</property>
   <property name="kdenlive:activeeffect">0</property>
   <filter id="filter79">
    <property name="rotate_center">1</property>
    <property name="mlt_service">qtblend</property>
    <property name="kdenlive_id">qtblend</property>
    <property name="rect">00:00:00.000=-44 -18 225 180 1.000000</property>
    <property name="rotation">00:00:00.000=0</property>
    <property name="compositing">0</property>
    <property name="distort">0</property>
    <property name="kdenlive:collapsed">0</property>
   </filter>
  </entry>
  <entry producer="producer113" in="00:00:00.000" out="00:00:01.920">
   <property name="kdenlive:id">39</property>
   <property name="kdenlive:activeeffect">1</property>
   <filter id="filter80">
    <property name="rotate_center">1</property>
    <property name="mlt_service">qtblend</property>
    <property name="kdenlive_id">qtblend</property>
    <property name="rect">00:00:00.000=-66 -36 270 216 1.000000</property>
    <property name="rotation">00:00:00.000=0</property>
    <property name="compositing">0</property>
    <property name="distort">0</property>
    <property name="kdenlive:collapsed">0</property>
   </filter>
   <filter id="filter81">
    <property name="version">0.1</property>
    <property name="mlt_service">frei0r.flippo</property>
    <property name="kdenlive_id">frei0r.flippo</property>
    <property name="X axis">1</property>
    <property name="Y axis">0</property>
    <property name="kdenlive:collapsed">0</property>
   </filter>
  </entry>
  <blank length="00:00:00.360"/>
  <entry producer="producer114" in="00:00:00.000" out="00:00:03.520">
   <property name="kdenlive:id">40</property>
   <property name="kdenlive:activeeffect">0</property>
   <filter id="filter82">
    <property name="rotate_center">1</property>
    <property name="mlt_service">qtblend</property>
    <property name="kdenlive_id">qtblend</property>
    <property name="rect">00:00:00.000=0 -18 225 180 1.000000</property>
    <property name="rotation">00:00:00.000=0</property>
    <property name="compositing">0</property>
    <property name="distort">0</property>
    <property name="kdenlive:collapsed">0</property>
   </filter>
  </entry>
  <entry producer="producer114" in="00:00:00.000" out="00:00:03.520">
   <property name="kdenlive:id">40</property>
   <property name="kdenlive:activeeffect">0</property>
   <filter id="filter83">
    <property name="rotate_center">1</property>
    <property name="mlt_service">qtblend</property>
    <property name="kdenlive_id">qtblend</property>
    <property name="rect">00:00:00.000=-22 -36 270 216 1.000000</property>
    <property name="rotation">00:00:00.000=0</property>
    <property name="compositing">0</property>
    <property name="distort">0</property>
    <property name="kdenlive:collapsed">0</property>
   </filter>
   <filter id="filter84">
    <property name="version">0.1</property>
    <property name="mlt_service">frei0r.flippo</property>
    <property name="kdenlive_id">frei0r.flippo</property>
    <property name="X axis">1</property>
    <property name="Y axis">0</property>
    <property name="kdenlive:collapsed">0</property>
   </filter>
  </entry>
  <entry producer="producer115" in="00:00:00.000" out="00:00:02.160">
   <property name="kdenlive:id">41</property>
   <property name="kdenlive:activeeffect">0</property>
   <filter id="filter85">
    <property name="rotate_center">1</property>
    <property name="mlt_service">qtblend</property>
    <property name="kdenlive_id">qtblend</property>
    <property name="rect">00:00:00.000=0 -18 225 180 1.000000</property>
    <property name="rotation">00:00:00.000=0</property>
    <property name="compositing">0</property>
    <property name="distort">0</property>
    <property name="kdenlive:collapsed">0</property>
   </filter>
  </entry>
  <entry producer="producer115" in="00:00:00.000" out="00:00:02.160">
   <property name="kdenlive:id">41</property>
   <property name="kdenlive:activeeffect">0</property>
   <filter id="filter86">
    <property name="rotate_center">1</property>
    <property name="mlt_service">qtblend</property>
    <property name="kdenlive_id">qtblend</property>
    <property name="rect">00:00:00.000=-43 -36 270 216 1.000000</property>
    <property name="rotation">00:00:00.000=0</property>
    <property name="compositing">0</property>
    <property name="distort">0</property>
    <property name="kdenlive:collapsed">0</property>
   </filter>
   <filter id="filter87">
    <property name="version">0.1</property>
    <property name="mlt_service">frei0r.flippo</property>
    <property name="kdenlive_id">frei0r.flippo</property>
    <property name="X axis">1</property>
    <property name="Y axis">0</property>
    <property name="kdenlive:collapsed">0</property>
   </filter>
  </entry>
  <entry producer="producer116" in="00:00:00.000" out="00:00:02.000">
   <property name="kdenlive:id">42</property>
   <property name="kdenlive:activeeffect">0</property>
   <filter id="filter88">
    <property name="rotate_center">1</property>
    <property name="mlt_service">qtblend</property>
    <property name="kdenlive_id">qtblend</property>
    <property name="rect">00:00:00.000=-41 0 225 180 1.000000</property>
    <property name="rotation">00:00:00.000=0</property>
    <property name="compositing">0</property>
    <property name="distort">0</property>
    <property name="kdenlive:collapsed">0</property>
   </filter>
  </entry>
  <entry producer="producer116" in="00:00:00.000" out="00:00:02.000">
   <property name="kdenlive:id">42</property>
   <property name="kdenlive:activeeffect">0</property>
   <filter id="filter89">
    <property name="rotate_center">1</property>
    <property name="mlt_service">qtblend</property>
    <property name="kdenlive_id">qtblend</property>
    <property name="rect">00:00:00.000=-63 -18 270 216 1.000000</property>
    <property name="rotation">00:00:00.000=0</property>
    <property name="compositing">0</property>
    <property name="distort">0</property>
    <property name="kdenlive:collapsed">0</property>
   </filter>
   <filter id="filter90">
    <property name="version">0.1</property>
    <property name="mlt_service">frei0r.flippo</property>
    <property name="kdenlive_id">frei0r.flippo</property>
    <property name="X axis">1</property>
    <property name="Y axis">0</property>
    <property name="kdenlive:collapsed">0</property>
   </filter>
  </entry>
  <entry producer="producer117" in="00:00:00.000" out="00:00:02.120">
   <property name="kdenlive:id">43</property>
   <property name="kdenlive:activeeffect">0</property>
   <filter id="filter91">
    <property name="rotate_center">1</property>
    <property name="mlt_service">qtblend</property>
    <property name="kdenlive_id">qtblend</property>
    <property name="rect">00:00:00.000=-27 -18 225 180 1.000000</property>
    <property name="rotation">00:00:00.000=0</property>
    <property name="compositing">0</property>
    <property name="distort">0</property>
    <property name="kdenlive:collapsed">0</property>
   </filter>
  </entry>
  <entry producer="producer117" in="00:00:00.000" out="00:00:02.120">
   <property name="kdenlive:id">43</property>
   <property name="kdenlive:activeeffect">0</property>
   <filter id="filter92">
    <property name="rotate_center">1</property>
    <property name="mlt_service">qtblend</property>
    <property name="kdenlive_id">qtblend</property>
    <property name="rect">00:00:00.000=-41 -36 270 216 1.000000</property>
    <property name="rotation">00:00:00.000=0</property>
    <property name="compositing">0</property>
    <property name="distort">0</property>
    <property name="kdenlive:collapsed">0</property>
   </filter>
   <filter id="filter93">
    <property name="version">0.1</property>
    <property name="mlt_service">frei0r.flippo</property>
    <property name="kdenlive_id">frei0r.flippo</property>
    <property name="X axis">1</property>
    <property name="Y axis">0</property>
    <property name="kdenlive:collapsed">0</property>
   </filter>
  </entry>
  <entry producer="producer118" in="00:00:00.000" out="00:00:02.760">
   <property name="kdenlive:id">44</property>
   <property name="kdenlive:activeeffect">0</property>
   <filter id="filter94">
    <property name="rotate_center">1</property>
    <property name="mlt_service">qtblend</property>
    <property name="kdenlive_id">qtblend</property>
    <property name="rect">00:00:00.000=-45 -18 225 180 1.000000</property>
    <property name="rotation">00:00:00.000=0</property>
    <property name="compositing">0</property>
    <property name="distort">0</property>
    <property name="kdenlive:collapsed">0</property>
   </filter>
  </entry>
  <entry producer="producer118" in="00:00:00.000" out="00:00:02.760">
   <property name="kdenlive:id">44</property>
   <property name="kdenlive:activeeffect">0</property>
   <filter id="filter95">
    <property name="rotate_center">1</property>
    <property name="mlt_service">qtblend</property>
    <property name="kdenlive_id">qtblend</property>
    <property name="rect">00:00:00.000=-64 -36 270 216 1.000000</property>
    <property name="rotation">00:00:00.000=0</property>
    <property name="compositing">0</property>
    <property name="distort">0</property>
    <property name="kdenlive:collapsed">0</property>
   </filter>
   <filter id="filter96">
    <property name="version">0.1</property>
    <property name="mlt_service">frei0r.flippo</property>
    <property name="kdenlive_id">frei0r.flippo</property>
    <property name="X axis">1</property>
    <property name="Y axis">0</property>
    <property name="kdenlive:collapsed">0</property>
   </filter>
  </entry>
  <entry producer="producer119" in="00:00:00.000" out="00:00:05.800">
   <property name="kdenlive:id">45</property>
   <property name="kdenlive:activeeffect">0</property>
   <filter id="filter97">
    <property name="rotate_center">1</property>
    <property name="mlt_service">qtblend</property>
    <property name="kdenlive_id">qtblend</property>
    <property name="rect">00:00:00.000=-45 0 225 180 1.000000</property>
    <property name="rotation">00:00:00.000=0</property>
    <property name="compositing">0</property>
    <property name="distort">0</property>
    <property name="kdenlive:collapsed">0</property>
   </filter>
  </entry>
  <entry producer="producer119" in="00:00:00.000" out="00:00:05.800">
   <property name="kdenlive:id">45</property>
   <property name="kdenlive:activeeffect">0</property>
   <filter id="filter98">
    <property name="rotate_center">1</property>
    <property name="mlt_service">qtblend</property>
    <property name="kdenlive_id">qtblend</property>
    <property name="rect">00:00:00.000=-67 -18 270 216 1.000000</property>
    <property name="rotation">00:00:00.000=0</property>
    <property name="compositing">0</property>
    <property name="distort">0</property>
    <property name="kdenlive:collapsed">0</property>
   </filter>
   <filter id="filter99">
    <property name="version">0.1</property>
    <property name="mlt_service">frei0r.flippo</property>
    <property name="kdenlive_id">frei0r.flippo</property>
    <property name="X axis">1</property>
    <property name="Y axis">0</property>
    <property name="kdenlive:collapsed">0</property>
   </filter>
  </entry>
  <blank length="00:00:00.400"/>
  <entry producer="producer120" in="00:00:00.000" out="00:00:03.240">
   <property name="kdenlive:id">46</property>
   <property name="kdenlive:activeeffect">0</property>
   <filter id="filter100">
    <property name="rotate_center">1</property>
    <property name="mlt_service">qtblend</property>
    <property name="kdenlive_id">qtblend</property>
    <property name="rect">00:00:00.000=-22 -18 225 180 1.000000</property>
    <property name="rotation">00:00:00.000=0</property>
    <property name="compositing">0</property>
    <property name="distort">0</property>
    <property name="kdenlive:collapsed">0</property>
   </filter>
  </entry>
  <entry producer="producer120" in="00:00:00.000" out="00:00:03.240">
   <property name="kdenlive:id">46</property>
   <property name="kdenlive:activeeffect">0</property>
   <filter id="filter101">
    <property name="rotate_center">1</property>
    <property name="mlt_service">qtblend</property>
    <property name="kdenlive_id">qtblend</property>
    <property name="rect">00:00:00.000=-23 -36 270 216 1.000000</property>
    <property name="rotation">00:00:00.000=0</property>
    <property name="compositing">0</property>
    <property name="distort">0</property>
    <property name="kdenlive:collapsed">0</property>
   </filter>
   <filter id="filter102">
    <property name="version">0.1</property>
    <property name="mlt_service">frei0r.flippo</property>
    <property name="kdenlive_id">frei0r.flippo</property>
    <property name="X axis">1</property>
    <property name="Y axis">0</property>
    <property name="kdenlive:collapsed">0</property>
   </filter>
  </entry>
  <entry producer="producer121" in="00:00:00.000" out="00:00:02.360">
   <property name="kdenlive:id">47</property>
   <property name="kdenlive:activeeffect">0</property>
   <filter id="filter103">
    <property name="rotate_center">1</property>
    <property name="mlt_service">qtblend</property>
    <property name="kdenlive_id">qtblend</property>
    <property name="rect">00:00:00.000=-26 -18 225 180 1.000000</property>
    <property name="rotation">00:00:00.000=0</property>
    <property name="compositing">0</property>
    <property name="distort">0</property>
    <property name="kdenlive:collapsed">0</property>
   </filter>
  </entry>
  <entry producer="producer121" in="00:00:00.000" out="00:00:02.360">
   <property name="kdenlive:id">47</property>
   <property name="kdenlive:activeeffect">0</property>
   <filter id="filter104">
    <property name="rotate_center">1</property>
    <property name="mlt_service">qtblend</property>
    <property name="kdenlive_id">qtblend</property>
    <property name="rect">00:00:00.000=-41 -36 270 216 1.000000</property>
    <property name="rotation">00:00:00.000=0</property>
    <property name="compositing">0</property>
    <property name="distort">0</property>
    <property name="kdenlive:collapsed">0</property>
   </filter>
   <filter id="filter105">
    <property name="version">0.1</property>
    <property name="mlt_service">frei0r.flippo</property>
    <property name="kdenlive_id">frei0r.flippo</property>
    <property name="X axis">1</property>
    <property name="Y axis">0</property>
    <property name="kdenlive:collapsed">0</property>
   </filter>
  </entry>
  <entry producer="producer122" in="00:00:00.000" out="00:00:04.960">
   <property name="kdenlive:id">48</property>
   <property name="kdenlive:activeeffect">0</property>
   <filter id="filter106">
    <property name="rotate_center">1</property>
    <property name="mlt_service">qtblend</property>
    <property name="kdenlive_id">qtblend</property>
    <property name="rect">00:00:00.000=-1 -18 225 180 1.000000</property>
    <property name="rotation">00:00:00.000=0</property>
    <property name="compositing">0</property>
    <property name="distort">0</property>
    <property name="kdenlive:collapsed">0</property>
   </filter>
  </entry>
  <entry producer="producer122" in="00:00:00.000" out="00:00:04.960">
   <property name="kdenlive:id">48</property>
   <property name="kdenlive:activeeffect">0</property>
   <filter id="filter107">
    <property name="rotate_center">1</property>
    <property name="mlt_service">qtblend</property>
    <property name="kdenlive_id">qtblend</property>
    <property name="rect">00:00:00.000=-23 -36 270 216 1.000000</property>
    <property name="rotation">00:00:00.000=0</property>
    <property name="compositing">0</property>
    <property name="distort">0</property>
    <property name="kdenlive:collapsed">0</property>
   </filter>
   <filter id="filter108">
    <property name="version">0.1</property>
    <property name="mlt_service">frei0r.flippo</property>
    <property name="kdenlive_id">frei0r.flippo</property>
    <property name="X axis">1</property>
    <property name="Y axis">0</property>
    <property name="kdenlive:collapsed">0</property>
   </filter>
  </entry>
  <entry producer="producer123" in="00:00:00.000" out="00:00:02.160">
   <property name="kdenlive:id">49</property>
   <property name="kdenlive:activeeffect">0</property>
   <filter id="filter109">
    <property name="rotate_center">1</property>
    <property name="mlt_service">qtblend</property>
    <property name="kdenlive_id">qtblend</property>
    <property name="rect">00:00:00.000=-31 -18 225 180 1.000000</property>
    <property name="rotation">00:00:00.000=0</property>
    <property name="compositing">0</property>
    <property name="distort">0</property>
    <property name="kdenlive:collapsed">0</property>
   </filter>
  </entry>
  <entry producer="producer123" in="00:00:00.000" out="00:00:02.160">
   <property name="kdenlive:id">49</property>
   <property name="kdenlive:activeeffect">0</property>
   <filter id="filter110">
    <property name="rotate_center">1</property>
    <property name="mlt_service">qtblend</property>
    <property name="kdenlive_id">qtblend</property>
    <property name="rect">00:00:00.000=-45 -36 270 216 1.000000</property>
    <property name="rotation">00:00:00.000=0</property>
    <property name="compositing">0</property>
    <property name="distort">0</property>
    <property name="kdenlive:collapsed">0</property>
   </filter>
   <filter id="filter111">
    <property name="version">0.1</property>
    <property name="mlt_service">frei0r.flippo</property>
    <property name="kdenlive_id">frei0r.flippo</property>
    <property name="X axis">1</property>
    <property name="Y axis">0</property>
    <property name="kdenlive:collapsed">0</property>
   </filter>
  </entry>
  <entry producer="producer124" in="00:00:00.000" out="00:00:04.080">
   <property name="kdenlive:id">50</property>
   <property name="kdenlive:activeeffect">0</property>
   <filter id="filter112">
    <property name="rotate_center">1</property>
    <property name="mlt_service">qtblend</property>
    <property name="kdenlive_id">qtblend</property>
    <property name="rect">00:00:00.000=-22 -18 225 180 1.000000</property>
    <property name="rotation">00:00:00.000=0</property>
    <property name="compositing">0</property>
    <property name="distort">0</property>
    <property name="kdenlive:collapsed">0</property>
   </filter>
  </entry>
  <entry producer="producer124" in="00:00:00.000" out="00:00:04.080">
   <property name="kdenlive:id">50</property>
   <property name="kdenlive:activeeffect">1</property>
   <filter id="filter113">
    <property name="rotate_center">1</property>
    <property name="mlt_service">qtblend</property>
    <property name="kdenlive_id">qtblend</property>
    <property name="rect">00:00:00.000=-44 -36 270 216 1.000000</property>
    <property name="rotation">00:00:00.000=0</property>
    <property name="compositing">0</property>
    <property name="distort">0</property>
    <property name="kdenlive:collapsed">0</property>
   </filter>
   <filter id="filter114">
    <property name="version">0.1</property>
    <property name="mlt_service">frei0r.flippo</property>
    <property name="kdenlive_id">frei0r.flippo</property>
    <property name="X axis">1</property>
    <property name="Y axis">0</property>
    <property name="kdenlive:collapsed">0</property>
   </filter>
  </entry>
  <entry producer="producer125" in="00:00:00.000" out="00:00:02.080">
   <property name="kdenlive:id">51</property>
   <property name="kdenlive:activeeffect">0</property>
   <filter id="filter115">
    <property name="rotate_center">1</property>
    <property name="mlt_service">qtblend</property>
    <property name="kdenlive_id">qtblend</property>
    <property name="rect">00:00:00.000=0 -18 225 180 1.000000</property>
    <property name="rotation">00:00:00.000=0</property>
    <property name="compositing">0</property>
    <property name="distort">0</property>
    <property name="kdenlive:collapsed">0</property>
   </filter>
  </entry>
  <entry producer="producer125" in="00:00:00.000" out="00:00:02.080">
   <property name="kdenlive:id">51</property>
   <property name="kdenlive:activeeffect">0</property>
   <filter id="filter116">
    <property name="rotate_center">1</property>
    <property name="mlt_service">qtblend</property>
    <property name="kdenlive_id">qtblend</property>
    <property name="rect">00:00:00.000=-15 -36 270 216 1.000000</property>
    <property name="rotation">00:00:00.000=0</property>
    <property name="compositing">0</property>
    <property name="distort">0</property>
    <property name="kdenlive:collapsed">0</property>
   </filter>
   <filter id="filter117">
    <property name="version">0.1</property>
    <property name="mlt_service">frei0r.flippo</property>
    <property name="kdenlive_id">frei0r.flippo</property>
    <property name="X axis">1</property>
    <property name="Y axis">0</property>
    <property name="kdenlive:collapsed">0</property>
   </filter>
  </entry>
  <blank length="00:00:00.680"/>
  <entry producer="producer126" in="00:00:00.000" out="00:00:01.640">
   <property name="kdenlive:id">52</property>
   <property name="kdenlive:activeeffect">0</property>
   <filter id="filter118">
    <property name="rotate_center">1</property>
    <property name="mlt_service">qtblend</property>
    <property name="kdenlive_id">qtblend</property>
    <property name="rect">00:00:00.000=-22 -18 225 180 1.000000</property>
    <property name="rotation">00:00:00.000=0</property>
    <property name="compositing">0</property>
    <property name="distort">0</property>
    <property name="kdenlive:collapsed">0</property>
   </filter>
  </entry>
  <entry producer="producer126" in="00:00:00.000" out="00:00:01.640">
   <property name="kdenlive:id">52</property>
   <property name="kdenlive:activeeffect">0</property>
   <filter id="filter119">
    <property name="rotate_center">1</property>
    <property name="mlt_service">qtblend</property>
    <property name="kdenlive_id">qtblend</property>
    <property name="rect">00:00:00.000=-44 -36 270 216 1.000000</property>
    <property name="rotation">00:00:00.000=0</property>
    <property name="compositing">0</property>
    <property name="distort">0</property>
    <property name="kdenlive:collapsed">0</property>
   </filter>
   <filter id="filter120">
    <property name="version">0.1</property>
    <property name="mlt_service">frei0r.flippo</property>
    <property name="kdenlive_id">frei0r.flippo</property>
    <property name="X axis">1</property>
    <property name="Y axis">0</property>
    <property name="kdenlive:collapsed">0</property>
   </filter>
  </entry>
  <entry producer="producer127" in="00:00:00.000" out="00:00:01.600">
   <property name="kdenlive:id">53</property>
   <property name="kdenlive:activeeffect">0</property>
   <filter id="filter121">
    <property name="rotate_center">1</property>
    <property name="mlt_service">qtblend</property>
    <property name="kdenlive_id">qtblend</property>
    <property name="rect">00:00:00.000=-22 -18 225 180 1.000000</property>
    <property name="rotation">00:00:00.000=0</property>
    <property name="compositing">0</property>
    <property name="distort">0</property>
    <property name="kdenlive:collapsed">0</property>
   </filter>
  </entry>
  <entry producer="producer127" in="00:00:00.000" out="00:00:01.600">
   <property name="kdenlive:id">53</property>
   <property name="kdenlive:activeeffect">0</property>
   <filter id="filter122">
    <property name="rotate_center">1</property>
    <property name="mlt_service">qtblend</property>
    <property name="kdenlive_id">qtblend</property>
    <property name="rect">00:00:00.000=-44 -36 270 216 1.000000</property>
    <property name="rotation">00:00:00.000=0</property>
    <property name="compositing">0</property>
    <property name="distort">0</property>
    <property name="kdenlive:collapsed">0</property>
   </filter>
   <filter id="filter123">
    <property name="version">0.1</property>
    <property name="mlt_service">frei0r.flippo</property>
    <property name="kdenlive_id">frei0r.flippo</property>
    <property name="X axis">1</property>
    <property name="Y axis">0</property>
    <property name="kdenlive:collapsed">0</property>
   </filter>
  </entry>
  <entry producer="producer128" in="00:00:00.000" out="00:00:01.920">
   <property name="kdenlive:id">54</property>
   <property name="kdenlive:activeeffect">0</property>
   <filter id="filter124">
    <property name="rotate_center">1</property>
    <property name="mlt_service">qtblend</property>
    <property name="kdenlive_id">qtblend</property>
    <property name="rect">00:00:00.000=-22 0 225 180 1.000000</property>
    <property name="rotation">00:00:00.000=0</property>
    <property name="compositing">0</property>
    <property name="distort">0</property>
    <property name="kdenlive:collapsed">0</property>
   </filter>
  </entry>
  <entry producer="producer128" in="00:00:00.000" out="00:00:01.920">
   <property name="kdenlive:id">54</property>
   <property name="kdenlive:activeeffect">0</property>
   <filter id="filter125">
    <property name="rotate_center">1</property>
    <property name="mlt_service">qtblend</property>
    <property name="kdenlive_id">qtblend</property>
    <property name="rect">00:00:00.000=-44 -18 270 216 1.000000</property>
    <property name="rotation">00:00:00.000=0</property>
    <property name="compositing">0</property>
    <property name="distort">0</property>
    <property name="kdenlive:collapsed">0</property>
   </filter>
   <filter id="filter126">
    <property name="version">0.1</property>
    <property name="mlt_service">frei0r.flippo</property>
    <property name="kdenlive_id">frei0r.flippo</property>
    <property name="X axis">1</property>
    <property name="Y axis">0</property>
    <property name="kdenlive:collapsed">0</property>
   </filter>
  </entry>
  <entry producer="producer129" in="00:00:00.000" out="00:00:01.400">
   <property name="kdenlive:id">55</property>
   <property name="kdenlive:activeeffect">0</property>
   <filter id="filter127">
    <property name="rotate_center">1</property>
    <property name="mlt_service">qtblend</property>
    <property name="kdenlive_id">qtblend</property>
    <property name="rect">00:00:00.000=-22 -18 225 180 1.000000</property>
    <property name="rotation">00:00:00.000=0</property>
    <property name="compositing">0</property>
    <property name="distort">0</property>
    <property name="kdenlive:collapsed">0</property>
   </filter>
  </entry>
  <entry producer="producer129" in="00:00:00.000" out="00:00:01.400">
   <property name="kdenlive:id">55</property>
   <property name="kdenlive:activeeffect">0</property>
   <filter id="filter128">
    <property name="rotate_center">1</property>
    <property name="mlt_service">qtblend</property>
    <property name="kdenlive_id">qtblend</property>
    <property name="rect">00:00:00.000=-44 -36 270 216 1.000000</property>
    <property name="rotation">00:00:00.000=0</property>
    <property name="compositing">0</property>
    <property name="distort">0</property>
    <property name="kdenlive:collapsed">0</property>
   </filter>
   <filter id="filter129">
    <property name="version">0.1</property>
    <property name="mlt_service">frei0r.flippo</property>
    <property name="kdenlive_id">frei0r.flippo</property>
    <property name="X axis">1</property>
    <property name="Y axis">0</property>
    <property name="kdenlive:collapsed">0</property>
   </filter>
  </entry>
  <entry producer="producer130" in="00:00:00.000" out="00:00:02.200">
   <property name="kdenlive:id">56</property>
   <property name="kdenlive:activeeffect">0</property>
   <filter id="filter130">
    <property name="rotate_center">1</property>
    <property name="mlt_service">qtblend</property>
    <property name="kdenlive_id">qtblend</property>
    <property name="rect">00:00:00.000=-22 -18 225 180 1.000000</property>
    <property name="rotation">00:00:00.000=0</property>
    <property name="compositing">0</property>
    <property name="distort">0</property>
    <property name="kdenlive:collapsed">0</property>
   </filter>
  </entry>
  <entry producer="producer130" in="00:00:00.000" out="00:00:02.200">
   <property name="kdenlive:id">56</property>
   <property name="kdenlive:activeeffect">1</property>
   <filter id="filter131">
    <property name="rotate_center">1</property>
    <property name="mlt_service">qtblend</property>
    <property name="kdenlive_id">qtblend</property>
    <property name="rect">00:00:00.000=-44 -36 270 216 1.000000</property>
    <property name="rotation">00:00:00.000=0</property>
    <property name="compositing">0</property>
    <property name="distort">0</property>
    <property name="kdenlive:collapsed">0</property>
   </filter>
   <filter id="filter132">
    <property name="version">0.1</property>
    <property name="mlt_service">frei0r.flippo</property>
    <property name="kdenlive_id">frei0r.flippo</property>
    <property name="X axis">1</property>
    <property name="Y axis">0</property>
    <property name="kdenlive:collapsed">0</property>
   </filter>
  </entry>
  <entry producer="producer131" in="00:00:00.000" out="00:00:01.080">
   <property name="kdenlive:id">57</property>
   <property name="kdenlive:activeeffect">0</property>
   <filter id="filter133">
    <property name="rotate_center">1</property>
    <property name="mlt_service">qtblend</property>
    <property name="kdenlive_id">qtblend</property>
    <property name="rect">00:00:00.000=-22 -3 225 180 1.000000</property>
    <property name="rotation">00:00:00.000=0</property>
    <property name="compositing">0</property>
    <property name="distort">0</property>
    <property name="kdenlive:collapsed">0</property>
   </filter>
  </entry>
  <entry producer="producer131" in="00:00:00.000" out="00:00:01.080">
   <property name="kdenlive:id">57</property>
   <property name="kdenlive:activeeffect">0</property>
   <filter id="filter134">
    <property name="rotate_center">1</property>
    <property name="mlt_service">qtblend</property>
    <property name="kdenlive_id">qtblend</property>
    <property name="rect">00:00:00.000=-44 -28 270 216 1.000000</property>
    <property name="rotation">00:00:00.000=0</property>
    <property name="compositing">0</property>
    <property name="distort">0</property>
    <property name="kdenlive:collapsed">0</property>
   </filter>
   <filter id="filter135">
    <property name="version">0.1</property>
    <property name="mlt_service">frei0r.flippo</property>
    <property name="kdenlive_id">frei0r.flippo</property>
    <property name="X axis">1</property>
    <property name="Y axis">0</property>
    <property name="kdenlive:collapsed">0</property>
   </filter>
  </entry>
  <blank length="00:00:00.560"/>
  <entry producer="producer132" in="00:00:00.360" out="00:00:02.240">
   <property name="kdenlive:id">58</property>
   <property name="kdenlive:activeeffect">0</property>
   <filter id="filter136">
    <property name="rotate_center">1</property>
    <property name="mlt_service">qtblend</property>
    <property name="kdenlive_id">qtblend</property>
    <property name="rect">00:00:00.360=-22 -18 225 180 1.000000</property>
    <property name="rotation">00:00:00.360=0</property>
    <property name="compositing">0</property>
    <property name="distort">0</property>
    <property name="kdenlive:collapsed">0</property>
   </filter>
  </entry>
  <entry producer="producer132" in="00:00:00.360" out="00:00:02.240">
   <property name="kdenlive:id">58</property>
   <property name="kdenlive:activeeffect">1</property>
   <filter id="filter137">
    <property name="rotate_center">1</property>
    <property name="mlt_service">qtblend</property>
    <property name="kdenlive_id">qtblend</property>
    <property name="rect">00:00:00.360=-44 -36 270 216 1.000000</property>
    <property name="rotation">00:00:00.360=0</property>
    <property name="compositing">0</property>
    <property name="distort">0</property>
    <property name="kdenlive:collapsed">0</property>
   </filter>
   <filter id="filter138">
    <property name="version">0.1</property>
    <property name="mlt_service">frei0r.flippo</property>
    <property name="kdenlive_id">frei0r.flippo</property>
    <property name="X axis">1</property>
    <property name="Y axis">0</property>
    <property name="kdenlive:collapsed">0</property>
   </filter>
  </entry>
  <entry producer="producer133" in="00:00:00.000" out="00:00:01.880">
   <property name="kdenlive:id">59</property>
   <property name="kdenlive:activeeffect">0</property>
   <filter id="filter139">
    <property name="rotate_center">1</property>
    <property name="mlt_service">qtblend</property>
    <property name="kdenlive_id">qtblend</property>
    <property name="rect">00:00:00.000=-22 -18 225 180 1.000000</property>
    <property name="rotation">00:00:00.000=0</property>
    <property name="compositing">0</property>
    <property name="distort">0</property>
    <property name="kdenlive:collapsed">0</property>
   </filter>
  </entry>
  <entry producer="producer133" in="00:00:00.000" out="00:00:01.880">
   <property name="kdenlive:id">59</property>
   <property name="kdenlive:activeeffect">0</property>
   <filter id="filter140">
    <property name="rotate_center">1</property>
    <property name="mlt_service">qtblend</property>
    <property name="kdenlive_id">qtblend</property>
    <property name="rect">00:00:00.000=-44 -36 270 216 1.000000</property>
    <property name="rotation">00:00:00.000=0</property>
    <property name="compositing">0</property>
    <property name="distort">0</property>
    <property name="kdenlive:collapsed">0</property>
   </filter>
   <filter id="filter141">
    <property name="version">0.1</property>
    <property name="mlt_service">frei0r.flippo</property>
    <property name="kdenlive_id">frei0r.flippo</property>
    <property name="X axis">1</property>
    <property name="Y axis">0</property>
    <property name="kdenlive:collapsed">0</property>
   </filter>
  </entry>
  <entry producer="producer134" in="00:00:00.000" out="00:00:02.360">
   <property name="kdenlive:id">60</property>
   <property name="kdenlive:activeeffect">0</property>
   <filter id="filter142">
    <property name="rotate_center">1</property>
    <property name="mlt_service">qtblend</property>
    <property name="kdenlive_id">qtblend</property>
    <property name="rect">00:00:00.000=-22 -7 225 180 1.000000</property>
    <property name="rotation">00:00:00.000=0</property>
    <property name="compositing">0</property>
    <property name="distort">0</property>
    <property name="kdenlive:collapsed">0</property>
   </filter>
  </entry>
  <entry producer="producer134" in="00:00:00.000" out="00:00:02.360">
   <property name="kdenlive:id">60</property>
   <property name="kdenlive:activeeffect">0</property>
   <filter id="filter143">
    <property name="rotate_center">1</property>
    <property name="mlt_service">qtblend</property>
    <property name="kdenlive_id">qtblend</property>
    <property name="rect">00:00:00.000=-44 -25 270 216 1.000000</property>
    <property name="rotation">00:00:00.000=0</property>
    <property name="compositing">0</property>
    <property name="distort">0</property>
    <property name="kdenlive:collapsed">0</property>
   </filter>
   <filter id="filter144">
    <property name="version">0.1</property>
    <property name="mlt_service">frei0r.flippo</property>
    <property name="kdenlive_id">frei0r.flippo</property>
    <property name="X axis">1</property>
    <property name="Y axis">0</property>
    <property name="kdenlive:collapsed">0</property>
   </filter>
  </entry>
  <entry producer="producer135" in="00:00:00.000" out="00:00:01.480">
   <property name="kdenlive:id">61</property>
   <property name="kdenlive:activeeffect">0</property>
   <filter id="filter145">
    <property name="rotate_center">1</property>
    <property name="mlt_service">qtblend</property>
    <property name="kdenlive_id">qtblend</property>
    <property name="rect">00:00:00.000=-22 -18 225 180 1.000000</property>
    <property name="rotation">00:00:00.000=0</property>
    <property name="compositing">0</property>
    <property name="distort">0</property>
    <property name="kdenlive:collapsed">0</property>
   </filter>
  </entry>
  <entry producer="producer135" in="00:00:00.000" out="00:00:01.480">
   <property name="kdenlive:id">61</property>
   <property name="kdenlive:activeeffect">0</property>
   <filter id="filter146">
    <property name="rotate_center">1</property>
    <property name="mlt_service">qtblend</property>
    <property name="kdenlive_id">qtblend</property>
    <property name="rect">00:00:00.000=-44 -36 270 216 1.000000</property>
    <property name="rotation">00:00:00.000=0</property>
    <property name="compositing">0</property>
    <property name="distort">0</property>
    <property name="kdenlive:collapsed">0</property>
   </filter>
   <filter id="filter147">
    <property name="version">0.1</property>
    <property name="mlt_service">frei0r.flippo</property>
    <property name="kdenlive_id">frei0r.flippo</property>
    <property name="X axis">1</property>
    <property name="Y axis">0</property>
    <property name="kdenlive:collapsed">0</property>
   </filter>
  </entry>
  <entry producer="producer136" in="00:00:00.000" out="00:00:01.520">
   <property name="kdenlive:id">62</property>
   <property name="kdenlive:activeeffect">0</property>
   <filter id="filter148">
    <property name="rotate_center">1</property>
    <property name="mlt_service">qtblend</property>
    <property name="kdenlive_id">qtblend</property>
    <property name="rect">00:00:00.000=-22 -18 225 180 1.000000</property>
    <property name="rotation">00:00:00.000=0</property>
    <property name="compositing">0</property>
    <property name="distort">0</property>
    <property name="kdenlive:collapsed">0</property>
   </filter>
  </entry>
  <entry producer="producer136" in="00:00:00.000" out="00:00:01.520">
   <property name="kdenlive:id">62</property>
   <property name="kdenlive:activeeffect">0</property>
   <filter id="filter149">
    <property name="rotate_center">1</property>
    <property name="mlt_service">qtblend</property>
    <property name="kdenlive_id">qtblend</property>
    <property name="rect">00:00:00.000=-44 -36 270 216 1.000000</property>
    <property name="rotation">00:00:00.000=0</property>
    <property name="compositing">0</property>
    <property name="distort">0</property>
    <property name="kdenlive:collapsed">0</property>
   </filter>
   <filter id="filter150">
    <property name="version">0.1</property>
    <property name="mlt_service">frei0r.flippo</property>
    <property name="kdenlive_id">frei0r.flippo</property>
    <property name="X axis">1</property>
    <property name="Y axis">0</property>
    <property name="kdenlive:collapsed">0</property>
   </filter>
  </entry>
  <entry producer="producer137" in="00:00:00.000" out="00:00:02.200">
   <property name="kdenlive:id">63</property>
   <property name="kdenlive:activeeffect">0</property>
   <filter id="filter151">
    <property name="rotate_center">1</property>
    <property name="mlt_service">qtblend</property>
    <property name="kdenlive_id">qtblend</property>
    <property name="rect">00:00:00.000=-22 -18 225 180 1.000000</property>
    <property name="rotation">00:00:00.000=0</property>
    <property name="compositing">0</property>
    <property name="distort">0</property>
    <property name="kdenlive:collapsed">0</property>
   </filter>
  </entry>
  <entry producer="producer137" in="00:00:00.000" out="00:00:02.200">
   <property name="kdenlive:id">63</property>
   <property name="kdenlive:activeeffect">0</property>
   <filter id="filter152">
    <property name="rotate_center">1</property>
    <property name="mlt_service">qtblend</property>
    <property name="kdenlive_id">qtblend</property>
    <property name="rect">00:00:00.000=-44 -29 270 216 1.000000</property>
    <property name="rotation">00:00:00.000=0</property>
    <property name="compositing">0</property>
    <property name="distort">0</property>
    <property name="kdenlive:collapsed">0</property>
   </filter>
   <filter id="filter153">
    <property name="version">0.1</property>
    <property name="mlt_service">frei0r.flippo</property>
    <property name="kdenlive_id">frei0r.flippo</property>
    <property name="X axis">1</property>
    <property name="Y axis">0</property>
    <property name="kdenlive:collapsed">0</property>
   </filter>
  </entry>
  <blank length="00:00:00.480"/>
  <entry producer="producer138" in="00:00:00.000" out="00:00:03.200">
   <property name="kdenlive:id">64</property>
   <property name="kdenlive:activeeffect">0</property>
   <filter id="filter154">
    <property name="rotate_center">1</property>
    <property name="mlt_service">qtblend</property>
    <property name="kdenlive_id">qtblend</property>
    <property name="rect">00:00:00.000=-17 -18 225 180 1.000000</property>
    <property name="rotation">00:00:00.000=0</property>
    <property name="compositing">0</property>
    <property name="distort">0</property>
    <property name="kdenlive:collapsed">0</property>
   </filter>
  </entry>
  <entry producer="producer138" in="00:00:00.000" out="00:00:03.200">
   <property name="kdenlive:id">64</property>
   <property name="kdenlive:activeeffect">0</property>
   <filter id="filter155">
    <property name="rotate_center">1</property>
    <property name="mlt_service">qtblend</property>
    <property name="kdenlive_id">qtblend</property>
    <property name="rect">00:00:00.000=-22 -36 270 216 1.000000</property>
    <property name="rotation">00:00:00.000=0</property>
    <property name="compositing">0</property>
    <property name="distort">0</property>
    <property name="kdenlive:collapsed">0</property>
   </filter>
   <filter id="filter156">
    <property name="version">0.1</property>
    <property name="mlt_service">frei0r.flippo</property>
    <property name="kdenlive_id">frei0r.flippo</property>
    <property name="X axis">1</property>
    <property name="Y axis">0</property>
    <property name="kdenlive:collapsed">0</property>
   </filter>
  </entry>
  <entry producer="producer139" in="00:00:00.000" out="00:00:02.000">
   <property name="kdenlive:id">65</property>
   <property name="kdenlive:activeeffect">0</property>
   <filter id="filter157">
    <property name="rotate_center">1</property>
    <property name="mlt_service">qtblend</property>
    <property name="kdenlive_id">qtblend</property>
    <property name="rect">00:00:00.000=0 -18 225 180 1.000000</property>
    <property name="rotation">00:00:00.000=0</property>
    <property name="compositing">0</property>
    <property name="distort">0</property>
    <property name="kdenlive:collapsed">0</property>
   </filter>
  </entry>
  <entry producer="producer139" in="00:00:00.000" out="00:00:02.000">
   <property name="kdenlive:id">65</property>
   <property name="kdenlive:activeeffect">0</property>
   <filter id="filter158">
    <property name="rotate_center">1</property>
    <property name="mlt_service">qtblend</property>
    <property name="kdenlive_id">qtblend</property>
    <property name="rect">00:00:00.000=-39 -36 270 216 1.000000</property>
    <property name="rotation">00:00:00.000=0</property>
    <property name="compositing">0</property>
    <property name="distort">0</property>
    <property name="kdenlive:collapsed">0</property>
   </filter>
   <filter id="filter159">
    <property name="version">0.1</property>
    <property name="mlt_service">frei0r.flippo</property>
    <property name="kdenlive_id">frei0r.flippo</property>
    <property name="X axis">1</property>
    <property name="Y axis">0</property>
    <property name="kdenlive:collapsed">0</property>
   </filter>
  </entry>
  <entry producer="producer140" in="00:00:00.000" out="00:00:02.120">
   <property name="kdenlive:id">66</property>
   <property name="kdenlive:activeeffect">0</property>
   <filter id="filter160">
    <property name="rotate_center">1</property>
    <property name="mlt_service">qtblend</property>
    <property name="kdenlive_id">qtblend</property>
    <property name="rect">00:00:00.000=-5 -18 225 180 1.000000</property>
    <property name="rotation">00:00:00.000=0</property>
    <property name="compositing">0</property>
    <property name="distort">0</property>
    <property name="kdenlive:collapsed">0</property>
   </filter>
  </entry>
  <entry producer="producer140" in="00:00:00.000" out="00:00:02.120">
   <property name="kdenlive:id">66</property>
   <property name="kdenlive:activeeffect">0</property>
   <filter id="filter161">
    <property name="rotate_center">1</property>
    <property name="mlt_service">qtblend</property>
    <property name="kdenlive_id">qtblend</property>
    <property name="rect">00:00:00.000=-48 -36 270 216 1.000000</property>
    <property name="rotation">00:00:00.000=0</property>
    <property name="compositing">0</property>
    <property name="distort">0</property>
    <property name="kdenlive:collapsed">0</property>
   </filter>
   <filter id="filter162">
    <property name="version">0.1</property>
    <property name="mlt_service">frei0r.flippo</property>
    <property name="kdenlive_id">frei0r.flippo</property>
    <property name="X axis">1</property>
    <property name="Y axis">0</property>
    <property name="kdenlive:collapsed">0</property>
   </filter>
  </entry>
  <entry producer="producer141" in="00:00:00.000" out="00:00:02.640">
   <property name="kdenlive:id">67</property>
   <property name="kdenlive:activeeffect">0</property>
   <filter id="filter163">
    <property name="rotate_center">1</property>
    <property name="mlt_service">qtblend</property>
    <property name="kdenlive_id">qtblend</property>
    <property name="rect">00:00:00.000=-45 -18 225 180 1.000000</property>
    <property name="rotation">00:00:00.000=0</property>
    <property name="compositing">0</property>
    <property name="distort">0</property>
    <property name="kdenlive:collapsed">0</property>
   </filter>
  </entry>
  <entry producer="producer141" in="00:00:00.000" out="00:00:02.640">
   <property name="kdenlive:id">67</property>
   <property name="kdenlive:activeeffect">0</property>
   <filter id="filter164">
    <property name="rotate_center">1</property>
    <property name="mlt_service">qtblend</property>
    <property name="kdenlive_id">qtblend</property>
    <property name="rect">00:00:00.000=-24 -36 270 216 1.000000</property>
    <property name="rotation">00:00:00.000=0</property>
    <property name="compositing">0</property>
    <property name="distort">0</property>
    <property name="kdenlive:collapsed">0</property>
   </filter>
   <filter id="filter165">
    <property name="version">0.1</property>
    <property name="mlt_service">frei0r.flippo</property>
    <property name="kdenlive_id">frei0r.flippo</property>
    <property name="X axis">1</property>
    <property name="Y axis">0</property>
    <property name="kdenlive:collapsed">0</property>
   </filter>
  </entry>
  <entry producer="producer142" in="00:00:00.000" out="00:00:04.520">
   <property name="kdenlive:id">68</property>
   <property name="kdenlive:activeeffect">0</property>
   <filter id="filter166">
    <property name="rotate_center">1</property>
    <property name="mlt_service">qtblend</property>
    <property name="kdenlive_id">qtblend</property>
    <property name="rect">00:00:00.000=0 -18 225 180 1.000000</property>
    <property name="rotation">00:00:00.000=0</property>
    <property name="compositing">0</property>
    <property name="distort">0</property>
    <property name="kdenlive:collapsed">0</property>
   </filter>
  </entry>
  <entry producer="producer142" in="00:00:00.000" out="00:00:04.520">
   <property name="kdenlive:id">68</property>
   <filter id="filter167">
    <property name="rotate_center">1</property>
    <property name="mlt_service">qtblend</property>
    <property name="kdenlive_id">qtblend</property>
    <property name="rect">00:00:00.000=-42 -36 270 216 1.000000</property>
    <property name="rotation">00:00:00.000=0</property>
    <property name="compositing">0</property>
    <property name="distort">0</property>
    <property name="kdenlive:collapsed">0</property>
   </filter>
  </entry>
  <entry producer="producer143" in="00:00:00.000" out="00:00:03.120">
   <property name="kdenlive:id">69</property>
   <property name="kdenlive:activeeffect">0</property>
   <filter id="filter168">
    <property name="rotate_center">1</property>
    <property name="mlt_service">qtblend</property>
    <property name="kdenlive_id">qtblend</property>
    <property name="rect">00:00:00.000=-29 -18 225 180 1.000000</property>
    <property name="rotation">00:00:00.000=0</property>
    <property name="compositing">0</property>
    <property name="distort">0</property>
    <property name="kdenlive:collapsed">0</property>
   </filter>
  </entry>
  <entry producer="producer143" in="00:00:00.000" out="00:00:03.120">
   <property name="kdenlive:id">69</property>
   <property name="kdenlive:activeeffect">0</property>
   <filter id="filter169">
    <property name="rotate_center">1</property>
    <property name="mlt_service">qtblend</property>
    <property name="kdenlive_id">qtblend</property>
    <property name="rect">00:00:00.000=-44 -36 270 216 1.000000</property>
    <property name="rotation">00:00:00.000=0</property>
    <property name="compositing">0</property>
    <property name="distort">0</property>
    <property name="kdenlive:collapsed">0</property>
   </filter>
   <filter id="filter170">
    <property name="version">0.1</property>
    <property name="mlt_service">frei0r.flippo</property>
    <property name="kdenlive_id">frei0r.flippo</property>
    <property name="X axis">1</property>
    <property name="Y axis">0</property>
    <property name="kdenlive:collapsed">0</property>
   </filter>
  </entry>
  <blank length="00:00:00.640"/>
  <entry producer="producer144" in="00:00:00.520" out="00:00:03.320">
   <property name="kdenlive:id">70</property>
   <property name="kdenlive:activeeffect">0</property>
   <filter id="filter171">
    <property name="rotate_center">1</property>
    <property name="mlt_service">qtblend</property>
    <property name="kdenlive_id">qtblend</property>
    <property name="rect">00:00:00.520=-22 -18 225 180 1.000000</property>
    <property name="rotation">00:00:00.520=0</property>
    <property name="compositing">0</property>
    <property name="distort">0</property>
    <property name="kdenlive:collapsed">0</property>
   </filter>
  </entry>
  <entry producer="producer144" in="00:00:00.520" out="00:00:03.320">
   <property name="kdenlive:id">70</property>
   <property name="kdenlive:activeeffect">0</property>
   <filter id="filter172">
    <property name="rotate_center">1</property>
    <property name="mlt_service">qtblend</property>
    <property name="kdenlive_id">qtblend</property>
    <property name="rect">00:00:00.520=-44 -36 270 216 1.000000</property>
    <property name="rotation">00:00:00.520=0</property>
    <property name="compositing">0</property>
    <property name="distort">0</property>
    <property name="kdenlive:collapsed">0</property>
   </filter>
   <filter id="filter173">
    <property name="version">0.1</property>
    <property name="mlt_service">frei0r.flippo</property>
    <property name="kdenlive_id">frei0r.flippo</property>
    <property name="X axis">1</property>
    <property name="Y axis">0</property>
    <property name="kdenlive:collapsed">0</property>
   </filter>
  </entry>
  <entry producer="producer145" in="00:00:00.760" out="00:00:02.680">
   <property name="kdenlive:id">71</property>
   <property name="kdenlive:activeeffect">0</property>
   <filter id="filter174">
    <property name="rotate_center">1</property>
    <property name="mlt_service">qtblend</property>
    <property name="kdenlive_id">qtblend</property>
    <property name="rect">00:00:00.760=-22 -18 225 180 1.000000</property>
    <property name="rotation">00:00:00.760=0</property>
    <property name="compositing">0</property>
    <property name="distort">0</property>
    <property name="kdenlive:collapsed">0</property>
   </filter>
  </entry>
  <entry producer="producer145" in="00:00:00.760" out="00:00:02.680">
   <property name="kdenlive:id">71</property>
   <property name="kdenlive:activeeffect">0</property>
   <filter id="filter175">
    <property name="rotate_center">1</property>
    <property name="mlt_service">qtblend</property>
    <property name="kdenlive_id">qtblend</property>
    <property name="rect">00:00:00.760=-44 -36 270 216 1.000000</property>
    <property name="rotation">00:00:00.760=0</property>
    <property name="compositing">0</property>
    <property name="distort">0</property>
    <property name="kdenlive:collapsed">0</property>
   </filter>
   <filter id="filter176">
    <property name="version">0.1</property>
    <property name="mlt_service">frei0r.flippo</property>
    <property name="kdenlive_id">frei0r.flippo</property>
    <property name="X axis">1</property>
    <property name="Y axis">0</property>
    <property name="kdenlive:collapsed">0</property>
   </filter>
  </entry>
  <entry producer="producer146" in="00:00:00.640" out="00:00:02.840">
   <property name="kdenlive:id">72</property>
   <property name="kdenlive:activeeffect">0</property>
   <filter id="filter177">
    <property name="rotate_center">1</property>
    <property name="mlt_service">qtblend</property>
    <property name="kdenlive_id">qtblend</property>
    <property name="rect">00:00:00.640=-22 -5 225 180 1.000000</property>
    <property name="rotation">00:00:00.640=0</property>
    <property name="compositing">0</property>
    <property name="distort">0</property>
    <property name="kdenlive:collapsed">0</property>
   </filter>
  </entry>
  <entry producer="producer146" in="00:00:00.640" out="00:00:02.840">
   <property name="kdenlive:id">72</property>
   <property name="kdenlive:activeeffect">0</property>
   <filter id="filter178">
    <property name="rotate_center">1</property>
    <property name="mlt_service">qtblend</property>
    <property name="kdenlive_id">qtblend</property>
    <property name="rect">00:00:00.640=-44 -23 270 216 1.000000</property>
    <property name="rotation">00:00:00.640=0</property>
    <property name="compositing">0</property>
    <property name="distort">0</property>
    <property name="kdenlive:collapsed">0</property>
   </filter>
   <filter id="filter179">
    <property name="version">0.1</property>
    <property name="mlt_service">frei0r.flippo</property>
    <property name="kdenlive_id">frei0r.flippo</property>
    <property name="X axis">1</property>
    <property name="Y axis">0</property>
    <property name="kdenlive:collapsed">0</property>
   </filter>
  </entry>
  <entry producer="producer147" in="00:00:00.680" out="00:00:01.680">
   <property name="kdenlive:id">73</property>
   <property name="kdenlive:activeeffect">0</property>
   <filter id="filter180">
    <property name="rotate_center">1</property>
    <property name="mlt_service">qtblend</property>
    <property name="kdenlive_id">qtblend</property>
    <property name="rect">00:00:00.680=-22 -18 225 180 1.000000</property>
    <property name="rotation">00:00:00.680=0</property>
    <property name="compositing">0</property>
    <property name="distort">0</property>
    <property name="kdenlive:collapsed">0</property>
   </filter>
  </entry>
  <entry producer="producer147" in="00:00:00.680" out="00:00:01.680">
   <property name="kdenlive:id">73</property>
   <property name="kdenlive:activeeffect">0</property>
   <filter id="filter181">
    <property name="rotate_center">1</property>
    <property name="mlt_service">qtblend</property>
    <property name="kdenlive_id">qtblend</property>
    <property name="rect">00:00:00.680=-44 -36 270 216 1.000000</property>
    <property name="rotation">00:00:00.680=0</property>
    <property name="compositing">0</property>
    <property name="distort">0</property>
    <property name="kdenlive:collapsed">0</property>
   </filter>
   <filter id="filter182">
    <property name="version">0.1</property>
    <property name="mlt_service">frei0r.flippo</property>
    <property name="kdenlive_id">frei0r.flippo</property>
    <property name="X axis">1</property>
    <property name="Y axis">0</property>
    <property name="kdenlive:collapsed">0</property>
   </filter>
  </entry>
  <entry producer="producer148" in="00:00:01.200" out="00:00:03.480">
   <property name="kdenlive:id">74</property>
   <property name="kdenlive:activeeffect">0</property>
   <filter id="filter183">
    <property name="rotate_center">1</property>
    <property name="mlt_service">qtblend</property>
    <property name="kdenlive_id">qtblend</property>
    <property name="rect">00:00:01.200=-23 -18 225 180 1.000000</property>
    <property name="rotation">00:00:01.200=0</property>
    <property name="compositing">0</property>
    <property name="distort">0</property>
    <property name="kdenlive:collapsed">0</property>
   </filter>
  </entry>
  <entry producer="producer148" in="00:00:01.200" out="00:00:03.480">
   <property name="kdenlive:id">74</property>
   <property name="kdenlive:activeeffect">0</property>
   <filter id="filter184">
    <property name="rotate_center">1</property>
    <property name="mlt_service">qtblend</property>
    <property name="kdenlive_id">qtblend</property>
    <property name="rect">00:00:01.200=-45 -36 270 216 1.000000</property>
    <property name="rotation">00:00:01.200=0</property>
    <property name="compositing">0</property>
    <property name="distort">0</property>
    <property name="kdenlive:collapsed">0</property>
   </filter>
   <filter id="filter185">
    <property name="version">0.1</property>
    <property name="mlt_service">frei0r.flippo</property>
    <property name="kdenlive_id">frei0r.flippo</property>
    <property name="X axis">1</property>
    <property name="Y axis">0</property>
    <property name="kdenlive:collapsed">0</property>
   </filter>
  </entry>
  <entry producer="producer149" in="00:00:00.680" out="00:00:02.880">
   <property name="kdenlive:id">75</property>
   <property name="kdenlive:activeeffect">0</property>
   <filter id="filter186">
    <property name="rotate_center">1</property>
    <property name="mlt_service">qtblend</property>
    <property name="kdenlive_id">qtblend</property>
    <property name="rect">00:00:00.680=-22 -13 225 180 1.000000</property>
    <property name="rotation">00:00:00.680=0</property>
    <property name="compositing">0</property>
    <property name="distort">0</property>
    <property name="kdenlive:collapsed">0</property>
   </filter>
  </entry>
  <entry producer="producer149" in="00:00:00.680" out="00:00:02.880">
   <property name="kdenlive:id">75</property>
   <property name="kdenlive:activeeffect">1</property>
   <filter id="filter187">
    <property name="rotate_center">1</property>
    <property name="mlt_service">qtblend</property>
    <property name="kdenlive_id">qtblend</property>
    <property name="rect">00:00:00.680=-44 -31 270 216 1.000000</property>
    <property name="rotation">00:00:00.680=0</property>
    <property name="compositing">0</property>
    <property name="distort">0</property>
    <property name="kdenlive:collapsed">0</property>
   </filter>
   <filter id="filter188">
    <property name="version">0.1</property>
    <property name="mlt_service">frei0r.flippo</property>
    <property name="kdenlive_id">frei0r.flippo</property>
    <property name="X axis">1</property>
    <property name="Y axis">0</property>
    <property name="kdenlive:collapsed">0</property>
   </filter>
  </entry>
  <blank length="00:00:08.320"/>
  <entry producer="producer150" in="00:00:00.280" out="00:00:02.480">
   <property name="kdenlive:id">78</property>
   <property name="kdenlive:activeeffect">1</property>
   <filter id="filter189">
    <property name="rotate_center">1</property>
    <property name="mlt_service">qtblend</property>
    <property name="kdenlive_id">qtblend</property>
    <property name="rect">00:00:00.280=-35 -17 225 180 1.000000</property>
    <property name="rotation">00:00:00.280=0</property>
    <property name="compositing">0</property>
    <property name="distort">0</property>
    <property name="kdenlive:collapsed">0</property>
   </filter>
   <filter id="filter190">
    <property name="version">0.1</property>
    <property name="mlt_service">frei0r.flippo</property>
    <property name="kdenlive_id">frei0r.flippo</property>
    <property name="X axis">1</property>
    <property name="Y axis">0</property>
    <property name="kdenlive:collapsed">0</property>
   </filter>
  </entry>
  <entry producer="producer151" in="00:00:00.200" out="00:00:02.400">
   <property name="kdenlive:id">79</property>
   <property name="kdenlive:activeeffect">0</property>
   <filter id="filter191">
    <property name="rotate_center">1</property>
    <property name="mlt_service">qtblend</property>
    <property name="kdenlive_id">qtblend</property>
    <property name="rect">00:00:00.200=-26 -44 270 216 1.000000</property>
    <property name="rotation">00:00:00.200=0</property>
    <property name="compositing">0</property>
    <property name="distort">0</property>
    <property name="kdenlive:collapsed">0</property>
   </filter>
   <filter id="filter192">
    <property name="version">0.1</property>
    <property name="mlt_service">frei0r.flippo</property>
    <property name="kdenlive_id">frei0r.flippo</property>
    <property name="X axis">1</property>
    <property name="Y axis">0</property>
    <property name="kdenlive:collapsed">0</property>
   </filter>
  </entry>
  <entry producer="producer152" in="00:00:00.400" out="00:00:02.400">
   <property name="kdenlive:id">80</property>
   <property name="kdenlive:activeeffect">0</property>
   <filter id="filter193">
    <property name="rotate_center">1</property>
    <property name="mlt_service">qtblend</property>
    <property name="kdenlive_id">qtblend</property>
    <property name="rect">00:00:00.400=0 -18 225 180 1.000000</property>
    <property name="rotation">00:00:00.400=0</property>
    <property name="compositing">0</property>
    <property name="distort">0</property>
    <property name="kdenlive:collapsed">0</property>
   </filter>
   <filter id="filter194">
    <property name="version">0.1</property>
    <property name="mlt_service">frei0r.flippo</property>
    <property name="kdenlive_id">frei0r.flippo</property>
    <property name="X axis">1</property>
    <property name="Y axis">0</property>
    <property name="kdenlive:collapsed">0</property>
   </filter>
  </entry>
  <blank length="00:00:00.280"/>
  <entry producer="producer153" in="00:00:00.000" out="00:00:01.520">
   <property name="kdenlive:id">82</property>
   <property name="kdenlive:activeeffect">0</property>
   <filter id="filter195">
    <property name="rotate_center">1</property>
    <property name="mlt_service">qtblend</property>
    <property name="kdenlive_id">qtblend</property>
    <property name="rect">00:00:00.000=-22 -18 225 180 1.000000</property>
    <property name="rotation">00:00:00.000=0</property>
    <property name="compositing">0</property>
    <property name="distort">0</property>
    <property name="kdenlive:collapsed">0</property>
   </filter>
  </entry>
  <entry producer="producer154" in="00:00:00.000" out="00:00:01.800">
   <property name="kdenlive:id">83</property>
   <property name="kdenlive:activeeffect">0</property>
   <filter id="filter196">
    <property name="rotate_center">1</property>
    <property name="mlt_service">qtblend</property>
    <property name="kdenlive_id">qtblend</property>
    <property name="rect">00:00:00.000=-45 -43 270 216 1.000000</property>
    <property name="rotation">00:00:00.000=0</property>
    <property name="compositing">0</property>
    <property name="distort">0</property>
    <property name="kdenlive:collapsed">0</property>
   </filter>
  </entry>
  <entry producer="producer155" in="00:00:00.000" out="00:00:01.680">
   <property name="kdenlive:id">84</property>
   <property name="kdenlive:activeeffect">0</property>
   <filter id="filter197">
    <property name="rotate_center">1</property>
    <property name="mlt_service">qtblend</property>
    <property name="kdenlive_id">qtblend</property>
    <property name="rect">00:00:00.000=-45 -36 270 216 1.000000</property>
    <property name="rotation">00:00:00.000=0</property>
    <property name="compositing">0</property>
    <property name="distort">0</property>
    <property name="kdenlive:collapsed">0</property>
   </filter>
  </entry>
  <blank length="00:00:00.240"/>
  <entry producer="producer156" in="00:00:00.000" out="00:00:01.560">
   <property name="kdenlive:id">86</property>
   <property name="kdenlive:activeeffect">0</property>
   <filter id="filter198">
    <property name="rotate_center">1</property>
    <property name="mlt_service">qtblend</property>
    <property name="kdenlive_id">qtblend</property>
    <property name="rect">00:00:00.000=-22 -18 225 180 1.000000</property>
    <property name="rotation">00:00:00.000=0</property>
    <property name="compositing">0</property>
    <property name="distort">0</property>
    <property name="kdenlive:collapsed">0</property>
   </filter>
  </entry>
  <entry producer="producer157" in="00:00:00.000" out="00:00:01.520">
   <property name="kdenlive:id">87</property>
   <property name="kdenlive:activeeffect">0</property>
   <filter id="filter199">
    <property name="rotate_center">1</property>
    <property name="mlt_service">qtblend</property>
    <property name="kdenlive_id">qtblend</property>
    <property name="rect">00:00:00.000=-22 -18 225 180 1.000000</property>
    <property name="rotation">00:00:00.000=0</property>
    <property name="compositing">0</property>
    <property name="distort">0</property>
    <property name="kdenlive:collapsed">0</property>
   </filter>
  </entry>
  <entry producer="producer158" in="00:00:00.000" out="00:00:01.480">
   <property name="kdenlive:id">88</property>
   <property name="kdenlive:activeeffect">0</property>
   <filter id="filter200">
    <property name="rotate_center">1</property>
    <property name="mlt_service">qtblend</property>
    <property name="kdenlive_id">qtblend</property>
    <property name="rect">00:00:00.000=-45 -36 270 216 1.000000</property>
    <property name="rotation">00:00:00.000=0</property>
    <property name="compositing">0</property>
    <property name="distort">0</property>
    <property name="kdenlive:collapsed">0</property>
   </filter>
  </entry>
  <blank length="00:00:00.200"/>
  <entry producer="producer159" in="00:00:00.000" out="00:00:02.160">
   <property name="kdenlive:id">90</property>
   <property name="kdenlive:activeeffect">0</property>
   <filter id="filter201">
    <property name="rotate_center">1</property>
    <property name="mlt_service">qtblend</property>
    <property name="kdenlive_id">qtblend</property>
    <property name="rect">00:00:00.000=-1 -18 225 180 1.000000</property>
    <property name="rotation">00:00:00.000=0</property>
    <property name="compositing">0</property>
    <property name="distort">0</property>
    <property name="kdenlive:collapsed">0</property>
   </filter>
  </entry>
  <entry producer="producer160" in="00:00:00.000" out="00:00:01.760">
   <property name="kdenlive:id">91</property>
   <property name="kdenlive:activeeffect">0</property>
   <filter id="filter202">
    <property name="rotate_center">1</property>
    <property name="mlt_service">qtblend</property>
    <property name="kdenlive_id">qtblend</property>
    <property name="rect">00:00:00.000=-4 -36 270 216 1.000000</property>
    <property name="rotation">00:00:00.000=0</property>
    <property name="compositing">0</property>
    <property name="distort">0</property>
    <property name="kdenlive:collapsed">0</property>
   </filter>
  </entry>
  <entry producer="producer161" in="00:00:00.000" out="00:00:02.200">
   <property name="kdenlive:id">92</property>
   <property name="kdenlive:activeeffect">0</property>
   <filter id="filter203">
    <property name="rotate_center">1</property>
    <property name="mlt_service">qtblend</property>
    <property name="kdenlive_id">qtblend</property>
    <property name="rect">00:00:00.000=-5 -36 270 216 1.000000</property>
    <property name="rotation">00:00:00.000=0</property>
    <property name="compositing">0</property>
    <property name="distort">0</property>
    <property name="kdenlive:collapsed">0</property>
   </filter>
  </entry>
  <blank length="00:00:00.200"/>
  <entry producer="producer162" in="00:00:00.000" out="00:00:02.200">
   <property name="kdenlive:id">94</property>
   <property name="kdenlive:activeeffect">0</property>
   <filter id="filter204">
    <property name="rotate_center">1</property>
    <property name="mlt_service">qtblend</property>
    <property name="kdenlive_id">qtblend</property>
    <property name="rect">00:00:00.000=-45 -36 270 216 1.000000</property>
    <property name="rotation">00:00:00.000=0</property>
    <property name="compositing">0</property>
    <property name="distort">0</property>
    <property name="kdenlive:collapsed">0</property>
   </filter>
  </entry>
  <entry producer="producer163" in="00:00:00.000" out="00:00:04.160">
   <property name="kdenlive:id">95</property>
   <property name="kdenlive:activeeffect">0</property>
   <filter id="filter205">
    <property name="rotate_center">1</property>
    <property name="mlt_service">qtblend</property>
    <property name="kdenlive_id">qtblend</property>
    <property name="rect">00:00:00.000=-1 -18 225 180 1.000000</property>
    <property name="rotation">00:00:00.000=0</property>
    <property name="compositing">0</property>
    <property name="distort">0</property>
    <property name="kdenlive:collapsed">0</property>
   </filter>
  </entry>
  <entry producer="producer164" in="00:00:00.000" out="00:00:04.080">
   <property name="kdenlive:id">96</property>
   <property name="kdenlive:activeeffect">0</property>
   <filter id="filter206">
    <property name="rotate_center">1</property>
    <property name="mlt_service">qtblend</property>
    <property name="kdenlive_id">qtblend</property>
    <property name="rect">00:00:00.000=0 -18 270 216 1.000000</property>
    <property name="rotation">00:00:00.000=0</property>
    <property name="compositing">0</property>
    <property name="distort">0</property>
    <property name="kdenlive:collapsed">0</property>
   </filter>
  </entry>
  <blank length="00:00:00.400"/>
  <entry producer="producer165" in="00:00:00.000" out="00:00:02.120">
   <property name="kdenlive:id">98</property>
   <property name="kdenlive:activeeffect">1</property>
   <filter id="filter207">
    <property name="rotate_center">1</property>
    <property name="mlt_service">qtblend</property>
    <property name="kdenlive_id">qtblend</property>
    <property name="rect">00:00:00.000=0 -18 225 180 1.000000</property>
    <property name="rotation">00:00:00.000=0</property>
    <property name="compositing">0</property>
    <property name="distort">0</property>
    <property name="kdenlive:collapsed">0</property>
   </filter>
   <filter id="filter208">
    <property name="version">0.1</property>
    <property name="mlt_service">frei0r.flippo</property>
    <property name="kdenlive_id">frei0r.flippo</property>
    <property name="X axis">1</property>
    <property name="Y axis">0</property>
    <property name="kdenlive:collapsed">0</property>
   </filter>
  </entry>
  <entry producer="producer166" in="00:00:00.000" out="00:00:02.360">
   <property name="kdenlive:id">99</property>
   <property name="kdenlive:activeeffect">1</property>
   <filter id="filter209">
    <property name="rotate_center">1</property>
    <property name="mlt_service">qtblend</property>
    <property name="kdenlive_id">qtblend</property>
    <property name="rect">00:00:00.000=-22 -18 225 180 1.000000</property>
    <property name="rotation">00:00:00.000=0</property>
    <property name="compositing">0</property>
    <property name="distort">0</property>
    <property name="kdenlive:collapsed">0</property>
   </filter>
   <filter id="filter210">
    <property name="version">0.1</property>
    <property name="mlt_service">frei0r.flippo</property>
    <property name="kdenlive_id">frei0r.flippo</property>
    <property name="X axis">1</property>
    <property name="Y axis">0</property>
    <property name="kdenlive:collapsed">0</property>
   </filter>
  </entry>
  <entry producer="producer167" in="00:00:00.000" out="00:00:02.400">
   <property name="kdenlive:id">100</property>
   <property name="kdenlive:activeeffect">1</property>
   <filter id="filter211">
    <property name="rotate_center">1</property>
    <property name="mlt_service">qtblend</property>
    <property name="kdenlive_id">qtblend</property>
    <property name="rect">00:00:00.000=0 -36 270 216 1.000000</property>
    <property name="rotation">00:00:00.000=0</property>
    <property name="compositing">0</property>
    <property name="distort">0</property>
    <property name="kdenlive:collapsed">0</property>
   </filter>
   <filter id="filter212">
    <property name="version">0.1</property>
    <property name="mlt_service">frei0r.flippo</property>
    <property name="kdenlive_id">frei0r.flippo</property>
    <property name="X axis">1</property>
    <property name="Y axis">0</property>
    <property name="kdenlive:collapsed">0</property>
   </filter>
  </entry>
  <blank length="00:00:00.480"/>
  <entry producer="producer168" in="00:00:00.000" out="00:00:01.400">
   <property name="kdenlive:id">102</property>
   <property name="kdenlive:activeeffect">0</property>
   <filter id="filter213">
    <property name="rotate_center">1</property>
    <property name="mlt_service">qtblend</property>
    <property name="kdenlive_id">qtblend</property>
    <property name="rect">00:00:00.000=0 0 180 144 1</property>
    <property name="rotation">00:00:00.000=0</property>
    <property name="compositing">0</property>
    <property name="distort">0</property>
    <property name="kdenlive:collapsed">0</property>
   </filter>
  </entry>
  <entry producer="producer169" in="00:00:00.000" out="00:00:01.600">
   <property name="kdenlive:id">103</property>
   <property name="kdenlive:activeeffect">0</property>
   <filter id="filter214">
    <property name="rotate_center">1</property>
    <property name="mlt_service">qtblend</property>
    <property name="kdenlive_id">qtblend</property>
    <property name="rect">00:00:00.000=-22 -11 225 180 1.000000</property>
    <property name="rotation">00:00:00.000=0</property>
    <property name="compositing">0</property>
    <property name="distort">0</property>
    <property name="kdenlive:collapsed">0</property>
   </filter>
  </entry>
  <entry producer="producer170" in="00:00:00.000" out="00:00:01.760">
   <property name="kdenlive:id">104</property>
   <property name="kdenlive:activeeffect">0</property>
   <filter id="filter215">
    <property name="rotate_center">1</property>
    <property name="mlt_service">qtblend</property>
    <property name="kdenlive_id">qtblend</property>
    <property name="rect">00:00:00.000=-22 -5 225 180 1.000000</property>
    <property name="rotation">00:00:00.000=0</property>
    <property name="compositing">0</property>
    <property name="distort">0</property>
    <property name="kdenlive:collapsed">0</property>
   </filter>
  </entry>
  <blank length="00:00:00.280"/>
  <entry producer="producer171" in="00:00:00.000" out="00:00:01.440">
   <property name="kdenlive:id">106</property>
   <property name="kdenlive:activeeffect">0</property>
   <filter id="filter216">
    <property name="rotate_center">1</property>
    <property name="mlt_service">qtblend</property>
    <property name="kdenlive_id">qtblend</property>
    <property name="rect">00:00:00.000=-22 -18 225 180 1.000000</property>
    <property name="rotation">00:00:00.000=0</property>
    <property name="compositing">0</property>
    <property name="distort">0</property>
    <property name="kdenlive:collapsed">0</property>
   </filter>
  </entry>
  <entry producer="producer172" in="00:00:00.000" out="00:00:02.120">
   <property name="kdenlive:id">107</property>
   <property name="kdenlive:activeeffect">0</property>
   <filter id="filter217">
    <property name="rotate_center">1</property>
    <property name="mlt_service">qtblend</property>
    <property name="kdenlive_id">qtblend</property>
    <property name="rect">00:00:00.000=-45 -27 270 216 1.000000</property>
    <property name="rotation">00:00:00.000=0</property>
    <property name="compositing">0</property>
    <property name="distort">0</property>
    <property name="kdenlive:collapsed">0</property>
   </filter>
  </entry>
  <entry producer="producer173" in="00:00:00.000" out="00:00:01.760">
   <property name="kdenlive:id">108</property>
   <property name="kdenlive:activeeffect">0</property>
   <filter id="filter218">
    <property name="rotate_center">1</property>
    <property name="mlt_service">qtblend</property>
    <property name="kdenlive_id">qtblend</property>
    <property name="rect">00:00:00.000=-22 -10 225 180 1.000000</property>
    <property name="rotation">00:00:00.000=0</property>
    <property name="compositing">0</property>
    <property name="distort">0</property>
    <property name="kdenlive:collapsed">0</property>
   </filter>
  </entry>
  <blank length="00:00:00.280"/>
  <entry producer="producer174" in="00:00:00.000" out="00:00:02.240">
   <property name="kdenlive:id">110</property>
   <property name="kdenlive:activeeffect">0</property>
   <filter id="filter219">
    <property name="rotate_center">1</property>
    <property name="mlt_service">qtblend</property>
    <property name="kdenlive_id">qtblend</property>
    <property name="rect">00:00:00.000=-22 -18 225 180 1.000000</property>
    <property name="rotation">00:00:00.000=0</property>
    <property name="compositing">0</property>
    <property name="distort">0</property>
    <property name="kdenlive:collapsed">0</property>
   </filter>
  </entry>
  <entry producer="producer175" in="00:00:00.000" out="00:00:02.440">
   <property name="kdenlive:id">111</property>
   <property name="kdenlive:activeeffect">1</property>
   <filter id="filter220">
    <property name="rotate_center">1</property>
    <property name="mlt_service">qtblend</property>
    <property name="kdenlive_id">qtblend</property>
    <property name="rect">00:00:00.000=-45 -38 270 216 1.000000</property>
    <property name="rotation">00:00:00.000=0</property>
    <property name="compositing">0</property>
    <property name="distort">0</property>
    <property name="kdenlive:collapsed">0</property>
   </filter>
   <filter id="filter221">
    <property name="version">0.1</property>
    <property name="mlt_service">frei0r.flippo</property>
    <property name="kdenlive_id">frei0r.flippo</property>
    <property name="X axis">1</property>
    <property name="Y axis">0</property>
    <property name="kdenlive:collapsed">0</property>
   </filter>
  </entry>
  <entry producer="producer176" in="00:00:00.000" out="00:00:02.320">
   <property name="kdenlive:id">112</property>
   <property name="kdenlive:activeeffect">0</property>
   <filter id="filter222">
    <property name="rotate_center">1</property>
    <property name="mlt_service">qtblend</property>
    <property name="kdenlive_id">qtblend</property>
    <property name="rect">00:00:00.000=0 -18 225 180 1.000000</property>
    <property name="rotation">00:00:00.000=0</property>
    <property name="compositing">0</property>
    <property name="distort">0</property>
    <property name="kdenlive:collapsed">0</property>
   </filter>
  </entry>
  <blank length="00:00:00.360"/>
  <entry producer="producer177" in="00:00:00.400" out="00:00:01.960">
   <property name="kdenlive:id">114</property>
   <property name="kdenlive:activeeffect">0</property>
   <filter id="filter223">
    <property name="rotate_center">1</property>
    <property name="mlt_service">qtblend</property>
    <property name="kdenlive_id">qtblend</property>
    <property name="rect">00:00:00.400=-45 -36 270 216 1.000000</property>
    <property name="rotation">00:00:00.400=0</property>
    <property name="compositing">0</property>
    <property name="distort">0</property>
    <property name="kdenlive:collapsed">0</property>
   </filter>
  </entry>
  <entry producer="producer178" in="00:00:00.640" out="00:00:03.080">
   <property name="kdenlive:id">115</property>
   <property name="kdenlive:activeeffect">0</property>
   <filter id="filter224">
    <property name="rotate_center">1</property>
    <property name="mlt_service">qtblend</property>
    <property name="kdenlive_id">qtblend</property>
    <property name="rect">00:00:00.640=-45 -28 270 216 1.000000</property>
    <property name="rotation">00:00:00.640=0</property>
    <property name="compositing">0</property>
    <property name="distort">0</property>
    <property name="kdenlive:collapsed">0</property>
   </filter>
  </entry>
  <entry producer="producer179" in="00:00:01.120" out="00:00:03.280">
   <property name="kdenlive:id">116</property>
   <property name="kdenlive:activeeffect">0</property>
   <filter id="filter225">
    <property name="rotate_center">1</property>
    <property name="mlt_service">qtblend</property>
    <property name="kdenlive_id">qtblend</property>
    <property name="rect">00:00:01.120=-45 -25 270 216 1.000000</property>
    <property name="rotation">00:00:01.120=0</property>
    <property name="compositing">0</property>
    <property name="distort">0</property>
    <property name="kdenlive:collapsed">0</property>
   </filter>
  </entry>
 </playlist>
 <playlist id="playlist5"/>
 <tractor id="tractor2" in="00:00:00.000" out="00:05:56.280">
  <property name="kdenlive:trackheight">52</property>
  <property name="kdenlive:timeline_active">1</property>
  <property name="kdenlive:collapsed">28</property>
  <property name="kdenlive:thumbs_format"/>
  <property name="kdenlive:audio_rec"/>
  <track hide="audio" producer="playlist4"/>
  <track hide="audio" producer="playlist5"/>
 </tractor>
 <playlist id="playlist6"/>
 <playlist id="playlist7"/>
 <tractor id="tractor3" in="00:00:00.000">
  <property name="kdenlive:trackheight">52</property>
  <property name="kdenlive:timeline_active">1</property>
  <property name="kdenlive:collapsed">28</property>
  <property name="kdenlive:thumbs_format"/>
  <property name="kdenlive:audio_rec"/>
  <track hide="audio" producer="playlist6"/>
  <track hide="audio" producer="playlist7"/>
 </tractor>
 <tractor id="tractor4" in="00:00:00.000" out="00:25:56.320">
  <track producer="black_track"/>
  <track producer="tractor0"/>
  <track producer="tractor1"/>
  <track producer="tractor2"/>
  <track producer="tractor3"/>
  <transition id="transition0">
   <property name="a_track">0</property>
   <property name="b_track">1</property>
   <property name="mlt_service">mix</property>
   <property name="kdenlive_id">mix</property>
   <property name="internal_added">237</property>
   <property name="always_active">1</property>
   <property name="accepts_blanks">1</property>
   <property name="sum">1</property>
  </transition>
  <transition id="transition1">
   <property name="a_track">0</property>
   <property name="b_track">2</property>
   <property name="mlt_service">mix</property>
   <property name="kdenlive_id">mix</property>
   <property name="internal_added">237</property>
   <property name="always_active">1</property>
   <property name="accepts_blanks">1</property>
   <property name="sum">1</property>
  </transition>
  <transition id="transition2">
   <property name="a_track">0</property>
   <property name="b_track">3</property>
   <property name="version">0.9</property>
   <property name="mlt_service">frei0r.cairoblend</property>
   <property name="kdenlive_id">frei0r.cairoblend</property>
   <property name="internal_added">237</property>
   <property name="always_active">1</property>
  </transition>
  <transition id="transition3">
   <property name="a_track">0</property>
   <property name="b_track">4</property>
   <property name="version">0.9</property>
   <property name="mlt_service">frei0r.cairoblend</property>
   <property name="kdenlive_id">frei0r.cairoblend</property>
   <property name="internal_added">237</property>
   <property name="always_active">1</property>
  </transition>
  <filter id="filter226">
   <property name="window">75</property>
   <property name="max_gain">20dB</property>
   <property name="mlt_service">volume</property>
   <property name="internal_added">237</property>
   <property name="disable">1</property>
  </filter>
  <filter id="filter227">
   <property name="channel">-1</property>
   <property name="mlt_service">panner</property>
   <property name="internal_added">237</property>
   <property name="start">0.5</property>
   <property name="disable">1</property>
  </filter>
  <filter id="filter228">
   <property name="iec_scale">0</property>
   <property name="mlt_service">audiolevel</property>
   <property name="disable">1</property>
  </filter>
 </tractor>
</mlt>
